G04 (created by PCBNEW (2013-07-07 BZR 4022)-stable) date 6.3.2014 22:13:41*
%MOIN*%
G04 Gerber Fmt 3.4, Leading zero omitted, Abs format*
%FSLAX34Y34*%
G01*
G70*
G90*
G04 APERTURE LIST*
%ADD10C,0.011811*%
%ADD11C,0.00984252*%
%ADD12C,0.0113189*%
%ADD13C,0.0047*%
%ADD14C,0.005*%
%ADD15C,0.0039*%
%ADD16C,0.0051*%
%ADD17C,0.0045*%
%ADD18C,0.0043*%
%ADD19R,0.048X0.048*%
%ADD20R,0.072X0.072*%
%ADD21C,0.0828661*%
%ADD22R,0.067X0.067*%
%ADD23R,0.037X0.057*%
%ADD24R,0.057X0.037*%
%ADD25R,0.112X0.062*%
%ADD26R,0.067X0.047*%
%ADD27R,0.092X0.072*%
%ADD28R,0.162X0.162*%
%ADD29C,0.162*%
%ADD30C,0.24822*%
G04 APERTURE END LIST*
G54D10*
G54D11*
X12426Y-10746D02*
X12314Y-10774D01*
X12126Y-10774D01*
X12051Y-10746D01*
X12014Y-10718D01*
X11976Y-10661D01*
X11976Y-10605D01*
X12014Y-10549D01*
X12051Y-10521D01*
X12126Y-10493D01*
X12276Y-10465D01*
X12351Y-10437D01*
X12389Y-10408D01*
X12426Y-10352D01*
X12426Y-10296D01*
X12389Y-10240D01*
X12351Y-10212D01*
X12276Y-10183D01*
X12089Y-10183D01*
X11976Y-10212D01*
X11751Y-10380D02*
X11451Y-10380D01*
X11639Y-10183D02*
X11639Y-10690D01*
X11601Y-10746D01*
X11526Y-10774D01*
X11451Y-10774D01*
X11189Y-10774D02*
X11189Y-10380D01*
X11189Y-10183D02*
X11226Y-10212D01*
X11189Y-10240D01*
X11151Y-10212D01*
X11189Y-10183D01*
X11189Y-10240D01*
X10814Y-10774D02*
X10814Y-10183D01*
X10739Y-10549D02*
X10514Y-10774D01*
X10514Y-10380D02*
X10814Y-10605D01*
X9839Y-10774D02*
X9839Y-10465D01*
X9876Y-10408D01*
X9951Y-10380D01*
X10101Y-10380D01*
X10176Y-10408D01*
X9839Y-10746D02*
X9914Y-10774D01*
X10101Y-10774D01*
X10176Y-10746D01*
X10214Y-10690D01*
X10214Y-10633D01*
X10176Y-10577D01*
X10101Y-10549D01*
X9914Y-10549D01*
X9839Y-10521D01*
X9351Y-10774D02*
X9426Y-10746D01*
X9464Y-10690D01*
X9464Y-10183D01*
X8714Y-10774D02*
X8714Y-10465D01*
X8751Y-10408D01*
X8826Y-10380D01*
X8976Y-10380D01*
X9051Y-10408D01*
X8714Y-10746D02*
X8789Y-10774D01*
X8976Y-10774D01*
X9051Y-10746D01*
X9089Y-10690D01*
X9089Y-10633D01*
X9051Y-10577D01*
X8976Y-10549D01*
X8789Y-10549D01*
X8714Y-10521D01*
X7777Y-10155D02*
X8452Y-10915D01*
X7552Y-10746D02*
X7439Y-10774D01*
X7252Y-10774D01*
X7177Y-10746D01*
X7139Y-10718D01*
X7102Y-10661D01*
X7102Y-10605D01*
X7139Y-10549D01*
X7177Y-10521D01*
X7252Y-10493D01*
X7402Y-10465D01*
X7477Y-10437D01*
X7514Y-10408D01*
X7552Y-10352D01*
X7552Y-10296D01*
X7514Y-10240D01*
X7477Y-10212D01*
X7402Y-10183D01*
X7214Y-10183D01*
X7102Y-10212D01*
X6427Y-10746D02*
X6502Y-10774D01*
X6652Y-10774D01*
X6727Y-10746D01*
X6764Y-10718D01*
X6802Y-10661D01*
X6802Y-10493D01*
X6764Y-10437D01*
X6727Y-10408D01*
X6652Y-10380D01*
X6502Y-10380D01*
X6427Y-10408D01*
X6089Y-10774D02*
X6089Y-10183D01*
X5752Y-10774D02*
X5752Y-10465D01*
X5789Y-10408D01*
X5864Y-10380D01*
X5977Y-10380D01*
X6052Y-10408D01*
X6089Y-10437D01*
X5039Y-10774D02*
X5039Y-10465D01*
X5077Y-10408D01*
X5152Y-10380D01*
X5302Y-10380D01*
X5377Y-10408D01*
X5039Y-10746D02*
X5114Y-10774D01*
X5302Y-10774D01*
X5377Y-10746D01*
X5414Y-10690D01*
X5414Y-10633D01*
X5377Y-10577D01*
X5302Y-10549D01*
X5114Y-10549D01*
X5039Y-10521D01*
X4552Y-10774D02*
X4627Y-10746D01*
X4664Y-10690D01*
X4664Y-10183D01*
X4365Y-10380D02*
X4065Y-10380D01*
X4252Y-10183D02*
X4252Y-10690D01*
X4215Y-10746D01*
X4140Y-10774D01*
X4065Y-10774D01*
X3502Y-10746D02*
X3577Y-10774D01*
X3727Y-10774D01*
X3802Y-10746D01*
X3840Y-10690D01*
X3840Y-10465D01*
X3802Y-10408D01*
X3727Y-10380D01*
X3577Y-10380D01*
X3502Y-10408D01*
X3465Y-10465D01*
X3465Y-10521D01*
X3840Y-10577D01*
X3127Y-10774D02*
X3127Y-10380D01*
X3127Y-10493D02*
X3090Y-10437D01*
X3052Y-10408D01*
X2977Y-10380D01*
X2902Y-10380D01*
X2077Y-10155D02*
X2752Y-10915D01*
X1852Y-10746D02*
X1740Y-10774D01*
X1552Y-10774D01*
X1477Y-10746D01*
X1440Y-10718D01*
X1402Y-10661D01*
X1402Y-10605D01*
X1440Y-10549D01*
X1477Y-10521D01*
X1552Y-10493D01*
X1702Y-10465D01*
X1777Y-10437D01*
X1815Y-10408D01*
X1852Y-10352D01*
X1852Y-10296D01*
X1815Y-10240D01*
X1777Y-10212D01*
X1702Y-10183D01*
X1515Y-10183D01*
X1402Y-10212D01*
X1140Y-10380D02*
X990Y-10774D01*
X840Y-10493D01*
X690Y-10774D01*
X540Y-10380D01*
X240Y-10774D02*
X240Y-10380D01*
X240Y-10183D02*
X278Y-10212D01*
X240Y-10240D01*
X203Y-10212D01*
X240Y-10183D01*
X240Y-10240D01*
X-21Y-10380D02*
X-321Y-10380D01*
X-134Y-10183D02*
X-134Y-10690D01*
X-171Y-10746D01*
X-246Y-10774D01*
X-321Y-10774D01*
X-921Y-10746D02*
X-846Y-10774D01*
X-696Y-10774D01*
X-621Y-10746D01*
X-584Y-10718D01*
X-546Y-10661D01*
X-546Y-10493D01*
X-584Y-10437D01*
X-621Y-10408D01*
X-696Y-10380D01*
X-846Y-10380D01*
X-921Y-10408D01*
X-1259Y-10774D02*
X-1259Y-10183D01*
X-1596Y-10774D02*
X-1596Y-10465D01*
X-1559Y-10408D01*
X-1484Y-10380D01*
X-1371Y-10380D01*
X-1296Y-10408D01*
X-1259Y-10437D01*
X-1971Y-10718D02*
X-2009Y-10746D01*
X-1971Y-10774D01*
X-1934Y-10746D01*
X-1971Y-10718D01*
X-1971Y-10774D01*
X-1971Y-10408D02*
X-2009Y-10437D01*
X-1971Y-10465D01*
X-1934Y-10437D01*
X-1971Y-10408D01*
X-1971Y-10465D01*
X12220Y-11109D02*
X11732Y-11109D01*
X11995Y-11334D01*
X11882Y-11334D01*
X11807Y-11362D01*
X11770Y-11390D01*
X11732Y-11446D01*
X11732Y-11587D01*
X11770Y-11643D01*
X11807Y-11671D01*
X11882Y-11699D01*
X12107Y-11699D01*
X12182Y-11671D01*
X12220Y-11643D01*
X11357Y-11671D02*
X11357Y-11699D01*
X11395Y-11755D01*
X11432Y-11784D01*
X10645Y-11109D02*
X11020Y-11109D01*
X11057Y-11390D01*
X11020Y-11362D01*
X10945Y-11334D01*
X10757Y-11334D01*
X10682Y-11362D01*
X10645Y-11390D01*
X10607Y-11446D01*
X10607Y-11587D01*
X10645Y-11643D01*
X10682Y-11671D01*
X10757Y-11699D01*
X10945Y-11699D01*
X11020Y-11671D01*
X11057Y-11643D01*
X10233Y-11671D02*
X10233Y-11699D01*
X10270Y-11755D01*
X10308Y-11784D01*
X9970Y-11109D02*
X9445Y-11109D01*
X9783Y-11699D01*
X9108Y-11671D02*
X9108Y-11699D01*
X9145Y-11755D01*
X9183Y-11784D01*
X8358Y-11699D02*
X8808Y-11699D01*
X8583Y-11699D02*
X8583Y-11109D01*
X8658Y-11193D01*
X8733Y-11249D01*
X8808Y-11277D01*
X7608Y-11699D02*
X8058Y-11699D01*
X7833Y-11699D02*
X7833Y-11109D01*
X7908Y-11193D01*
X7983Y-11249D01*
X8058Y-11277D01*
X7233Y-11671D02*
X7233Y-11699D01*
X7270Y-11755D01*
X7308Y-11784D01*
X6483Y-11699D02*
X6933Y-11699D01*
X6708Y-11699D02*
X6708Y-11109D01*
X6783Y-11193D01*
X6858Y-11249D01*
X6933Y-11277D01*
X6221Y-11109D02*
X5733Y-11109D01*
X5996Y-11334D01*
X5883Y-11334D01*
X5808Y-11362D01*
X5771Y-11390D01*
X5733Y-11446D01*
X5733Y-11587D01*
X5771Y-11643D01*
X5808Y-11671D01*
X5883Y-11699D01*
X6108Y-11699D01*
X6183Y-11671D01*
X6221Y-11643D01*
X5358Y-11671D02*
X5358Y-11699D01*
X5396Y-11755D01*
X5433Y-11784D01*
X4608Y-11699D02*
X5058Y-11699D01*
X4833Y-11699D02*
X4833Y-11109D01*
X4908Y-11193D01*
X4983Y-11249D01*
X5058Y-11277D01*
X3896Y-11109D02*
X4271Y-11109D01*
X4308Y-11390D01*
X4271Y-11362D01*
X4196Y-11334D01*
X4008Y-11334D01*
X3933Y-11362D01*
X3896Y-11390D01*
X3858Y-11446D01*
X3858Y-11587D01*
X3896Y-11643D01*
X3933Y-11671D01*
X4008Y-11699D01*
X4196Y-11699D01*
X4271Y-11671D01*
X4308Y-11643D01*
X3483Y-11671D02*
X3483Y-11699D01*
X3521Y-11755D01*
X3558Y-11784D01*
X2733Y-11699D02*
X3183Y-11699D01*
X2958Y-11699D02*
X2958Y-11109D01*
X3033Y-11193D01*
X3108Y-11249D01*
X3183Y-11277D01*
X2359Y-11699D02*
X2209Y-11699D01*
X2134Y-11671D01*
X2096Y-11643D01*
X2021Y-11559D01*
X1984Y-11446D01*
X1984Y-11221D01*
X2021Y-11165D01*
X2059Y-11137D01*
X2134Y-11109D01*
X2284Y-11109D01*
X2359Y-11137D01*
X2396Y-11165D01*
X2434Y-11221D01*
X2434Y-11362D01*
X2396Y-11418D01*
X2359Y-11446D01*
X2284Y-11474D01*
X2134Y-11474D01*
X2059Y-11446D01*
X2021Y-11418D01*
X1984Y-11362D01*
X1609Y-11671D02*
X1609Y-11699D01*
X1646Y-11755D01*
X1684Y-11784D01*
X1309Y-11165D02*
X1271Y-11137D01*
X1196Y-11109D01*
X1009Y-11109D01*
X934Y-11137D01*
X896Y-11165D01*
X859Y-11221D01*
X859Y-11277D01*
X896Y-11362D01*
X1346Y-11699D01*
X859Y-11699D01*
X109Y-11699D02*
X559Y-11699D01*
X334Y-11699D02*
X334Y-11109D01*
X409Y-11193D01*
X484Y-11249D01*
X559Y-11277D01*
X-265Y-11671D02*
X-265Y-11699D01*
X-228Y-11755D01*
X-190Y-11784D01*
X-565Y-11165D02*
X-603Y-11137D01*
X-678Y-11109D01*
X-865Y-11109D01*
X-940Y-11137D01*
X-978Y-11165D01*
X-1015Y-11221D01*
X-1015Y-11277D01*
X-978Y-11362D01*
X-528Y-11699D01*
X-1015Y-11699D01*
X-1278Y-11109D02*
X-1765Y-11109D01*
X-1503Y-11334D01*
X-1615Y-11334D01*
X-1690Y-11362D01*
X-1727Y-11390D01*
X-1765Y-11446D01*
X-1765Y-11587D01*
X-1727Y-11643D01*
X-1690Y-11671D01*
X-1615Y-11699D01*
X-1390Y-11699D01*
X-1315Y-11671D01*
X-1278Y-11643D01*
X-21631Y-16111D02*
X-21931Y-16111D01*
X-21781Y-16261D02*
X-21781Y-15961D01*
X-22137Y-16261D02*
X-22212Y-16261D01*
X-22250Y-16242D01*
X-22269Y-16224D01*
X-22306Y-16167D01*
X-22325Y-16092D01*
X-22325Y-15943D01*
X-22306Y-15905D01*
X-22287Y-15886D01*
X-22250Y-15868D01*
X-22175Y-15868D01*
X-22137Y-15886D01*
X-22119Y-15905D01*
X-22100Y-15943D01*
X-22100Y-16036D01*
X-22119Y-16074D01*
X-22137Y-16092D01*
X-22175Y-16111D01*
X-22250Y-16111D01*
X-22287Y-16092D01*
X-22306Y-16074D01*
X-22325Y-16036D01*
X-22437Y-15868D02*
X-22568Y-16261D01*
X-22700Y-15868D01*
X-3266Y-7426D02*
X-3228Y-7501D01*
X-3228Y-7651D01*
X-3266Y-7726D01*
X-3341Y-7801D01*
X-3416Y-7838D01*
X-3565Y-7838D01*
X-3640Y-7801D01*
X-3715Y-7726D01*
X-3753Y-7651D01*
X-3753Y-7501D01*
X-3715Y-7426D01*
X-2966Y-7576D02*
X-3003Y-7763D01*
X-3116Y-7951D01*
X-3303Y-8063D01*
X-3491Y-8101D01*
X-3678Y-8063D01*
X-3865Y-7951D01*
X-3978Y-7763D01*
X-4015Y-7576D01*
X-3978Y-7388D01*
X-3865Y-7201D01*
X-3678Y-7088D01*
X-3491Y-7051D01*
X-3303Y-7088D01*
X-3116Y-7201D01*
X-3003Y-7388D01*
X-2966Y-7576D01*
X-3865Y-6713D02*
X-3078Y-6713D01*
X-3640Y-6451D01*
X-3078Y-6188D01*
X-3865Y-6188D01*
X-3865Y-5813D02*
X-3341Y-5813D01*
X-3078Y-5813D02*
X-3116Y-5851D01*
X-3153Y-5813D01*
X-3116Y-5776D01*
X-3078Y-5813D01*
X-3153Y-5813D01*
X-3865Y-5438D02*
X-3078Y-5438D01*
X-3865Y-5101D02*
X-3453Y-5101D01*
X-3378Y-5138D01*
X-3341Y-5213D01*
X-3341Y-5326D01*
X-3378Y-5401D01*
X-3416Y-5438D01*
X-3865Y-4389D02*
X-3453Y-4389D01*
X-3378Y-4426D01*
X-3341Y-4501D01*
X-3341Y-4651D01*
X-3378Y-4726D01*
X-3828Y-4389D02*
X-3865Y-4464D01*
X-3865Y-4651D01*
X-3828Y-4726D01*
X-3753Y-4763D01*
X-3678Y-4763D01*
X-3603Y-4726D01*
X-3565Y-4651D01*
X-3565Y-4464D01*
X-3528Y-4389D01*
X-3865Y-4014D02*
X-3341Y-4014D01*
X-3491Y-4014D02*
X-3416Y-3976D01*
X-3378Y-3939D01*
X-3341Y-3864D01*
X-3341Y-3789D01*
X-3865Y-3526D02*
X-3341Y-3526D01*
X-3078Y-3526D02*
X-3116Y-3564D01*
X-3153Y-3526D01*
X-3116Y-3489D01*
X-3078Y-3526D01*
X-3153Y-3526D01*
X-3865Y-3226D02*
X-3341Y-2814D01*
X-3341Y-3226D02*
X-3865Y-2814D01*
G54D12*
X10438Y-8548D02*
X10642Y-8548D01*
X10671Y-8785D02*
X10615Y-8332D01*
X10324Y-8332D01*
X10148Y-8785D02*
X10111Y-8483D01*
X10092Y-8332D02*
X10123Y-8354D01*
X10097Y-8375D01*
X10065Y-8354D01*
X10092Y-8332D01*
X10097Y-8375D01*
X9884Y-8764D02*
X9829Y-8785D01*
X9712Y-8785D01*
X9652Y-8764D01*
X9617Y-8720D01*
X9614Y-8699D01*
X9638Y-8656D01*
X9694Y-8634D01*
X9781Y-8634D01*
X9836Y-8613D01*
X9860Y-8570D01*
X9857Y-8548D01*
X9823Y-8505D01*
X9762Y-8483D01*
X9675Y-8483D01*
X9619Y-8505D01*
X9099Y-8764D02*
X9160Y-8785D01*
X9277Y-8785D01*
X9332Y-8764D01*
X9358Y-8742D01*
X9382Y-8699D01*
X9366Y-8570D01*
X9331Y-8526D01*
X9300Y-8505D01*
X9239Y-8483D01*
X9123Y-8483D01*
X9067Y-8505D01*
X8841Y-8785D02*
X8784Y-8332D01*
X8579Y-8785D02*
X8549Y-8548D01*
X8573Y-8505D01*
X8629Y-8483D01*
X8716Y-8483D01*
X8777Y-8505D01*
X8808Y-8526D01*
X8289Y-8785D02*
X8232Y-8332D01*
X7999Y-8332D01*
X7944Y-8354D01*
X7918Y-8375D01*
X7894Y-8419D01*
X7902Y-8483D01*
X7937Y-8526D01*
X7968Y-8548D01*
X8029Y-8570D01*
X8262Y-8570D01*
X7678Y-8785D02*
X7641Y-8483D01*
X7622Y-8332D02*
X7653Y-8354D01*
X7627Y-8375D01*
X7595Y-8354D01*
X7622Y-8332D01*
X7627Y-8375D01*
X7388Y-8785D02*
X7331Y-8332D01*
X7168Y-8656D01*
X6924Y-8332D01*
X6981Y-8785D01*
X6690Y-8785D02*
X6653Y-8483D01*
X6634Y-8332D02*
X6665Y-8354D01*
X6639Y-8375D01*
X6607Y-8354D01*
X6634Y-8332D01*
X6639Y-8375D01*
X6458Y-8785D02*
X6100Y-8483D01*
X6420Y-8483D02*
X6138Y-8785D01*
X5419Y-8613D02*
X4954Y-8613D01*
X4251Y-8332D02*
X4104Y-8785D01*
X3844Y-8332D01*
X3699Y-8332D02*
X3321Y-8332D01*
X3546Y-8505D01*
X3459Y-8505D01*
X3403Y-8526D01*
X3377Y-8548D01*
X3353Y-8591D01*
X3367Y-8699D01*
X3401Y-8742D01*
X3433Y-8764D01*
X3494Y-8785D01*
X3668Y-8785D01*
X3724Y-8764D01*
X3750Y-8742D01*
X3111Y-8742D02*
X3084Y-8764D01*
X3116Y-8785D01*
X3142Y-8764D01*
X3111Y-8742D01*
X3116Y-8785D01*
X2803Y-8375D02*
X2772Y-8354D01*
X2711Y-8332D01*
X2565Y-8332D01*
X2510Y-8354D01*
X2484Y-8375D01*
X2460Y-8419D01*
X2465Y-8462D01*
X2503Y-8526D01*
X2884Y-8785D01*
X2506Y-8785D01*
G54D13*
X-20063Y-15057D02*
X-21263Y-15057D01*
X-21263Y-15057D02*
X-21263Y-15357D01*
X-21263Y-15357D02*
X-20063Y-15357D01*
X-20063Y-15357D02*
X-20063Y-15057D01*
X-188Y-13807D02*
X-463Y-13807D01*
X205Y-13807D02*
X480Y-13807D01*
X-188Y-13295D02*
X-463Y-13295D01*
X480Y-13295D02*
X205Y-13295D01*
X-463Y-13301D02*
X-463Y-13801D01*
X480Y-13801D02*
X480Y-13301D01*
X7228Y-13169D02*
X7228Y-12894D01*
X7228Y-13563D02*
X7228Y-13838D01*
X7740Y-13169D02*
X7740Y-12894D01*
X7740Y-13838D02*
X7740Y-13563D01*
X7734Y-12894D02*
X7234Y-12894D01*
X7234Y-13838D02*
X7734Y-13838D01*
X-2994Y-13295D02*
X-2719Y-13295D01*
X-3388Y-13295D02*
X-3663Y-13295D01*
X-2994Y-13807D02*
X-2719Y-13807D01*
X-3663Y-13807D02*
X-3388Y-13807D01*
X-2719Y-13801D02*
X-2719Y-13301D01*
X-3663Y-13301D02*
X-3663Y-13801D01*
X6200Y-13188D02*
X6200Y-12913D01*
X6200Y-13582D02*
X6200Y-13857D01*
X6712Y-13188D02*
X6712Y-12913D01*
X6712Y-13857D02*
X6712Y-13582D01*
X6706Y-12913D02*
X6206Y-12913D01*
X6206Y-13857D02*
X6706Y-13857D01*
X-994Y-13295D02*
X-719Y-13295D01*
X-1388Y-13295D02*
X-1663Y-13295D01*
X-994Y-13807D02*
X-719Y-13807D01*
X-1663Y-13807D02*
X-1388Y-13807D01*
X-719Y-13801D02*
X-719Y-13301D01*
X-1663Y-13301D02*
X-1663Y-13801D01*
X3811Y-13807D02*
X3536Y-13807D01*
X4205Y-13807D02*
X4480Y-13807D01*
X3811Y-13295D02*
X3536Y-13295D01*
X4480Y-13295D02*
X4205Y-13295D01*
X3536Y-13301D02*
X3536Y-13801D01*
X4480Y-13801D02*
X4480Y-13301D01*
X11007Y-13090D02*
X11007Y-12815D01*
X11007Y-13484D02*
X11007Y-13759D01*
X11519Y-13090D02*
X11519Y-12815D01*
X11519Y-13759D02*
X11519Y-13484D01*
X11513Y-12815D02*
X11013Y-12815D01*
X11013Y-13759D02*
X11513Y-13759D01*
X12106Y-13110D02*
X12106Y-12835D01*
X12106Y-13504D02*
X12106Y-13779D01*
X12618Y-13110D02*
X12618Y-12835D01*
X12618Y-13779D02*
X12618Y-13504D01*
X12612Y-12835D02*
X12112Y-12835D01*
X12112Y-13779D02*
X12612Y-13779D01*
X3005Y-13295D02*
X3280Y-13295D01*
X2611Y-13295D02*
X2336Y-13295D01*
X3005Y-13807D02*
X3280Y-13807D01*
X2336Y-13807D02*
X2611Y-13807D01*
X3280Y-13801D02*
X3280Y-13301D01*
X2336Y-13301D02*
X2336Y-13801D01*
G54D14*
X-7793Y-3423D02*
G75*
G03X-7793Y-3423I-70J0D01*
G74*
G01*
X-9013Y-4073D02*
X-9013Y-3473D01*
X-9013Y-3473D02*
X-7913Y-3473D01*
X-7913Y-3473D02*
X-7913Y-4073D01*
X-7913Y-4673D02*
X-7913Y-5273D01*
X-7913Y-5273D02*
X-9013Y-5273D01*
X-9013Y-5273D02*
X-9013Y-4673D01*
X-5793Y-3423D02*
G75*
G03X-5793Y-3423I-70J0D01*
G74*
G01*
X-7013Y-4073D02*
X-7013Y-3473D01*
X-7013Y-3473D02*
X-5913Y-3473D01*
X-5913Y-3473D02*
X-5913Y-4073D01*
X-5913Y-4673D02*
X-5913Y-5273D01*
X-5913Y-5273D02*
X-7013Y-5273D01*
X-7013Y-5273D02*
X-7013Y-4673D01*
X-15793Y-3423D02*
G75*
G03X-15793Y-3423I-70J0D01*
G74*
G01*
X-17013Y-4073D02*
X-17013Y-3473D01*
X-17013Y-3473D02*
X-15913Y-3473D01*
X-15913Y-3473D02*
X-15913Y-4073D01*
X-15913Y-4673D02*
X-15913Y-5273D01*
X-15913Y-5273D02*
X-17013Y-5273D01*
X-17013Y-5273D02*
X-17013Y-4673D01*
X-9793Y-3423D02*
G75*
G03X-9793Y-3423I-70J0D01*
G74*
G01*
X-11013Y-4073D02*
X-11013Y-3473D01*
X-11013Y-3473D02*
X-9913Y-3473D01*
X-9913Y-3473D02*
X-9913Y-4073D01*
X-9913Y-4673D02*
X-9913Y-5273D01*
X-9913Y-5273D02*
X-11013Y-5273D01*
X-11013Y-5273D02*
X-11013Y-4673D01*
X-11793Y-3423D02*
G75*
G03X-11793Y-3423I-70J0D01*
G74*
G01*
X-13013Y-4073D02*
X-13013Y-3473D01*
X-13013Y-3473D02*
X-11913Y-3473D01*
X-11913Y-3473D02*
X-11913Y-4073D01*
X-11913Y-4673D02*
X-11913Y-5273D01*
X-11913Y-5273D02*
X-13013Y-5273D01*
X-13013Y-5273D02*
X-13013Y-4673D01*
X-19793Y-3423D02*
G75*
G03X-19793Y-3423I-70J0D01*
G74*
G01*
X-21013Y-4073D02*
X-21013Y-3473D01*
X-21013Y-3473D02*
X-19913Y-3473D01*
X-19913Y-3473D02*
X-19913Y-4073D01*
X-19913Y-4673D02*
X-19913Y-5273D01*
X-19913Y-5273D02*
X-21013Y-5273D01*
X-21013Y-5273D02*
X-21013Y-4673D01*
X-13793Y-3423D02*
G75*
G03X-13793Y-3423I-70J0D01*
G74*
G01*
X-15013Y-4073D02*
X-15013Y-3473D01*
X-15013Y-3473D02*
X-13913Y-3473D01*
X-13913Y-3473D02*
X-13913Y-4073D01*
X-13913Y-4673D02*
X-13913Y-5273D01*
X-13913Y-5273D02*
X-15013Y-5273D01*
X-15013Y-5273D02*
X-15013Y-4673D01*
X-17793Y-3423D02*
G75*
G03X-17793Y-3423I-70J0D01*
G74*
G01*
X-19013Y-4073D02*
X-19013Y-3473D01*
X-19013Y-3473D02*
X-17913Y-3473D01*
X-17913Y-3473D02*
X-17913Y-4073D01*
X-17913Y-4673D02*
X-17913Y-5273D01*
X-17913Y-5273D02*
X-19013Y-5273D01*
X-19013Y-5273D02*
X-19013Y-4673D01*
G54D15*
X11609Y-14113D02*
G75*
G03X11609Y-14113I-50J0D01*
G74*
G01*
X11559Y-14563D02*
X11559Y-14163D01*
X11559Y-14163D02*
X10959Y-14163D01*
X10959Y-14163D02*
X10959Y-14563D01*
X10959Y-14963D02*
X10959Y-15363D01*
X10959Y-15363D02*
X11559Y-15363D01*
X11559Y-15363D02*
X11559Y-14963D01*
X12751Y-14113D02*
G75*
G03X12751Y-14113I-50J0D01*
G74*
G01*
X12701Y-14563D02*
X12701Y-14163D01*
X12701Y-14163D02*
X12101Y-14163D01*
X12101Y-14163D02*
X12101Y-14563D01*
X12101Y-14963D02*
X12101Y-15363D01*
X12101Y-15363D02*
X12701Y-15363D01*
X12701Y-15363D02*
X12701Y-14963D01*
X2758Y-14101D02*
G75*
G03X2758Y-14101I-50J0D01*
G74*
G01*
X2708Y-14551D02*
X2708Y-14151D01*
X2708Y-14151D02*
X2108Y-14151D01*
X2108Y-14151D02*
X2108Y-14551D01*
X2108Y-14951D02*
X2108Y-15351D01*
X2108Y-15351D02*
X2708Y-15351D01*
X2708Y-15351D02*
X2708Y-14951D01*
X4758Y-14101D02*
G75*
G03X4758Y-14101I-50J0D01*
G74*
G01*
X4708Y-14551D02*
X4708Y-14151D01*
X4708Y-14151D02*
X4108Y-14151D01*
X4108Y-14151D02*
X4108Y-14551D01*
X4108Y-14951D02*
X4108Y-15351D01*
X4108Y-15351D02*
X4708Y-15351D01*
X4708Y-15351D02*
X4708Y-14951D01*
X6758Y-14101D02*
G75*
G03X6758Y-14101I-50J0D01*
G74*
G01*
X6708Y-14551D02*
X6708Y-14151D01*
X6708Y-14151D02*
X6108Y-14151D01*
X6108Y-14151D02*
X6108Y-14551D01*
X6108Y-14951D02*
X6108Y-15351D01*
X6108Y-15351D02*
X6708Y-15351D01*
X6708Y-15351D02*
X6708Y-14951D01*
X7830Y-14113D02*
G75*
G03X7830Y-14113I-50J0D01*
G74*
G01*
X7780Y-14563D02*
X7780Y-14163D01*
X7780Y-14163D02*
X7180Y-14163D01*
X7180Y-14163D02*
X7180Y-14563D01*
X7180Y-14963D02*
X7180Y-15363D01*
X7180Y-15363D02*
X7780Y-15363D01*
X7780Y-15363D02*
X7780Y-14963D01*
X-3241Y-14101D02*
G75*
G03X-3241Y-14101I-50J0D01*
G74*
G01*
X-3291Y-14551D02*
X-3291Y-14151D01*
X-3291Y-14151D02*
X-3891Y-14151D01*
X-3891Y-14151D02*
X-3891Y-14551D01*
X-3891Y-14951D02*
X-3891Y-15351D01*
X-3891Y-15351D02*
X-3291Y-15351D01*
X-3291Y-15351D02*
X-3291Y-14951D01*
X-1241Y-14101D02*
G75*
G03X-1241Y-14101I-50J0D01*
G74*
G01*
X-1291Y-14551D02*
X-1291Y-14151D01*
X-1291Y-14151D02*
X-1891Y-14151D01*
X-1891Y-14151D02*
X-1891Y-14551D01*
X-1891Y-14951D02*
X-1891Y-15351D01*
X-1891Y-15351D02*
X-1291Y-15351D01*
X-1291Y-15351D02*
X-1291Y-14951D01*
X758Y-14101D02*
G75*
G03X758Y-14101I-50J0D01*
G74*
G01*
X708Y-14551D02*
X708Y-14151D01*
X708Y-14151D02*
X108Y-14151D01*
X108Y-14151D02*
X108Y-14551D01*
X108Y-14951D02*
X108Y-15351D01*
X108Y-15351D02*
X708Y-15351D01*
X708Y-15351D02*
X708Y-14951D01*
G54D14*
X6986Y-4607D02*
X6986Y-4707D01*
X6986Y-4707D02*
X6086Y-4707D01*
X6086Y-4707D02*
X6086Y-4607D01*
X6986Y-4607D02*
X6086Y-4607D01*
X6086Y-4607D02*
X6086Y-3957D01*
X6986Y-3257D02*
X6986Y-2607D01*
X6986Y-2607D02*
X6086Y-2607D01*
X6086Y-2607D02*
X6086Y-3257D01*
X6986Y-3957D02*
X6986Y-4607D01*
X10978Y-4567D02*
X10978Y-4667D01*
X10978Y-4667D02*
X10078Y-4667D01*
X10078Y-4667D02*
X10078Y-4567D01*
X10978Y-4567D02*
X10078Y-4567D01*
X10078Y-4567D02*
X10078Y-3917D01*
X10978Y-3217D02*
X10978Y-2567D01*
X10978Y-2567D02*
X10078Y-2567D01*
X10078Y-2567D02*
X10078Y-3217D01*
X10978Y-3917D02*
X10978Y-4567D01*
X11978Y-4567D02*
X11978Y-4667D01*
X11978Y-4667D02*
X11078Y-4667D01*
X11078Y-4667D02*
X11078Y-4567D01*
X11978Y-4567D02*
X11078Y-4567D01*
X11078Y-4567D02*
X11078Y-3917D01*
X11978Y-3217D02*
X11978Y-2567D01*
X11978Y-2567D02*
X11078Y-2567D01*
X11078Y-2567D02*
X11078Y-3217D01*
X11978Y-3917D02*
X11978Y-4567D01*
X9978Y-4567D02*
X9978Y-4667D01*
X9978Y-4667D02*
X9078Y-4667D01*
X9078Y-4667D02*
X9078Y-4567D01*
X9978Y-4567D02*
X9078Y-4567D01*
X9078Y-4567D02*
X9078Y-3917D01*
X9978Y-3217D02*
X9978Y-2567D01*
X9978Y-2567D02*
X9078Y-2567D01*
X9078Y-2567D02*
X9078Y-3217D01*
X9978Y-3917D02*
X9978Y-4567D01*
X5986Y-4607D02*
X5986Y-4707D01*
X5986Y-4707D02*
X5086Y-4707D01*
X5086Y-4707D02*
X5086Y-4607D01*
X5986Y-4607D02*
X5086Y-4607D01*
X5086Y-4607D02*
X5086Y-3957D01*
X5986Y-3257D02*
X5986Y-2607D01*
X5986Y-2607D02*
X5086Y-2607D01*
X5086Y-2607D02*
X5086Y-3257D01*
X5986Y-3957D02*
X5986Y-4607D01*
X3994Y-4607D02*
X3994Y-4707D01*
X3994Y-4707D02*
X3094Y-4707D01*
X3094Y-4707D02*
X3094Y-4607D01*
X3994Y-4607D02*
X3094Y-4607D01*
X3094Y-4607D02*
X3094Y-3957D01*
X3994Y-3257D02*
X3994Y-2607D01*
X3994Y-2607D02*
X3094Y-2607D01*
X3094Y-2607D02*
X3094Y-3257D01*
X3994Y-3957D02*
X3994Y-4607D01*
X2994Y-4607D02*
X2994Y-4707D01*
X2994Y-4707D02*
X2094Y-4707D01*
X2094Y-4707D02*
X2094Y-4607D01*
X2994Y-4607D02*
X2094Y-4607D01*
X2094Y-4607D02*
X2094Y-3957D01*
X2994Y-3257D02*
X2994Y-2607D01*
X2994Y-2607D02*
X2094Y-2607D01*
X2094Y-2607D02*
X2094Y-3257D01*
X2994Y-3957D02*
X2994Y-4607D01*
X1994Y-4607D02*
X1994Y-4707D01*
X1994Y-4707D02*
X1094Y-4707D01*
X1094Y-4707D02*
X1094Y-4607D01*
X1994Y-4607D02*
X1094Y-4607D01*
X1094Y-4607D02*
X1094Y-3957D01*
X1994Y-3257D02*
X1994Y-2607D01*
X1994Y-2607D02*
X1094Y-2607D01*
X1094Y-2607D02*
X1094Y-3257D01*
X1994Y-3957D02*
X1994Y-4607D01*
X7986Y-4607D02*
X7986Y-4707D01*
X7986Y-4707D02*
X7086Y-4707D01*
X7086Y-4707D02*
X7086Y-4607D01*
X7986Y-4607D02*
X7086Y-4607D01*
X7086Y-4607D02*
X7086Y-3957D01*
X7986Y-3257D02*
X7986Y-2607D01*
X7986Y-2607D02*
X7086Y-2607D01*
X7086Y-2607D02*
X7086Y-3257D01*
X7986Y-3957D02*
X7986Y-4607D01*
G54D16*
X-19459Y-15374D02*
X-19431Y-15360D01*
X-19402Y-15331D01*
X-19359Y-15288D01*
X-19331Y-15274D01*
X-19302Y-15274D01*
X-19316Y-15345D02*
X-19288Y-15331D01*
X-19259Y-15302D01*
X-19245Y-15245D01*
X-19245Y-15145D01*
X-19259Y-15088D01*
X-19288Y-15060D01*
X-19316Y-15045D01*
X-19373Y-15045D01*
X-19402Y-15060D01*
X-19431Y-15088D01*
X-19445Y-15145D01*
X-19445Y-15245D01*
X-19431Y-15302D01*
X-19402Y-15331D01*
X-19373Y-15345D01*
X-19316Y-15345D01*
X-19731Y-15345D02*
X-19559Y-15345D01*
X-19645Y-15345D02*
X-19645Y-15045D01*
X-19616Y-15088D01*
X-19588Y-15117D01*
X-19559Y-15131D01*
X-17918Y-15912D02*
X-17918Y-15612D01*
X-18018Y-15827D01*
X-18118Y-15612D01*
X-18118Y-15912D01*
X-18318Y-15612D02*
X-18375Y-15612D01*
X-18404Y-15627D01*
X-18432Y-15655D01*
X-18447Y-15712D01*
X-18447Y-15812D01*
X-18432Y-15869D01*
X-18404Y-15898D01*
X-18375Y-15912D01*
X-18318Y-15912D01*
X-18289Y-15898D01*
X-18261Y-15869D01*
X-18247Y-15812D01*
X-18247Y-15712D01*
X-18261Y-15655D01*
X-18289Y-15627D01*
X-18318Y-15612D01*
X-18561Y-15898D02*
X-18604Y-15912D01*
X-18675Y-15912D01*
X-18704Y-15898D01*
X-18718Y-15884D01*
X-18732Y-15855D01*
X-18732Y-15827D01*
X-18718Y-15798D01*
X-18704Y-15784D01*
X-18675Y-15769D01*
X-18618Y-15755D01*
X-18589Y-15741D01*
X-18575Y-15727D01*
X-18561Y-15698D01*
X-18561Y-15669D01*
X-18575Y-15641D01*
X-18589Y-15627D01*
X-18618Y-15612D01*
X-18689Y-15612D01*
X-18732Y-15627D01*
X-18961Y-15755D02*
X-18861Y-15755D01*
X-18861Y-15912D02*
X-18861Y-15612D01*
X-19004Y-15612D01*
X-19118Y-15755D02*
X-19218Y-15755D01*
X-19261Y-15912D02*
X-19118Y-15912D01*
X-19118Y-15612D01*
X-19261Y-15612D01*
X-19347Y-15612D02*
X-19518Y-15612D01*
X-19432Y-15912D02*
X-19432Y-15612D01*
X-19547Y-15941D02*
X-19775Y-15941D01*
X-19847Y-15912D02*
X-19847Y-15612D01*
X-20018Y-15912D01*
X-20018Y-15612D01*
G54D17*
X463Y-13069D02*
X471Y-13079D01*
X497Y-13088D01*
X514Y-13088D01*
X540Y-13079D01*
X557Y-13060D01*
X565Y-13041D01*
X574Y-13003D01*
X574Y-12974D01*
X565Y-12936D01*
X557Y-12917D01*
X540Y-12898D01*
X514Y-12888D01*
X497Y-12888D01*
X471Y-12898D01*
X463Y-12907D01*
X403Y-12888D02*
X291Y-12888D01*
X351Y-12965D01*
X325Y-12965D01*
X308Y-12974D01*
X300Y-12984D01*
X291Y-13003D01*
X291Y-13050D01*
X300Y-13069D01*
X308Y-13079D01*
X325Y-13088D01*
X377Y-13088D01*
X394Y-13079D01*
X403Y-13069D01*
X-93Y-13077D02*
X9Y-13077D01*
X-42Y-13077D02*
X-42Y-12877D01*
X-25Y-12905D01*
X-7Y-12924D01*
X9Y-12934D01*
X-247Y-12943D02*
X-247Y-13077D01*
X-170Y-12943D02*
X-170Y-13048D01*
X-179Y-13067D01*
X-196Y-13077D01*
X-222Y-13077D01*
X-239Y-13067D01*
X-247Y-13057D01*
X-393Y-12972D02*
X-333Y-12972D01*
X-333Y-13077D02*
X-333Y-12877D01*
X-419Y-12877D01*
X7057Y-12977D02*
X7067Y-12969D01*
X7077Y-12943D01*
X7077Y-12926D01*
X7067Y-12900D01*
X7048Y-12883D01*
X7029Y-12875D01*
X6991Y-12866D01*
X6962Y-12866D01*
X6924Y-12875D01*
X6905Y-12883D01*
X6886Y-12900D01*
X6877Y-12926D01*
X6877Y-12943D01*
X6886Y-12969D01*
X6896Y-12977D01*
X6877Y-13037D02*
X6877Y-13157D01*
X7077Y-13080D01*
X7065Y-13510D02*
X7065Y-13408D01*
X7065Y-13459D02*
X6865Y-13459D01*
X6893Y-13442D01*
X6912Y-13425D01*
X6922Y-13408D01*
X6931Y-13665D02*
X7065Y-13665D01*
X6931Y-13588D02*
X7036Y-13588D01*
X7055Y-13596D01*
X7065Y-13613D01*
X7065Y-13639D01*
X7055Y-13656D01*
X7046Y-13665D01*
X6960Y-13810D02*
X6960Y-13750D01*
X7065Y-13750D02*
X6865Y-13750D01*
X6865Y-13836D01*
X-2800Y-13089D02*
X-2792Y-13098D01*
X-2766Y-13108D01*
X-2749Y-13108D01*
X-2723Y-13098D01*
X-2706Y-13079D01*
X-2697Y-13060D01*
X-2689Y-13022D01*
X-2689Y-12994D01*
X-2697Y-12956D01*
X-2706Y-12937D01*
X-2723Y-12918D01*
X-2749Y-12908D01*
X-2766Y-12908D01*
X-2792Y-12918D01*
X-2800Y-12927D01*
X-2972Y-13108D02*
X-2869Y-13108D01*
X-2920Y-13108D02*
X-2920Y-12908D01*
X-2903Y-12937D01*
X-2886Y-12956D01*
X-2869Y-12965D01*
X-3349Y-13096D02*
X-3246Y-13096D01*
X-3298Y-13096D02*
X-3298Y-12896D01*
X-3280Y-12925D01*
X-3263Y-12944D01*
X-3246Y-12953D01*
X-3503Y-12963D02*
X-3503Y-13096D01*
X-3426Y-12963D02*
X-3426Y-13068D01*
X-3435Y-13087D01*
X-3452Y-13096D01*
X-3478Y-13096D01*
X-3495Y-13087D01*
X-3503Y-13077D01*
X-3649Y-12991D02*
X-3589Y-12991D01*
X-3589Y-13096D02*
X-3589Y-12896D01*
X-3675Y-12896D01*
X6006Y-12981D02*
X6016Y-12973D01*
X6025Y-12947D01*
X6025Y-12930D01*
X6016Y-12904D01*
X5997Y-12887D01*
X5978Y-12878D01*
X5940Y-12870D01*
X5911Y-12870D01*
X5873Y-12878D01*
X5854Y-12887D01*
X5835Y-12904D01*
X5825Y-12930D01*
X5825Y-12947D01*
X5835Y-12973D01*
X5844Y-12981D01*
X5825Y-13136D02*
X5825Y-13101D01*
X5835Y-13084D01*
X5844Y-13076D01*
X5873Y-13058D01*
X5911Y-13050D01*
X5987Y-13050D01*
X6006Y-13058D01*
X6016Y-13067D01*
X6025Y-13084D01*
X6025Y-13118D01*
X6016Y-13136D01*
X6006Y-13144D01*
X5987Y-13153D01*
X5940Y-13153D01*
X5921Y-13144D01*
X5911Y-13136D01*
X5902Y-13118D01*
X5902Y-13084D01*
X5911Y-13067D01*
X5921Y-13058D01*
X5940Y-13050D01*
X6021Y-13518D02*
X6021Y-13415D01*
X6021Y-13467D02*
X5821Y-13467D01*
X5850Y-13450D01*
X5869Y-13433D01*
X5879Y-13415D01*
X5888Y-13673D02*
X6021Y-13673D01*
X5888Y-13595D02*
X5993Y-13595D01*
X6012Y-13604D01*
X6021Y-13621D01*
X6021Y-13647D01*
X6012Y-13664D01*
X6002Y-13673D01*
X5917Y-13818D02*
X5917Y-13758D01*
X6021Y-13758D02*
X5821Y-13758D01*
X5821Y-13844D01*
X-847Y-13065D02*
X-839Y-13075D01*
X-813Y-13084D01*
X-796Y-13084D01*
X-770Y-13075D01*
X-753Y-13056D01*
X-745Y-13037D01*
X-736Y-12999D01*
X-736Y-12970D01*
X-745Y-12932D01*
X-753Y-12913D01*
X-770Y-12894D01*
X-796Y-12884D01*
X-813Y-12884D01*
X-839Y-12894D01*
X-847Y-12903D01*
X-916Y-12903D02*
X-925Y-12894D01*
X-942Y-12884D01*
X-985Y-12884D01*
X-1002Y-12894D01*
X-1010Y-12903D01*
X-1019Y-12922D01*
X-1019Y-12942D01*
X-1010Y-12970D01*
X-907Y-13084D01*
X-1019Y-13084D01*
X-1361Y-13073D02*
X-1258Y-13073D01*
X-1309Y-13073D02*
X-1309Y-12873D01*
X-1292Y-12901D01*
X-1275Y-12920D01*
X-1258Y-12930D01*
X-1515Y-12939D02*
X-1515Y-13073D01*
X-1438Y-12939D02*
X-1438Y-13044D01*
X-1447Y-13063D01*
X-1464Y-13073D01*
X-1489Y-13073D01*
X-1507Y-13063D01*
X-1515Y-13054D01*
X-1661Y-12968D02*
X-1601Y-12968D01*
X-1601Y-13073D02*
X-1601Y-12873D01*
X-1687Y-12873D01*
X4447Y-13057D02*
X4455Y-13067D01*
X4481Y-13077D01*
X4498Y-13077D01*
X4524Y-13067D01*
X4541Y-13048D01*
X4550Y-13029D01*
X4558Y-12991D01*
X4558Y-12962D01*
X4550Y-12924D01*
X4541Y-12905D01*
X4524Y-12886D01*
X4498Y-12877D01*
X4481Y-12877D01*
X4455Y-12886D01*
X4447Y-12896D01*
X4284Y-12877D02*
X4370Y-12877D01*
X4378Y-12972D01*
X4370Y-12962D01*
X4353Y-12953D01*
X4310Y-12953D01*
X4293Y-12962D01*
X4284Y-12972D01*
X4275Y-12991D01*
X4275Y-13038D01*
X4284Y-13057D01*
X4293Y-13067D01*
X4310Y-13077D01*
X4353Y-13077D01*
X4370Y-13067D01*
X4378Y-13057D01*
X3918Y-13061D02*
X4021Y-13061D01*
X3969Y-13061D02*
X3969Y-12861D01*
X3986Y-12889D01*
X4003Y-12908D01*
X4021Y-12918D01*
X3763Y-12927D02*
X3763Y-13061D01*
X3841Y-12927D02*
X3841Y-13032D01*
X3832Y-13051D01*
X3815Y-13061D01*
X3789Y-13061D01*
X3772Y-13051D01*
X3763Y-13042D01*
X3618Y-12956D02*
X3678Y-12956D01*
X3678Y-13061D02*
X3678Y-12861D01*
X3592Y-12861D01*
X11872Y-12918D02*
X11882Y-12910D01*
X11891Y-12884D01*
X11891Y-12867D01*
X11882Y-12841D01*
X11863Y-12824D01*
X11844Y-12815D01*
X11806Y-12807D01*
X11777Y-12807D01*
X11739Y-12815D01*
X11720Y-12824D01*
X11701Y-12841D01*
X11691Y-12867D01*
X11691Y-12884D01*
X11701Y-12910D01*
X11711Y-12918D01*
X11777Y-13021D02*
X11768Y-13004D01*
X11758Y-12995D01*
X11739Y-12987D01*
X11730Y-12987D01*
X11711Y-12995D01*
X11701Y-13004D01*
X11691Y-13021D01*
X11691Y-13055D01*
X11701Y-13073D01*
X11711Y-13081D01*
X11730Y-13090D01*
X11739Y-13090D01*
X11758Y-13081D01*
X11768Y-13073D01*
X11777Y-13055D01*
X11777Y-13021D01*
X11787Y-13004D01*
X11796Y-12995D01*
X11815Y-12987D01*
X11853Y-12987D01*
X11872Y-12995D01*
X11882Y-13004D01*
X11891Y-13021D01*
X11891Y-13055D01*
X11882Y-13073D01*
X11872Y-13081D01*
X11853Y-13090D01*
X11815Y-13090D01*
X11796Y-13081D01*
X11787Y-13073D01*
X11777Y-13055D01*
X11876Y-13436D02*
X11876Y-13333D01*
X11876Y-13384D02*
X11676Y-13384D01*
X11704Y-13367D01*
X11723Y-13350D01*
X11733Y-13333D01*
X11742Y-13590D02*
X11876Y-13590D01*
X11742Y-13513D02*
X11847Y-13513D01*
X11866Y-13521D01*
X11876Y-13539D01*
X11876Y-13564D01*
X11866Y-13581D01*
X11857Y-13590D01*
X11771Y-13736D02*
X11771Y-13676D01*
X11876Y-13676D02*
X11676Y-13676D01*
X11676Y-13761D01*
X13046Y-12946D02*
X13055Y-12937D01*
X13065Y-12912D01*
X13065Y-12894D01*
X13055Y-12869D01*
X13036Y-12852D01*
X13017Y-12843D01*
X12979Y-12834D01*
X12950Y-12834D01*
X12912Y-12843D01*
X12893Y-12852D01*
X12874Y-12869D01*
X12865Y-12894D01*
X12865Y-12912D01*
X12874Y-12937D01*
X12884Y-12946D01*
X13065Y-13032D02*
X13065Y-13066D01*
X13055Y-13083D01*
X13046Y-13092D01*
X13017Y-13109D01*
X12979Y-13117D01*
X12903Y-13117D01*
X12884Y-13109D01*
X12874Y-13100D01*
X12865Y-13083D01*
X12865Y-13049D01*
X12874Y-13032D01*
X12884Y-13023D01*
X12903Y-13014D01*
X12950Y-13014D01*
X12969Y-13023D01*
X12979Y-13032D01*
X12989Y-13049D01*
X12989Y-13083D01*
X12979Y-13100D01*
X12969Y-13109D01*
X12950Y-13117D01*
X13073Y-13424D02*
X13073Y-13321D01*
X13073Y-13372D02*
X12873Y-13372D01*
X12901Y-13355D01*
X12920Y-13338D01*
X12930Y-13321D01*
X12939Y-13578D02*
X13073Y-13578D01*
X12939Y-13501D02*
X13044Y-13501D01*
X13063Y-13510D01*
X13073Y-13527D01*
X13073Y-13552D01*
X13063Y-13570D01*
X13054Y-13578D01*
X12968Y-13724D02*
X12968Y-13664D01*
X13073Y-13664D02*
X12873Y-13664D01*
X12873Y-13750D01*
X3155Y-13026D02*
X3164Y-13035D01*
X3190Y-13045D01*
X3207Y-13045D01*
X3233Y-13035D01*
X3250Y-13016D01*
X3258Y-12997D01*
X3267Y-12959D01*
X3267Y-12931D01*
X3258Y-12893D01*
X3250Y-12874D01*
X3233Y-12855D01*
X3207Y-12845D01*
X3190Y-12845D01*
X3164Y-12855D01*
X3155Y-12864D01*
X3001Y-12912D02*
X3001Y-13045D01*
X3044Y-12835D02*
X3087Y-12978D01*
X2975Y-12978D01*
X2678Y-13041D02*
X2780Y-13041D01*
X2729Y-13041D02*
X2729Y-12841D01*
X2746Y-12870D01*
X2763Y-12889D01*
X2780Y-12898D01*
X2523Y-12908D02*
X2523Y-13041D01*
X2600Y-12908D02*
X2600Y-13013D01*
X2592Y-13032D01*
X2575Y-13041D01*
X2549Y-13041D01*
X2532Y-13032D01*
X2523Y-13022D01*
X2378Y-12936D02*
X2438Y-12936D01*
X2438Y-13041D02*
X2438Y-12841D01*
X2352Y-12841D01*
G54D14*
X-7504Y-3722D02*
X-7504Y-3622D01*
X-7347Y-3622D02*
X-7647Y-3622D01*
X-7647Y-3765D01*
X-7647Y-4022D02*
X-7647Y-3879D01*
X-7504Y-3865D01*
X-7518Y-3879D01*
X-7532Y-3908D01*
X-7532Y-3979D01*
X-7518Y-4008D01*
X-7504Y-4022D01*
X-7475Y-4037D01*
X-7404Y-4037D01*
X-7375Y-4022D01*
X-7361Y-4008D01*
X-7347Y-3979D01*
X-7347Y-3908D01*
X-7361Y-3879D01*
X-7375Y-3865D01*
X-7492Y-4508D02*
X-7492Y-4408D01*
X-7335Y-4408D02*
X-7635Y-4408D01*
X-7635Y-4551D01*
X-7635Y-4665D02*
X-7392Y-4665D01*
X-7363Y-4680D01*
X-7349Y-4694D01*
X-7335Y-4723D01*
X-7335Y-4780D01*
X-7349Y-4808D01*
X-7363Y-4823D01*
X-7392Y-4837D01*
X-7635Y-4837D01*
X-7349Y-4965D02*
X-7335Y-5008D01*
X-7335Y-5080D01*
X-7349Y-5108D01*
X-7363Y-5123D01*
X-7392Y-5137D01*
X-7420Y-5137D01*
X-7449Y-5123D01*
X-7463Y-5108D01*
X-7478Y-5080D01*
X-7492Y-5023D01*
X-7506Y-4994D01*
X-7520Y-4980D01*
X-7549Y-4965D01*
X-7578Y-4965D01*
X-7606Y-4980D01*
X-7620Y-4994D01*
X-7635Y-5023D01*
X-7635Y-5094D01*
X-7620Y-5137D01*
X-7492Y-5265D02*
X-7492Y-5365D01*
X-7335Y-5408D02*
X-7335Y-5265D01*
X-7635Y-5265D01*
X-7635Y-5408D01*
X-5425Y-3738D02*
X-5425Y-3638D01*
X-5268Y-3638D02*
X-5568Y-3638D01*
X-5568Y-3781D01*
X-5568Y-4024D02*
X-5568Y-3967D01*
X-5554Y-3938D01*
X-5539Y-3924D01*
X-5496Y-3895D01*
X-5439Y-3881D01*
X-5325Y-3881D01*
X-5296Y-3895D01*
X-5282Y-3910D01*
X-5268Y-3938D01*
X-5268Y-3995D01*
X-5282Y-4024D01*
X-5296Y-4038D01*
X-5325Y-4052D01*
X-5396Y-4052D01*
X-5425Y-4038D01*
X-5439Y-4024D01*
X-5454Y-3995D01*
X-5454Y-3938D01*
X-5439Y-3910D01*
X-5425Y-3895D01*
X-5396Y-3881D01*
X-5445Y-4516D02*
X-5445Y-4416D01*
X-5288Y-4416D02*
X-5588Y-4416D01*
X-5588Y-4559D01*
X-5588Y-4673D02*
X-5345Y-4673D01*
X-5316Y-4688D01*
X-5302Y-4702D01*
X-5288Y-4730D01*
X-5288Y-4788D01*
X-5302Y-4816D01*
X-5316Y-4830D01*
X-5345Y-4845D01*
X-5588Y-4845D01*
X-5302Y-4973D02*
X-5288Y-5016D01*
X-5288Y-5088D01*
X-5302Y-5116D01*
X-5316Y-5130D01*
X-5345Y-5145D01*
X-5373Y-5145D01*
X-5402Y-5130D01*
X-5416Y-5116D01*
X-5430Y-5088D01*
X-5445Y-5030D01*
X-5459Y-5002D01*
X-5473Y-4988D01*
X-5502Y-4973D01*
X-5530Y-4973D01*
X-5559Y-4988D01*
X-5573Y-5002D01*
X-5588Y-5030D01*
X-5588Y-5102D01*
X-5573Y-5145D01*
X-5445Y-5273D02*
X-5445Y-5373D01*
X-5288Y-5416D02*
X-5288Y-5273D01*
X-5588Y-5273D01*
X-5588Y-5416D01*
X-15472Y-3679D02*
X-15472Y-3579D01*
X-15315Y-3579D02*
X-15615Y-3579D01*
X-15615Y-3722D01*
X-15315Y-3993D02*
X-15315Y-3822D01*
X-15315Y-3908D02*
X-15615Y-3908D01*
X-15572Y-3879D01*
X-15544Y-3850D01*
X-15529Y-3822D01*
X-15476Y-4402D02*
X-15476Y-4302D01*
X-15319Y-4302D02*
X-15619Y-4302D01*
X-15619Y-4445D01*
X-15619Y-4559D02*
X-15376Y-4559D01*
X-15348Y-4573D01*
X-15333Y-4588D01*
X-15319Y-4616D01*
X-15319Y-4673D01*
X-15333Y-4702D01*
X-15348Y-4716D01*
X-15376Y-4730D01*
X-15619Y-4730D01*
X-15333Y-4859D02*
X-15319Y-4902D01*
X-15319Y-4973D01*
X-15333Y-5002D01*
X-15348Y-5016D01*
X-15376Y-5030D01*
X-15405Y-5030D01*
X-15433Y-5016D01*
X-15448Y-5002D01*
X-15462Y-4973D01*
X-15476Y-4916D01*
X-15490Y-4888D01*
X-15505Y-4873D01*
X-15533Y-4859D01*
X-15562Y-4859D01*
X-15590Y-4873D01*
X-15605Y-4888D01*
X-15619Y-4916D01*
X-15619Y-4988D01*
X-15605Y-5030D01*
X-15476Y-5159D02*
X-15476Y-5259D01*
X-15319Y-5302D02*
X-15319Y-5159D01*
X-15619Y-5159D01*
X-15619Y-5302D01*
X-9449Y-3738D02*
X-9449Y-3638D01*
X-9291Y-3638D02*
X-9591Y-3638D01*
X-9591Y-3781D01*
X-9463Y-3938D02*
X-9477Y-3910D01*
X-9491Y-3895D01*
X-9520Y-3881D01*
X-9534Y-3881D01*
X-9563Y-3895D01*
X-9577Y-3910D01*
X-9591Y-3938D01*
X-9591Y-3995D01*
X-9577Y-4024D01*
X-9563Y-4038D01*
X-9534Y-4052D01*
X-9520Y-4052D01*
X-9491Y-4038D01*
X-9477Y-4024D01*
X-9463Y-3995D01*
X-9463Y-3938D01*
X-9449Y-3910D01*
X-9434Y-3895D01*
X-9406Y-3881D01*
X-9349Y-3881D01*
X-9320Y-3895D01*
X-9306Y-3910D01*
X-9291Y-3938D01*
X-9291Y-3995D01*
X-9306Y-4024D01*
X-9320Y-4038D01*
X-9349Y-4052D01*
X-9406Y-4052D01*
X-9434Y-4038D01*
X-9449Y-4024D01*
X-9463Y-3995D01*
X-9449Y-4457D02*
X-9449Y-4357D01*
X-9291Y-4357D02*
X-9591Y-4357D01*
X-9591Y-4500D01*
X-9591Y-4614D02*
X-9349Y-4614D01*
X-9320Y-4628D01*
X-9306Y-4643D01*
X-9291Y-4671D01*
X-9291Y-4728D01*
X-9306Y-4757D01*
X-9320Y-4771D01*
X-9349Y-4786D01*
X-9591Y-4786D01*
X-9306Y-4914D02*
X-9291Y-4957D01*
X-9291Y-5028D01*
X-9306Y-5057D01*
X-9320Y-5071D01*
X-9349Y-5086D01*
X-9377Y-5086D01*
X-9406Y-5071D01*
X-9420Y-5057D01*
X-9434Y-5028D01*
X-9449Y-4971D01*
X-9463Y-4943D01*
X-9477Y-4928D01*
X-9506Y-4914D01*
X-9534Y-4914D01*
X-9563Y-4928D01*
X-9577Y-4943D01*
X-9591Y-4971D01*
X-9591Y-5043D01*
X-9577Y-5086D01*
X-9449Y-5214D02*
X-9449Y-5314D01*
X-9291Y-5357D02*
X-9291Y-5214D01*
X-9591Y-5214D01*
X-9591Y-5357D01*
X-11500Y-3722D02*
X-11500Y-3622D01*
X-11343Y-3622D02*
X-11643Y-3622D01*
X-11643Y-3765D01*
X-11643Y-3851D02*
X-11643Y-4051D01*
X-11343Y-3922D01*
X-11496Y-4437D02*
X-11496Y-4337D01*
X-11339Y-4337D02*
X-11639Y-4337D01*
X-11639Y-4480D01*
X-11639Y-4594D02*
X-11396Y-4594D01*
X-11367Y-4609D01*
X-11353Y-4623D01*
X-11339Y-4652D01*
X-11339Y-4709D01*
X-11353Y-4737D01*
X-11367Y-4752D01*
X-11396Y-4766D01*
X-11639Y-4766D01*
X-11353Y-4894D02*
X-11339Y-4937D01*
X-11339Y-5009D01*
X-11353Y-5037D01*
X-11367Y-5052D01*
X-11396Y-5066D01*
X-11424Y-5066D01*
X-11453Y-5052D01*
X-11467Y-5037D01*
X-11482Y-5009D01*
X-11496Y-4952D01*
X-11510Y-4923D01*
X-11524Y-4909D01*
X-11553Y-4894D01*
X-11582Y-4894D01*
X-11610Y-4909D01*
X-11624Y-4923D01*
X-11639Y-4952D01*
X-11639Y-5023D01*
X-11624Y-5066D01*
X-11496Y-5194D02*
X-11496Y-5294D01*
X-11339Y-5337D02*
X-11339Y-5194D01*
X-11639Y-5194D01*
X-11639Y-5337D01*
X-19504Y-3648D02*
X-19504Y-3548D01*
X-19347Y-3548D02*
X-19647Y-3548D01*
X-19647Y-3690D01*
X-19647Y-3776D02*
X-19647Y-3962D01*
X-19532Y-3862D01*
X-19532Y-3905D01*
X-19518Y-3933D01*
X-19504Y-3948D01*
X-19475Y-3962D01*
X-19404Y-3962D01*
X-19375Y-3948D01*
X-19361Y-3933D01*
X-19347Y-3905D01*
X-19347Y-3819D01*
X-19361Y-3790D01*
X-19375Y-3776D01*
X-19508Y-4410D02*
X-19508Y-4310D01*
X-19351Y-4310D02*
X-19651Y-4310D01*
X-19651Y-4453D01*
X-19651Y-4567D02*
X-19408Y-4567D01*
X-19379Y-4581D01*
X-19365Y-4596D01*
X-19351Y-4624D01*
X-19351Y-4681D01*
X-19365Y-4710D01*
X-19379Y-4724D01*
X-19408Y-4738D01*
X-19651Y-4738D01*
X-19365Y-4867D02*
X-19351Y-4910D01*
X-19351Y-4981D01*
X-19365Y-5010D01*
X-19379Y-5024D01*
X-19408Y-5038D01*
X-19436Y-5038D01*
X-19465Y-5024D01*
X-19479Y-5010D01*
X-19493Y-4981D01*
X-19508Y-4924D01*
X-19522Y-4896D01*
X-19536Y-4881D01*
X-19565Y-4867D01*
X-19593Y-4867D01*
X-19622Y-4881D01*
X-19636Y-4896D01*
X-19651Y-4924D01*
X-19651Y-4996D01*
X-19636Y-5038D01*
X-19508Y-5167D02*
X-19508Y-5267D01*
X-19351Y-5310D02*
X-19351Y-5167D01*
X-19651Y-5167D01*
X-19651Y-5310D01*
X-13496Y-3679D02*
X-13496Y-3579D01*
X-13339Y-3579D02*
X-13639Y-3579D01*
X-13639Y-3722D01*
X-13610Y-3822D02*
X-13624Y-3836D01*
X-13639Y-3865D01*
X-13639Y-3936D01*
X-13624Y-3965D01*
X-13610Y-3979D01*
X-13582Y-3993D01*
X-13553Y-3993D01*
X-13510Y-3979D01*
X-13339Y-3808D01*
X-13339Y-3993D01*
X-13488Y-4394D02*
X-13488Y-4294D01*
X-13331Y-4294D02*
X-13631Y-4294D01*
X-13631Y-4437D01*
X-13631Y-4551D02*
X-13388Y-4551D01*
X-13359Y-4565D01*
X-13345Y-4580D01*
X-13331Y-4608D01*
X-13331Y-4665D01*
X-13345Y-4694D01*
X-13359Y-4708D01*
X-13388Y-4723D01*
X-13631Y-4723D01*
X-13345Y-4851D02*
X-13331Y-4894D01*
X-13331Y-4965D01*
X-13345Y-4994D01*
X-13359Y-5008D01*
X-13388Y-5023D01*
X-13417Y-5023D01*
X-13445Y-5008D01*
X-13459Y-4994D01*
X-13474Y-4965D01*
X-13488Y-4908D01*
X-13502Y-4880D01*
X-13517Y-4865D01*
X-13545Y-4851D01*
X-13574Y-4851D01*
X-13602Y-4865D01*
X-13617Y-4880D01*
X-13631Y-4908D01*
X-13631Y-4980D01*
X-13617Y-5023D01*
X-13488Y-5151D02*
X-13488Y-5251D01*
X-13331Y-5294D02*
X-13331Y-5151D01*
X-13631Y-5151D01*
X-13631Y-5294D01*
X-17488Y-3616D02*
X-17488Y-3516D01*
X-17331Y-3516D02*
X-17631Y-3516D01*
X-17631Y-3659D01*
X-17531Y-3902D02*
X-17331Y-3902D01*
X-17645Y-3830D02*
X-17431Y-3759D01*
X-17431Y-3945D01*
X-17480Y-4394D02*
X-17480Y-4294D01*
X-17323Y-4294D02*
X-17623Y-4294D01*
X-17623Y-4437D01*
X-17623Y-4551D02*
X-17380Y-4551D01*
X-17352Y-4565D01*
X-17337Y-4580D01*
X-17323Y-4608D01*
X-17323Y-4665D01*
X-17337Y-4694D01*
X-17352Y-4708D01*
X-17380Y-4723D01*
X-17623Y-4723D01*
X-17337Y-4851D02*
X-17323Y-4894D01*
X-17323Y-4965D01*
X-17337Y-4994D01*
X-17352Y-5008D01*
X-17380Y-5023D01*
X-17409Y-5023D01*
X-17437Y-5008D01*
X-17452Y-4994D01*
X-17466Y-4965D01*
X-17480Y-4908D01*
X-17494Y-4880D01*
X-17509Y-4865D01*
X-17537Y-4851D01*
X-17566Y-4851D01*
X-17594Y-4865D01*
X-17609Y-4880D01*
X-17623Y-4908D01*
X-17623Y-4980D01*
X-17609Y-5023D01*
X-17480Y-5151D02*
X-17480Y-5251D01*
X-17323Y-5294D02*
X-17323Y-5151D01*
X-17623Y-5151D01*
X-17623Y-5294D01*
G54D18*
X11922Y-14310D02*
X11828Y-14244D01*
X11922Y-14197D02*
X11725Y-14197D01*
X11725Y-14272D01*
X11734Y-14291D01*
X11744Y-14300D01*
X11762Y-14310D01*
X11790Y-14310D01*
X11809Y-14300D01*
X11819Y-14291D01*
X11828Y-14272D01*
X11828Y-14197D01*
X11744Y-14385D02*
X11734Y-14394D01*
X11725Y-14413D01*
X11725Y-14460D01*
X11734Y-14479D01*
X11744Y-14488D01*
X11762Y-14497D01*
X11781Y-14497D01*
X11809Y-14488D01*
X11922Y-14376D01*
X11922Y-14497D01*
X11790Y-14666D02*
X11922Y-14666D01*
X11715Y-14619D02*
X11856Y-14573D01*
X11856Y-14694D01*
X11922Y-15102D02*
X11922Y-14989D01*
X11922Y-15046D02*
X11725Y-15046D01*
X11753Y-15027D01*
X11772Y-15008D01*
X11781Y-14989D01*
X11922Y-15186D02*
X11725Y-15186D01*
X11847Y-15205D02*
X11922Y-15262D01*
X11790Y-15262D02*
X11865Y-15186D01*
X13103Y-14294D02*
X13009Y-14228D01*
X13103Y-14182D02*
X12906Y-14182D01*
X12906Y-14257D01*
X12915Y-14275D01*
X12925Y-14285D01*
X12943Y-14294D01*
X12972Y-14294D01*
X12990Y-14285D01*
X13000Y-14275D01*
X13009Y-14257D01*
X13009Y-14182D01*
X12925Y-14369D02*
X12915Y-14379D01*
X12906Y-14397D01*
X12906Y-14444D01*
X12915Y-14463D01*
X12925Y-14472D01*
X12943Y-14482D01*
X12962Y-14482D01*
X12990Y-14472D01*
X13103Y-14360D01*
X13103Y-14482D01*
X12906Y-14547D02*
X12906Y-14679D01*
X13103Y-14594D01*
X13095Y-15063D02*
X13095Y-14950D01*
X13095Y-15006D02*
X12898Y-15006D01*
X12926Y-14988D01*
X12945Y-14969D01*
X12954Y-14950D01*
X13095Y-15147D02*
X12898Y-15147D01*
X13020Y-15166D02*
X13095Y-15222D01*
X12964Y-15222D02*
X13039Y-15147D01*
X3040Y-14267D02*
X2946Y-14201D01*
X3040Y-14154D02*
X2843Y-14154D01*
X2843Y-14229D01*
X2852Y-14248D01*
X2862Y-14257D01*
X2880Y-14267D01*
X2909Y-14267D01*
X2927Y-14257D01*
X2937Y-14248D01*
X2946Y-14229D01*
X2946Y-14154D01*
X3040Y-14454D02*
X3040Y-14342D01*
X3040Y-14398D02*
X2843Y-14398D01*
X2871Y-14379D01*
X2890Y-14360D01*
X2899Y-14342D01*
X2862Y-14529D02*
X2852Y-14539D01*
X2843Y-14557D01*
X2843Y-14604D01*
X2852Y-14623D01*
X2862Y-14632D01*
X2880Y-14642D01*
X2899Y-14642D01*
X2927Y-14632D01*
X3040Y-14520D01*
X3040Y-14642D01*
X3028Y-15126D02*
X3028Y-15013D01*
X3028Y-15069D02*
X2831Y-15069D01*
X2859Y-15051D01*
X2878Y-15032D01*
X2887Y-15013D01*
X3028Y-15210D02*
X2831Y-15210D01*
X2953Y-15229D02*
X3028Y-15285D01*
X2897Y-15285D02*
X2972Y-15210D01*
X5083Y-14306D02*
X4989Y-14240D01*
X5083Y-14193D02*
X4886Y-14193D01*
X4886Y-14268D01*
X4896Y-14287D01*
X4905Y-14297D01*
X4924Y-14306D01*
X4952Y-14306D01*
X4971Y-14297D01*
X4980Y-14287D01*
X4989Y-14268D01*
X4989Y-14193D01*
X5083Y-14494D02*
X5083Y-14381D01*
X5083Y-14437D02*
X4886Y-14437D01*
X4914Y-14418D01*
X4933Y-14400D01*
X4942Y-14381D01*
X4886Y-14672D02*
X4886Y-14578D01*
X4980Y-14569D01*
X4971Y-14578D01*
X4961Y-14597D01*
X4961Y-14644D01*
X4971Y-14662D01*
X4980Y-14672D01*
X4999Y-14681D01*
X5046Y-14681D01*
X5064Y-14672D01*
X5074Y-14662D01*
X5083Y-14644D01*
X5083Y-14597D01*
X5074Y-14578D01*
X5064Y-14569D01*
X5063Y-15098D02*
X5063Y-14986D01*
X5063Y-15042D02*
X4866Y-15042D01*
X4895Y-15023D01*
X4913Y-15004D01*
X4923Y-14986D01*
X5063Y-15183D02*
X4866Y-15183D01*
X4988Y-15201D02*
X5063Y-15258D01*
X4932Y-15258D02*
X5007Y-15183D01*
X5949Y-14306D02*
X5856Y-14240D01*
X5949Y-14193D02*
X5752Y-14193D01*
X5752Y-14268D01*
X5762Y-14287D01*
X5771Y-14297D01*
X5790Y-14306D01*
X5818Y-14306D01*
X5837Y-14297D01*
X5846Y-14287D01*
X5856Y-14268D01*
X5856Y-14193D01*
X5949Y-14494D02*
X5949Y-14381D01*
X5949Y-14437D02*
X5752Y-14437D01*
X5780Y-14418D01*
X5799Y-14400D01*
X5809Y-14381D01*
X5837Y-14606D02*
X5827Y-14587D01*
X5818Y-14578D01*
X5799Y-14569D01*
X5790Y-14569D01*
X5771Y-14578D01*
X5762Y-14587D01*
X5752Y-14606D01*
X5752Y-14644D01*
X5762Y-14662D01*
X5771Y-14672D01*
X5790Y-14681D01*
X5799Y-14681D01*
X5818Y-14672D01*
X5827Y-14662D01*
X5837Y-14644D01*
X5837Y-14606D01*
X5846Y-14587D01*
X5856Y-14578D01*
X5874Y-14569D01*
X5912Y-14569D01*
X5931Y-14578D01*
X5940Y-14587D01*
X5949Y-14606D01*
X5949Y-14644D01*
X5940Y-14662D01*
X5931Y-14672D01*
X5912Y-14681D01*
X5874Y-14681D01*
X5856Y-14672D01*
X5846Y-14662D01*
X5837Y-14644D01*
X5957Y-15102D02*
X5957Y-14989D01*
X5957Y-15046D02*
X5760Y-15046D01*
X5788Y-15027D01*
X5807Y-15008D01*
X5816Y-14989D01*
X5957Y-15186D02*
X5760Y-15186D01*
X5882Y-15205D02*
X5957Y-15262D01*
X5826Y-15262D02*
X5901Y-15186D01*
X7044Y-14294D02*
X6950Y-14228D01*
X7044Y-14182D02*
X6847Y-14182D01*
X6847Y-14257D01*
X6856Y-14275D01*
X6866Y-14285D01*
X6884Y-14294D01*
X6912Y-14294D01*
X6931Y-14285D01*
X6941Y-14275D01*
X6950Y-14257D01*
X6950Y-14182D01*
X6866Y-14369D02*
X6856Y-14379D01*
X6847Y-14397D01*
X6847Y-14444D01*
X6856Y-14463D01*
X6866Y-14472D01*
X6884Y-14482D01*
X6903Y-14482D01*
X6931Y-14472D01*
X7044Y-14360D01*
X7044Y-14482D01*
X7044Y-14669D02*
X7044Y-14557D01*
X7044Y-14613D02*
X6847Y-14613D01*
X6875Y-14594D01*
X6894Y-14576D01*
X6903Y-14557D01*
X7036Y-15106D02*
X7036Y-14993D01*
X7036Y-15050D02*
X6839Y-15050D01*
X6867Y-15031D01*
X6886Y-15012D01*
X6895Y-14993D01*
X7036Y-15190D02*
X6839Y-15190D01*
X6961Y-15209D02*
X7036Y-15265D01*
X6905Y-15265D02*
X6980Y-15190D01*
X-2955Y-14297D02*
X-3049Y-14232D01*
X-2955Y-14185D02*
X-3152Y-14185D01*
X-3152Y-14260D01*
X-3143Y-14279D01*
X-3133Y-14288D01*
X-3115Y-14297D01*
X-3087Y-14297D01*
X-3068Y-14288D01*
X-3058Y-14279D01*
X-3049Y-14260D01*
X-3049Y-14185D01*
X-3152Y-14363D02*
X-3152Y-14485D01*
X-3077Y-14419D01*
X-3077Y-14447D01*
X-3068Y-14466D01*
X-3058Y-14476D01*
X-3040Y-14485D01*
X-2993Y-14485D01*
X-2974Y-14476D01*
X-2965Y-14466D01*
X-2955Y-14447D01*
X-2955Y-14391D01*
X-2965Y-14372D01*
X-2974Y-14363D01*
X-2967Y-15082D02*
X-2967Y-14970D01*
X-2967Y-15026D02*
X-3164Y-15026D01*
X-3136Y-15007D01*
X-3117Y-14989D01*
X-3108Y-14970D01*
X-2967Y-15167D02*
X-3164Y-15167D01*
X-3042Y-15186D02*
X-2967Y-15242D01*
X-3098Y-15242D02*
X-3023Y-15167D01*
X-963Y-14325D02*
X-1057Y-14259D01*
X-963Y-14212D02*
X-1160Y-14212D01*
X-1160Y-14287D01*
X-1151Y-14306D01*
X-1141Y-14316D01*
X-1123Y-14325D01*
X-1094Y-14325D01*
X-1076Y-14316D01*
X-1066Y-14306D01*
X-1057Y-14287D01*
X-1057Y-14212D01*
X-1160Y-14494D02*
X-1160Y-14456D01*
X-1151Y-14438D01*
X-1141Y-14428D01*
X-1113Y-14409D01*
X-1076Y-14400D01*
X-1001Y-14400D01*
X-982Y-14409D01*
X-972Y-14419D01*
X-963Y-14438D01*
X-963Y-14475D01*
X-972Y-14494D01*
X-982Y-14503D01*
X-1001Y-14513D01*
X-1047Y-14513D01*
X-1066Y-14503D01*
X-1076Y-14494D01*
X-1085Y-14475D01*
X-1085Y-14438D01*
X-1076Y-14419D01*
X-1066Y-14409D01*
X-1047Y-14400D01*
X-967Y-15067D02*
X-967Y-14954D01*
X-967Y-15010D02*
X-1164Y-15010D01*
X-1136Y-14992D01*
X-1117Y-14973D01*
X-1108Y-14954D01*
X-967Y-15151D02*
X-1164Y-15151D01*
X-1042Y-15170D02*
X-967Y-15226D01*
X-1098Y-15226D02*
X-1023Y-15151D01*
X1040Y-14293D02*
X946Y-14228D01*
X1040Y-14181D02*
X843Y-14181D01*
X843Y-14256D01*
X852Y-14275D01*
X862Y-14284D01*
X880Y-14293D01*
X909Y-14293D01*
X927Y-14284D01*
X937Y-14275D01*
X946Y-14256D01*
X946Y-14181D01*
X1040Y-14387D02*
X1040Y-14425D01*
X1030Y-14444D01*
X1021Y-14453D01*
X993Y-14472D01*
X955Y-14481D01*
X880Y-14481D01*
X862Y-14472D01*
X852Y-14462D01*
X843Y-14444D01*
X843Y-14406D01*
X852Y-14387D01*
X862Y-14378D01*
X880Y-14368D01*
X927Y-14368D01*
X946Y-14378D01*
X955Y-14387D01*
X965Y-14406D01*
X965Y-14444D01*
X955Y-14462D01*
X946Y-14472D01*
X927Y-14481D01*
X1024Y-15071D02*
X1024Y-14958D01*
X1024Y-15014D02*
X827Y-15014D01*
X855Y-14995D01*
X874Y-14977D01*
X883Y-14958D01*
X1024Y-15155D02*
X827Y-15155D01*
X949Y-15174D02*
X1024Y-15230D01*
X893Y-15230D02*
X968Y-15155D01*
G54D14*
X6752Y-5101D02*
X6752Y-4801D01*
X6681Y-4801D01*
X6638Y-4816D01*
X6610Y-4844D01*
X6595Y-4873D01*
X6581Y-4930D01*
X6581Y-4973D01*
X6595Y-5030D01*
X6610Y-5058D01*
X6638Y-5087D01*
X6681Y-5101D01*
X6752Y-5101D01*
X6324Y-4801D02*
X6381Y-4801D01*
X6410Y-4816D01*
X6424Y-4830D01*
X6452Y-4873D01*
X6467Y-4930D01*
X6467Y-5044D01*
X6452Y-5073D01*
X6438Y-5087D01*
X6410Y-5101D01*
X6352Y-5101D01*
X6324Y-5087D01*
X6310Y-5073D01*
X6295Y-5044D01*
X6295Y-4973D01*
X6310Y-4944D01*
X6324Y-4930D01*
X6352Y-4916D01*
X6410Y-4916D01*
X6438Y-4930D01*
X6452Y-4944D01*
X6467Y-4973D01*
X6962Y-2108D02*
X6776Y-2108D01*
X6876Y-2223D01*
X6833Y-2223D01*
X6805Y-2237D01*
X6791Y-2251D01*
X6776Y-2280D01*
X6776Y-2351D01*
X6791Y-2380D01*
X6805Y-2394D01*
X6833Y-2408D01*
X6919Y-2408D01*
X6948Y-2394D01*
X6962Y-2380D01*
X6633Y-2394D02*
X6633Y-2408D01*
X6648Y-2437D01*
X6662Y-2451D01*
X6533Y-2108D02*
X6348Y-2108D01*
X6448Y-2223D01*
X6405Y-2223D01*
X6376Y-2237D01*
X6362Y-2251D01*
X6348Y-2280D01*
X6348Y-2351D01*
X6362Y-2380D01*
X6376Y-2394D01*
X6405Y-2408D01*
X6491Y-2408D01*
X6519Y-2394D01*
X6533Y-2380D01*
X6262Y-2108D02*
X6162Y-2408D01*
X6062Y-2108D01*
X10717Y-5050D02*
X10717Y-4750D01*
X10646Y-4750D01*
X10603Y-4764D01*
X10574Y-4793D01*
X10560Y-4821D01*
X10546Y-4879D01*
X10546Y-4921D01*
X10560Y-4979D01*
X10574Y-5007D01*
X10603Y-5036D01*
X10646Y-5050D01*
X10717Y-5050D01*
X10403Y-5050D02*
X10346Y-5050D01*
X10317Y-5036D01*
X10303Y-5021D01*
X10274Y-4979D01*
X10260Y-4921D01*
X10260Y-4807D01*
X10274Y-4779D01*
X10288Y-4764D01*
X10317Y-4750D01*
X10374Y-4750D01*
X10403Y-4764D01*
X10417Y-4779D01*
X10431Y-4807D01*
X10431Y-4879D01*
X10417Y-4907D01*
X10403Y-4921D01*
X10374Y-4936D01*
X10317Y-4936D01*
X10288Y-4921D01*
X10274Y-4907D01*
X10260Y-4879D01*
X10899Y-2097D02*
X10713Y-2097D01*
X10813Y-2211D01*
X10770Y-2211D01*
X10742Y-2225D01*
X10728Y-2239D01*
X10713Y-2268D01*
X10713Y-2339D01*
X10728Y-2368D01*
X10742Y-2382D01*
X10770Y-2397D01*
X10856Y-2397D01*
X10885Y-2382D01*
X10899Y-2368D01*
X10570Y-2382D02*
X10570Y-2397D01*
X10585Y-2425D01*
X10599Y-2439D01*
X10470Y-2097D02*
X10285Y-2097D01*
X10385Y-2211D01*
X10342Y-2211D01*
X10313Y-2225D01*
X10299Y-2239D01*
X10285Y-2268D01*
X10285Y-2339D01*
X10299Y-2368D01*
X10313Y-2382D01*
X10342Y-2397D01*
X10428Y-2397D01*
X10456Y-2382D01*
X10470Y-2368D01*
X10199Y-2097D02*
X10099Y-2397D01*
X9999Y-2097D01*
X11772Y-5050D02*
X11772Y-4750D01*
X11701Y-4750D01*
X11658Y-4764D01*
X11629Y-4793D01*
X11615Y-4821D01*
X11601Y-4879D01*
X11601Y-4921D01*
X11615Y-4979D01*
X11629Y-5007D01*
X11658Y-5036D01*
X11701Y-5050D01*
X11772Y-5050D01*
X11429Y-4879D02*
X11458Y-4864D01*
X11472Y-4850D01*
X11486Y-4821D01*
X11486Y-4807D01*
X11472Y-4779D01*
X11458Y-4764D01*
X11429Y-4750D01*
X11372Y-4750D01*
X11344Y-4764D01*
X11329Y-4779D01*
X11315Y-4807D01*
X11315Y-4821D01*
X11329Y-4850D01*
X11344Y-4864D01*
X11372Y-4879D01*
X11429Y-4879D01*
X11458Y-4893D01*
X11472Y-4907D01*
X11486Y-4936D01*
X11486Y-4993D01*
X11472Y-5021D01*
X11458Y-5036D01*
X11429Y-5050D01*
X11372Y-5050D01*
X11344Y-5036D01*
X11329Y-5021D01*
X11315Y-4993D01*
X11315Y-4936D01*
X11329Y-4907D01*
X11344Y-4893D01*
X11372Y-4879D01*
X11962Y-2097D02*
X11776Y-2097D01*
X11876Y-2211D01*
X11833Y-2211D01*
X11805Y-2225D01*
X11791Y-2239D01*
X11776Y-2268D01*
X11776Y-2339D01*
X11791Y-2368D01*
X11805Y-2382D01*
X11833Y-2397D01*
X11919Y-2397D01*
X11948Y-2382D01*
X11962Y-2368D01*
X11633Y-2382D02*
X11633Y-2397D01*
X11648Y-2425D01*
X11662Y-2439D01*
X11533Y-2097D02*
X11348Y-2097D01*
X11448Y-2211D01*
X11405Y-2211D01*
X11376Y-2225D01*
X11362Y-2239D01*
X11348Y-2268D01*
X11348Y-2339D01*
X11362Y-2368D01*
X11376Y-2382D01*
X11405Y-2397D01*
X11491Y-2397D01*
X11519Y-2382D01*
X11533Y-2368D01*
X11262Y-2097D02*
X11162Y-2397D01*
X11062Y-2097D01*
X9883Y-5042D02*
X9883Y-4742D01*
X9812Y-4742D01*
X9769Y-4756D01*
X9741Y-4785D01*
X9726Y-4814D01*
X9712Y-4871D01*
X9712Y-4914D01*
X9726Y-4971D01*
X9741Y-4999D01*
X9769Y-5028D01*
X9812Y-5042D01*
X9883Y-5042D01*
X9426Y-5042D02*
X9598Y-5042D01*
X9512Y-5042D02*
X9512Y-4742D01*
X9541Y-4785D01*
X9569Y-4814D01*
X9598Y-4828D01*
X9241Y-4742D02*
X9212Y-4742D01*
X9183Y-4756D01*
X9169Y-4771D01*
X9155Y-4799D01*
X9141Y-4856D01*
X9141Y-4928D01*
X9155Y-4985D01*
X9169Y-5014D01*
X9183Y-5028D01*
X9212Y-5042D01*
X9241Y-5042D01*
X9269Y-5028D01*
X9283Y-5014D01*
X9298Y-4985D01*
X9312Y-4928D01*
X9312Y-4856D01*
X9298Y-4799D01*
X9283Y-4771D01*
X9269Y-4756D01*
X9241Y-4742D01*
X9871Y-2077D02*
X9686Y-2077D01*
X9786Y-2191D01*
X9743Y-2191D01*
X9714Y-2205D01*
X9700Y-2220D01*
X9686Y-2248D01*
X9686Y-2320D01*
X9700Y-2348D01*
X9714Y-2363D01*
X9743Y-2377D01*
X9829Y-2377D01*
X9857Y-2363D01*
X9871Y-2348D01*
X9543Y-2363D02*
X9543Y-2377D01*
X9557Y-2405D01*
X9571Y-2420D01*
X9443Y-2077D02*
X9257Y-2077D01*
X9357Y-2191D01*
X9314Y-2191D01*
X9286Y-2205D01*
X9271Y-2220D01*
X9257Y-2248D01*
X9257Y-2320D01*
X9271Y-2348D01*
X9286Y-2363D01*
X9314Y-2377D01*
X9400Y-2377D01*
X9429Y-2363D01*
X9443Y-2348D01*
X9171Y-2077D02*
X9071Y-2377D01*
X8971Y-2077D01*
X5697Y-5089D02*
X5697Y-4789D01*
X5626Y-4789D01*
X5583Y-4804D01*
X5554Y-4832D01*
X5540Y-4861D01*
X5526Y-4918D01*
X5526Y-4961D01*
X5540Y-5018D01*
X5554Y-5047D01*
X5583Y-5075D01*
X5626Y-5089D01*
X5697Y-5089D01*
X5426Y-4789D02*
X5226Y-4789D01*
X5354Y-5089D01*
X5891Y-2116D02*
X5705Y-2116D01*
X5805Y-2230D01*
X5763Y-2230D01*
X5734Y-2245D01*
X5720Y-2259D01*
X5705Y-2288D01*
X5705Y-2359D01*
X5720Y-2388D01*
X5734Y-2402D01*
X5763Y-2416D01*
X5848Y-2416D01*
X5877Y-2402D01*
X5891Y-2388D01*
X5563Y-2402D02*
X5563Y-2416D01*
X5577Y-2445D01*
X5591Y-2459D01*
X5463Y-2116D02*
X5277Y-2116D01*
X5377Y-2230D01*
X5334Y-2230D01*
X5305Y-2245D01*
X5291Y-2259D01*
X5277Y-2288D01*
X5277Y-2359D01*
X5291Y-2388D01*
X5305Y-2402D01*
X5334Y-2416D01*
X5420Y-2416D01*
X5448Y-2402D01*
X5463Y-2388D01*
X5191Y-2116D02*
X5091Y-2416D01*
X4991Y-2116D01*
X3780Y-5082D02*
X3780Y-4782D01*
X3709Y-4782D01*
X3666Y-4796D01*
X3637Y-4824D01*
X3623Y-4853D01*
X3609Y-4910D01*
X3609Y-4953D01*
X3623Y-5010D01*
X3637Y-5039D01*
X3666Y-5067D01*
X3709Y-5082D01*
X3780Y-5082D01*
X3494Y-4810D02*
X3480Y-4796D01*
X3451Y-4782D01*
X3380Y-4782D01*
X3351Y-4796D01*
X3337Y-4810D01*
X3323Y-4839D01*
X3323Y-4867D01*
X3337Y-4910D01*
X3509Y-5082D01*
X3323Y-5082D01*
X4029Y-2108D02*
X3843Y-2108D01*
X3943Y-2223D01*
X3900Y-2223D01*
X3872Y-2237D01*
X3858Y-2251D01*
X3843Y-2280D01*
X3843Y-2351D01*
X3858Y-2380D01*
X3872Y-2394D01*
X3900Y-2408D01*
X3986Y-2408D01*
X4015Y-2394D01*
X4029Y-2380D01*
X3700Y-2394D02*
X3700Y-2408D01*
X3715Y-2437D01*
X3729Y-2451D01*
X3600Y-2108D02*
X3415Y-2108D01*
X3515Y-2223D01*
X3472Y-2223D01*
X3443Y-2237D01*
X3429Y-2251D01*
X3415Y-2280D01*
X3415Y-2351D01*
X3429Y-2380D01*
X3443Y-2394D01*
X3472Y-2408D01*
X3558Y-2408D01*
X3586Y-2394D01*
X3600Y-2380D01*
X3329Y-2108D02*
X3229Y-2408D01*
X3129Y-2108D01*
X2741Y-5085D02*
X2741Y-4785D01*
X2669Y-4785D01*
X2626Y-4800D01*
X2598Y-4828D01*
X2583Y-4857D01*
X2569Y-4914D01*
X2569Y-4957D01*
X2583Y-5014D01*
X2598Y-5043D01*
X2626Y-5071D01*
X2669Y-5085D01*
X2741Y-5085D01*
X2469Y-4785D02*
X2283Y-4785D01*
X2383Y-4900D01*
X2341Y-4900D01*
X2312Y-4914D01*
X2298Y-4928D01*
X2283Y-4957D01*
X2283Y-5028D01*
X2298Y-5057D01*
X2312Y-5071D01*
X2341Y-5085D01*
X2426Y-5085D01*
X2455Y-5071D01*
X2469Y-5057D01*
X2962Y-2097D02*
X2776Y-2097D01*
X2876Y-2211D01*
X2833Y-2211D01*
X2805Y-2225D01*
X2791Y-2239D01*
X2776Y-2268D01*
X2776Y-2339D01*
X2791Y-2368D01*
X2805Y-2382D01*
X2833Y-2397D01*
X2919Y-2397D01*
X2948Y-2382D01*
X2962Y-2368D01*
X2633Y-2382D02*
X2633Y-2397D01*
X2648Y-2425D01*
X2662Y-2439D01*
X2533Y-2097D02*
X2348Y-2097D01*
X2448Y-2211D01*
X2405Y-2211D01*
X2376Y-2225D01*
X2362Y-2239D01*
X2348Y-2268D01*
X2348Y-2339D01*
X2362Y-2368D01*
X2376Y-2382D01*
X2405Y-2397D01*
X2491Y-2397D01*
X2519Y-2382D01*
X2533Y-2368D01*
X2262Y-2097D02*
X2162Y-2397D01*
X2062Y-2097D01*
X1721Y-5093D02*
X1721Y-4793D01*
X1650Y-4793D01*
X1607Y-4808D01*
X1578Y-4836D01*
X1564Y-4865D01*
X1550Y-4922D01*
X1550Y-4965D01*
X1564Y-5022D01*
X1578Y-5051D01*
X1607Y-5079D01*
X1650Y-5093D01*
X1721Y-5093D01*
X1292Y-4893D02*
X1292Y-5093D01*
X1364Y-4779D02*
X1435Y-4993D01*
X1250Y-4993D01*
X1891Y-2108D02*
X1705Y-2108D01*
X1805Y-2223D01*
X1763Y-2223D01*
X1734Y-2237D01*
X1720Y-2251D01*
X1705Y-2280D01*
X1705Y-2351D01*
X1720Y-2380D01*
X1734Y-2394D01*
X1763Y-2408D01*
X1848Y-2408D01*
X1877Y-2394D01*
X1891Y-2380D01*
X1563Y-2394D02*
X1563Y-2408D01*
X1577Y-2437D01*
X1591Y-2451D01*
X1463Y-2108D02*
X1277Y-2108D01*
X1377Y-2223D01*
X1334Y-2223D01*
X1305Y-2237D01*
X1291Y-2251D01*
X1277Y-2280D01*
X1277Y-2351D01*
X1291Y-2380D01*
X1305Y-2394D01*
X1334Y-2408D01*
X1420Y-2408D01*
X1448Y-2394D01*
X1463Y-2380D01*
X1191Y-2108D02*
X1091Y-2408D01*
X991Y-2108D01*
X7776Y-5089D02*
X7776Y-4789D01*
X7705Y-4789D01*
X7662Y-4804D01*
X7633Y-4832D01*
X7619Y-4861D01*
X7605Y-4918D01*
X7605Y-4961D01*
X7619Y-5018D01*
X7633Y-5047D01*
X7662Y-5075D01*
X7705Y-5089D01*
X7776Y-5089D01*
X7333Y-4789D02*
X7476Y-4789D01*
X7490Y-4932D01*
X7476Y-4918D01*
X7447Y-4904D01*
X7376Y-4904D01*
X7347Y-4918D01*
X7333Y-4932D01*
X7319Y-4961D01*
X7319Y-5032D01*
X7333Y-5061D01*
X7347Y-5075D01*
X7376Y-5089D01*
X7447Y-5089D01*
X7476Y-5075D01*
X7490Y-5061D01*
X8009Y-2097D02*
X7824Y-2097D01*
X7924Y-2211D01*
X7881Y-2211D01*
X7852Y-2225D01*
X7838Y-2239D01*
X7824Y-2268D01*
X7824Y-2339D01*
X7838Y-2368D01*
X7852Y-2382D01*
X7881Y-2397D01*
X7966Y-2397D01*
X7995Y-2382D01*
X8009Y-2368D01*
X7681Y-2382D02*
X7681Y-2397D01*
X7695Y-2425D01*
X7709Y-2439D01*
X7581Y-2097D02*
X7395Y-2097D01*
X7495Y-2211D01*
X7452Y-2211D01*
X7424Y-2225D01*
X7409Y-2239D01*
X7395Y-2268D01*
X7395Y-2339D01*
X7409Y-2368D01*
X7424Y-2382D01*
X7452Y-2397D01*
X7538Y-2397D01*
X7566Y-2382D01*
X7581Y-2368D01*
X7309Y-2097D02*
X7209Y-2397D01*
X7109Y-2097D01*
%LPC*%
G54D19*
X-20313Y-14807D03*
X-21013Y-14807D03*
X-20663Y-15607D03*
G54D20*
X536Y-1507D03*
G54D21*
X536Y-507D03*
X1536Y-1507D03*
X1536Y-507D03*
X2536Y-1507D03*
X2536Y-507D03*
X3536Y-1507D03*
X3536Y-507D03*
X4536Y-1507D03*
X4536Y-507D03*
X5536Y-1507D03*
X5536Y-507D03*
X6536Y-1507D03*
X6536Y-507D03*
X7536Y-1507D03*
X7536Y-507D03*
X8536Y-1507D03*
X8536Y-507D03*
X9536Y-1507D03*
X9536Y-507D03*
X10536Y-1507D03*
X10536Y-507D03*
X11536Y-1507D03*
X11536Y-507D03*
X12536Y-1507D03*
X12536Y-507D03*
G54D22*
X-16163Y-13707D03*
G54D21*
X-16163Y-12707D03*
X-16163Y-11707D03*
X-16163Y-10707D03*
X-16163Y-9707D03*
X-16163Y-8707D03*
X-16163Y-7707D03*
X-16163Y-6707D03*
X-19163Y-6707D03*
X-19163Y-7707D03*
X-19163Y-8707D03*
X-19163Y-9707D03*
X-19163Y-10707D03*
X-19163Y-11707D03*
X-19163Y-12707D03*
X-19163Y-13707D03*
G54D22*
X-8163Y-13707D03*
G54D21*
X-8163Y-12707D03*
X-8163Y-11707D03*
X-8163Y-10707D03*
X-8163Y-9707D03*
X-8163Y-8707D03*
X-8163Y-7707D03*
X-8163Y-6707D03*
X-11163Y-6707D03*
X-11163Y-7707D03*
X-11163Y-8707D03*
X-11163Y-9707D03*
X-11163Y-10707D03*
X-11163Y-11707D03*
X-11163Y-12707D03*
X-11163Y-13707D03*
G54D23*
X308Y-13551D03*
X-291Y-13551D03*
G54D24*
X7484Y-13666D03*
X7484Y-13066D03*
G54D23*
X-3491Y-13551D03*
X-2891Y-13551D03*
G54D24*
X6456Y-13685D03*
X6456Y-13085D03*
G54D23*
X-1491Y-13551D03*
X-891Y-13551D03*
X4308Y-13551D03*
X3708Y-13551D03*
G54D24*
X11263Y-13587D03*
X11263Y-12987D03*
X12362Y-13607D03*
X12362Y-13007D03*
G54D23*
X2508Y-13551D03*
X3108Y-13551D03*
G54D25*
X-8463Y-3773D03*
X-8463Y-4973D03*
X-6463Y-3773D03*
X-6463Y-4973D03*
X-16463Y-3773D03*
X-16463Y-4973D03*
X-10463Y-3773D03*
X-10463Y-4973D03*
X-12463Y-3773D03*
X-12463Y-4973D03*
X-20463Y-3773D03*
X-20463Y-4973D03*
X-14463Y-3773D03*
X-14463Y-4973D03*
X-18463Y-3773D03*
X-18463Y-4973D03*
G54D26*
X11259Y-14388D03*
X11259Y-15138D03*
X12401Y-14388D03*
X12401Y-15138D03*
X2408Y-14376D03*
X2408Y-15126D03*
X4408Y-14376D03*
X4408Y-15126D03*
X6408Y-14376D03*
X6408Y-15126D03*
X7480Y-14388D03*
X7480Y-15138D03*
X-3591Y-14376D03*
X-3591Y-15126D03*
X-1591Y-14376D03*
X-1591Y-15126D03*
X408Y-14376D03*
X408Y-15126D03*
G54D27*
X6536Y-4257D03*
X6536Y-2957D03*
X10528Y-4217D03*
X10528Y-2917D03*
X11528Y-4217D03*
X11528Y-2917D03*
X9528Y-4217D03*
X9528Y-2917D03*
X5536Y-4257D03*
X5536Y-2957D03*
X3544Y-4257D03*
X3544Y-2957D03*
X2544Y-4257D03*
X2544Y-2957D03*
X1544Y-4257D03*
X1544Y-2957D03*
X7536Y-4257D03*
X7536Y-2957D03*
G54D28*
X-22149Y-17716D03*
G54D29*
X-24149Y-17716D03*
G54D28*
X-18463Y-1237D03*
G54D29*
X-20463Y-1237D03*
G54D28*
X-6463Y-1237D03*
G54D29*
X-8463Y-1237D03*
G54D28*
X-10463Y-1237D03*
G54D29*
X-12463Y-1237D03*
G54D28*
X-22463Y-1237D03*
G54D29*
X-24463Y-1237D03*
X-12708Y-17716D03*
X-10708Y-17716D03*
G54D28*
X-14708Y-17716D03*
G54D29*
X-8708Y-17716D03*
X-6708Y-17716D03*
G54D28*
X-18716Y-17716D03*
G54D29*
X-16716Y-17716D03*
G54D28*
X-23937Y-12464D03*
G54D29*
X-23937Y-14464D03*
G54D28*
X-23937Y-8448D03*
G54D29*
X-23937Y-10448D03*
G54D28*
X-23937Y-4433D03*
G54D29*
X-23937Y-6433D03*
X10408Y-17736D03*
X8408Y-17736D03*
G54D28*
X12408Y-17736D03*
G54D29*
X6408Y-17736D03*
X4408Y-17736D03*
G54D28*
X2408Y-17736D03*
G54D29*
X408Y-17736D03*
G54D28*
X-1591Y-17736D03*
G54D29*
X-3591Y-17736D03*
G54D28*
X-2463Y-1237D03*
G54D29*
X-4463Y-1237D03*
G54D28*
X-14463Y-1237D03*
G54D29*
X-16463Y-1237D03*
G54D30*
X9409Y-14566D03*
M02*
