G04 (created by PCBNEW (2013-07-07 BZR 4022)-stable) date 6.3.2014 22:13:41*
%MOIN*%
G04 Gerber Fmt 3.4, Leading zero omitted, Abs format*
%FSLAX34Y34*%
G01*
G70*
G90*
G04 APERTURE LIST*
%ADD10C,0.011811*%
%ADD11R,0.048X0.048*%
%ADD12R,0.072X0.072*%
%ADD13C,0.0828661*%
%ADD14R,0.067X0.067*%
%ADD15R,0.037X0.057*%
%ADD16R,0.057X0.037*%
%ADD17R,0.112X0.062*%
%ADD18R,0.067X0.047*%
%ADD19R,0.092X0.072*%
%ADD20R,0.162X0.162*%
%ADD21C,0.162*%
%ADD22C,0.24822*%
G04 APERTURE END LIST*
G54D10*
G54D11*
X-20313Y-14807D03*
X-21013Y-14807D03*
X-20663Y-15607D03*
G54D12*
X536Y-1507D03*
G54D13*
X536Y-507D03*
X1536Y-1507D03*
X1536Y-507D03*
X2536Y-1507D03*
X2536Y-507D03*
X3536Y-1507D03*
X3536Y-507D03*
X4536Y-1507D03*
X4536Y-507D03*
X5536Y-1507D03*
X5536Y-507D03*
X6536Y-1507D03*
X6536Y-507D03*
X7536Y-1507D03*
X7536Y-507D03*
X8536Y-1507D03*
X8536Y-507D03*
X9536Y-1507D03*
X9536Y-507D03*
X10536Y-1507D03*
X10536Y-507D03*
X11536Y-1507D03*
X11536Y-507D03*
X12536Y-1507D03*
X12536Y-507D03*
G54D14*
X-16163Y-13707D03*
G54D13*
X-16163Y-12707D03*
X-16163Y-11707D03*
X-16163Y-10707D03*
X-16163Y-9707D03*
X-16163Y-8707D03*
X-16163Y-7707D03*
X-16163Y-6707D03*
X-19163Y-6707D03*
X-19163Y-7707D03*
X-19163Y-8707D03*
X-19163Y-9707D03*
X-19163Y-10707D03*
X-19163Y-11707D03*
X-19163Y-12707D03*
X-19163Y-13707D03*
G54D14*
X-8163Y-13707D03*
G54D13*
X-8163Y-12707D03*
X-8163Y-11707D03*
X-8163Y-10707D03*
X-8163Y-9707D03*
X-8163Y-8707D03*
X-8163Y-7707D03*
X-8163Y-6707D03*
X-11163Y-6707D03*
X-11163Y-7707D03*
X-11163Y-8707D03*
X-11163Y-9707D03*
X-11163Y-10707D03*
X-11163Y-11707D03*
X-11163Y-12707D03*
X-11163Y-13707D03*
G54D15*
X308Y-13551D03*
X-291Y-13551D03*
G54D16*
X7484Y-13666D03*
X7484Y-13066D03*
G54D15*
X-3491Y-13551D03*
X-2891Y-13551D03*
G54D16*
X6456Y-13685D03*
X6456Y-13085D03*
G54D15*
X-1491Y-13551D03*
X-891Y-13551D03*
X4308Y-13551D03*
X3708Y-13551D03*
G54D16*
X11263Y-13587D03*
X11263Y-12987D03*
X12362Y-13607D03*
X12362Y-13007D03*
G54D15*
X2508Y-13551D03*
X3108Y-13551D03*
G54D17*
X-8463Y-3773D03*
X-8463Y-4973D03*
X-6463Y-3773D03*
X-6463Y-4973D03*
X-16463Y-3773D03*
X-16463Y-4973D03*
X-10463Y-3773D03*
X-10463Y-4973D03*
X-12463Y-3773D03*
X-12463Y-4973D03*
X-20463Y-3773D03*
X-20463Y-4973D03*
X-14463Y-3773D03*
X-14463Y-4973D03*
X-18463Y-3773D03*
X-18463Y-4973D03*
G54D18*
X11259Y-14388D03*
X11259Y-15138D03*
X12401Y-14388D03*
X12401Y-15138D03*
X2408Y-14376D03*
X2408Y-15126D03*
X4408Y-14376D03*
X4408Y-15126D03*
X6408Y-14376D03*
X6408Y-15126D03*
X7480Y-14388D03*
X7480Y-15138D03*
X-3591Y-14376D03*
X-3591Y-15126D03*
X-1591Y-14376D03*
X-1591Y-15126D03*
X408Y-14376D03*
X408Y-15126D03*
G54D19*
X6536Y-4257D03*
X6536Y-2957D03*
X10528Y-4217D03*
X10528Y-2917D03*
X11528Y-4217D03*
X11528Y-2917D03*
X9528Y-4217D03*
X9528Y-2917D03*
X5536Y-4257D03*
X5536Y-2957D03*
X3544Y-4257D03*
X3544Y-2957D03*
X2544Y-4257D03*
X2544Y-2957D03*
X1544Y-4257D03*
X1544Y-2957D03*
X7536Y-4257D03*
X7536Y-2957D03*
G54D20*
X-22149Y-17716D03*
G54D21*
X-24149Y-17716D03*
G54D20*
X-18463Y-1237D03*
G54D21*
X-20463Y-1237D03*
G54D20*
X-6463Y-1237D03*
G54D21*
X-8463Y-1237D03*
G54D20*
X-10463Y-1237D03*
G54D21*
X-12463Y-1237D03*
G54D20*
X-22463Y-1237D03*
G54D21*
X-24463Y-1237D03*
X-12708Y-17716D03*
X-10708Y-17716D03*
G54D20*
X-14708Y-17716D03*
G54D21*
X-8708Y-17716D03*
X-6708Y-17716D03*
G54D20*
X-18716Y-17716D03*
G54D21*
X-16716Y-17716D03*
G54D20*
X-23937Y-12464D03*
G54D21*
X-23937Y-14464D03*
G54D20*
X-23937Y-8448D03*
G54D21*
X-23937Y-10448D03*
G54D20*
X-23937Y-4433D03*
G54D21*
X-23937Y-6433D03*
X10408Y-17736D03*
X8408Y-17736D03*
G54D20*
X12408Y-17736D03*
G54D21*
X6408Y-17736D03*
X4408Y-17736D03*
G54D20*
X2408Y-17736D03*
G54D21*
X408Y-17736D03*
G54D20*
X-1591Y-17736D03*
G54D21*
X-3591Y-17736D03*
G54D20*
X-2463Y-1237D03*
G54D21*
X-4463Y-1237D03*
G54D20*
X-14463Y-1237D03*
G54D21*
X-16463Y-1237D03*
G54D22*
X9409Y-14566D03*
M02*
