G04 (created by PCBNEW (2013-07-07 BZR 4022)-stable) date 6.3.2014 22:13:41*
%MOIN*%
G04 Gerber Fmt 3.4, Leading zero omitted, Abs format*
%FSLAX34Y34*%
G01*
G70*
G90*
G04 APERTURE LIST*
%ADD10C,0.011811*%
%ADD11R,0.072X0.072*%
%ADD12C,0.0828661*%
%ADD13R,0.067X0.067*%
%ADD14R,0.067X0.047*%
%ADD15R,0.047X0.067*%
%ADD16R,0.092X0.072*%
%ADD17R,0.162X0.162*%
%ADD18C,0.162*%
%ADD19C,0.24822*%
%ADD20R,0.0730236X0.0293228*%
G04 APERTURE END LIST*
G54D10*
G54D11*
X536Y-1507D03*
G54D12*
X536Y-507D03*
X1536Y-1507D03*
X1536Y-507D03*
X2536Y-1507D03*
X2536Y-507D03*
X3536Y-1507D03*
X3536Y-507D03*
X4536Y-1507D03*
X4536Y-507D03*
X5536Y-1507D03*
X5536Y-507D03*
X6536Y-1507D03*
X6536Y-507D03*
X7536Y-1507D03*
X7536Y-507D03*
X8536Y-1507D03*
X8536Y-507D03*
X9536Y-1507D03*
X9536Y-507D03*
X10536Y-1507D03*
X10536Y-507D03*
X11536Y-1507D03*
X11536Y-507D03*
X12536Y-1507D03*
X12536Y-507D03*
G54D13*
X-16163Y-13707D03*
G54D12*
X-16163Y-12707D03*
X-16163Y-11707D03*
X-16163Y-10707D03*
X-16163Y-9707D03*
X-16163Y-8707D03*
X-16163Y-7707D03*
X-16163Y-6707D03*
X-19163Y-6707D03*
X-19163Y-7707D03*
X-19163Y-8707D03*
X-19163Y-9707D03*
X-19163Y-10707D03*
X-19163Y-11707D03*
X-19163Y-12707D03*
X-19163Y-13707D03*
G54D13*
X-8163Y-13707D03*
G54D12*
X-8163Y-12707D03*
X-8163Y-11707D03*
X-8163Y-10707D03*
X-8163Y-9707D03*
X-8163Y-8707D03*
X-8163Y-7707D03*
X-8163Y-6707D03*
X-11163Y-6707D03*
X-11163Y-7707D03*
X-11163Y-8707D03*
X-11163Y-9707D03*
X-11163Y-10707D03*
X-11163Y-11707D03*
X-11163Y-12707D03*
X-11163Y-13707D03*
G54D14*
X1544Y-2832D03*
X1544Y-3582D03*
X10528Y-2792D03*
X10528Y-3542D03*
G54D15*
X-12838Y-7407D03*
X-12088Y-7407D03*
G54D14*
X7536Y-2832D03*
X7536Y-3582D03*
G54D15*
X-6488Y-13007D03*
X-7238Y-13007D03*
G54D14*
X6536Y-2832D03*
X6536Y-3582D03*
X11528Y-2792D03*
X11528Y-3542D03*
X5536Y-2832D03*
X5536Y-3582D03*
G54D15*
X-12838Y-13007D03*
X-12088Y-13007D03*
X-6488Y-7407D03*
X-7238Y-7407D03*
X-20838Y-7407D03*
X-20088Y-7407D03*
X-20838Y-13007D03*
X-20088Y-13007D03*
G54D14*
X3544Y-2832D03*
X3544Y-3582D03*
G54D15*
X-14488Y-13007D03*
X-15238Y-13007D03*
X-14488Y-7407D03*
X-15238Y-7407D03*
G54D14*
X2544Y-2832D03*
X2544Y-3582D03*
X9528Y-2792D03*
X9528Y-3542D03*
X2401Y-14388D03*
X2401Y-15138D03*
X4409Y-14388D03*
X4409Y-15138D03*
X12401Y-14388D03*
X12401Y-15138D03*
X11259Y-14388D03*
X11259Y-15138D03*
X6417Y-14388D03*
X6417Y-15138D03*
X7480Y-14388D03*
X7480Y-15138D03*
X-3582Y-14388D03*
X-3582Y-15138D03*
X-1614Y-14388D03*
X-1614Y-15138D03*
X393Y-14388D03*
X393Y-15138D03*
G54D16*
X-20863Y-9657D03*
X-20863Y-8357D03*
X-20863Y-10757D03*
X-20863Y-12057D03*
X-6463Y-10757D03*
X-6463Y-12057D03*
X-14463Y-10757D03*
X-14463Y-12057D03*
X-14463Y-9657D03*
X-14463Y-8357D03*
X-6463Y-9657D03*
X-6463Y-8357D03*
X-12863Y-10757D03*
X-12863Y-12057D03*
X-12863Y-9657D03*
X-12863Y-8357D03*
G54D17*
X-22149Y-17716D03*
G54D18*
X-24149Y-17716D03*
G54D17*
X-18463Y-1237D03*
G54D18*
X-20463Y-1237D03*
G54D17*
X-6463Y-1237D03*
G54D18*
X-8463Y-1237D03*
G54D17*
X-10463Y-1237D03*
G54D18*
X-12463Y-1237D03*
G54D17*
X-22463Y-1237D03*
G54D18*
X-24463Y-1237D03*
X-12708Y-17716D03*
X-10708Y-17716D03*
G54D17*
X-14708Y-17716D03*
G54D18*
X-8708Y-17716D03*
X-6708Y-17716D03*
G54D17*
X-18716Y-17716D03*
G54D18*
X-16716Y-17716D03*
G54D17*
X-23937Y-12464D03*
G54D18*
X-23937Y-14464D03*
G54D17*
X-23937Y-8448D03*
G54D18*
X-23937Y-10448D03*
G54D17*
X-23937Y-4433D03*
G54D18*
X-23937Y-6433D03*
X10408Y-17736D03*
X8408Y-17736D03*
G54D17*
X12408Y-17736D03*
G54D18*
X6408Y-17736D03*
X4408Y-17736D03*
G54D17*
X2408Y-17736D03*
G54D18*
X408Y-17736D03*
G54D17*
X-1591Y-17736D03*
G54D18*
X-3591Y-17736D03*
G54D17*
X-2463Y-1237D03*
G54D18*
X-4463Y-1237D03*
G54D17*
X-14463Y-1237D03*
G54D18*
X-16463Y-1237D03*
G54D19*
X9409Y-14566D03*
G54D20*
X10141Y-6066D03*
X10141Y-6322D03*
X10141Y-6578D03*
X10141Y-6834D03*
X11480Y-6834D03*
X11480Y-6578D03*
X11480Y-6322D03*
X11480Y-6066D03*
X5881Y-6082D03*
X5881Y-6338D03*
X5881Y-6594D03*
X5881Y-6850D03*
X7220Y-6850D03*
X7220Y-6594D03*
X7220Y-6338D03*
X7220Y-6082D03*
X1937Y-6082D03*
X1937Y-6338D03*
X1937Y-6594D03*
X1937Y-6850D03*
X3275Y-6850D03*
X3275Y-6594D03*
X3275Y-6338D03*
X3275Y-6082D03*
M02*
