G04 (created by PCBNEW (2013-07-07 BZR 4022)-stable) date 6.3.2014 22:13:41*
%MOIN*%
G04 Gerber Fmt 3.4, Leading zero omitted, Abs format*
%FSLAX34Y34*%
G01*
G70*
G90*
G04 APERTURE LIST*
%ADD10C,0.011811*%
%ADD11R,0.06X0.06*%
%ADD12C,0.0708661*%
%ADD13R,0.055X0.055*%
%ADD14R,0.055X0.035*%
%ADD15R,0.035X0.055*%
%ADD16R,0.08X0.06*%
%ADD17R,0.15X0.15*%
%ADD18C,0.15*%
%ADD19C,0.23622*%
%ADD20R,0.0610236X0.0173228*%
%ADD21C,0.0275591*%
%ADD22C,0.0354331*%
%ADD23C,0.0314961*%
%ADD24C,0.023622*%
%ADD25C,0.0100394*%
G04 APERTURE END LIST*
G54D10*
G54D11*
X536Y-1507D03*
G54D12*
X536Y-507D03*
X1536Y-1507D03*
X1536Y-507D03*
X2536Y-1507D03*
X2536Y-507D03*
X3536Y-1507D03*
X3536Y-507D03*
X4536Y-1507D03*
X4536Y-507D03*
X5536Y-1507D03*
X5536Y-507D03*
X6536Y-1507D03*
X6536Y-507D03*
X7536Y-1507D03*
X7536Y-507D03*
X8536Y-1507D03*
X8536Y-507D03*
X9536Y-1507D03*
X9536Y-507D03*
X10536Y-1507D03*
X10536Y-507D03*
X11536Y-1507D03*
X11536Y-507D03*
X12536Y-1507D03*
X12536Y-507D03*
G54D13*
X-16163Y-13707D03*
G54D12*
X-16163Y-12707D03*
X-16163Y-11707D03*
X-16163Y-10707D03*
X-16163Y-9707D03*
X-16163Y-8707D03*
X-16163Y-7707D03*
X-16163Y-6707D03*
X-19163Y-6707D03*
X-19163Y-7707D03*
X-19163Y-8707D03*
X-19163Y-9707D03*
X-19163Y-10707D03*
X-19163Y-11707D03*
X-19163Y-12707D03*
X-19163Y-13707D03*
G54D13*
X-8163Y-13707D03*
G54D12*
X-8163Y-12707D03*
X-8163Y-11707D03*
X-8163Y-10707D03*
X-8163Y-9707D03*
X-8163Y-8707D03*
X-8163Y-7707D03*
X-8163Y-6707D03*
X-11163Y-6707D03*
X-11163Y-7707D03*
X-11163Y-8707D03*
X-11163Y-9707D03*
X-11163Y-10707D03*
X-11163Y-11707D03*
X-11163Y-12707D03*
X-11163Y-13707D03*
G54D14*
X1544Y-2832D03*
X1544Y-3582D03*
X10528Y-2792D03*
X10528Y-3542D03*
G54D15*
X-12838Y-7407D03*
X-12088Y-7407D03*
G54D14*
X7536Y-2832D03*
X7536Y-3582D03*
G54D15*
X-6488Y-13007D03*
X-7238Y-13007D03*
G54D14*
X6536Y-2832D03*
X6536Y-3582D03*
X11528Y-2792D03*
X11528Y-3542D03*
X5536Y-2832D03*
X5536Y-3582D03*
G54D15*
X-12838Y-13007D03*
X-12088Y-13007D03*
X-6488Y-7407D03*
X-7238Y-7407D03*
X-20838Y-7407D03*
X-20088Y-7407D03*
X-20838Y-13007D03*
X-20088Y-13007D03*
G54D14*
X3544Y-2832D03*
X3544Y-3582D03*
G54D15*
X-14488Y-13007D03*
X-15238Y-13007D03*
X-14488Y-7407D03*
X-15238Y-7407D03*
G54D14*
X2544Y-2832D03*
X2544Y-3582D03*
X9528Y-2792D03*
X9528Y-3542D03*
X2401Y-14388D03*
X2401Y-15138D03*
X4409Y-14388D03*
X4409Y-15138D03*
X12401Y-14388D03*
X12401Y-15138D03*
X11259Y-14388D03*
X11259Y-15138D03*
X6417Y-14388D03*
X6417Y-15138D03*
X7480Y-14388D03*
X7480Y-15138D03*
X-3582Y-14388D03*
X-3582Y-15138D03*
X-1614Y-14388D03*
X-1614Y-15138D03*
X393Y-14388D03*
X393Y-15138D03*
G54D16*
X-20863Y-9657D03*
X-20863Y-8357D03*
X-20863Y-10757D03*
X-20863Y-12057D03*
X-6463Y-10757D03*
X-6463Y-12057D03*
X-14463Y-10757D03*
X-14463Y-12057D03*
X-14463Y-9657D03*
X-14463Y-8357D03*
X-6463Y-9657D03*
X-6463Y-8357D03*
X-12863Y-10757D03*
X-12863Y-12057D03*
X-12863Y-9657D03*
X-12863Y-8357D03*
G54D17*
X-22149Y-17716D03*
G54D18*
X-24149Y-17716D03*
G54D17*
X-18463Y-1237D03*
G54D18*
X-20463Y-1237D03*
G54D17*
X-6463Y-1237D03*
G54D18*
X-8463Y-1237D03*
G54D17*
X-10463Y-1237D03*
G54D18*
X-12463Y-1237D03*
G54D17*
X-22463Y-1237D03*
G54D18*
X-24463Y-1237D03*
X-12708Y-17716D03*
X-10708Y-17716D03*
G54D17*
X-14708Y-17716D03*
G54D18*
X-8708Y-17716D03*
X-6708Y-17716D03*
G54D17*
X-18716Y-17716D03*
G54D18*
X-16716Y-17716D03*
G54D17*
X-23937Y-12464D03*
G54D18*
X-23937Y-14464D03*
G54D17*
X-23937Y-8448D03*
G54D18*
X-23937Y-10448D03*
G54D17*
X-23937Y-4433D03*
G54D18*
X-23937Y-6433D03*
X10408Y-17736D03*
X8408Y-17736D03*
G54D17*
X12408Y-17736D03*
G54D18*
X6408Y-17736D03*
X4408Y-17736D03*
G54D17*
X2408Y-17736D03*
G54D18*
X408Y-17736D03*
G54D17*
X-1591Y-17736D03*
G54D18*
X-3591Y-17736D03*
G54D17*
X-2463Y-1237D03*
G54D18*
X-4463Y-1237D03*
G54D17*
X-14463Y-1237D03*
G54D18*
X-16463Y-1237D03*
G54D19*
X9409Y-14566D03*
G54D20*
X10141Y-6066D03*
X10141Y-6322D03*
X10141Y-6578D03*
X10141Y-6834D03*
X11480Y-6834D03*
X11480Y-6578D03*
X11480Y-6322D03*
X11480Y-6066D03*
X5881Y-6082D03*
X5881Y-6338D03*
X5881Y-6594D03*
X5881Y-6850D03*
X7220Y-6850D03*
X7220Y-6594D03*
X7220Y-6338D03*
X7220Y-6082D03*
X1937Y-6082D03*
X1937Y-6338D03*
X1937Y-6594D03*
X1937Y-6850D03*
X3275Y-6850D03*
X3275Y-6594D03*
X3275Y-6338D03*
X3275Y-6082D03*
G54D21*
X3267Y-5314D03*
X5334Y-5307D03*
X8547Y-5149D03*
X1358Y-5326D03*
X125Y-5326D03*
X9358Y-5295D03*
X7236Y-5314D03*
X-901Y-7854D03*
X-783Y-4271D03*
G54D22*
X-5468Y-12736D03*
G54D23*
X-7633Y-15059D03*
X-11177Y-15059D03*
G54D21*
X-2161Y-10492D03*
X-5980Y-6082D03*
X-2318Y-10846D03*
X-5192Y-8326D03*
X-6023Y-14326D03*
X-14503Y-14007D03*
X-15555Y-14744D03*
X-4952Y-14897D03*
X-4590Y-13685D03*
X12169Y-11236D03*
X12653Y-12062D03*
X-3342Y-12342D03*
X-5744Y-12066D03*
X-2358Y-11909D03*
X-5350Y-11909D03*
X-1531Y-4468D03*
X-1492Y-7775D03*
X11259Y-12582D03*
X12370Y-12468D03*
X10149Y-7444D03*
X5877Y-7440D03*
X-291Y-13551D03*
X3110Y-13551D03*
X-891Y-13551D03*
G54D23*
X-2889Y-13551D03*
X-27Y-7295D03*
X-2472Y-7342D03*
G54D21*
X6456Y-12574D03*
X1917Y-7334D03*
X7484Y-12578D03*
X4688Y-12696D03*
X5976Y-11125D03*
X12118Y-5614D03*
X12307Y-7027D03*
X6976Y-11177D03*
X8937Y-6456D03*
X9374Y-6027D03*
X3724Y-5641D03*
X3960Y-7070D03*
X-1212Y-10165D03*
X-220Y-9846D03*
X5338Y-11145D03*
X303Y-9425D03*
X842Y-6641D03*
X1177Y-5901D03*
X2507Y-11224D03*
X5047Y-6641D03*
X5291Y-5732D03*
X7775Y-5677D03*
X8007Y-7086D03*
X11748Y-11137D03*
X12496Y-10984D03*
G54D10*
X7236Y-5314D02*
X5342Y-5314D01*
X3255Y-5314D02*
X3287Y-5314D01*
X3267Y-5314D02*
X3255Y-5314D01*
X5342Y-5314D02*
X5334Y-5307D01*
X8536Y-1507D02*
X8540Y-5142D01*
X8540Y-5142D02*
X8547Y-5149D01*
X3287Y-5314D02*
X1370Y-5314D01*
X1370Y-5314D02*
X1358Y-5326D01*
X125Y-5326D02*
X-90Y-5543D01*
X-90Y-5543D02*
X-90Y-5707D01*
X3275Y-5326D02*
X3275Y-6082D01*
X3287Y-5314D02*
X3275Y-5326D01*
X11480Y-6066D02*
X11480Y-5480D01*
X11480Y-5480D02*
X11295Y-5295D01*
X11295Y-5295D02*
X9358Y-5295D01*
X7220Y-5330D02*
X7220Y-6082D01*
X7236Y-5314D02*
X7220Y-5330D01*
X7480Y-14388D02*
X7480Y-13055D01*
X11259Y-13007D02*
X11259Y-14388D01*
X10830Y-12578D02*
X11259Y-13007D01*
X7956Y-12578D02*
X10830Y-12578D01*
X7480Y-13055D02*
X7956Y-12578D01*
X12401Y-14388D02*
X11259Y-14388D01*
X7480Y-14388D02*
X6417Y-14388D01*
X6417Y-14388D02*
X4409Y-14388D01*
X4409Y-14388D02*
X2401Y-14388D01*
X2401Y-14388D02*
X393Y-14388D01*
X393Y-14388D02*
X-1614Y-14388D01*
X-3582Y-14388D02*
X-1614Y-14388D01*
X-3582Y-14388D02*
X-5182Y-14388D01*
X-5182Y-14388D02*
X-5863Y-13707D01*
X-16163Y-13707D02*
X-15741Y-13707D01*
X-8903Y-13707D02*
X-8163Y-13707D01*
X-9724Y-14527D02*
X-8903Y-13707D01*
X-14921Y-14527D02*
X-9724Y-14527D01*
X-15741Y-13707D02*
X-14921Y-14527D01*
X-8163Y-13707D02*
X-5863Y-13707D01*
X-263Y-8107D02*
X536Y-8107D01*
X536Y-8107D02*
X536Y-5707D01*
X-5863Y-13707D02*
X-263Y-8107D01*
X-11163Y-6707D02*
X-10363Y-6707D01*
X-9363Y-5707D02*
X-90Y-5707D01*
X-10363Y-6707D02*
X-9363Y-5707D01*
X-90Y-5707D02*
X536Y-5707D01*
X-19163Y-6707D02*
X-18463Y-6707D01*
X-12063Y-6707D02*
X-11163Y-6707D01*
X-13063Y-5707D02*
X-12063Y-6707D01*
X-17463Y-5707D02*
X-13063Y-5707D01*
X-18463Y-6707D02*
X-17463Y-5707D01*
X536Y-5707D02*
X536Y-1507D01*
G54D24*
X-901Y-8169D02*
X-5468Y-12736D01*
X-901Y-7854D02*
X-901Y-8169D01*
X-89Y-507D02*
X-783Y-1200D01*
X536Y-507D02*
X-89Y-507D01*
X-783Y-1200D02*
X-783Y-4271D01*
X-901Y-7854D02*
X-901Y-7854D01*
X536Y-507D02*
X1536Y-507D01*
X-7633Y-15059D02*
X-11177Y-15059D01*
X-18182Y-13707D02*
X-19163Y-13707D01*
X-11177Y-15059D02*
X-11314Y-15196D01*
X-11314Y-15196D02*
X-16692Y-15196D01*
X-16692Y-15196D02*
X-18182Y-13707D01*
G54D25*
X1536Y-1507D02*
X1536Y-2832D01*
X2536Y-1507D02*
X2536Y-2832D01*
X9536Y-1507D02*
X9536Y-2832D01*
X11536Y-1507D02*
X11536Y-2832D01*
X5536Y-1507D02*
X5536Y-2832D01*
X5536Y-507D02*
X5382Y-507D01*
X5382Y-507D02*
X4885Y-1003D01*
X4885Y-1003D02*
X4204Y-1003D01*
X4204Y-1003D02*
X4035Y-1161D01*
X4035Y-1161D02*
X4035Y-2185D01*
X4035Y-2185D02*
X4535Y-2715D01*
X4535Y-2715D02*
X4535Y-9870D01*
X4535Y-9870D02*
X3913Y-10492D01*
X3913Y-10492D02*
X-2161Y-10492D01*
X-5980Y-6082D02*
X-6019Y-6043D01*
X-6019Y-6043D02*
X-9051Y-6043D01*
X-9051Y-6043D02*
X-10074Y-7066D01*
X-10074Y-7066D02*
X-10074Y-7854D01*
X-10074Y-7854D02*
X-10429Y-8208D01*
X-10429Y-8208D02*
X-12715Y-8208D01*
X-12715Y-8208D02*
X-12863Y-8357D01*
X-12863Y-8357D02*
X-12863Y-7432D01*
X-12863Y-7432D02*
X-12838Y-7407D01*
X6536Y-2832D02*
X6536Y-1507D01*
X7536Y-1507D02*
X7536Y-2832D01*
X7536Y-507D02*
X7536Y-558D01*
X7536Y-558D02*
X7090Y-1003D01*
X7090Y-1003D02*
X5267Y-1003D01*
X5267Y-1003D02*
X5039Y-1240D01*
X5039Y-1240D02*
X5039Y-2145D01*
X5039Y-2145D02*
X4767Y-2500D01*
X4767Y-2500D02*
X4767Y-10059D01*
X4767Y-10059D02*
X3980Y-10846D01*
X3980Y-10846D02*
X-2318Y-10846D01*
X-5192Y-8326D02*
X-5223Y-8357D01*
X-5223Y-8357D02*
X-6463Y-8357D01*
X-6488Y-7407D02*
X-6488Y-8332D01*
X-6488Y-8332D02*
X-6463Y-8357D01*
X-6324Y-14627D02*
X-6336Y-14627D01*
X-6023Y-14326D02*
X-6324Y-14627D01*
X-20838Y-13704D02*
X-20838Y-13007D01*
X-20468Y-14074D02*
X-20838Y-13704D01*
X-20468Y-14074D02*
X-20468Y-14074D01*
X-19996Y-14547D02*
X-20468Y-14074D01*
X-6336Y-14627D02*
X-7555Y-15846D01*
X-7555Y-15846D02*
X-17161Y-15846D01*
X-17161Y-15846D02*
X-18460Y-14547D01*
X-18460Y-14547D02*
X-19996Y-14547D01*
X-6255Y-14547D02*
X-6275Y-14566D01*
X-6255Y-14547D02*
X-6255Y-14547D01*
X-6275Y-14566D02*
X-6336Y-14627D01*
X-20863Y-12057D02*
X-20863Y-12982D01*
X-20863Y-12982D02*
X-20838Y-13007D01*
X10536Y-507D02*
X10536Y-168D01*
X-14488Y-13992D02*
X-14488Y-13007D01*
X-14503Y-14007D02*
X-14488Y-13992D01*
X-7590Y-14744D02*
X-15555Y-14744D01*
X-6783Y-13937D02*
X-7590Y-14744D01*
X-6003Y-13937D02*
X-6783Y-13937D01*
X-5047Y-14893D02*
X-6003Y-13937D01*
X-4956Y-14893D02*
X-5047Y-14893D01*
X-4952Y-14897D02*
X-4956Y-14893D01*
X-4622Y-13653D02*
X-4590Y-13685D01*
X-4622Y-12944D02*
X-4622Y-13653D01*
X-3251Y-11574D02*
X-4622Y-12944D01*
X11830Y-11574D02*
X-3251Y-11574D01*
X12169Y-11236D02*
X11830Y-11574D01*
X13500Y-11216D02*
X12653Y-12062D01*
X13500Y-208D02*
X13500Y-11216D01*
X13185Y106D02*
X13500Y-208D01*
X10811Y106D02*
X13185Y106D01*
X10536Y-168D02*
X10811Y106D01*
X-14463Y-12057D02*
X-14463Y-12982D01*
X-14463Y-12982D02*
X-14488Y-13007D01*
X3536Y-1507D02*
X3536Y-2832D01*
X13271Y-11003D02*
X13271Y-688D01*
X12536Y-507D02*
X13011Y-507D01*
X13271Y-688D02*
X13011Y-507D01*
X11972Y-12224D02*
X13271Y-11003D01*
X-3071Y-12219D02*
X11972Y-12224D01*
X-3342Y-12342D02*
X-3071Y-12219D01*
X-5753Y-12057D02*
X-5744Y-12066D01*
X-5753Y-12057D02*
X-6463Y-12057D01*
X-6463Y-12057D02*
X-6463Y-12982D01*
X-6463Y-12982D02*
X-6488Y-13007D01*
X12838Y-1003D02*
X12866Y-1003D01*
X11972Y-1003D02*
X12838Y-1003D01*
X11536Y-567D02*
X11972Y-1003D01*
X11536Y-507D02*
X11536Y-567D01*
X-5350Y-11909D02*
X-5783Y-11397D01*
X-5783Y-11397D02*
X-7082Y-11397D01*
X-7082Y-11397D02*
X-7279Y-11204D01*
X-7279Y-11204D02*
X-9996Y-11204D01*
X11972Y-11909D02*
X-2358Y-11909D01*
X-9996Y-11204D02*
X-10389Y-11594D01*
X-10389Y-11594D02*
X-10389Y-11870D01*
X-12676Y-12204D02*
X-12863Y-12057D01*
X-10724Y-12204D02*
X-12676Y-12204D01*
X-10389Y-11870D02*
X-10724Y-12204D01*
X13039Y-10858D02*
X11972Y-11909D01*
X13039Y-1161D02*
X13039Y-10858D01*
X12866Y-1003D02*
X13039Y-1161D01*
X-12863Y-12057D02*
X-12863Y-12982D01*
X-12863Y-12982D02*
X-12838Y-13007D01*
X10536Y-1507D02*
X10536Y-2832D01*
X4536Y-507D02*
X4536Y-418D01*
X4536Y-418D02*
X4098Y19D01*
X4098Y19D02*
X-389Y19D01*
X-389Y19D02*
X-1374Y-964D01*
X-1374Y-964D02*
X-1374Y-4311D01*
X-1374Y-4311D02*
X-1531Y-4468D01*
X-1492Y-7775D02*
X-2921Y-9204D01*
X-2921Y-9204D02*
X-11952Y-9204D01*
X-11952Y-9204D02*
X-12161Y-8996D01*
X-12161Y-8996D02*
X-13824Y-8996D01*
X-13824Y-8996D02*
X-14463Y-8357D01*
X-14488Y-7407D02*
X-14488Y-8332D01*
X-14488Y-8332D02*
X-14463Y-8357D01*
X3536Y-507D02*
X3453Y-507D01*
X-153Y-1200D02*
X-153Y-4665D01*
X-153Y-4665D02*
X-389Y-4901D01*
X-389Y-4901D02*
X-13657Y-4901D01*
X-13657Y-4901D02*
X-14051Y-5295D01*
X-14051Y-5295D02*
X-17830Y-5295D01*
X-17830Y-5295D02*
X-18539Y-6003D01*
X-18539Y-6003D02*
X-19996Y-6003D01*
X-19996Y-6003D02*
X-20838Y-6846D01*
X-20838Y-6846D02*
X-20838Y-7407D01*
X43Y-1003D02*
X-153Y-1200D01*
X2956Y-1003D02*
X43Y-1003D01*
X3453Y-507D02*
X2956Y-1003D01*
X-20838Y-7407D02*
X-20838Y-8332D01*
X-20838Y-8332D02*
X-20863Y-8357D01*
X11370Y-12472D02*
X11259Y-12582D01*
X12366Y-12472D02*
X11370Y-12472D01*
X12370Y-12468D02*
X12366Y-12472D01*
X10141Y-6834D02*
X10141Y-7437D01*
X10141Y-7437D02*
X10149Y-7444D01*
X5881Y-6850D02*
X5881Y-7437D01*
X5881Y-7437D02*
X5877Y-7440D01*
X-290Y-13551D02*
X3110Y-13551D01*
X-290Y-13551D02*
X-291Y-13551D01*
X-892Y-13551D02*
X-2889Y-13551D01*
X-892Y-13551D02*
X-891Y-13551D01*
X-2425Y-7295D02*
X-27Y-7295D01*
X-2472Y-7342D02*
X-2425Y-7295D01*
X6452Y-12578D02*
X6456Y-12574D01*
X6472Y-12578D02*
X6452Y-12578D01*
X1937Y-7314D02*
X1937Y-6850D01*
X1917Y-7334D02*
X1937Y-7314D01*
X7484Y-12578D02*
X6472Y-12578D01*
X6472Y-12578D02*
X6342Y-12578D01*
X4688Y-12696D02*
X4807Y-12578D01*
X4807Y-12578D02*
X6342Y-12578D01*
X-18716Y-17716D02*
X-18716Y-16811D01*
X-24149Y-16732D02*
X-24149Y-17716D01*
X-23933Y-16515D02*
X-24149Y-16732D01*
X-19011Y-16515D02*
X-23933Y-16515D01*
X-18716Y-16811D02*
X-19011Y-16515D01*
X-20863Y-10757D02*
X-21738Y-10757D01*
X-22047Y-10448D02*
X-23937Y-10448D01*
X-21738Y-10757D02*
X-22047Y-10448D01*
X-12863Y-9657D02*
X-12863Y-10757D01*
X-16163Y-9707D02*
X-14513Y-9707D01*
X-14513Y-9707D02*
X-14463Y-9657D01*
X-12863Y-9657D02*
X-11213Y-9657D01*
X-11213Y-9657D02*
X-11163Y-9707D01*
X-6463Y-9657D02*
X-8113Y-9657D01*
X-8113Y-9657D02*
X-8163Y-9707D01*
X-8163Y-10707D02*
X-11163Y-10707D01*
X-16163Y-10707D02*
X-19163Y-10707D01*
X-20863Y-9657D02*
X-19213Y-9657D01*
X-19213Y-9657D02*
X-19163Y-9707D01*
X-19163Y-9707D02*
X-14513Y-9707D01*
X-14513Y-9707D02*
X-14463Y-9657D01*
X-14463Y-9657D02*
X-11213Y-9657D01*
X-11213Y-9657D02*
X-11163Y-9707D01*
X-11163Y-9707D02*
X-6513Y-9707D01*
X-6513Y-9707D02*
X-6463Y-9757D01*
X-6463Y-9757D02*
X-6463Y-10757D01*
X-6463Y-10757D02*
X-6513Y-10707D01*
X-6513Y-10707D02*
X-11163Y-10707D01*
X-11163Y-10707D02*
X-11213Y-10757D01*
X-11213Y-10757D02*
X-14463Y-10757D01*
X-14463Y-10757D02*
X-14513Y-10707D01*
X-14513Y-10707D02*
X-19163Y-10707D01*
X-19163Y-10707D02*
X-19213Y-10757D01*
X-19213Y-10757D02*
X-20863Y-10757D01*
X-20863Y-10757D02*
X-20863Y-9657D01*
X-15238Y-7407D02*
X-15238Y-7482D01*
X-15463Y-7707D02*
X-16163Y-7707D01*
X-15238Y-7482D02*
X-15463Y-7707D01*
X-20088Y-7407D02*
X-19963Y-7407D01*
X-19663Y-7707D02*
X-19163Y-7707D01*
X-19963Y-7407D02*
X-19663Y-7707D01*
X-12088Y-7407D02*
X-12088Y-7482D01*
X-11863Y-7707D02*
X-11163Y-7707D01*
X-12088Y-7482D02*
X-11863Y-7707D01*
X-12088Y-13007D02*
X-12063Y-13007D01*
X-11763Y-12707D02*
X-11163Y-12707D01*
X-12063Y-13007D02*
X-11763Y-12707D01*
X-7238Y-7407D02*
X-7263Y-7407D01*
X-7563Y-7707D02*
X-8163Y-7707D01*
X-7263Y-7407D02*
X-7563Y-7707D01*
X-7238Y-13007D02*
X-7263Y-13007D01*
X-7563Y-12707D02*
X-8163Y-12707D01*
X-7263Y-13007D02*
X-7563Y-12707D01*
X-20088Y-13007D02*
X-20088Y-12932D01*
X-20088Y-12932D02*
X-19863Y-12707D01*
X-19863Y-12707D02*
X-19163Y-12707D01*
X-15238Y-13007D02*
X-15263Y-13007D01*
X-15563Y-12707D02*
X-16163Y-12707D01*
X-15263Y-13007D02*
X-15563Y-12707D01*
X7220Y-6594D02*
X8366Y-6594D01*
X6444Y-10657D02*
X5976Y-11125D01*
X8157Y-10657D02*
X6444Y-10657D01*
X8539Y-10275D02*
X8157Y-10657D01*
X8539Y-6767D02*
X8539Y-10275D01*
X8366Y-6594D02*
X8539Y-6767D01*
X1937Y-6338D02*
X1011Y-6338D01*
X1011Y-6338D02*
X838Y-6165D01*
X838Y-6165D02*
X838Y-4468D01*
X838Y-4468D02*
X1062Y-4244D01*
X1062Y-4244D02*
X1362Y-4244D01*
X1362Y-4244D02*
X1544Y-4062D01*
X1544Y-4062D02*
X1544Y-3582D01*
X393Y-15138D02*
X393Y-17721D01*
X393Y-17721D02*
X408Y-17736D01*
X-3582Y-15138D02*
X-3582Y-17727D01*
X-3582Y-17727D02*
X-3591Y-17736D01*
X11480Y-6834D02*
X12102Y-6834D01*
X10528Y-4351D02*
X10528Y-3542D01*
X10874Y-4696D02*
X10528Y-4351D01*
X11744Y-4696D02*
X10874Y-4696D01*
X11956Y-4909D02*
X11744Y-4696D01*
X11956Y-5452D02*
X11956Y-4909D01*
X12118Y-5614D02*
X11956Y-5452D01*
X12295Y-7027D02*
X12307Y-7027D01*
X12102Y-6834D02*
X12295Y-7027D01*
X11480Y-6322D02*
X12212Y-6322D01*
X11528Y-3890D02*
X11528Y-3542D01*
X11685Y-4047D02*
X11528Y-3890D01*
X12255Y-4047D02*
X11685Y-4047D01*
X12535Y-4326D02*
X12255Y-4047D01*
X12535Y-6000D02*
X12535Y-4326D01*
X12212Y-6322D02*
X12535Y-6000D01*
X10141Y-6322D02*
X9220Y-6322D01*
X9220Y-6322D02*
X8937Y-6039D01*
X8937Y-6039D02*
X8937Y-4649D01*
X8937Y-4649D02*
X9528Y-4058D01*
X9528Y-4058D02*
X9528Y-3542D01*
X10141Y-6066D02*
X9413Y-6066D01*
X8377Y-11177D02*
X6976Y-11177D01*
X8929Y-10625D02*
X8377Y-11177D01*
X8929Y-6464D02*
X8929Y-10625D01*
X8937Y-6456D02*
X8929Y-6464D01*
X9413Y-6066D02*
X9374Y-6027D01*
X7536Y-3582D02*
X7536Y-3847D01*
X7948Y-6338D02*
X7220Y-6338D01*
X8133Y-6153D02*
X7948Y-6338D01*
X8133Y-4444D02*
X8133Y-6153D01*
X7536Y-3847D02*
X8133Y-4444D01*
X3275Y-6850D02*
X3740Y-6850D01*
X2544Y-4170D02*
X2544Y-3582D01*
X2834Y-4460D02*
X2544Y-4170D01*
X3437Y-4460D02*
X2834Y-4460D01*
X3696Y-4720D02*
X3437Y-4460D01*
X3696Y-5614D02*
X3696Y-4720D01*
X3724Y-5641D02*
X3696Y-5614D01*
X3740Y-6850D02*
X3960Y-7070D01*
X3275Y-6338D02*
X3712Y-6338D01*
X3712Y-6338D02*
X4047Y-6003D01*
X4047Y-6003D02*
X4047Y-4275D01*
X4047Y-4275D02*
X3834Y-4062D01*
X3834Y-4062D02*
X3657Y-4062D01*
X3657Y-4062D02*
X3544Y-3949D01*
X3544Y-3949D02*
X3544Y-3582D01*
X3275Y-6594D02*
X4169Y-6594D01*
X3905Y-10165D02*
X-1212Y-10165D01*
X4314Y-9755D02*
X3905Y-10165D01*
X4314Y-6740D02*
X4314Y-9755D01*
X4169Y-6594D02*
X4314Y-6740D01*
X1937Y-6594D02*
X1255Y-6594D01*
X976Y-9846D02*
X-220Y-9846D01*
X1149Y-9673D02*
X976Y-9846D01*
X1149Y-6700D02*
X1149Y-9673D01*
X1255Y-6594D02*
X1149Y-6700D01*
X5881Y-6594D02*
X5429Y-6594D01*
X5338Y-6685D02*
X5338Y-11145D01*
X5429Y-6594D02*
X5338Y-6685D01*
X1937Y-6082D02*
X1358Y-6082D01*
X830Y-9425D02*
X303Y-9425D01*
X846Y-9409D02*
X830Y-9425D01*
X846Y-6645D02*
X846Y-9409D01*
X842Y-6641D02*
X846Y-6645D01*
X1358Y-6082D02*
X1177Y-5901D01*
X5881Y-6082D02*
X5358Y-6082D01*
X4208Y-11224D02*
X2507Y-11224D01*
X5039Y-10393D02*
X4208Y-11224D01*
X5039Y-6649D02*
X5039Y-10393D01*
X5047Y-6641D02*
X5039Y-6649D01*
X5291Y-6015D02*
X5291Y-5732D01*
X5358Y-6082D02*
X5291Y-6015D01*
X7480Y-15138D02*
X7480Y-15527D01*
X8408Y-16455D02*
X8408Y-17736D01*
X7480Y-15527D02*
X8408Y-16455D01*
X6417Y-15138D02*
X6417Y-17727D01*
X6417Y-17727D02*
X6408Y-17736D01*
X6417Y-17727D02*
X6408Y-17736D01*
X5881Y-6338D02*
X5145Y-6338D01*
X5536Y-3940D02*
X5536Y-3582D01*
X5476Y-4000D02*
X5536Y-3940D01*
X5192Y-4000D02*
X5476Y-4000D01*
X4992Y-4200D02*
X5192Y-4000D01*
X4992Y-6185D02*
X4992Y-4200D01*
X5145Y-6338D02*
X4992Y-6185D01*
X11259Y-15138D02*
X11259Y-15614D01*
X10408Y-16465D02*
X10408Y-17736D01*
X11259Y-15614D02*
X10408Y-16465D01*
X12401Y-17729D02*
X12408Y-17736D01*
X12401Y-15138D02*
X12401Y-17729D01*
X7220Y-6850D02*
X7771Y-6850D01*
X6536Y-4059D02*
X6536Y-3582D01*
X6881Y-4405D02*
X6536Y-4059D01*
X7362Y-4405D02*
X6881Y-4405D01*
X7712Y-4755D02*
X7362Y-4405D01*
X7712Y-5614D02*
X7712Y-4755D01*
X7775Y-5677D02*
X7712Y-5614D01*
X7771Y-6850D02*
X8007Y-7086D01*
X-1614Y-15138D02*
X-1614Y-17713D01*
X-1614Y-17713D02*
X-1591Y-17736D01*
X4409Y-15138D02*
X4409Y-17735D01*
X4409Y-17735D02*
X4408Y-17736D01*
X2401Y-17729D02*
X2408Y-17736D01*
X2401Y-15138D02*
X2401Y-17729D01*
X10141Y-6578D02*
X9519Y-6578D01*
X9846Y-11137D02*
X11748Y-11137D01*
X9307Y-10598D02*
X9846Y-11137D01*
X9307Y-6791D02*
X9307Y-10598D01*
X9519Y-6578D02*
X9307Y-6791D01*
X11480Y-6578D02*
X12500Y-6578D01*
X12500Y-6578D02*
X12728Y-6807D01*
X12728Y-6807D02*
X12728Y-10751D01*
X12728Y-10751D02*
X12496Y-10984D01*
G54D10*
G36*
X-1213Y-92D02*
X-1547Y-426D01*
X-1557Y-402D01*
X-1576Y-373D01*
X-1601Y-349D01*
X-1630Y-329D01*
X-1662Y-316D01*
X-1696Y-309D01*
X-2281Y-309D01*
X-2325Y-354D01*
X-2325Y-1099D01*
X-2318Y-1099D01*
X-2318Y-1374D01*
X-2325Y-1374D01*
X-2325Y-2119D01*
X-2281Y-2164D01*
X-1876Y-2164D01*
X-1876Y-3988D01*
X-1903Y-4006D01*
X-1986Y-4087D01*
X-2051Y-4182D01*
X-2097Y-4289D01*
X-2120Y-4398D01*
X-2601Y-4398D01*
X-2601Y-2119D01*
X-2601Y-1374D01*
X-2601Y-1099D01*
X-2601Y-354D01*
X-2645Y-309D01*
X-3231Y-309D01*
X-3265Y-316D01*
X-3297Y-329D01*
X-3326Y-349D01*
X-3350Y-373D01*
X-3370Y-402D01*
X-3383Y-434D01*
X-3390Y-468D01*
X-3391Y-503D01*
X-3390Y-1054D01*
X-3346Y-1099D01*
X-2601Y-1099D01*
X-2601Y-1374D01*
X-3346Y-1374D01*
X-3390Y-1419D01*
X-3391Y-1970D01*
X-3390Y-2005D01*
X-3383Y-2039D01*
X-3370Y-2071D01*
X-3350Y-2100D01*
X-3326Y-2124D01*
X-3297Y-2144D01*
X-3265Y-2157D01*
X-3231Y-2164D01*
X-2645Y-2164D01*
X-2601Y-2119D01*
X-2601Y-4398D01*
X-3535Y-4398D01*
X-3535Y-1319D01*
X-3537Y-1137D01*
X-3574Y-959D01*
X-3637Y-806D01*
X-3746Y-714D01*
X-3941Y-909D01*
X-3941Y-519D01*
X-4033Y-410D01*
X-4202Y-342D01*
X-4381Y-309D01*
X-4562Y-310D01*
X-4740Y-347D01*
X-4893Y-410D01*
X-4986Y-519D01*
X-4463Y-1042D01*
X-3941Y-519D01*
X-3941Y-909D01*
X-4268Y-1237D01*
X-3746Y-1759D01*
X-3637Y-1667D01*
X-3569Y-1498D01*
X-3535Y-1319D01*
X-3535Y-4398D01*
X-3941Y-4398D01*
X-3941Y-1954D01*
X-4463Y-1431D01*
X-4986Y-1954D01*
X-4893Y-2063D01*
X-4725Y-2131D01*
X-4546Y-2164D01*
X-4364Y-2163D01*
X-4186Y-2126D01*
X-4033Y-2063D01*
X-3941Y-1954D01*
X-3941Y-4398D01*
X-13657Y-4398D01*
X-13703Y-4403D01*
X-13749Y-4407D01*
X-13752Y-4407D01*
X-13755Y-4408D01*
X-13799Y-4421D01*
X-13844Y-4434D01*
X-13846Y-4435D01*
X-13849Y-4436D01*
X-13890Y-4458D01*
X-13931Y-4479D01*
X-13933Y-4481D01*
X-13935Y-4482D01*
X-13971Y-4512D01*
X-14008Y-4541D01*
X-14011Y-4544D01*
X-14011Y-4544D01*
X-14011Y-4544D01*
X-14013Y-4545D01*
X-14259Y-4792D01*
X-17830Y-4792D01*
X-17876Y-4796D01*
X-17923Y-4800D01*
X-17925Y-4801D01*
X-17928Y-4801D01*
X-17972Y-4815D01*
X-18017Y-4828D01*
X-18019Y-4829D01*
X-18022Y-4830D01*
X-18063Y-4852D01*
X-18104Y-4873D01*
X-18106Y-4875D01*
X-18109Y-4876D01*
X-18145Y-4905D01*
X-18181Y-4934D01*
X-18185Y-4938D01*
X-18185Y-4938D01*
X-18185Y-4938D01*
X-18186Y-4939D01*
X-18747Y-5500D01*
X-19996Y-5500D01*
X-20042Y-5505D01*
X-20088Y-5509D01*
X-20091Y-5510D01*
X-20093Y-5510D01*
X-20138Y-5523D01*
X-20182Y-5536D01*
X-20185Y-5538D01*
X-20187Y-5538D01*
X-20228Y-5560D01*
X-20269Y-5582D01*
X-20272Y-5583D01*
X-20274Y-5585D01*
X-20310Y-5614D01*
X-20346Y-5643D01*
X-20350Y-5646D01*
X-20350Y-5647D01*
X-20350Y-5647D01*
X-20351Y-5648D01*
X-21194Y-6491D01*
X-21223Y-6526D01*
X-21253Y-6562D01*
X-21255Y-6564D01*
X-21256Y-6566D01*
X-21278Y-6607D01*
X-21301Y-6648D01*
X-21301Y-6651D01*
X-21303Y-6653D01*
X-21316Y-6697D01*
X-21330Y-6742D01*
X-21331Y-6744D01*
X-21331Y-6747D01*
X-21336Y-6793D01*
X-21339Y-6817D01*
X-21364Y-6842D01*
X-21413Y-6915D01*
X-21448Y-6997D01*
X-21466Y-7084D01*
X-21466Y-7173D01*
X-21466Y-7650D01*
X-21477Y-7655D01*
X-21551Y-7704D01*
X-21614Y-7767D01*
X-21663Y-7840D01*
X-21698Y-7922D01*
X-21716Y-8009D01*
X-21716Y-8098D01*
X-21716Y-8701D01*
X-21699Y-8788D01*
X-21665Y-8870D01*
X-21616Y-8944D01*
X-21553Y-9007D01*
X-21480Y-9057D01*
X-21398Y-9091D01*
X-21311Y-9109D01*
X-21222Y-9110D01*
X-20419Y-9109D01*
X-20332Y-9092D01*
X-20250Y-9058D01*
X-20176Y-9009D01*
X-20113Y-8947D01*
X-20063Y-8873D01*
X-20029Y-8791D01*
X-20011Y-8704D01*
X-20010Y-8615D01*
X-20010Y-8134D01*
X-19925Y-8134D01*
X-19902Y-8146D01*
X-19861Y-8169D01*
X-19859Y-8170D01*
X-19857Y-8171D01*
X-19816Y-8183D01*
X-19800Y-8208D01*
X-19874Y-8316D01*
X-19936Y-8461D01*
X-19969Y-8616D01*
X-19971Y-8774D01*
X-19943Y-8930D01*
X-19885Y-9077D01*
X-19799Y-9210D01*
X-19689Y-9324D01*
X-19599Y-9387D01*
X-19638Y-9427D01*
X-19593Y-9472D01*
X-19662Y-9515D01*
X-19689Y-9615D01*
X-19697Y-9719D01*
X-19685Y-9823D01*
X-19662Y-9898D01*
X-19593Y-9941D01*
X-19358Y-9707D01*
X-19364Y-9701D01*
X-19176Y-9514D01*
X-19150Y-9514D01*
X-18963Y-9701D01*
X-18968Y-9707D01*
X-18734Y-9941D01*
X-18665Y-9898D01*
X-18637Y-9798D01*
X-18629Y-9694D01*
X-18642Y-9591D01*
X-18665Y-9515D01*
X-18734Y-9472D01*
X-18688Y-9427D01*
X-18728Y-9387D01*
X-18664Y-9346D01*
X-18549Y-9237D01*
X-18458Y-9107D01*
X-18394Y-8963D01*
X-18359Y-8808D01*
X-18356Y-8627D01*
X-18387Y-8472D01*
X-18447Y-8326D01*
X-18527Y-8205D01*
X-18458Y-8107D01*
X-18394Y-7963D01*
X-18359Y-7808D01*
X-18356Y-7627D01*
X-18387Y-7472D01*
X-18447Y-7326D01*
X-18519Y-7218D01*
X-18463Y-7218D01*
X-18416Y-7214D01*
X-18369Y-7210D01*
X-18367Y-7209D01*
X-18364Y-7209D01*
X-18319Y-7195D01*
X-18273Y-7182D01*
X-18271Y-7181D01*
X-18268Y-7180D01*
X-18227Y-7158D01*
X-18185Y-7136D01*
X-18182Y-7134D01*
X-18180Y-7133D01*
X-18143Y-7103D01*
X-18106Y-7074D01*
X-18103Y-7070D01*
X-18103Y-7070D01*
X-18103Y-7070D01*
X-18101Y-7068D01*
X-17251Y-6218D01*
X-16807Y-6218D01*
X-16874Y-6316D01*
X-16936Y-6461D01*
X-16969Y-6616D01*
X-16971Y-6774D01*
X-16943Y-6930D01*
X-16885Y-7077D01*
X-16800Y-7208D01*
X-16874Y-7316D01*
X-16936Y-7461D01*
X-16969Y-7616D01*
X-16971Y-7774D01*
X-16943Y-7930D01*
X-16885Y-8077D01*
X-16800Y-8208D01*
X-16874Y-8316D01*
X-16936Y-8461D01*
X-16969Y-8616D01*
X-16971Y-8774D01*
X-16943Y-8930D01*
X-16885Y-9077D01*
X-16799Y-9210D01*
X-16689Y-9324D01*
X-16599Y-9387D01*
X-16638Y-9427D01*
X-16593Y-9472D01*
X-16662Y-9515D01*
X-16689Y-9615D01*
X-16697Y-9719D01*
X-16685Y-9823D01*
X-16662Y-9898D01*
X-16593Y-9941D01*
X-16358Y-9707D01*
X-16364Y-9701D01*
X-16176Y-9514D01*
X-16150Y-9514D01*
X-15963Y-9701D01*
X-15968Y-9707D01*
X-15734Y-9941D01*
X-15665Y-9898D01*
X-15637Y-9798D01*
X-15629Y-9694D01*
X-15642Y-9591D01*
X-15665Y-9515D01*
X-15734Y-9472D01*
X-15688Y-9427D01*
X-15728Y-9387D01*
X-15664Y-9346D01*
X-15549Y-9237D01*
X-15458Y-9107D01*
X-15394Y-8963D01*
X-15359Y-8808D01*
X-15356Y-8627D01*
X-15387Y-8472D01*
X-15447Y-8326D01*
X-15524Y-8210D01*
X-15463Y-8210D01*
X-15417Y-8205D01*
X-15371Y-8201D01*
X-15368Y-8200D01*
X-15366Y-8200D01*
X-15321Y-8187D01*
X-15316Y-8185D01*
X-15316Y-8701D01*
X-15299Y-8788D01*
X-15265Y-8870D01*
X-15216Y-8944D01*
X-15153Y-9007D01*
X-15080Y-9057D01*
X-14998Y-9091D01*
X-14911Y-9109D01*
X-14822Y-9110D01*
X-14422Y-9110D01*
X-14316Y-9215D01*
X-14325Y-9224D01*
X-14325Y-9519D01*
X-13930Y-9519D01*
X-13902Y-9491D01*
X-13878Y-9493D01*
X-13831Y-9498D01*
X-13826Y-9499D01*
X-13826Y-9499D01*
X-13826Y-9499D01*
X-13824Y-9499D01*
X-13416Y-9499D01*
X-13396Y-9519D01*
X-13001Y-9519D01*
X-13001Y-9511D01*
X-12725Y-9511D01*
X-12725Y-9519D01*
X-12349Y-9519D01*
X-12308Y-9560D01*
X-12272Y-9589D01*
X-12236Y-9619D01*
X-12234Y-9620D01*
X-12232Y-9622D01*
X-12191Y-9644D01*
X-12150Y-9667D01*
X-12148Y-9667D01*
X-12146Y-9669D01*
X-12101Y-9682D01*
X-12057Y-9696D01*
X-12054Y-9696D01*
X-12052Y-9697D01*
X-12005Y-9702D01*
X-11959Y-9707D01*
X-11954Y-9707D01*
X-11954Y-9707D01*
X-11954Y-9707D01*
X-11952Y-9707D01*
X-11696Y-9707D01*
X-11697Y-9719D01*
X-11685Y-9823D01*
X-11662Y-9898D01*
X-11593Y-9941D01*
X-11359Y-9707D01*
X-10968Y-9707D01*
X-10734Y-9941D01*
X-10665Y-9898D01*
X-10637Y-9798D01*
X-10630Y-9707D01*
X-8696Y-9707D01*
X-8697Y-9719D01*
X-8685Y-9823D01*
X-8662Y-9898D01*
X-8593Y-9941D01*
X-8359Y-9707D01*
X-7968Y-9707D01*
X-7734Y-9941D01*
X-7665Y-9898D01*
X-7637Y-9798D01*
X-7630Y-9707D01*
X-7040Y-9707D01*
X-7040Y-9794D01*
X-6996Y-9794D01*
X-7040Y-9839D01*
X-7040Y-9974D01*
X-7034Y-10008D01*
X-7020Y-10040D01*
X-7001Y-10069D01*
X-6977Y-10094D01*
X-6948Y-10113D01*
X-6916Y-10127D01*
X-6882Y-10134D01*
X-6847Y-10134D01*
X-6645Y-10134D01*
X-6601Y-10089D01*
X-6601Y-9794D01*
X-6609Y-9794D01*
X-6609Y-9707D01*
X-6318Y-9707D01*
X-6318Y-9794D01*
X-6325Y-9794D01*
X-6325Y-10089D01*
X-6281Y-10134D01*
X-6079Y-10134D01*
X-6045Y-10134D01*
X-6011Y-10127D01*
X-5979Y-10113D01*
X-5950Y-10094D01*
X-5925Y-10069D01*
X-5906Y-10040D01*
X-5893Y-10008D01*
X-5886Y-9974D01*
X-5886Y-9839D01*
X-5930Y-9794D01*
X-5886Y-9794D01*
X-5886Y-9707D01*
X-3247Y-9707D01*
X-4983Y-11444D01*
X-5068Y-11387D01*
X-5169Y-11344D01*
X-5399Y-11073D01*
X-5412Y-11060D01*
X-5424Y-11045D01*
X-5447Y-11025D01*
X-5469Y-11004D01*
X-5485Y-10994D01*
X-5499Y-10982D01*
X-5526Y-10967D01*
X-5552Y-10951D01*
X-5569Y-10944D01*
X-5585Y-10935D01*
X-5614Y-10926D01*
X-5643Y-10914D01*
X-5661Y-10911D01*
X-5678Y-10905D01*
X-5709Y-10902D01*
X-5739Y-10896D01*
X-5758Y-10896D01*
X-5776Y-10894D01*
X-5783Y-10894D01*
X-5886Y-10894D01*
X-5886Y-10439D01*
X-5893Y-10405D01*
X-5906Y-10373D01*
X-5925Y-10344D01*
X-5950Y-10319D01*
X-5979Y-10300D01*
X-6011Y-10287D01*
X-6045Y-10280D01*
X-6079Y-10279D01*
X-6281Y-10279D01*
X-6325Y-10324D01*
X-6325Y-10619D01*
X-5930Y-10619D01*
X-5886Y-10575D01*
X-5886Y-10439D01*
X-5886Y-10894D01*
X-6601Y-10894D01*
X-6601Y-10619D01*
X-6601Y-10324D01*
X-6645Y-10279D01*
X-6847Y-10279D01*
X-6882Y-10280D01*
X-6916Y-10287D01*
X-6948Y-10300D01*
X-6977Y-10319D01*
X-7001Y-10344D01*
X-7020Y-10373D01*
X-7034Y-10405D01*
X-7040Y-10439D01*
X-7040Y-10575D01*
X-6996Y-10619D01*
X-6601Y-10619D01*
X-6601Y-10894D01*
X-6877Y-10894D01*
X-6927Y-10845D01*
X-6961Y-10817D01*
X-6995Y-10789D01*
X-7000Y-10787D01*
X-7004Y-10783D01*
X-7042Y-10763D01*
X-7081Y-10742D01*
X-7086Y-10740D01*
X-7091Y-10738D01*
X-7133Y-10726D01*
X-7174Y-10712D01*
X-7180Y-10712D01*
X-7185Y-10710D01*
X-7228Y-10706D01*
X-7272Y-10701D01*
X-7279Y-10701D01*
X-7630Y-10701D01*
X-7629Y-10694D01*
X-7642Y-10591D01*
X-7665Y-10515D01*
X-7734Y-10472D01*
X-7928Y-10667D01*
X-7928Y-10277D01*
X-7971Y-10208D01*
X-7977Y-10207D01*
X-7971Y-10205D01*
X-7928Y-10136D01*
X-8163Y-9901D01*
X-8398Y-10136D01*
X-8355Y-10205D01*
X-8350Y-10207D01*
X-8355Y-10208D01*
X-8398Y-10277D01*
X-8163Y-10512D01*
X-7928Y-10277D01*
X-7928Y-10667D01*
X-7963Y-10701D01*
X-8363Y-10701D01*
X-8593Y-10472D01*
X-8662Y-10515D01*
X-8689Y-10615D01*
X-8696Y-10701D01*
X-9996Y-10701D01*
X-10046Y-10706D01*
X-10085Y-10709D01*
X-10089Y-10710D01*
X-10093Y-10711D01*
X-10143Y-10726D01*
X-10180Y-10736D01*
X-10183Y-10738D01*
X-10187Y-10739D01*
X-10233Y-10764D01*
X-10267Y-10781D01*
X-10270Y-10783D01*
X-10274Y-10785D01*
X-10315Y-10819D01*
X-10344Y-10842D01*
X-10349Y-10847D01*
X-10350Y-10847D01*
X-10351Y-10848D01*
X-10617Y-11112D01*
X-10629Y-11099D01*
X-10646Y-11082D01*
X-10728Y-11026D01*
X-10688Y-10987D01*
X-10734Y-10941D01*
X-10665Y-10898D01*
X-10637Y-10798D01*
X-10629Y-10694D01*
X-10642Y-10591D01*
X-10665Y-10515D01*
X-10734Y-10472D01*
X-10928Y-10667D01*
X-10928Y-10277D01*
X-10971Y-10208D01*
X-10977Y-10207D01*
X-10971Y-10205D01*
X-10928Y-10136D01*
X-11163Y-9901D01*
X-11398Y-10136D01*
X-11355Y-10205D01*
X-11350Y-10207D01*
X-11355Y-10208D01*
X-11398Y-10277D01*
X-11163Y-10512D01*
X-10928Y-10277D01*
X-10928Y-10667D01*
X-10968Y-10707D01*
X-10963Y-10712D01*
X-11150Y-10900D01*
X-11177Y-10899D01*
X-11358Y-10718D01*
X-11364Y-10712D01*
X-11358Y-10707D01*
X-11593Y-10472D01*
X-11662Y-10515D01*
X-11689Y-10615D01*
X-11697Y-10719D01*
X-11685Y-10823D01*
X-11662Y-10898D01*
X-11593Y-10941D01*
X-11638Y-10987D01*
X-11598Y-11027D01*
X-11671Y-11075D01*
X-11785Y-11185D01*
X-11874Y-11316D01*
X-11936Y-11461D01*
X-11969Y-11616D01*
X-11970Y-11701D01*
X-12013Y-11701D01*
X-12028Y-11625D01*
X-12062Y-11543D01*
X-12111Y-11469D01*
X-12173Y-11406D01*
X-12247Y-11356D01*
X-12286Y-11340D01*
X-12286Y-11074D01*
X-12286Y-10439D01*
X-12286Y-9974D01*
X-12286Y-9839D01*
X-12330Y-9794D01*
X-12725Y-9794D01*
X-12725Y-10089D01*
X-12681Y-10134D01*
X-12479Y-10134D01*
X-12445Y-10134D01*
X-12411Y-10127D01*
X-12379Y-10113D01*
X-12350Y-10094D01*
X-12325Y-10069D01*
X-12306Y-10040D01*
X-12293Y-10008D01*
X-12286Y-9974D01*
X-12286Y-10439D01*
X-12293Y-10405D01*
X-12306Y-10373D01*
X-12325Y-10344D01*
X-12350Y-10319D01*
X-12379Y-10300D01*
X-12411Y-10287D01*
X-12445Y-10280D01*
X-12479Y-10279D01*
X-12681Y-10279D01*
X-12725Y-10324D01*
X-12725Y-10619D01*
X-12330Y-10619D01*
X-12286Y-10575D01*
X-12286Y-10439D01*
X-12286Y-11074D01*
X-12286Y-10939D01*
X-12330Y-10894D01*
X-12725Y-10894D01*
X-12725Y-11189D01*
X-12681Y-11234D01*
X-12479Y-11234D01*
X-12445Y-11234D01*
X-12411Y-11227D01*
X-12379Y-11213D01*
X-12350Y-11194D01*
X-12325Y-11169D01*
X-12306Y-11140D01*
X-12293Y-11108D01*
X-12286Y-11074D01*
X-12286Y-11340D01*
X-12329Y-11322D01*
X-12416Y-11304D01*
X-12505Y-11304D01*
X-13001Y-11304D01*
X-13001Y-11189D01*
X-13001Y-10894D01*
X-13001Y-10619D01*
X-13001Y-10324D01*
X-13001Y-10089D01*
X-13001Y-9794D01*
X-13396Y-9794D01*
X-13440Y-9839D01*
X-13440Y-9974D01*
X-13434Y-10008D01*
X-13420Y-10040D01*
X-13401Y-10069D01*
X-13377Y-10094D01*
X-13348Y-10113D01*
X-13316Y-10127D01*
X-13282Y-10134D01*
X-13247Y-10134D01*
X-13045Y-10134D01*
X-13001Y-10089D01*
X-13001Y-10324D01*
X-13045Y-10279D01*
X-13247Y-10279D01*
X-13282Y-10280D01*
X-13316Y-10287D01*
X-13348Y-10300D01*
X-13377Y-10319D01*
X-13401Y-10344D01*
X-13420Y-10373D01*
X-13434Y-10405D01*
X-13440Y-10439D01*
X-13440Y-10575D01*
X-13396Y-10619D01*
X-13001Y-10619D01*
X-13001Y-10894D01*
X-13396Y-10894D01*
X-13440Y-10939D01*
X-13440Y-11074D01*
X-13434Y-11108D01*
X-13420Y-11140D01*
X-13401Y-11169D01*
X-13377Y-11194D01*
X-13348Y-11213D01*
X-13316Y-11227D01*
X-13282Y-11234D01*
X-13247Y-11234D01*
X-13045Y-11234D01*
X-13001Y-11189D01*
X-13001Y-11304D01*
X-13308Y-11304D01*
X-13395Y-11321D01*
X-13477Y-11355D01*
X-13551Y-11404D01*
X-13614Y-11467D01*
X-13663Y-11540D01*
X-13711Y-11469D01*
X-13773Y-11406D01*
X-13847Y-11356D01*
X-13886Y-11340D01*
X-13886Y-11074D01*
X-13886Y-10439D01*
X-13886Y-9974D01*
X-13886Y-9839D01*
X-13930Y-9794D01*
X-14325Y-9794D01*
X-14325Y-10089D01*
X-14281Y-10134D01*
X-14079Y-10134D01*
X-14045Y-10134D01*
X-14011Y-10127D01*
X-13979Y-10113D01*
X-13950Y-10094D01*
X-13925Y-10069D01*
X-13906Y-10040D01*
X-13893Y-10008D01*
X-13886Y-9974D01*
X-13886Y-10439D01*
X-13893Y-10405D01*
X-13906Y-10373D01*
X-13925Y-10344D01*
X-13950Y-10319D01*
X-13979Y-10300D01*
X-14011Y-10287D01*
X-14045Y-10280D01*
X-14079Y-10279D01*
X-14281Y-10279D01*
X-14325Y-10324D01*
X-14325Y-10619D01*
X-13930Y-10619D01*
X-13886Y-10575D01*
X-13886Y-10439D01*
X-13886Y-11074D01*
X-13886Y-10939D01*
X-13930Y-10894D01*
X-14325Y-10894D01*
X-14325Y-11189D01*
X-14281Y-11234D01*
X-14079Y-11234D01*
X-14045Y-11234D01*
X-14011Y-11227D01*
X-13979Y-11213D01*
X-13950Y-11194D01*
X-13925Y-11169D01*
X-13906Y-11140D01*
X-13893Y-11108D01*
X-13886Y-11074D01*
X-13886Y-11340D01*
X-13929Y-11322D01*
X-14016Y-11304D01*
X-14105Y-11304D01*
X-14601Y-11304D01*
X-14601Y-11189D01*
X-14601Y-10894D01*
X-14601Y-10619D01*
X-14601Y-10324D01*
X-14601Y-10089D01*
X-14601Y-9794D01*
X-14601Y-9519D01*
X-14601Y-9224D01*
X-14645Y-9179D01*
X-14847Y-9179D01*
X-14882Y-9180D01*
X-14916Y-9187D01*
X-14948Y-9200D01*
X-14977Y-9219D01*
X-15001Y-9244D01*
X-15020Y-9273D01*
X-15034Y-9305D01*
X-15040Y-9339D01*
X-15040Y-9475D01*
X-14996Y-9519D01*
X-14601Y-9519D01*
X-14601Y-9794D01*
X-14996Y-9794D01*
X-15040Y-9839D01*
X-15040Y-9974D01*
X-15034Y-10008D01*
X-15020Y-10040D01*
X-15001Y-10069D01*
X-14977Y-10094D01*
X-14948Y-10113D01*
X-14916Y-10127D01*
X-14882Y-10134D01*
X-14847Y-10134D01*
X-14645Y-10134D01*
X-14601Y-10089D01*
X-14601Y-10324D01*
X-14645Y-10279D01*
X-14847Y-10279D01*
X-14882Y-10280D01*
X-14916Y-10287D01*
X-14948Y-10300D01*
X-14977Y-10319D01*
X-15001Y-10344D01*
X-15020Y-10373D01*
X-15034Y-10405D01*
X-15040Y-10439D01*
X-15040Y-10575D01*
X-14996Y-10619D01*
X-14601Y-10619D01*
X-14601Y-10894D01*
X-14996Y-10894D01*
X-15040Y-10939D01*
X-15040Y-11074D01*
X-15034Y-11108D01*
X-15020Y-11140D01*
X-15001Y-11169D01*
X-14977Y-11194D01*
X-14948Y-11213D01*
X-14916Y-11227D01*
X-14882Y-11234D01*
X-14847Y-11234D01*
X-14645Y-11234D01*
X-14601Y-11189D01*
X-14601Y-11304D01*
X-14908Y-11304D01*
X-14995Y-11321D01*
X-15077Y-11355D01*
X-15151Y-11404D01*
X-15214Y-11467D01*
X-15263Y-11540D01*
X-15298Y-11622D01*
X-15316Y-11709D01*
X-15316Y-11798D01*
X-15316Y-12271D01*
X-15324Y-12267D01*
X-15365Y-12244D01*
X-15368Y-12244D01*
X-15370Y-12242D01*
X-15414Y-12229D01*
X-15459Y-12215D01*
X-15461Y-12214D01*
X-15464Y-12214D01*
X-15510Y-12209D01*
X-15526Y-12207D01*
X-15527Y-12205D01*
X-15458Y-12107D01*
X-15394Y-11963D01*
X-15359Y-11808D01*
X-15356Y-11627D01*
X-15387Y-11472D01*
X-15447Y-11326D01*
X-15535Y-11194D01*
X-15629Y-11099D01*
X-15646Y-11082D01*
X-15728Y-11026D01*
X-15688Y-10987D01*
X-15734Y-10941D01*
X-15665Y-10898D01*
X-15637Y-10798D01*
X-15629Y-10694D01*
X-15642Y-10591D01*
X-15665Y-10515D01*
X-15734Y-10472D01*
X-15928Y-10667D01*
X-15928Y-10277D01*
X-15971Y-10208D01*
X-15977Y-10207D01*
X-15971Y-10205D01*
X-15928Y-10136D01*
X-16163Y-9901D01*
X-16358Y-10096D01*
X-16398Y-10136D01*
X-16355Y-10205D01*
X-16350Y-10207D01*
X-16355Y-10208D01*
X-16398Y-10277D01*
X-16163Y-10512D01*
X-15928Y-10277D01*
X-15928Y-10667D01*
X-15968Y-10707D01*
X-15963Y-10712D01*
X-16150Y-10900D01*
X-16177Y-10899D01*
X-16358Y-10718D01*
X-16364Y-10712D01*
X-16358Y-10707D01*
X-16593Y-10472D01*
X-16662Y-10515D01*
X-16689Y-10615D01*
X-16697Y-10719D01*
X-16685Y-10823D01*
X-16662Y-10898D01*
X-16593Y-10941D01*
X-16638Y-10987D01*
X-16598Y-11027D01*
X-16671Y-11075D01*
X-16785Y-11185D01*
X-16874Y-11316D01*
X-16936Y-11461D01*
X-16969Y-11616D01*
X-16971Y-11774D01*
X-16943Y-11930D01*
X-16885Y-12077D01*
X-16800Y-12208D01*
X-16874Y-12316D01*
X-16936Y-12461D01*
X-16969Y-12616D01*
X-16971Y-12774D01*
X-16943Y-12930D01*
X-16885Y-13077D01*
X-16817Y-13183D01*
X-16838Y-13215D01*
X-16873Y-13297D01*
X-16891Y-13384D01*
X-16891Y-13473D01*
X-16891Y-14026D01*
X-16874Y-14113D01*
X-16840Y-14195D01*
X-16791Y-14269D01*
X-16728Y-14332D01*
X-16655Y-14382D01*
X-16573Y-14416D01*
X-16486Y-14434D01*
X-16397Y-14435D01*
X-16059Y-14434D01*
X-16075Y-14458D01*
X-16120Y-14564D01*
X-16133Y-14625D01*
X-16456Y-14625D01*
X-17779Y-13303D01*
X-17819Y-13269D01*
X-17860Y-13236D01*
X-17862Y-13234D01*
X-17865Y-13232D01*
X-17911Y-13207D01*
X-17957Y-13182D01*
X-17960Y-13181D01*
X-17963Y-13180D01*
X-18013Y-13164D01*
X-18063Y-13148D01*
X-18066Y-13148D01*
X-18069Y-13147D01*
X-18122Y-13142D01*
X-18174Y-13136D01*
X-18180Y-13136D01*
X-18180Y-13136D01*
X-18180Y-13136D01*
X-18182Y-13136D01*
X-18478Y-13136D01*
X-18458Y-13107D01*
X-18394Y-12963D01*
X-18359Y-12808D01*
X-18356Y-12627D01*
X-18387Y-12472D01*
X-18447Y-12326D01*
X-18527Y-12205D01*
X-18458Y-12107D01*
X-18394Y-11963D01*
X-18359Y-11808D01*
X-18356Y-11627D01*
X-18387Y-11472D01*
X-18447Y-11326D01*
X-18535Y-11194D01*
X-18629Y-11099D01*
X-18646Y-11082D01*
X-18728Y-11026D01*
X-18688Y-10987D01*
X-18734Y-10941D01*
X-18665Y-10898D01*
X-18637Y-10798D01*
X-18629Y-10694D01*
X-18642Y-10591D01*
X-18665Y-10515D01*
X-18734Y-10472D01*
X-18928Y-10667D01*
X-18928Y-10277D01*
X-18971Y-10208D01*
X-18977Y-10207D01*
X-18971Y-10205D01*
X-18928Y-10136D01*
X-19163Y-9901D01*
X-19358Y-10096D01*
X-19398Y-10136D01*
X-19355Y-10205D01*
X-19350Y-10207D01*
X-19355Y-10208D01*
X-19398Y-10277D01*
X-19163Y-10512D01*
X-18928Y-10277D01*
X-18928Y-10667D01*
X-18968Y-10707D01*
X-18963Y-10712D01*
X-19150Y-10900D01*
X-19177Y-10899D01*
X-19358Y-10718D01*
X-19364Y-10712D01*
X-19358Y-10707D01*
X-19593Y-10472D01*
X-19662Y-10515D01*
X-19689Y-10615D01*
X-19697Y-10719D01*
X-19685Y-10823D01*
X-19662Y-10898D01*
X-19593Y-10941D01*
X-19638Y-10987D01*
X-19598Y-11027D01*
X-19671Y-11075D01*
X-19785Y-11185D01*
X-19874Y-11316D01*
X-19936Y-11461D01*
X-19969Y-11616D01*
X-19971Y-11774D01*
X-19943Y-11930D01*
X-19885Y-12077D01*
X-19803Y-12204D01*
X-19863Y-12204D01*
X-19910Y-12208D01*
X-19956Y-12212D01*
X-19958Y-12213D01*
X-19961Y-12213D01*
X-20005Y-12227D01*
X-20010Y-12228D01*
X-20011Y-11712D01*
X-20028Y-11625D01*
X-20062Y-11543D01*
X-20111Y-11469D01*
X-20173Y-11406D01*
X-20247Y-11356D01*
X-20286Y-11340D01*
X-20286Y-11074D01*
X-20286Y-10439D01*
X-20286Y-9974D01*
X-20286Y-9339D01*
X-20293Y-9305D01*
X-20306Y-9273D01*
X-20325Y-9244D01*
X-20350Y-9219D01*
X-20379Y-9200D01*
X-20411Y-9187D01*
X-20445Y-9180D01*
X-20479Y-9179D01*
X-20681Y-9179D01*
X-20725Y-9224D01*
X-20725Y-9519D01*
X-20330Y-9519D01*
X-20286Y-9475D01*
X-20286Y-9339D01*
X-20286Y-9974D01*
X-20286Y-9839D01*
X-20330Y-9794D01*
X-20725Y-9794D01*
X-20725Y-10089D01*
X-20681Y-10134D01*
X-20479Y-10134D01*
X-20445Y-10134D01*
X-20411Y-10127D01*
X-20379Y-10113D01*
X-20350Y-10094D01*
X-20325Y-10069D01*
X-20306Y-10040D01*
X-20293Y-10008D01*
X-20286Y-9974D01*
X-20286Y-10439D01*
X-20293Y-10405D01*
X-20306Y-10373D01*
X-20325Y-10344D01*
X-20350Y-10319D01*
X-20379Y-10300D01*
X-20411Y-10287D01*
X-20445Y-10280D01*
X-20479Y-10279D01*
X-20681Y-10279D01*
X-20725Y-10324D01*
X-20725Y-10619D01*
X-20330Y-10619D01*
X-20286Y-10575D01*
X-20286Y-10439D01*
X-20286Y-11074D01*
X-20286Y-10939D01*
X-20330Y-10894D01*
X-20725Y-10894D01*
X-20725Y-11189D01*
X-20681Y-11234D01*
X-20479Y-11234D01*
X-20445Y-11234D01*
X-20411Y-11227D01*
X-20379Y-11213D01*
X-20350Y-11194D01*
X-20325Y-11169D01*
X-20306Y-11140D01*
X-20293Y-11108D01*
X-20286Y-11074D01*
X-20286Y-11340D01*
X-20329Y-11322D01*
X-20416Y-11304D01*
X-20505Y-11304D01*
X-21001Y-11304D01*
X-21001Y-11189D01*
X-21001Y-10894D01*
X-21001Y-10619D01*
X-21001Y-10324D01*
X-21001Y-10089D01*
X-21001Y-9794D01*
X-21001Y-9519D01*
X-21001Y-9224D01*
X-21045Y-9179D01*
X-21247Y-9179D01*
X-21282Y-9180D01*
X-21316Y-9187D01*
X-21348Y-9200D01*
X-21377Y-9219D01*
X-21401Y-9244D01*
X-21420Y-9273D01*
X-21434Y-9305D01*
X-21440Y-9339D01*
X-21440Y-9475D01*
X-21396Y-9519D01*
X-21001Y-9519D01*
X-21001Y-9794D01*
X-21396Y-9794D01*
X-21440Y-9839D01*
X-21440Y-9974D01*
X-21434Y-10008D01*
X-21420Y-10040D01*
X-21401Y-10069D01*
X-21377Y-10094D01*
X-21348Y-10113D01*
X-21316Y-10127D01*
X-21282Y-10134D01*
X-21247Y-10134D01*
X-21045Y-10134D01*
X-21001Y-10089D01*
X-21001Y-10324D01*
X-21045Y-10279D01*
X-21247Y-10279D01*
X-21282Y-10280D01*
X-21316Y-10287D01*
X-21348Y-10300D01*
X-21377Y-10319D01*
X-21401Y-10344D01*
X-21420Y-10373D01*
X-21434Y-10405D01*
X-21440Y-10439D01*
X-21440Y-10575D01*
X-21396Y-10619D01*
X-21001Y-10619D01*
X-21001Y-10894D01*
X-21396Y-10894D01*
X-21440Y-10939D01*
X-21440Y-11074D01*
X-21434Y-11108D01*
X-21420Y-11140D01*
X-21401Y-11169D01*
X-21377Y-11194D01*
X-21348Y-11213D01*
X-21316Y-11227D01*
X-21282Y-11234D01*
X-21247Y-11234D01*
X-21045Y-11234D01*
X-21001Y-11189D01*
X-21001Y-11304D01*
X-21308Y-11304D01*
X-21395Y-11321D01*
X-21477Y-11355D01*
X-21551Y-11404D01*
X-21614Y-11467D01*
X-21663Y-11540D01*
X-21698Y-11622D01*
X-21716Y-11709D01*
X-21716Y-11798D01*
X-21716Y-12401D01*
X-21699Y-12488D01*
X-21665Y-12570D01*
X-21616Y-12644D01*
X-21553Y-12707D01*
X-21480Y-12757D01*
X-21466Y-12762D01*
X-21466Y-12773D01*
X-21466Y-13326D01*
X-21449Y-13413D01*
X-21415Y-13495D01*
X-21366Y-13569D01*
X-21341Y-13594D01*
X-21341Y-13704D01*
X-21337Y-13750D01*
X-21333Y-13797D01*
X-21332Y-13799D01*
X-21332Y-13802D01*
X-21318Y-13846D01*
X-21305Y-13891D01*
X-21304Y-13893D01*
X-21303Y-13896D01*
X-21281Y-13937D01*
X-21260Y-13978D01*
X-21258Y-13980D01*
X-21257Y-13982D01*
X-21228Y-14018D01*
X-21199Y-14055D01*
X-21195Y-14058D01*
X-21195Y-14058D01*
X-21195Y-14058D01*
X-21194Y-14060D01*
X-20824Y-14430D01*
X-20824Y-14430D01*
X-20351Y-14902D01*
X-20315Y-14932D01*
X-20280Y-14962D01*
X-20277Y-14963D01*
X-20275Y-14965D01*
X-20234Y-14987D01*
X-20194Y-15009D01*
X-20191Y-15010D01*
X-20189Y-15011D01*
X-20144Y-15025D01*
X-20100Y-15039D01*
X-20098Y-15039D01*
X-20095Y-15040D01*
X-20049Y-15044D01*
X-20003Y-15050D01*
X-19997Y-15050D01*
X-19997Y-15050D01*
X-19997Y-15050D01*
X-19996Y-15050D01*
X-18668Y-15050D01*
X-17517Y-16202D01*
X-17481Y-16231D01*
X-17445Y-16261D01*
X-17443Y-16262D01*
X-17441Y-16264D01*
X-17400Y-16286D01*
X-17359Y-16308D01*
X-17357Y-16309D01*
X-17354Y-16310D01*
X-17310Y-16324D01*
X-17265Y-16338D01*
X-17263Y-16338D01*
X-17260Y-16339D01*
X-17214Y-16344D01*
X-17168Y-16349D01*
X-17163Y-16349D01*
X-17163Y-16349D01*
X-17163Y-16349D01*
X-17161Y-16349D01*
X-7555Y-16349D01*
X-7508Y-16344D01*
X-7462Y-16340D01*
X-7460Y-16340D01*
X-7457Y-16339D01*
X-7412Y-16326D01*
X-7368Y-16313D01*
X-7365Y-16312D01*
X-7363Y-16311D01*
X-7322Y-16289D01*
X-7281Y-16268D01*
X-7279Y-16266D01*
X-7276Y-16265D01*
X-7240Y-16236D01*
X-7204Y-16207D01*
X-7200Y-16203D01*
X-7200Y-16203D01*
X-7200Y-16203D01*
X-7199Y-16202D01*
X-6034Y-15037D01*
X-6010Y-15017D01*
X-5974Y-14988D01*
X-5970Y-14984D01*
X-5970Y-14984D01*
X-5970Y-14984D01*
X-5969Y-14983D01*
X-5888Y-14902D01*
X-5864Y-14898D01*
X-5784Y-14867D01*
X-5475Y-15176D01*
X-5417Y-15266D01*
X-5337Y-15349D01*
X-5242Y-15415D01*
X-5136Y-15462D01*
X-5023Y-15486D01*
X-4907Y-15489D01*
X-4793Y-15469D01*
X-4685Y-15427D01*
X-4587Y-15365D01*
X-4503Y-15285D01*
X-4436Y-15190D01*
X-4389Y-15084D01*
X-4364Y-14972D01*
X-4363Y-14900D01*
X-4306Y-14900D01*
X-4310Y-14916D01*
X-4310Y-15005D01*
X-4310Y-15358D01*
X-4293Y-15445D01*
X-4259Y-15527D01*
X-4210Y-15601D01*
X-4147Y-15664D01*
X-4085Y-15706D01*
X-4085Y-16638D01*
X-4151Y-16665D01*
X-4348Y-16794D01*
X-4517Y-16959D01*
X-4650Y-17153D01*
X-4743Y-17370D01*
X-4792Y-17601D01*
X-4795Y-17837D01*
X-4753Y-18069D01*
X-4666Y-18288D01*
X-4538Y-18486D01*
X-4374Y-18656D01*
X-4180Y-18791D01*
X-4131Y-18812D01*
X-5780Y-18812D01*
X-5780Y-17799D01*
X-5782Y-17617D01*
X-5819Y-17439D01*
X-5882Y-17286D01*
X-5991Y-17194D01*
X-6186Y-17388D01*
X-6186Y-16999D01*
X-6278Y-16890D01*
X-6447Y-16822D01*
X-6625Y-16788D01*
X-6807Y-16790D01*
X-6985Y-16827D01*
X-7138Y-16890D01*
X-7231Y-16999D01*
X-6708Y-17521D01*
X-6186Y-16999D01*
X-6186Y-17388D01*
X-6513Y-17716D01*
X-5991Y-18238D01*
X-5882Y-18146D01*
X-5814Y-17977D01*
X-5780Y-17799D01*
X-5780Y-18812D01*
X-6186Y-18812D01*
X-6186Y-18433D01*
X-6708Y-17911D01*
X-6903Y-18106D01*
X-6903Y-17716D01*
X-7425Y-17194D01*
X-7535Y-17286D01*
X-7602Y-17455D01*
X-7636Y-17633D01*
X-7635Y-17815D01*
X-7598Y-17993D01*
X-7535Y-18146D01*
X-7425Y-18238D01*
X-6903Y-17716D01*
X-6903Y-18106D01*
X-7231Y-18433D01*
X-7138Y-18542D01*
X-6970Y-18610D01*
X-6791Y-18644D01*
X-6609Y-18642D01*
X-6431Y-18606D01*
X-6278Y-18542D01*
X-6186Y-18433D01*
X-6186Y-18812D01*
X-7780Y-18812D01*
X-7780Y-17799D01*
X-7782Y-17617D01*
X-7819Y-17439D01*
X-7882Y-17286D01*
X-7991Y-17194D01*
X-8186Y-17388D01*
X-8186Y-16999D01*
X-8278Y-16890D01*
X-8447Y-16822D01*
X-8625Y-16788D01*
X-8807Y-16790D01*
X-8985Y-16827D01*
X-9138Y-16890D01*
X-9231Y-16999D01*
X-8708Y-17521D01*
X-8186Y-16999D01*
X-8186Y-17388D01*
X-8513Y-17716D01*
X-7991Y-18238D01*
X-7882Y-18146D01*
X-7814Y-17977D01*
X-7780Y-17799D01*
X-7780Y-18812D01*
X-8186Y-18812D01*
X-8186Y-18433D01*
X-8708Y-17911D01*
X-8903Y-18106D01*
X-8903Y-17716D01*
X-9425Y-17194D01*
X-9535Y-17286D01*
X-9602Y-17455D01*
X-9636Y-17633D01*
X-9635Y-17815D01*
X-9598Y-17993D01*
X-9535Y-18146D01*
X-9425Y-18238D01*
X-8903Y-17716D01*
X-8903Y-18106D01*
X-9231Y-18433D01*
X-9138Y-18542D01*
X-8970Y-18610D01*
X-8791Y-18644D01*
X-8609Y-18642D01*
X-8431Y-18606D01*
X-8278Y-18542D01*
X-8186Y-18433D01*
X-8186Y-18812D01*
X-9780Y-18812D01*
X-9780Y-17799D01*
X-9782Y-17617D01*
X-9819Y-17439D01*
X-9882Y-17286D01*
X-9991Y-17194D01*
X-10186Y-17388D01*
X-10186Y-16999D01*
X-10278Y-16890D01*
X-10447Y-16822D01*
X-10625Y-16788D01*
X-10807Y-16790D01*
X-10985Y-16827D01*
X-11138Y-16890D01*
X-11231Y-16999D01*
X-10708Y-17521D01*
X-10186Y-16999D01*
X-10186Y-17388D01*
X-10513Y-17716D01*
X-9991Y-18238D01*
X-9882Y-18146D01*
X-9814Y-17977D01*
X-9780Y-17799D01*
X-9780Y-18812D01*
X-10186Y-18812D01*
X-10186Y-18433D01*
X-10708Y-17911D01*
X-10903Y-18106D01*
X-10903Y-17716D01*
X-11425Y-17194D01*
X-11535Y-17286D01*
X-11602Y-17455D01*
X-11636Y-17633D01*
X-11635Y-17815D01*
X-11598Y-17993D01*
X-11535Y-18146D01*
X-11425Y-18238D01*
X-10903Y-17716D01*
X-10903Y-18106D01*
X-11231Y-18433D01*
X-11138Y-18542D01*
X-10970Y-18610D01*
X-10791Y-18644D01*
X-10609Y-18642D01*
X-10431Y-18606D01*
X-10278Y-18542D01*
X-10186Y-18433D01*
X-10186Y-18812D01*
X-11780Y-18812D01*
X-11780Y-17799D01*
X-11782Y-17617D01*
X-11819Y-17439D01*
X-11882Y-17286D01*
X-11991Y-17194D01*
X-12186Y-17388D01*
X-12186Y-16999D01*
X-12278Y-16890D01*
X-12447Y-16822D01*
X-12625Y-16788D01*
X-12807Y-16790D01*
X-12985Y-16827D01*
X-13138Y-16890D01*
X-13231Y-16999D01*
X-12708Y-17521D01*
X-12186Y-16999D01*
X-12186Y-17388D01*
X-12513Y-17716D01*
X-11991Y-18238D01*
X-11882Y-18146D01*
X-11814Y-17977D01*
X-11780Y-17799D01*
X-11780Y-18812D01*
X-12186Y-18812D01*
X-12186Y-18433D01*
X-12708Y-17911D01*
X-12903Y-18106D01*
X-12903Y-17716D01*
X-13425Y-17194D01*
X-13535Y-17286D01*
X-13602Y-17455D01*
X-13636Y-17633D01*
X-13635Y-17815D01*
X-13598Y-17993D01*
X-13535Y-18146D01*
X-13425Y-18238D01*
X-12903Y-17716D01*
X-12903Y-18106D01*
X-13231Y-18433D01*
X-13138Y-18542D01*
X-12970Y-18610D01*
X-12791Y-18644D01*
X-12609Y-18642D01*
X-12431Y-18606D01*
X-12278Y-18542D01*
X-12186Y-18433D01*
X-12186Y-18812D01*
X-13781Y-18812D01*
X-13781Y-18450D01*
X-13781Y-16982D01*
X-13781Y-16947D01*
X-13788Y-16913D01*
X-13802Y-16881D01*
X-13821Y-16853D01*
X-13846Y-16828D01*
X-13875Y-16809D01*
X-13907Y-16796D01*
X-13941Y-16789D01*
X-14526Y-16789D01*
X-14570Y-16833D01*
X-14570Y-17578D01*
X-13825Y-17578D01*
X-13781Y-17534D01*
X-13781Y-16982D01*
X-13781Y-18450D01*
X-13781Y-17898D01*
X-13825Y-17854D01*
X-14570Y-17854D01*
X-14570Y-18599D01*
X-14526Y-18643D01*
X-13941Y-18643D01*
X-13907Y-18636D01*
X-13875Y-18623D01*
X-13846Y-18604D01*
X-13821Y-18580D01*
X-13802Y-18551D01*
X-13788Y-18519D01*
X-13781Y-18485D01*
X-13781Y-18450D01*
X-13781Y-18812D01*
X-14846Y-18812D01*
X-14846Y-18599D01*
X-14846Y-17854D01*
X-14846Y-17578D01*
X-14846Y-16833D01*
X-14890Y-16789D01*
X-15476Y-16789D01*
X-15510Y-16796D01*
X-15542Y-16809D01*
X-15571Y-16828D01*
X-15595Y-16853D01*
X-15615Y-16881D01*
X-15628Y-16913D01*
X-15635Y-16947D01*
X-15635Y-16982D01*
X-15635Y-17534D01*
X-15591Y-17578D01*
X-14846Y-17578D01*
X-14846Y-17854D01*
X-15591Y-17854D01*
X-15635Y-17898D01*
X-15635Y-18450D01*
X-15635Y-18485D01*
X-15628Y-18519D01*
X-15615Y-18551D01*
X-15595Y-18580D01*
X-15571Y-18604D01*
X-15542Y-18623D01*
X-15510Y-18636D01*
X-15476Y-18643D01*
X-14890Y-18643D01*
X-14846Y-18599D01*
X-14846Y-18812D01*
X-15788Y-18812D01*
X-15788Y-17799D01*
X-15790Y-17617D01*
X-15827Y-17439D01*
X-15890Y-17286D01*
X-15999Y-17194D01*
X-16194Y-17388D01*
X-16194Y-16999D01*
X-16286Y-16890D01*
X-16455Y-16822D01*
X-16633Y-16788D01*
X-16815Y-16790D01*
X-16993Y-16827D01*
X-17146Y-16890D01*
X-17238Y-16999D01*
X-16716Y-17521D01*
X-16194Y-16999D01*
X-16194Y-17388D01*
X-16521Y-17716D01*
X-15999Y-18238D01*
X-15890Y-18146D01*
X-15822Y-17977D01*
X-15788Y-17799D01*
X-15788Y-18812D01*
X-16194Y-18812D01*
X-16194Y-18433D01*
X-16716Y-17911D01*
X-16911Y-18106D01*
X-16911Y-17716D01*
X-17433Y-17194D01*
X-17542Y-17286D01*
X-17610Y-17455D01*
X-17644Y-17633D01*
X-17642Y-17815D01*
X-17606Y-17993D01*
X-17542Y-18146D01*
X-17433Y-18238D01*
X-16911Y-17716D01*
X-16911Y-18106D01*
X-17238Y-18433D01*
X-17146Y-18542D01*
X-16977Y-18610D01*
X-16799Y-18644D01*
X-16617Y-18642D01*
X-16439Y-18606D01*
X-16286Y-18542D01*
X-16194Y-18433D01*
X-16194Y-18812D01*
X-17789Y-18812D01*
X-17789Y-18450D01*
X-17789Y-16982D01*
X-17789Y-16947D01*
X-17796Y-16913D01*
X-17809Y-16881D01*
X-17829Y-16853D01*
X-17854Y-16828D01*
X-17882Y-16809D01*
X-17915Y-16796D01*
X-17949Y-16789D01*
X-18534Y-16789D01*
X-18578Y-16833D01*
X-18578Y-17578D01*
X-17833Y-17578D01*
X-17789Y-17534D01*
X-17789Y-16982D01*
X-17789Y-18450D01*
X-17789Y-17898D01*
X-17833Y-17854D01*
X-18578Y-17854D01*
X-18578Y-18599D01*
X-18534Y-18643D01*
X-17949Y-18643D01*
X-17915Y-18636D01*
X-17882Y-18623D01*
X-17854Y-18604D01*
X-17829Y-18580D01*
X-17809Y-18551D01*
X-17796Y-18519D01*
X-17789Y-18485D01*
X-17789Y-18450D01*
X-17789Y-18812D01*
X-18854Y-18812D01*
X-18854Y-18599D01*
X-18854Y-17854D01*
X-18854Y-17578D01*
X-18854Y-16833D01*
X-18898Y-16789D01*
X-19483Y-16789D01*
X-19517Y-16796D01*
X-19550Y-16809D01*
X-19579Y-16828D01*
X-19603Y-16853D01*
X-19623Y-16881D01*
X-19636Y-16913D01*
X-19643Y-16947D01*
X-19643Y-16982D01*
X-19643Y-17534D01*
X-19599Y-17578D01*
X-18854Y-17578D01*
X-18854Y-17854D01*
X-19599Y-17854D01*
X-19643Y-17898D01*
X-19643Y-18450D01*
X-19643Y-18485D01*
X-19636Y-18519D01*
X-19623Y-18551D01*
X-19603Y-18580D01*
X-19579Y-18604D01*
X-19550Y-18623D01*
X-19517Y-18636D01*
X-19483Y-18643D01*
X-18898Y-18643D01*
X-18854Y-18599D01*
X-18854Y-18812D01*
X-21105Y-18812D01*
X-21049Y-18756D01*
X-20999Y-18682D01*
X-20965Y-18601D01*
X-20947Y-18514D01*
X-20946Y-18425D01*
X-20946Y-16922D01*
X-20964Y-16835D01*
X-20997Y-16752D01*
X-21047Y-16678D01*
X-21109Y-16615D01*
X-21183Y-16566D01*
X-21265Y-16531D01*
X-21352Y-16514D01*
X-21440Y-16513D01*
X-22601Y-16513D01*
X-22601Y-2119D01*
X-22601Y-1374D01*
X-22601Y-1099D01*
X-22601Y-354D01*
X-22645Y-309D01*
X-23231Y-309D01*
X-23265Y-316D01*
X-23297Y-329D01*
X-23326Y-349D01*
X-23350Y-373D01*
X-23370Y-402D01*
X-23383Y-434D01*
X-23390Y-468D01*
X-23391Y-503D01*
X-23390Y-1054D01*
X-23346Y-1099D01*
X-22601Y-1099D01*
X-22601Y-1374D01*
X-23346Y-1374D01*
X-23390Y-1419D01*
X-23391Y-1970D01*
X-23390Y-2005D01*
X-23383Y-2039D01*
X-23370Y-2071D01*
X-23350Y-2100D01*
X-23326Y-2124D01*
X-23297Y-2144D01*
X-23265Y-2157D01*
X-23231Y-2164D01*
X-22645Y-2164D01*
X-22601Y-2119D01*
X-22601Y-16513D01*
X-22944Y-16513D01*
X-23009Y-16526D01*
X-23009Y-14547D01*
X-23009Y-10531D01*
X-23009Y-6515D01*
X-23009Y-6425D01*
X-23009Y-5200D01*
X-23009Y-3665D01*
X-23016Y-3631D01*
X-23029Y-3599D01*
X-23049Y-3570D01*
X-23073Y-3545D01*
X-23102Y-3526D01*
X-23134Y-3513D01*
X-23168Y-3506D01*
X-23203Y-3505D01*
X-23535Y-3505D01*
X-23535Y-1319D01*
X-23537Y-1137D01*
X-23574Y-959D01*
X-23637Y-806D01*
X-23746Y-714D01*
X-23941Y-909D01*
X-24268Y-1237D01*
X-23746Y-1759D01*
X-23637Y-1667D01*
X-23569Y-1498D01*
X-23535Y-1319D01*
X-23535Y-3505D01*
X-23754Y-3505D01*
X-23799Y-3550D01*
X-23799Y-4295D01*
X-23054Y-4295D01*
X-23009Y-4250D01*
X-23009Y-3665D01*
X-23009Y-5200D01*
X-23009Y-4615D01*
X-23054Y-4570D01*
X-23799Y-4570D01*
X-23799Y-5315D01*
X-23754Y-5360D01*
X-23203Y-5360D01*
X-23168Y-5360D01*
X-23134Y-5353D01*
X-23102Y-5339D01*
X-23073Y-5320D01*
X-23049Y-5295D01*
X-23029Y-5266D01*
X-23016Y-5234D01*
X-23009Y-5200D01*
X-23009Y-6425D01*
X-23010Y-6333D01*
X-23047Y-6155D01*
X-23110Y-6002D01*
X-23219Y-5910D01*
X-23414Y-6105D01*
X-23414Y-5715D01*
X-23506Y-5606D01*
X-23675Y-5538D01*
X-23854Y-5505D01*
X-23941Y-5505D01*
X-24036Y-5506D01*
X-24074Y-5514D01*
X-24074Y-5315D01*
X-24074Y-4570D01*
X-24074Y-4295D01*
X-24074Y-3550D01*
X-24119Y-3505D01*
X-24670Y-3505D01*
X-24705Y-3506D01*
X-24739Y-3513D01*
X-24771Y-3526D01*
X-24800Y-3545D01*
X-24824Y-3570D01*
X-24844Y-3599D01*
X-24857Y-3631D01*
X-24864Y-3665D01*
X-24864Y-4250D01*
X-24819Y-4295D01*
X-24074Y-4295D01*
X-24074Y-4570D01*
X-24819Y-4570D01*
X-24864Y-4615D01*
X-24864Y-5200D01*
X-24857Y-5234D01*
X-24844Y-5266D01*
X-24824Y-5295D01*
X-24800Y-5320D01*
X-24771Y-5339D01*
X-24739Y-5353D01*
X-24705Y-5360D01*
X-24670Y-5360D01*
X-24119Y-5360D01*
X-24074Y-5315D01*
X-24074Y-5514D01*
X-24214Y-5543D01*
X-24367Y-5606D01*
X-24459Y-5715D01*
X-23937Y-6238D01*
X-23414Y-5715D01*
X-23414Y-6105D01*
X-23742Y-6433D01*
X-23219Y-6955D01*
X-23110Y-6863D01*
X-23042Y-6694D01*
X-23009Y-6515D01*
X-23009Y-10531D01*
X-23009Y-10441D01*
X-23009Y-9216D01*
X-23009Y-7681D01*
X-23016Y-7647D01*
X-23029Y-7615D01*
X-23049Y-7586D01*
X-23073Y-7561D01*
X-23102Y-7542D01*
X-23134Y-7528D01*
X-23168Y-7521D01*
X-23203Y-7521D01*
X-23414Y-7521D01*
X-23414Y-7150D01*
X-23937Y-6627D01*
X-24131Y-6822D01*
X-24131Y-6433D01*
X-24654Y-5910D01*
X-24763Y-6002D01*
X-24831Y-6171D01*
X-24864Y-6350D01*
X-24863Y-6532D01*
X-24826Y-6710D01*
X-24763Y-6863D01*
X-24654Y-6955D01*
X-24131Y-6433D01*
X-24131Y-6822D01*
X-24459Y-7150D01*
X-24367Y-7259D01*
X-24198Y-7327D01*
X-24019Y-7361D01*
X-23837Y-7359D01*
X-23659Y-7322D01*
X-23506Y-7259D01*
X-23414Y-7150D01*
X-23414Y-7521D01*
X-23754Y-7521D01*
X-23799Y-7565D01*
X-23799Y-8311D01*
X-23054Y-8311D01*
X-23009Y-8266D01*
X-23009Y-7681D01*
X-23009Y-9216D01*
X-23009Y-8630D01*
X-23054Y-8586D01*
X-23799Y-8586D01*
X-23799Y-9331D01*
X-23754Y-9375D01*
X-23203Y-9376D01*
X-23168Y-9375D01*
X-23134Y-9368D01*
X-23102Y-9355D01*
X-23073Y-9335D01*
X-23049Y-9311D01*
X-23029Y-9282D01*
X-23016Y-9250D01*
X-23009Y-9216D01*
X-23009Y-10441D01*
X-23010Y-10349D01*
X-23047Y-10171D01*
X-23110Y-10018D01*
X-23219Y-9926D01*
X-23414Y-10121D01*
X-23414Y-9731D01*
X-23506Y-9622D01*
X-23675Y-9554D01*
X-23854Y-9520D01*
X-24036Y-9522D01*
X-24074Y-9530D01*
X-24074Y-9331D01*
X-24074Y-8586D01*
X-24074Y-8311D01*
X-24074Y-7565D01*
X-24119Y-7521D01*
X-24670Y-7521D01*
X-24705Y-7521D01*
X-24739Y-7528D01*
X-24771Y-7542D01*
X-24800Y-7561D01*
X-24824Y-7586D01*
X-24844Y-7615D01*
X-24857Y-7647D01*
X-24864Y-7681D01*
X-24864Y-8266D01*
X-24819Y-8311D01*
X-24074Y-8311D01*
X-24074Y-8586D01*
X-24819Y-8586D01*
X-24864Y-8630D01*
X-24864Y-9216D01*
X-24857Y-9250D01*
X-24844Y-9282D01*
X-24824Y-9311D01*
X-24800Y-9335D01*
X-24771Y-9355D01*
X-24739Y-9368D01*
X-24705Y-9375D01*
X-24670Y-9376D01*
X-24119Y-9375D01*
X-24074Y-9331D01*
X-24074Y-9530D01*
X-24214Y-9559D01*
X-24367Y-9622D01*
X-24459Y-9731D01*
X-23937Y-10253D01*
X-23414Y-9731D01*
X-23414Y-10121D01*
X-23742Y-10448D01*
X-23219Y-10971D01*
X-23110Y-10878D01*
X-23042Y-10710D01*
X-23009Y-10531D01*
X-23009Y-14547D01*
X-23009Y-14456D01*
X-23009Y-13231D01*
X-23009Y-11697D01*
X-23016Y-11663D01*
X-23029Y-11630D01*
X-23049Y-11602D01*
X-23073Y-11577D01*
X-23102Y-11557D01*
X-23134Y-11544D01*
X-23168Y-11537D01*
X-23203Y-11537D01*
X-23414Y-11537D01*
X-23414Y-11166D01*
X-23937Y-10643D01*
X-24131Y-10838D01*
X-24131Y-10448D01*
X-24654Y-9926D01*
X-24763Y-10018D01*
X-24831Y-10187D01*
X-24864Y-10366D01*
X-24863Y-10547D01*
X-24826Y-10725D01*
X-24763Y-10878D01*
X-24654Y-10971D01*
X-24131Y-10448D01*
X-24131Y-10838D01*
X-24459Y-11166D01*
X-24367Y-11275D01*
X-24198Y-11343D01*
X-24019Y-11376D01*
X-23837Y-11375D01*
X-23659Y-11338D01*
X-23506Y-11275D01*
X-23414Y-11166D01*
X-23414Y-11537D01*
X-23754Y-11537D01*
X-23799Y-11581D01*
X-23799Y-12326D01*
X-23054Y-12326D01*
X-23009Y-12282D01*
X-23009Y-11697D01*
X-23009Y-13231D01*
X-23009Y-12646D01*
X-23054Y-12602D01*
X-23799Y-12602D01*
X-23799Y-13347D01*
X-23754Y-13391D01*
X-23203Y-13391D01*
X-23168Y-13391D01*
X-23134Y-13384D01*
X-23102Y-13371D01*
X-23073Y-13351D01*
X-23049Y-13327D01*
X-23029Y-13298D01*
X-23016Y-13266D01*
X-23009Y-13231D01*
X-23009Y-14456D01*
X-23010Y-14365D01*
X-23047Y-14187D01*
X-23110Y-14034D01*
X-23219Y-13942D01*
X-23414Y-14137D01*
X-23414Y-13747D01*
X-23506Y-13638D01*
X-23675Y-13570D01*
X-23854Y-13536D01*
X-24036Y-13538D01*
X-24074Y-13546D01*
X-24074Y-13347D01*
X-24074Y-12602D01*
X-24074Y-12326D01*
X-24074Y-11581D01*
X-24119Y-11537D01*
X-24670Y-11537D01*
X-24705Y-11537D01*
X-24739Y-11544D01*
X-24771Y-11557D01*
X-24800Y-11577D01*
X-24824Y-11602D01*
X-24844Y-11630D01*
X-24857Y-11663D01*
X-24864Y-11697D01*
X-24864Y-12282D01*
X-24819Y-12326D01*
X-24074Y-12326D01*
X-24074Y-12602D01*
X-24819Y-12602D01*
X-24864Y-12646D01*
X-24864Y-13231D01*
X-24857Y-13266D01*
X-24844Y-13298D01*
X-24824Y-13327D01*
X-24800Y-13351D01*
X-24771Y-13371D01*
X-24739Y-13384D01*
X-24705Y-13391D01*
X-24670Y-13391D01*
X-24119Y-13391D01*
X-24074Y-13347D01*
X-24074Y-13546D01*
X-24214Y-13575D01*
X-24367Y-13638D01*
X-24459Y-13747D01*
X-23937Y-14269D01*
X-23414Y-13747D01*
X-23414Y-14137D01*
X-23742Y-14464D01*
X-23219Y-14986D01*
X-23110Y-14894D01*
X-23042Y-14725D01*
X-23009Y-14547D01*
X-23009Y-16526D01*
X-23031Y-16531D01*
X-23113Y-16564D01*
X-23187Y-16613D01*
X-23250Y-16676D01*
X-23299Y-16750D01*
X-23334Y-16832D01*
X-23352Y-16918D01*
X-23352Y-17007D01*
X-23352Y-17261D01*
X-23414Y-17209D01*
X-23414Y-15181D01*
X-23937Y-14659D01*
X-24131Y-14854D01*
X-24131Y-14464D01*
X-24654Y-13942D01*
X-24763Y-14034D01*
X-24831Y-14203D01*
X-24864Y-14381D01*
X-24863Y-14563D01*
X-24826Y-14741D01*
X-24763Y-14894D01*
X-24654Y-14986D01*
X-24131Y-14464D01*
X-24131Y-14854D01*
X-24459Y-15181D01*
X-24367Y-15290D01*
X-24198Y-15358D01*
X-24019Y-15392D01*
X-23837Y-15390D01*
X-23659Y-15354D01*
X-23506Y-15290D01*
X-23414Y-15181D01*
X-23414Y-17209D01*
X-23432Y-17194D01*
X-23627Y-17388D01*
X-23627Y-16999D01*
X-23719Y-16890D01*
X-23888Y-16822D01*
X-24066Y-16788D01*
X-24248Y-16790D01*
X-24426Y-16827D01*
X-24579Y-16890D01*
X-24672Y-16999D01*
X-24149Y-17521D01*
X-23627Y-16999D01*
X-23627Y-17388D01*
X-23954Y-17716D01*
X-23432Y-18238D01*
X-23352Y-18171D01*
X-23352Y-18510D01*
X-23335Y-18598D01*
X-23301Y-18680D01*
X-23252Y-18754D01*
X-23193Y-18812D01*
X-23627Y-18812D01*
X-23627Y-18433D01*
X-24149Y-17911D01*
X-24672Y-18433D01*
X-24579Y-18542D01*
X-24411Y-18610D01*
X-24232Y-18644D01*
X-24050Y-18642D01*
X-23872Y-18606D01*
X-23719Y-18542D01*
X-23627Y-18433D01*
X-23627Y-18812D01*
X-25037Y-18812D01*
X-25037Y-17997D01*
X-24976Y-18146D01*
X-24866Y-18238D01*
X-24344Y-17716D01*
X-24866Y-17194D01*
X-24976Y-17286D01*
X-25037Y-17439D01*
X-25037Y-1980D01*
X-25024Y-1993D01*
X-24986Y-1954D01*
X-24893Y-2063D01*
X-24725Y-2131D01*
X-24546Y-2164D01*
X-24364Y-2163D01*
X-24186Y-2126D01*
X-24033Y-2063D01*
X-23941Y-1954D01*
X-24463Y-1431D01*
X-24469Y-1437D01*
X-24664Y-1242D01*
X-24658Y-1237D01*
X-24664Y-1231D01*
X-24469Y-1036D01*
X-24463Y-1042D01*
X-23941Y-519D01*
X-24033Y-410D01*
X-24202Y-342D01*
X-24381Y-309D01*
X-24562Y-310D01*
X-24740Y-347D01*
X-24893Y-410D01*
X-24986Y-519D01*
X-25024Y-480D01*
X-25037Y-493D01*
X-25037Y-92D01*
X-20841Y-92D01*
X-21023Y-165D01*
X-21221Y-295D01*
X-21389Y-460D01*
X-21522Y-654D01*
X-21536Y-686D01*
X-21536Y-503D01*
X-21536Y-468D01*
X-21543Y-434D01*
X-21557Y-402D01*
X-21576Y-373D01*
X-21601Y-349D01*
X-21630Y-329D01*
X-21662Y-316D01*
X-21696Y-309D01*
X-22281Y-309D01*
X-22325Y-354D01*
X-22325Y-1099D01*
X-22318Y-1099D01*
X-22318Y-1374D01*
X-22325Y-1374D01*
X-22325Y-2119D01*
X-22281Y-2164D01*
X-21696Y-2164D01*
X-21662Y-2157D01*
X-21630Y-2144D01*
X-21601Y-2124D01*
X-21576Y-2100D01*
X-21557Y-2071D01*
X-21543Y-2039D01*
X-21536Y-2005D01*
X-21536Y-1970D01*
X-21536Y-1792D01*
X-21410Y-1987D01*
X-21247Y-2157D01*
X-21053Y-2292D01*
X-20837Y-2386D01*
X-20606Y-2437D01*
X-20371Y-2442D01*
X-20138Y-2401D01*
X-19918Y-2315D01*
X-19719Y-2189D01*
X-19648Y-2121D01*
X-19615Y-2200D01*
X-19566Y-2274D01*
X-19503Y-2337D01*
X-19430Y-2387D01*
X-19348Y-2421D01*
X-19261Y-2439D01*
X-19172Y-2440D01*
X-17669Y-2439D01*
X-17582Y-2422D01*
X-17500Y-2388D01*
X-17426Y-2339D01*
X-17363Y-2277D01*
X-17313Y-2203D01*
X-17279Y-2123D01*
X-17247Y-2157D01*
X-17053Y-2292D01*
X-16837Y-2386D01*
X-16606Y-2437D01*
X-16371Y-2442D01*
X-16138Y-2401D01*
X-15918Y-2315D01*
X-15719Y-2189D01*
X-15648Y-2121D01*
X-15615Y-2200D01*
X-15566Y-2274D01*
X-15503Y-2337D01*
X-15430Y-2387D01*
X-15348Y-2421D01*
X-15261Y-2439D01*
X-15172Y-2440D01*
X-13669Y-2439D01*
X-13582Y-2422D01*
X-13500Y-2388D01*
X-13426Y-2339D01*
X-13363Y-2277D01*
X-13313Y-2203D01*
X-13279Y-2123D01*
X-13247Y-2157D01*
X-13053Y-2292D01*
X-12837Y-2386D01*
X-12606Y-2437D01*
X-12371Y-2442D01*
X-12138Y-2401D01*
X-11918Y-2315D01*
X-11719Y-2189D01*
X-11648Y-2121D01*
X-11615Y-2200D01*
X-11566Y-2274D01*
X-11503Y-2337D01*
X-11430Y-2387D01*
X-11348Y-2421D01*
X-11261Y-2439D01*
X-11172Y-2440D01*
X-9669Y-2439D01*
X-9582Y-2422D01*
X-9500Y-2388D01*
X-9426Y-2339D01*
X-9363Y-2277D01*
X-9313Y-2203D01*
X-9279Y-2123D01*
X-9247Y-2157D01*
X-9053Y-2292D01*
X-8837Y-2386D01*
X-8606Y-2437D01*
X-8371Y-2442D01*
X-8138Y-2401D01*
X-7918Y-2315D01*
X-7719Y-2189D01*
X-7648Y-2121D01*
X-7615Y-2200D01*
X-7566Y-2274D01*
X-7503Y-2337D01*
X-7430Y-2387D01*
X-7348Y-2421D01*
X-7261Y-2439D01*
X-7172Y-2440D01*
X-5669Y-2439D01*
X-5582Y-2422D01*
X-5500Y-2388D01*
X-5426Y-2339D01*
X-5363Y-2277D01*
X-5313Y-2203D01*
X-5279Y-2121D01*
X-5261Y-2034D01*
X-5260Y-1945D01*
X-5260Y-1692D01*
X-5181Y-1759D01*
X-4658Y-1237D01*
X-5181Y-714D01*
X-5260Y-782D01*
X-5261Y-442D01*
X-5278Y-355D01*
X-5312Y-273D01*
X-5361Y-199D01*
X-5423Y-136D01*
X-5488Y-92D01*
X-1213Y-92D01*
X-1213Y-92D01*
G37*
X-1213Y-92D02*
X-1547Y-426D01*
X-1557Y-402D01*
X-1576Y-373D01*
X-1601Y-349D01*
X-1630Y-329D01*
X-1662Y-316D01*
X-1696Y-309D01*
X-2281Y-309D01*
X-2325Y-354D01*
X-2325Y-1099D01*
X-2318Y-1099D01*
X-2318Y-1374D01*
X-2325Y-1374D01*
X-2325Y-2119D01*
X-2281Y-2164D01*
X-1876Y-2164D01*
X-1876Y-3988D01*
X-1903Y-4006D01*
X-1986Y-4087D01*
X-2051Y-4182D01*
X-2097Y-4289D01*
X-2120Y-4398D01*
X-2601Y-4398D01*
X-2601Y-2119D01*
X-2601Y-1374D01*
X-2601Y-1099D01*
X-2601Y-354D01*
X-2645Y-309D01*
X-3231Y-309D01*
X-3265Y-316D01*
X-3297Y-329D01*
X-3326Y-349D01*
X-3350Y-373D01*
X-3370Y-402D01*
X-3383Y-434D01*
X-3390Y-468D01*
X-3391Y-503D01*
X-3390Y-1054D01*
X-3346Y-1099D01*
X-2601Y-1099D01*
X-2601Y-1374D01*
X-3346Y-1374D01*
X-3390Y-1419D01*
X-3391Y-1970D01*
X-3390Y-2005D01*
X-3383Y-2039D01*
X-3370Y-2071D01*
X-3350Y-2100D01*
X-3326Y-2124D01*
X-3297Y-2144D01*
X-3265Y-2157D01*
X-3231Y-2164D01*
X-2645Y-2164D01*
X-2601Y-2119D01*
X-2601Y-4398D01*
X-3535Y-4398D01*
X-3535Y-1319D01*
X-3537Y-1137D01*
X-3574Y-959D01*
X-3637Y-806D01*
X-3746Y-714D01*
X-3941Y-909D01*
X-3941Y-519D01*
X-4033Y-410D01*
X-4202Y-342D01*
X-4381Y-309D01*
X-4562Y-310D01*
X-4740Y-347D01*
X-4893Y-410D01*
X-4986Y-519D01*
X-4463Y-1042D01*
X-3941Y-519D01*
X-3941Y-909D01*
X-4268Y-1237D01*
X-3746Y-1759D01*
X-3637Y-1667D01*
X-3569Y-1498D01*
X-3535Y-1319D01*
X-3535Y-4398D01*
X-3941Y-4398D01*
X-3941Y-1954D01*
X-4463Y-1431D01*
X-4986Y-1954D01*
X-4893Y-2063D01*
X-4725Y-2131D01*
X-4546Y-2164D01*
X-4364Y-2163D01*
X-4186Y-2126D01*
X-4033Y-2063D01*
X-3941Y-1954D01*
X-3941Y-4398D01*
X-13657Y-4398D01*
X-13703Y-4403D01*
X-13749Y-4407D01*
X-13752Y-4407D01*
X-13755Y-4408D01*
X-13799Y-4421D01*
X-13844Y-4434D01*
X-13846Y-4435D01*
X-13849Y-4436D01*
X-13890Y-4458D01*
X-13931Y-4479D01*
X-13933Y-4481D01*
X-13935Y-4482D01*
X-13971Y-4512D01*
X-14008Y-4541D01*
X-14011Y-4544D01*
X-14011Y-4544D01*
X-14011Y-4544D01*
X-14013Y-4545D01*
X-14259Y-4792D01*
X-17830Y-4792D01*
X-17876Y-4796D01*
X-17923Y-4800D01*
X-17925Y-4801D01*
X-17928Y-4801D01*
X-17972Y-4815D01*
X-18017Y-4828D01*
X-18019Y-4829D01*
X-18022Y-4830D01*
X-18063Y-4852D01*
X-18104Y-4873D01*
X-18106Y-4875D01*
X-18109Y-4876D01*
X-18145Y-4905D01*
X-18181Y-4934D01*
X-18185Y-4938D01*
X-18185Y-4938D01*
X-18185Y-4938D01*
X-18186Y-4939D01*
X-18747Y-5500D01*
X-19996Y-5500D01*
X-20042Y-5505D01*
X-20088Y-5509D01*
X-20091Y-5510D01*
X-20093Y-5510D01*
X-20138Y-5523D01*
X-20182Y-5536D01*
X-20185Y-5538D01*
X-20187Y-5538D01*
X-20228Y-5560D01*
X-20269Y-5582D01*
X-20272Y-5583D01*
X-20274Y-5585D01*
X-20310Y-5614D01*
X-20346Y-5643D01*
X-20350Y-5646D01*
X-20350Y-5647D01*
X-20350Y-5647D01*
X-20351Y-5648D01*
X-21194Y-6491D01*
X-21223Y-6526D01*
X-21253Y-6562D01*
X-21255Y-6564D01*
X-21256Y-6566D01*
X-21278Y-6607D01*
X-21301Y-6648D01*
X-21301Y-6651D01*
X-21303Y-6653D01*
X-21316Y-6697D01*
X-21330Y-6742D01*
X-21331Y-6744D01*
X-21331Y-6747D01*
X-21336Y-6793D01*
X-21339Y-6817D01*
X-21364Y-6842D01*
X-21413Y-6915D01*
X-21448Y-6997D01*
X-21466Y-7084D01*
X-21466Y-7173D01*
X-21466Y-7650D01*
X-21477Y-7655D01*
X-21551Y-7704D01*
X-21614Y-7767D01*
X-21663Y-7840D01*
X-21698Y-7922D01*
X-21716Y-8009D01*
X-21716Y-8098D01*
X-21716Y-8701D01*
X-21699Y-8788D01*
X-21665Y-8870D01*
X-21616Y-8944D01*
X-21553Y-9007D01*
X-21480Y-9057D01*
X-21398Y-9091D01*
X-21311Y-9109D01*
X-21222Y-9110D01*
X-20419Y-9109D01*
X-20332Y-9092D01*
X-20250Y-9058D01*
X-20176Y-9009D01*
X-20113Y-8947D01*
X-20063Y-8873D01*
X-20029Y-8791D01*
X-20011Y-8704D01*
X-20010Y-8615D01*
X-20010Y-8134D01*
X-19925Y-8134D01*
X-19902Y-8146D01*
X-19861Y-8169D01*
X-19859Y-8170D01*
X-19857Y-8171D01*
X-19816Y-8183D01*
X-19800Y-8208D01*
X-19874Y-8316D01*
X-19936Y-8461D01*
X-19969Y-8616D01*
X-19971Y-8774D01*
X-19943Y-8930D01*
X-19885Y-9077D01*
X-19799Y-9210D01*
X-19689Y-9324D01*
X-19599Y-9387D01*
X-19638Y-9427D01*
X-19593Y-9472D01*
X-19662Y-9515D01*
X-19689Y-9615D01*
X-19697Y-9719D01*
X-19685Y-9823D01*
X-19662Y-9898D01*
X-19593Y-9941D01*
X-19358Y-9707D01*
X-19364Y-9701D01*
X-19176Y-9514D01*
X-19150Y-9514D01*
X-18963Y-9701D01*
X-18968Y-9707D01*
X-18734Y-9941D01*
X-18665Y-9898D01*
X-18637Y-9798D01*
X-18629Y-9694D01*
X-18642Y-9591D01*
X-18665Y-9515D01*
X-18734Y-9472D01*
X-18688Y-9427D01*
X-18728Y-9387D01*
X-18664Y-9346D01*
X-18549Y-9237D01*
X-18458Y-9107D01*
X-18394Y-8963D01*
X-18359Y-8808D01*
X-18356Y-8627D01*
X-18387Y-8472D01*
X-18447Y-8326D01*
X-18527Y-8205D01*
X-18458Y-8107D01*
X-18394Y-7963D01*
X-18359Y-7808D01*
X-18356Y-7627D01*
X-18387Y-7472D01*
X-18447Y-7326D01*
X-18519Y-7218D01*
X-18463Y-7218D01*
X-18416Y-7214D01*
X-18369Y-7210D01*
X-18367Y-7209D01*
X-18364Y-7209D01*
X-18319Y-7195D01*
X-18273Y-7182D01*
X-18271Y-7181D01*
X-18268Y-7180D01*
X-18227Y-7158D01*
X-18185Y-7136D01*
X-18182Y-7134D01*
X-18180Y-7133D01*
X-18143Y-7103D01*
X-18106Y-7074D01*
X-18103Y-7070D01*
X-18103Y-7070D01*
X-18103Y-7070D01*
X-18101Y-7068D01*
X-17251Y-6218D01*
X-16807Y-6218D01*
X-16874Y-6316D01*
X-16936Y-6461D01*
X-16969Y-6616D01*
X-16971Y-6774D01*
X-16943Y-6930D01*
X-16885Y-7077D01*
X-16800Y-7208D01*
X-16874Y-7316D01*
X-16936Y-7461D01*
X-16969Y-7616D01*
X-16971Y-7774D01*
X-16943Y-7930D01*
X-16885Y-8077D01*
X-16800Y-8208D01*
X-16874Y-8316D01*
X-16936Y-8461D01*
X-16969Y-8616D01*
X-16971Y-8774D01*
X-16943Y-8930D01*
X-16885Y-9077D01*
X-16799Y-9210D01*
X-16689Y-9324D01*
X-16599Y-9387D01*
X-16638Y-9427D01*
X-16593Y-9472D01*
X-16662Y-9515D01*
X-16689Y-9615D01*
X-16697Y-9719D01*
X-16685Y-9823D01*
X-16662Y-9898D01*
X-16593Y-9941D01*
X-16358Y-9707D01*
X-16364Y-9701D01*
X-16176Y-9514D01*
X-16150Y-9514D01*
X-15963Y-9701D01*
X-15968Y-9707D01*
X-15734Y-9941D01*
X-15665Y-9898D01*
X-15637Y-9798D01*
X-15629Y-9694D01*
X-15642Y-9591D01*
X-15665Y-9515D01*
X-15734Y-9472D01*
X-15688Y-9427D01*
X-15728Y-9387D01*
X-15664Y-9346D01*
X-15549Y-9237D01*
X-15458Y-9107D01*
X-15394Y-8963D01*
X-15359Y-8808D01*
X-15356Y-8627D01*
X-15387Y-8472D01*
X-15447Y-8326D01*
X-15524Y-8210D01*
X-15463Y-8210D01*
X-15417Y-8205D01*
X-15371Y-8201D01*
X-15368Y-8200D01*
X-15366Y-8200D01*
X-15321Y-8187D01*
X-15316Y-8185D01*
X-15316Y-8701D01*
X-15299Y-8788D01*
X-15265Y-8870D01*
X-15216Y-8944D01*
X-15153Y-9007D01*
X-15080Y-9057D01*
X-14998Y-9091D01*
X-14911Y-9109D01*
X-14822Y-9110D01*
X-14422Y-9110D01*
X-14316Y-9215D01*
X-14325Y-9224D01*
X-14325Y-9519D01*
X-13930Y-9519D01*
X-13902Y-9491D01*
X-13878Y-9493D01*
X-13831Y-9498D01*
X-13826Y-9499D01*
X-13826Y-9499D01*
X-13826Y-9499D01*
X-13824Y-9499D01*
X-13416Y-9499D01*
X-13396Y-9519D01*
X-13001Y-9519D01*
X-13001Y-9511D01*
X-12725Y-9511D01*
X-12725Y-9519D01*
X-12349Y-9519D01*
X-12308Y-9560D01*
X-12272Y-9589D01*
X-12236Y-9619D01*
X-12234Y-9620D01*
X-12232Y-9622D01*
X-12191Y-9644D01*
X-12150Y-9667D01*
X-12148Y-9667D01*
X-12146Y-9669D01*
X-12101Y-9682D01*
X-12057Y-9696D01*
X-12054Y-9696D01*
X-12052Y-9697D01*
X-12005Y-9702D01*
X-11959Y-9707D01*
X-11954Y-9707D01*
X-11954Y-9707D01*
X-11954Y-9707D01*
X-11952Y-9707D01*
X-11696Y-9707D01*
X-11697Y-9719D01*
X-11685Y-9823D01*
X-11662Y-9898D01*
X-11593Y-9941D01*
X-11359Y-9707D01*
X-10968Y-9707D01*
X-10734Y-9941D01*
X-10665Y-9898D01*
X-10637Y-9798D01*
X-10630Y-9707D01*
X-8696Y-9707D01*
X-8697Y-9719D01*
X-8685Y-9823D01*
X-8662Y-9898D01*
X-8593Y-9941D01*
X-8359Y-9707D01*
X-7968Y-9707D01*
X-7734Y-9941D01*
X-7665Y-9898D01*
X-7637Y-9798D01*
X-7630Y-9707D01*
X-7040Y-9707D01*
X-7040Y-9794D01*
X-6996Y-9794D01*
X-7040Y-9839D01*
X-7040Y-9974D01*
X-7034Y-10008D01*
X-7020Y-10040D01*
X-7001Y-10069D01*
X-6977Y-10094D01*
X-6948Y-10113D01*
X-6916Y-10127D01*
X-6882Y-10134D01*
X-6847Y-10134D01*
X-6645Y-10134D01*
X-6601Y-10089D01*
X-6601Y-9794D01*
X-6609Y-9794D01*
X-6609Y-9707D01*
X-6318Y-9707D01*
X-6318Y-9794D01*
X-6325Y-9794D01*
X-6325Y-10089D01*
X-6281Y-10134D01*
X-6079Y-10134D01*
X-6045Y-10134D01*
X-6011Y-10127D01*
X-5979Y-10113D01*
X-5950Y-10094D01*
X-5925Y-10069D01*
X-5906Y-10040D01*
X-5893Y-10008D01*
X-5886Y-9974D01*
X-5886Y-9839D01*
X-5930Y-9794D01*
X-5886Y-9794D01*
X-5886Y-9707D01*
X-3247Y-9707D01*
X-4983Y-11444D01*
X-5068Y-11387D01*
X-5169Y-11344D01*
X-5399Y-11073D01*
X-5412Y-11060D01*
X-5424Y-11045D01*
X-5447Y-11025D01*
X-5469Y-11004D01*
X-5485Y-10994D01*
X-5499Y-10982D01*
X-5526Y-10967D01*
X-5552Y-10951D01*
X-5569Y-10944D01*
X-5585Y-10935D01*
X-5614Y-10926D01*
X-5643Y-10914D01*
X-5661Y-10911D01*
X-5678Y-10905D01*
X-5709Y-10902D01*
X-5739Y-10896D01*
X-5758Y-10896D01*
X-5776Y-10894D01*
X-5783Y-10894D01*
X-5886Y-10894D01*
X-5886Y-10439D01*
X-5893Y-10405D01*
X-5906Y-10373D01*
X-5925Y-10344D01*
X-5950Y-10319D01*
X-5979Y-10300D01*
X-6011Y-10287D01*
X-6045Y-10280D01*
X-6079Y-10279D01*
X-6281Y-10279D01*
X-6325Y-10324D01*
X-6325Y-10619D01*
X-5930Y-10619D01*
X-5886Y-10575D01*
X-5886Y-10439D01*
X-5886Y-10894D01*
X-6601Y-10894D01*
X-6601Y-10619D01*
X-6601Y-10324D01*
X-6645Y-10279D01*
X-6847Y-10279D01*
X-6882Y-10280D01*
X-6916Y-10287D01*
X-6948Y-10300D01*
X-6977Y-10319D01*
X-7001Y-10344D01*
X-7020Y-10373D01*
X-7034Y-10405D01*
X-7040Y-10439D01*
X-7040Y-10575D01*
X-6996Y-10619D01*
X-6601Y-10619D01*
X-6601Y-10894D01*
X-6877Y-10894D01*
X-6927Y-10845D01*
X-6961Y-10817D01*
X-6995Y-10789D01*
X-7000Y-10787D01*
X-7004Y-10783D01*
X-7042Y-10763D01*
X-7081Y-10742D01*
X-7086Y-10740D01*
X-7091Y-10738D01*
X-7133Y-10726D01*
X-7174Y-10712D01*
X-7180Y-10712D01*
X-7185Y-10710D01*
X-7228Y-10706D01*
X-7272Y-10701D01*
X-7279Y-10701D01*
X-7630Y-10701D01*
X-7629Y-10694D01*
X-7642Y-10591D01*
X-7665Y-10515D01*
X-7734Y-10472D01*
X-7928Y-10667D01*
X-7928Y-10277D01*
X-7971Y-10208D01*
X-7977Y-10207D01*
X-7971Y-10205D01*
X-7928Y-10136D01*
X-8163Y-9901D01*
X-8398Y-10136D01*
X-8355Y-10205D01*
X-8350Y-10207D01*
X-8355Y-10208D01*
X-8398Y-10277D01*
X-8163Y-10512D01*
X-7928Y-10277D01*
X-7928Y-10667D01*
X-7963Y-10701D01*
X-8363Y-10701D01*
X-8593Y-10472D01*
X-8662Y-10515D01*
X-8689Y-10615D01*
X-8696Y-10701D01*
X-9996Y-10701D01*
X-10046Y-10706D01*
X-10085Y-10709D01*
X-10089Y-10710D01*
X-10093Y-10711D01*
X-10143Y-10726D01*
X-10180Y-10736D01*
X-10183Y-10738D01*
X-10187Y-10739D01*
X-10233Y-10764D01*
X-10267Y-10781D01*
X-10270Y-10783D01*
X-10274Y-10785D01*
X-10315Y-10819D01*
X-10344Y-10842D01*
X-10349Y-10847D01*
X-10350Y-10847D01*
X-10351Y-10848D01*
X-10617Y-11112D01*
X-10629Y-11099D01*
X-10646Y-11082D01*
X-10728Y-11026D01*
X-10688Y-10987D01*
X-10734Y-10941D01*
X-10665Y-10898D01*
X-10637Y-10798D01*
X-10629Y-10694D01*
X-10642Y-10591D01*
X-10665Y-10515D01*
X-10734Y-10472D01*
X-10928Y-10667D01*
X-10928Y-10277D01*
X-10971Y-10208D01*
X-10977Y-10207D01*
X-10971Y-10205D01*
X-10928Y-10136D01*
X-11163Y-9901D01*
X-11398Y-10136D01*
X-11355Y-10205D01*
X-11350Y-10207D01*
X-11355Y-10208D01*
X-11398Y-10277D01*
X-11163Y-10512D01*
X-10928Y-10277D01*
X-10928Y-10667D01*
X-10968Y-10707D01*
X-10963Y-10712D01*
X-11150Y-10900D01*
X-11177Y-10899D01*
X-11358Y-10718D01*
X-11364Y-10712D01*
X-11358Y-10707D01*
X-11593Y-10472D01*
X-11662Y-10515D01*
X-11689Y-10615D01*
X-11697Y-10719D01*
X-11685Y-10823D01*
X-11662Y-10898D01*
X-11593Y-10941D01*
X-11638Y-10987D01*
X-11598Y-11027D01*
X-11671Y-11075D01*
X-11785Y-11185D01*
X-11874Y-11316D01*
X-11936Y-11461D01*
X-11969Y-11616D01*
X-11970Y-11701D01*
X-12013Y-11701D01*
X-12028Y-11625D01*
X-12062Y-11543D01*
X-12111Y-11469D01*
X-12173Y-11406D01*
X-12247Y-11356D01*
X-12286Y-11340D01*
X-12286Y-11074D01*
X-12286Y-10439D01*
X-12286Y-9974D01*
X-12286Y-9839D01*
X-12330Y-9794D01*
X-12725Y-9794D01*
X-12725Y-10089D01*
X-12681Y-10134D01*
X-12479Y-10134D01*
X-12445Y-10134D01*
X-12411Y-10127D01*
X-12379Y-10113D01*
X-12350Y-10094D01*
X-12325Y-10069D01*
X-12306Y-10040D01*
X-12293Y-10008D01*
X-12286Y-9974D01*
X-12286Y-10439D01*
X-12293Y-10405D01*
X-12306Y-10373D01*
X-12325Y-10344D01*
X-12350Y-10319D01*
X-12379Y-10300D01*
X-12411Y-10287D01*
X-12445Y-10280D01*
X-12479Y-10279D01*
X-12681Y-10279D01*
X-12725Y-10324D01*
X-12725Y-10619D01*
X-12330Y-10619D01*
X-12286Y-10575D01*
X-12286Y-10439D01*
X-12286Y-11074D01*
X-12286Y-10939D01*
X-12330Y-10894D01*
X-12725Y-10894D01*
X-12725Y-11189D01*
X-12681Y-11234D01*
X-12479Y-11234D01*
X-12445Y-11234D01*
X-12411Y-11227D01*
X-12379Y-11213D01*
X-12350Y-11194D01*
X-12325Y-11169D01*
X-12306Y-11140D01*
X-12293Y-11108D01*
X-12286Y-11074D01*
X-12286Y-11340D01*
X-12329Y-11322D01*
X-12416Y-11304D01*
X-12505Y-11304D01*
X-13001Y-11304D01*
X-13001Y-11189D01*
X-13001Y-10894D01*
X-13001Y-10619D01*
X-13001Y-10324D01*
X-13001Y-10089D01*
X-13001Y-9794D01*
X-13396Y-9794D01*
X-13440Y-9839D01*
X-13440Y-9974D01*
X-13434Y-10008D01*
X-13420Y-10040D01*
X-13401Y-10069D01*
X-13377Y-10094D01*
X-13348Y-10113D01*
X-13316Y-10127D01*
X-13282Y-10134D01*
X-13247Y-10134D01*
X-13045Y-10134D01*
X-13001Y-10089D01*
X-13001Y-10324D01*
X-13045Y-10279D01*
X-13247Y-10279D01*
X-13282Y-10280D01*
X-13316Y-10287D01*
X-13348Y-10300D01*
X-13377Y-10319D01*
X-13401Y-10344D01*
X-13420Y-10373D01*
X-13434Y-10405D01*
X-13440Y-10439D01*
X-13440Y-10575D01*
X-13396Y-10619D01*
X-13001Y-10619D01*
X-13001Y-10894D01*
X-13396Y-10894D01*
X-13440Y-10939D01*
X-13440Y-11074D01*
X-13434Y-11108D01*
X-13420Y-11140D01*
X-13401Y-11169D01*
X-13377Y-11194D01*
X-13348Y-11213D01*
X-13316Y-11227D01*
X-13282Y-11234D01*
X-13247Y-11234D01*
X-13045Y-11234D01*
X-13001Y-11189D01*
X-13001Y-11304D01*
X-13308Y-11304D01*
X-13395Y-11321D01*
X-13477Y-11355D01*
X-13551Y-11404D01*
X-13614Y-11467D01*
X-13663Y-11540D01*
X-13711Y-11469D01*
X-13773Y-11406D01*
X-13847Y-11356D01*
X-13886Y-11340D01*
X-13886Y-11074D01*
X-13886Y-10439D01*
X-13886Y-9974D01*
X-13886Y-9839D01*
X-13930Y-9794D01*
X-14325Y-9794D01*
X-14325Y-10089D01*
X-14281Y-10134D01*
X-14079Y-10134D01*
X-14045Y-10134D01*
X-14011Y-10127D01*
X-13979Y-10113D01*
X-13950Y-10094D01*
X-13925Y-10069D01*
X-13906Y-10040D01*
X-13893Y-10008D01*
X-13886Y-9974D01*
X-13886Y-10439D01*
X-13893Y-10405D01*
X-13906Y-10373D01*
X-13925Y-10344D01*
X-13950Y-10319D01*
X-13979Y-10300D01*
X-14011Y-10287D01*
X-14045Y-10280D01*
X-14079Y-10279D01*
X-14281Y-10279D01*
X-14325Y-10324D01*
X-14325Y-10619D01*
X-13930Y-10619D01*
X-13886Y-10575D01*
X-13886Y-10439D01*
X-13886Y-11074D01*
X-13886Y-10939D01*
X-13930Y-10894D01*
X-14325Y-10894D01*
X-14325Y-11189D01*
X-14281Y-11234D01*
X-14079Y-11234D01*
X-14045Y-11234D01*
X-14011Y-11227D01*
X-13979Y-11213D01*
X-13950Y-11194D01*
X-13925Y-11169D01*
X-13906Y-11140D01*
X-13893Y-11108D01*
X-13886Y-11074D01*
X-13886Y-11340D01*
X-13929Y-11322D01*
X-14016Y-11304D01*
X-14105Y-11304D01*
X-14601Y-11304D01*
X-14601Y-11189D01*
X-14601Y-10894D01*
X-14601Y-10619D01*
X-14601Y-10324D01*
X-14601Y-10089D01*
X-14601Y-9794D01*
X-14601Y-9519D01*
X-14601Y-9224D01*
X-14645Y-9179D01*
X-14847Y-9179D01*
X-14882Y-9180D01*
X-14916Y-9187D01*
X-14948Y-9200D01*
X-14977Y-9219D01*
X-15001Y-9244D01*
X-15020Y-9273D01*
X-15034Y-9305D01*
X-15040Y-9339D01*
X-15040Y-9475D01*
X-14996Y-9519D01*
X-14601Y-9519D01*
X-14601Y-9794D01*
X-14996Y-9794D01*
X-15040Y-9839D01*
X-15040Y-9974D01*
X-15034Y-10008D01*
X-15020Y-10040D01*
X-15001Y-10069D01*
X-14977Y-10094D01*
X-14948Y-10113D01*
X-14916Y-10127D01*
X-14882Y-10134D01*
X-14847Y-10134D01*
X-14645Y-10134D01*
X-14601Y-10089D01*
X-14601Y-10324D01*
X-14645Y-10279D01*
X-14847Y-10279D01*
X-14882Y-10280D01*
X-14916Y-10287D01*
X-14948Y-10300D01*
X-14977Y-10319D01*
X-15001Y-10344D01*
X-15020Y-10373D01*
X-15034Y-10405D01*
X-15040Y-10439D01*
X-15040Y-10575D01*
X-14996Y-10619D01*
X-14601Y-10619D01*
X-14601Y-10894D01*
X-14996Y-10894D01*
X-15040Y-10939D01*
X-15040Y-11074D01*
X-15034Y-11108D01*
X-15020Y-11140D01*
X-15001Y-11169D01*
X-14977Y-11194D01*
X-14948Y-11213D01*
X-14916Y-11227D01*
X-14882Y-11234D01*
X-14847Y-11234D01*
X-14645Y-11234D01*
X-14601Y-11189D01*
X-14601Y-11304D01*
X-14908Y-11304D01*
X-14995Y-11321D01*
X-15077Y-11355D01*
X-15151Y-11404D01*
X-15214Y-11467D01*
X-15263Y-11540D01*
X-15298Y-11622D01*
X-15316Y-11709D01*
X-15316Y-11798D01*
X-15316Y-12271D01*
X-15324Y-12267D01*
X-15365Y-12244D01*
X-15368Y-12244D01*
X-15370Y-12242D01*
X-15414Y-12229D01*
X-15459Y-12215D01*
X-15461Y-12214D01*
X-15464Y-12214D01*
X-15510Y-12209D01*
X-15526Y-12207D01*
X-15527Y-12205D01*
X-15458Y-12107D01*
X-15394Y-11963D01*
X-15359Y-11808D01*
X-15356Y-11627D01*
X-15387Y-11472D01*
X-15447Y-11326D01*
X-15535Y-11194D01*
X-15629Y-11099D01*
X-15646Y-11082D01*
X-15728Y-11026D01*
X-15688Y-10987D01*
X-15734Y-10941D01*
X-15665Y-10898D01*
X-15637Y-10798D01*
X-15629Y-10694D01*
X-15642Y-10591D01*
X-15665Y-10515D01*
X-15734Y-10472D01*
X-15928Y-10667D01*
X-15928Y-10277D01*
X-15971Y-10208D01*
X-15977Y-10207D01*
X-15971Y-10205D01*
X-15928Y-10136D01*
X-16163Y-9901D01*
X-16358Y-10096D01*
X-16398Y-10136D01*
X-16355Y-10205D01*
X-16350Y-10207D01*
X-16355Y-10208D01*
X-16398Y-10277D01*
X-16163Y-10512D01*
X-15928Y-10277D01*
X-15928Y-10667D01*
X-15968Y-10707D01*
X-15963Y-10712D01*
X-16150Y-10900D01*
X-16177Y-10899D01*
X-16358Y-10718D01*
X-16364Y-10712D01*
X-16358Y-10707D01*
X-16593Y-10472D01*
X-16662Y-10515D01*
X-16689Y-10615D01*
X-16697Y-10719D01*
X-16685Y-10823D01*
X-16662Y-10898D01*
X-16593Y-10941D01*
X-16638Y-10987D01*
X-16598Y-11027D01*
X-16671Y-11075D01*
X-16785Y-11185D01*
X-16874Y-11316D01*
X-16936Y-11461D01*
X-16969Y-11616D01*
X-16971Y-11774D01*
X-16943Y-11930D01*
X-16885Y-12077D01*
X-16800Y-12208D01*
X-16874Y-12316D01*
X-16936Y-12461D01*
X-16969Y-12616D01*
X-16971Y-12774D01*
X-16943Y-12930D01*
X-16885Y-13077D01*
X-16817Y-13183D01*
X-16838Y-13215D01*
X-16873Y-13297D01*
X-16891Y-13384D01*
X-16891Y-13473D01*
X-16891Y-14026D01*
X-16874Y-14113D01*
X-16840Y-14195D01*
X-16791Y-14269D01*
X-16728Y-14332D01*
X-16655Y-14382D01*
X-16573Y-14416D01*
X-16486Y-14434D01*
X-16397Y-14435D01*
X-16059Y-14434D01*
X-16075Y-14458D01*
X-16120Y-14564D01*
X-16133Y-14625D01*
X-16456Y-14625D01*
X-17779Y-13303D01*
X-17819Y-13269D01*
X-17860Y-13236D01*
X-17862Y-13234D01*
X-17865Y-13232D01*
X-17911Y-13207D01*
X-17957Y-13182D01*
X-17960Y-13181D01*
X-17963Y-13180D01*
X-18013Y-13164D01*
X-18063Y-13148D01*
X-18066Y-13148D01*
X-18069Y-13147D01*
X-18122Y-13142D01*
X-18174Y-13136D01*
X-18180Y-13136D01*
X-18180Y-13136D01*
X-18180Y-13136D01*
X-18182Y-13136D01*
X-18478Y-13136D01*
X-18458Y-13107D01*
X-18394Y-12963D01*
X-18359Y-12808D01*
X-18356Y-12627D01*
X-18387Y-12472D01*
X-18447Y-12326D01*
X-18527Y-12205D01*
X-18458Y-12107D01*
X-18394Y-11963D01*
X-18359Y-11808D01*
X-18356Y-11627D01*
X-18387Y-11472D01*
X-18447Y-11326D01*
X-18535Y-11194D01*
X-18629Y-11099D01*
X-18646Y-11082D01*
X-18728Y-11026D01*
X-18688Y-10987D01*
X-18734Y-10941D01*
X-18665Y-10898D01*
X-18637Y-10798D01*
X-18629Y-10694D01*
X-18642Y-10591D01*
X-18665Y-10515D01*
X-18734Y-10472D01*
X-18928Y-10667D01*
X-18928Y-10277D01*
X-18971Y-10208D01*
X-18977Y-10207D01*
X-18971Y-10205D01*
X-18928Y-10136D01*
X-19163Y-9901D01*
X-19358Y-10096D01*
X-19398Y-10136D01*
X-19355Y-10205D01*
X-19350Y-10207D01*
X-19355Y-10208D01*
X-19398Y-10277D01*
X-19163Y-10512D01*
X-18928Y-10277D01*
X-18928Y-10667D01*
X-18968Y-10707D01*
X-18963Y-10712D01*
X-19150Y-10900D01*
X-19177Y-10899D01*
X-19358Y-10718D01*
X-19364Y-10712D01*
X-19358Y-10707D01*
X-19593Y-10472D01*
X-19662Y-10515D01*
X-19689Y-10615D01*
X-19697Y-10719D01*
X-19685Y-10823D01*
X-19662Y-10898D01*
X-19593Y-10941D01*
X-19638Y-10987D01*
X-19598Y-11027D01*
X-19671Y-11075D01*
X-19785Y-11185D01*
X-19874Y-11316D01*
X-19936Y-11461D01*
X-19969Y-11616D01*
X-19971Y-11774D01*
X-19943Y-11930D01*
X-19885Y-12077D01*
X-19803Y-12204D01*
X-19863Y-12204D01*
X-19910Y-12208D01*
X-19956Y-12212D01*
X-19958Y-12213D01*
X-19961Y-12213D01*
X-20005Y-12227D01*
X-20010Y-12228D01*
X-20011Y-11712D01*
X-20028Y-11625D01*
X-20062Y-11543D01*
X-20111Y-11469D01*
X-20173Y-11406D01*
X-20247Y-11356D01*
X-20286Y-11340D01*
X-20286Y-11074D01*
X-20286Y-10439D01*
X-20286Y-9974D01*
X-20286Y-9339D01*
X-20293Y-9305D01*
X-20306Y-9273D01*
X-20325Y-9244D01*
X-20350Y-9219D01*
X-20379Y-9200D01*
X-20411Y-9187D01*
X-20445Y-9180D01*
X-20479Y-9179D01*
X-20681Y-9179D01*
X-20725Y-9224D01*
X-20725Y-9519D01*
X-20330Y-9519D01*
X-20286Y-9475D01*
X-20286Y-9339D01*
X-20286Y-9974D01*
X-20286Y-9839D01*
X-20330Y-9794D01*
X-20725Y-9794D01*
X-20725Y-10089D01*
X-20681Y-10134D01*
X-20479Y-10134D01*
X-20445Y-10134D01*
X-20411Y-10127D01*
X-20379Y-10113D01*
X-20350Y-10094D01*
X-20325Y-10069D01*
X-20306Y-10040D01*
X-20293Y-10008D01*
X-20286Y-9974D01*
X-20286Y-10439D01*
X-20293Y-10405D01*
X-20306Y-10373D01*
X-20325Y-10344D01*
X-20350Y-10319D01*
X-20379Y-10300D01*
X-20411Y-10287D01*
X-20445Y-10280D01*
X-20479Y-10279D01*
X-20681Y-10279D01*
X-20725Y-10324D01*
X-20725Y-10619D01*
X-20330Y-10619D01*
X-20286Y-10575D01*
X-20286Y-10439D01*
X-20286Y-11074D01*
X-20286Y-10939D01*
X-20330Y-10894D01*
X-20725Y-10894D01*
X-20725Y-11189D01*
X-20681Y-11234D01*
X-20479Y-11234D01*
X-20445Y-11234D01*
X-20411Y-11227D01*
X-20379Y-11213D01*
X-20350Y-11194D01*
X-20325Y-11169D01*
X-20306Y-11140D01*
X-20293Y-11108D01*
X-20286Y-11074D01*
X-20286Y-11340D01*
X-20329Y-11322D01*
X-20416Y-11304D01*
X-20505Y-11304D01*
X-21001Y-11304D01*
X-21001Y-11189D01*
X-21001Y-10894D01*
X-21001Y-10619D01*
X-21001Y-10324D01*
X-21001Y-10089D01*
X-21001Y-9794D01*
X-21001Y-9519D01*
X-21001Y-9224D01*
X-21045Y-9179D01*
X-21247Y-9179D01*
X-21282Y-9180D01*
X-21316Y-9187D01*
X-21348Y-9200D01*
X-21377Y-9219D01*
X-21401Y-9244D01*
X-21420Y-9273D01*
X-21434Y-9305D01*
X-21440Y-9339D01*
X-21440Y-9475D01*
X-21396Y-9519D01*
X-21001Y-9519D01*
X-21001Y-9794D01*
X-21396Y-9794D01*
X-21440Y-9839D01*
X-21440Y-9974D01*
X-21434Y-10008D01*
X-21420Y-10040D01*
X-21401Y-10069D01*
X-21377Y-10094D01*
X-21348Y-10113D01*
X-21316Y-10127D01*
X-21282Y-10134D01*
X-21247Y-10134D01*
X-21045Y-10134D01*
X-21001Y-10089D01*
X-21001Y-10324D01*
X-21045Y-10279D01*
X-21247Y-10279D01*
X-21282Y-10280D01*
X-21316Y-10287D01*
X-21348Y-10300D01*
X-21377Y-10319D01*
X-21401Y-10344D01*
X-21420Y-10373D01*
X-21434Y-10405D01*
X-21440Y-10439D01*
X-21440Y-10575D01*
X-21396Y-10619D01*
X-21001Y-10619D01*
X-21001Y-10894D01*
X-21396Y-10894D01*
X-21440Y-10939D01*
X-21440Y-11074D01*
X-21434Y-11108D01*
X-21420Y-11140D01*
X-21401Y-11169D01*
X-21377Y-11194D01*
X-21348Y-11213D01*
X-21316Y-11227D01*
X-21282Y-11234D01*
X-21247Y-11234D01*
X-21045Y-11234D01*
X-21001Y-11189D01*
X-21001Y-11304D01*
X-21308Y-11304D01*
X-21395Y-11321D01*
X-21477Y-11355D01*
X-21551Y-11404D01*
X-21614Y-11467D01*
X-21663Y-11540D01*
X-21698Y-11622D01*
X-21716Y-11709D01*
X-21716Y-11798D01*
X-21716Y-12401D01*
X-21699Y-12488D01*
X-21665Y-12570D01*
X-21616Y-12644D01*
X-21553Y-12707D01*
X-21480Y-12757D01*
X-21466Y-12762D01*
X-21466Y-12773D01*
X-21466Y-13326D01*
X-21449Y-13413D01*
X-21415Y-13495D01*
X-21366Y-13569D01*
X-21341Y-13594D01*
X-21341Y-13704D01*
X-21337Y-13750D01*
X-21333Y-13797D01*
X-21332Y-13799D01*
X-21332Y-13802D01*
X-21318Y-13846D01*
X-21305Y-13891D01*
X-21304Y-13893D01*
X-21303Y-13896D01*
X-21281Y-13937D01*
X-21260Y-13978D01*
X-21258Y-13980D01*
X-21257Y-13982D01*
X-21228Y-14018D01*
X-21199Y-14055D01*
X-21195Y-14058D01*
X-21195Y-14058D01*
X-21195Y-14058D01*
X-21194Y-14060D01*
X-20824Y-14430D01*
X-20824Y-14430D01*
X-20351Y-14902D01*
X-20315Y-14932D01*
X-20280Y-14962D01*
X-20277Y-14963D01*
X-20275Y-14965D01*
X-20234Y-14987D01*
X-20194Y-15009D01*
X-20191Y-15010D01*
X-20189Y-15011D01*
X-20144Y-15025D01*
X-20100Y-15039D01*
X-20098Y-15039D01*
X-20095Y-15040D01*
X-20049Y-15044D01*
X-20003Y-15050D01*
X-19997Y-15050D01*
X-19997Y-15050D01*
X-19997Y-15050D01*
X-19996Y-15050D01*
X-18668Y-15050D01*
X-17517Y-16202D01*
X-17481Y-16231D01*
X-17445Y-16261D01*
X-17443Y-16262D01*
X-17441Y-16264D01*
X-17400Y-16286D01*
X-17359Y-16308D01*
X-17357Y-16309D01*
X-17354Y-16310D01*
X-17310Y-16324D01*
X-17265Y-16338D01*
X-17263Y-16338D01*
X-17260Y-16339D01*
X-17214Y-16344D01*
X-17168Y-16349D01*
X-17163Y-16349D01*
X-17163Y-16349D01*
X-17163Y-16349D01*
X-17161Y-16349D01*
X-7555Y-16349D01*
X-7508Y-16344D01*
X-7462Y-16340D01*
X-7460Y-16340D01*
X-7457Y-16339D01*
X-7412Y-16326D01*
X-7368Y-16313D01*
X-7365Y-16312D01*
X-7363Y-16311D01*
X-7322Y-16289D01*
X-7281Y-16268D01*
X-7279Y-16266D01*
X-7276Y-16265D01*
X-7240Y-16236D01*
X-7204Y-16207D01*
X-7200Y-16203D01*
X-7200Y-16203D01*
X-7200Y-16203D01*
X-7199Y-16202D01*
X-6034Y-15037D01*
X-6010Y-15017D01*
X-5974Y-14988D01*
X-5970Y-14984D01*
X-5970Y-14984D01*
X-5970Y-14984D01*
X-5969Y-14983D01*
X-5888Y-14902D01*
X-5864Y-14898D01*
X-5784Y-14867D01*
X-5475Y-15176D01*
X-5417Y-15266D01*
X-5337Y-15349D01*
X-5242Y-15415D01*
X-5136Y-15462D01*
X-5023Y-15486D01*
X-4907Y-15489D01*
X-4793Y-15469D01*
X-4685Y-15427D01*
X-4587Y-15365D01*
X-4503Y-15285D01*
X-4436Y-15190D01*
X-4389Y-15084D01*
X-4364Y-14972D01*
X-4363Y-14900D01*
X-4306Y-14900D01*
X-4310Y-14916D01*
X-4310Y-15005D01*
X-4310Y-15358D01*
X-4293Y-15445D01*
X-4259Y-15527D01*
X-4210Y-15601D01*
X-4147Y-15664D01*
X-4085Y-15706D01*
X-4085Y-16638D01*
X-4151Y-16665D01*
X-4348Y-16794D01*
X-4517Y-16959D01*
X-4650Y-17153D01*
X-4743Y-17370D01*
X-4792Y-17601D01*
X-4795Y-17837D01*
X-4753Y-18069D01*
X-4666Y-18288D01*
X-4538Y-18486D01*
X-4374Y-18656D01*
X-4180Y-18791D01*
X-4131Y-18812D01*
X-5780Y-18812D01*
X-5780Y-17799D01*
X-5782Y-17617D01*
X-5819Y-17439D01*
X-5882Y-17286D01*
X-5991Y-17194D01*
X-6186Y-17388D01*
X-6186Y-16999D01*
X-6278Y-16890D01*
X-6447Y-16822D01*
X-6625Y-16788D01*
X-6807Y-16790D01*
X-6985Y-16827D01*
X-7138Y-16890D01*
X-7231Y-16999D01*
X-6708Y-17521D01*
X-6186Y-16999D01*
X-6186Y-17388D01*
X-6513Y-17716D01*
X-5991Y-18238D01*
X-5882Y-18146D01*
X-5814Y-17977D01*
X-5780Y-17799D01*
X-5780Y-18812D01*
X-6186Y-18812D01*
X-6186Y-18433D01*
X-6708Y-17911D01*
X-6903Y-18106D01*
X-6903Y-17716D01*
X-7425Y-17194D01*
X-7535Y-17286D01*
X-7602Y-17455D01*
X-7636Y-17633D01*
X-7635Y-17815D01*
X-7598Y-17993D01*
X-7535Y-18146D01*
X-7425Y-18238D01*
X-6903Y-17716D01*
X-6903Y-18106D01*
X-7231Y-18433D01*
X-7138Y-18542D01*
X-6970Y-18610D01*
X-6791Y-18644D01*
X-6609Y-18642D01*
X-6431Y-18606D01*
X-6278Y-18542D01*
X-6186Y-18433D01*
X-6186Y-18812D01*
X-7780Y-18812D01*
X-7780Y-17799D01*
X-7782Y-17617D01*
X-7819Y-17439D01*
X-7882Y-17286D01*
X-7991Y-17194D01*
X-8186Y-17388D01*
X-8186Y-16999D01*
X-8278Y-16890D01*
X-8447Y-16822D01*
X-8625Y-16788D01*
X-8807Y-16790D01*
X-8985Y-16827D01*
X-9138Y-16890D01*
X-9231Y-16999D01*
X-8708Y-17521D01*
X-8186Y-16999D01*
X-8186Y-17388D01*
X-8513Y-17716D01*
X-7991Y-18238D01*
X-7882Y-18146D01*
X-7814Y-17977D01*
X-7780Y-17799D01*
X-7780Y-18812D01*
X-8186Y-18812D01*
X-8186Y-18433D01*
X-8708Y-17911D01*
X-8903Y-18106D01*
X-8903Y-17716D01*
X-9425Y-17194D01*
X-9535Y-17286D01*
X-9602Y-17455D01*
X-9636Y-17633D01*
X-9635Y-17815D01*
X-9598Y-17993D01*
X-9535Y-18146D01*
X-9425Y-18238D01*
X-8903Y-17716D01*
X-8903Y-18106D01*
X-9231Y-18433D01*
X-9138Y-18542D01*
X-8970Y-18610D01*
X-8791Y-18644D01*
X-8609Y-18642D01*
X-8431Y-18606D01*
X-8278Y-18542D01*
X-8186Y-18433D01*
X-8186Y-18812D01*
X-9780Y-18812D01*
X-9780Y-17799D01*
X-9782Y-17617D01*
X-9819Y-17439D01*
X-9882Y-17286D01*
X-9991Y-17194D01*
X-10186Y-17388D01*
X-10186Y-16999D01*
X-10278Y-16890D01*
X-10447Y-16822D01*
X-10625Y-16788D01*
X-10807Y-16790D01*
X-10985Y-16827D01*
X-11138Y-16890D01*
X-11231Y-16999D01*
X-10708Y-17521D01*
X-10186Y-16999D01*
X-10186Y-17388D01*
X-10513Y-17716D01*
X-9991Y-18238D01*
X-9882Y-18146D01*
X-9814Y-17977D01*
X-9780Y-17799D01*
X-9780Y-18812D01*
X-10186Y-18812D01*
X-10186Y-18433D01*
X-10708Y-17911D01*
X-10903Y-18106D01*
X-10903Y-17716D01*
X-11425Y-17194D01*
X-11535Y-17286D01*
X-11602Y-17455D01*
X-11636Y-17633D01*
X-11635Y-17815D01*
X-11598Y-17993D01*
X-11535Y-18146D01*
X-11425Y-18238D01*
X-10903Y-17716D01*
X-10903Y-18106D01*
X-11231Y-18433D01*
X-11138Y-18542D01*
X-10970Y-18610D01*
X-10791Y-18644D01*
X-10609Y-18642D01*
X-10431Y-18606D01*
X-10278Y-18542D01*
X-10186Y-18433D01*
X-10186Y-18812D01*
X-11780Y-18812D01*
X-11780Y-17799D01*
X-11782Y-17617D01*
X-11819Y-17439D01*
X-11882Y-17286D01*
X-11991Y-17194D01*
X-12186Y-17388D01*
X-12186Y-16999D01*
X-12278Y-16890D01*
X-12447Y-16822D01*
X-12625Y-16788D01*
X-12807Y-16790D01*
X-12985Y-16827D01*
X-13138Y-16890D01*
X-13231Y-16999D01*
X-12708Y-17521D01*
X-12186Y-16999D01*
X-12186Y-17388D01*
X-12513Y-17716D01*
X-11991Y-18238D01*
X-11882Y-18146D01*
X-11814Y-17977D01*
X-11780Y-17799D01*
X-11780Y-18812D01*
X-12186Y-18812D01*
X-12186Y-18433D01*
X-12708Y-17911D01*
X-12903Y-18106D01*
X-12903Y-17716D01*
X-13425Y-17194D01*
X-13535Y-17286D01*
X-13602Y-17455D01*
X-13636Y-17633D01*
X-13635Y-17815D01*
X-13598Y-17993D01*
X-13535Y-18146D01*
X-13425Y-18238D01*
X-12903Y-17716D01*
X-12903Y-18106D01*
X-13231Y-18433D01*
X-13138Y-18542D01*
X-12970Y-18610D01*
X-12791Y-18644D01*
X-12609Y-18642D01*
X-12431Y-18606D01*
X-12278Y-18542D01*
X-12186Y-18433D01*
X-12186Y-18812D01*
X-13781Y-18812D01*
X-13781Y-18450D01*
X-13781Y-16982D01*
X-13781Y-16947D01*
X-13788Y-16913D01*
X-13802Y-16881D01*
X-13821Y-16853D01*
X-13846Y-16828D01*
X-13875Y-16809D01*
X-13907Y-16796D01*
X-13941Y-16789D01*
X-14526Y-16789D01*
X-14570Y-16833D01*
X-14570Y-17578D01*
X-13825Y-17578D01*
X-13781Y-17534D01*
X-13781Y-16982D01*
X-13781Y-18450D01*
X-13781Y-17898D01*
X-13825Y-17854D01*
X-14570Y-17854D01*
X-14570Y-18599D01*
X-14526Y-18643D01*
X-13941Y-18643D01*
X-13907Y-18636D01*
X-13875Y-18623D01*
X-13846Y-18604D01*
X-13821Y-18580D01*
X-13802Y-18551D01*
X-13788Y-18519D01*
X-13781Y-18485D01*
X-13781Y-18450D01*
X-13781Y-18812D01*
X-14846Y-18812D01*
X-14846Y-18599D01*
X-14846Y-17854D01*
X-14846Y-17578D01*
X-14846Y-16833D01*
X-14890Y-16789D01*
X-15476Y-16789D01*
X-15510Y-16796D01*
X-15542Y-16809D01*
X-15571Y-16828D01*
X-15595Y-16853D01*
X-15615Y-16881D01*
X-15628Y-16913D01*
X-15635Y-16947D01*
X-15635Y-16982D01*
X-15635Y-17534D01*
X-15591Y-17578D01*
X-14846Y-17578D01*
X-14846Y-17854D01*
X-15591Y-17854D01*
X-15635Y-17898D01*
X-15635Y-18450D01*
X-15635Y-18485D01*
X-15628Y-18519D01*
X-15615Y-18551D01*
X-15595Y-18580D01*
X-15571Y-18604D01*
X-15542Y-18623D01*
X-15510Y-18636D01*
X-15476Y-18643D01*
X-14890Y-18643D01*
X-14846Y-18599D01*
X-14846Y-18812D01*
X-15788Y-18812D01*
X-15788Y-17799D01*
X-15790Y-17617D01*
X-15827Y-17439D01*
X-15890Y-17286D01*
X-15999Y-17194D01*
X-16194Y-17388D01*
X-16194Y-16999D01*
X-16286Y-16890D01*
X-16455Y-16822D01*
X-16633Y-16788D01*
X-16815Y-16790D01*
X-16993Y-16827D01*
X-17146Y-16890D01*
X-17238Y-16999D01*
X-16716Y-17521D01*
X-16194Y-16999D01*
X-16194Y-17388D01*
X-16521Y-17716D01*
X-15999Y-18238D01*
X-15890Y-18146D01*
X-15822Y-17977D01*
X-15788Y-17799D01*
X-15788Y-18812D01*
X-16194Y-18812D01*
X-16194Y-18433D01*
X-16716Y-17911D01*
X-16911Y-18106D01*
X-16911Y-17716D01*
X-17433Y-17194D01*
X-17542Y-17286D01*
X-17610Y-17455D01*
X-17644Y-17633D01*
X-17642Y-17815D01*
X-17606Y-17993D01*
X-17542Y-18146D01*
X-17433Y-18238D01*
X-16911Y-17716D01*
X-16911Y-18106D01*
X-17238Y-18433D01*
X-17146Y-18542D01*
X-16977Y-18610D01*
X-16799Y-18644D01*
X-16617Y-18642D01*
X-16439Y-18606D01*
X-16286Y-18542D01*
X-16194Y-18433D01*
X-16194Y-18812D01*
X-17789Y-18812D01*
X-17789Y-18450D01*
X-17789Y-16982D01*
X-17789Y-16947D01*
X-17796Y-16913D01*
X-17809Y-16881D01*
X-17829Y-16853D01*
X-17854Y-16828D01*
X-17882Y-16809D01*
X-17915Y-16796D01*
X-17949Y-16789D01*
X-18534Y-16789D01*
X-18578Y-16833D01*
X-18578Y-17578D01*
X-17833Y-17578D01*
X-17789Y-17534D01*
X-17789Y-16982D01*
X-17789Y-18450D01*
X-17789Y-17898D01*
X-17833Y-17854D01*
X-18578Y-17854D01*
X-18578Y-18599D01*
X-18534Y-18643D01*
X-17949Y-18643D01*
X-17915Y-18636D01*
X-17882Y-18623D01*
X-17854Y-18604D01*
X-17829Y-18580D01*
X-17809Y-18551D01*
X-17796Y-18519D01*
X-17789Y-18485D01*
X-17789Y-18450D01*
X-17789Y-18812D01*
X-18854Y-18812D01*
X-18854Y-18599D01*
X-18854Y-17854D01*
X-18854Y-17578D01*
X-18854Y-16833D01*
X-18898Y-16789D01*
X-19483Y-16789D01*
X-19517Y-16796D01*
X-19550Y-16809D01*
X-19579Y-16828D01*
X-19603Y-16853D01*
X-19623Y-16881D01*
X-19636Y-16913D01*
X-19643Y-16947D01*
X-19643Y-16982D01*
X-19643Y-17534D01*
X-19599Y-17578D01*
X-18854Y-17578D01*
X-18854Y-17854D01*
X-19599Y-17854D01*
X-19643Y-17898D01*
X-19643Y-18450D01*
X-19643Y-18485D01*
X-19636Y-18519D01*
X-19623Y-18551D01*
X-19603Y-18580D01*
X-19579Y-18604D01*
X-19550Y-18623D01*
X-19517Y-18636D01*
X-19483Y-18643D01*
X-18898Y-18643D01*
X-18854Y-18599D01*
X-18854Y-18812D01*
X-21105Y-18812D01*
X-21049Y-18756D01*
X-20999Y-18682D01*
X-20965Y-18601D01*
X-20947Y-18514D01*
X-20946Y-18425D01*
X-20946Y-16922D01*
X-20964Y-16835D01*
X-20997Y-16752D01*
X-21047Y-16678D01*
X-21109Y-16615D01*
X-21183Y-16566D01*
X-21265Y-16531D01*
X-21352Y-16514D01*
X-21440Y-16513D01*
X-22601Y-16513D01*
X-22601Y-2119D01*
X-22601Y-1374D01*
X-22601Y-1099D01*
X-22601Y-354D01*
X-22645Y-309D01*
X-23231Y-309D01*
X-23265Y-316D01*
X-23297Y-329D01*
X-23326Y-349D01*
X-23350Y-373D01*
X-23370Y-402D01*
X-23383Y-434D01*
X-23390Y-468D01*
X-23391Y-503D01*
X-23390Y-1054D01*
X-23346Y-1099D01*
X-22601Y-1099D01*
X-22601Y-1374D01*
X-23346Y-1374D01*
X-23390Y-1419D01*
X-23391Y-1970D01*
X-23390Y-2005D01*
X-23383Y-2039D01*
X-23370Y-2071D01*
X-23350Y-2100D01*
X-23326Y-2124D01*
X-23297Y-2144D01*
X-23265Y-2157D01*
X-23231Y-2164D01*
X-22645Y-2164D01*
X-22601Y-2119D01*
X-22601Y-16513D01*
X-22944Y-16513D01*
X-23009Y-16526D01*
X-23009Y-14547D01*
X-23009Y-10531D01*
X-23009Y-6515D01*
X-23009Y-6425D01*
X-23009Y-5200D01*
X-23009Y-3665D01*
X-23016Y-3631D01*
X-23029Y-3599D01*
X-23049Y-3570D01*
X-23073Y-3545D01*
X-23102Y-3526D01*
X-23134Y-3513D01*
X-23168Y-3506D01*
X-23203Y-3505D01*
X-23535Y-3505D01*
X-23535Y-1319D01*
X-23537Y-1137D01*
X-23574Y-959D01*
X-23637Y-806D01*
X-23746Y-714D01*
X-23941Y-909D01*
X-24268Y-1237D01*
X-23746Y-1759D01*
X-23637Y-1667D01*
X-23569Y-1498D01*
X-23535Y-1319D01*
X-23535Y-3505D01*
X-23754Y-3505D01*
X-23799Y-3550D01*
X-23799Y-4295D01*
X-23054Y-4295D01*
X-23009Y-4250D01*
X-23009Y-3665D01*
X-23009Y-5200D01*
X-23009Y-4615D01*
X-23054Y-4570D01*
X-23799Y-4570D01*
X-23799Y-5315D01*
X-23754Y-5360D01*
X-23203Y-5360D01*
X-23168Y-5360D01*
X-23134Y-5353D01*
X-23102Y-5339D01*
X-23073Y-5320D01*
X-23049Y-5295D01*
X-23029Y-5266D01*
X-23016Y-5234D01*
X-23009Y-5200D01*
X-23009Y-6425D01*
X-23010Y-6333D01*
X-23047Y-6155D01*
X-23110Y-6002D01*
X-23219Y-5910D01*
X-23414Y-6105D01*
X-23414Y-5715D01*
X-23506Y-5606D01*
X-23675Y-5538D01*
X-23854Y-5505D01*
X-23941Y-5505D01*
X-24036Y-5506D01*
X-24074Y-5514D01*
X-24074Y-5315D01*
X-24074Y-4570D01*
X-24074Y-4295D01*
X-24074Y-3550D01*
X-24119Y-3505D01*
X-24670Y-3505D01*
X-24705Y-3506D01*
X-24739Y-3513D01*
X-24771Y-3526D01*
X-24800Y-3545D01*
X-24824Y-3570D01*
X-24844Y-3599D01*
X-24857Y-3631D01*
X-24864Y-3665D01*
X-24864Y-4250D01*
X-24819Y-4295D01*
X-24074Y-4295D01*
X-24074Y-4570D01*
X-24819Y-4570D01*
X-24864Y-4615D01*
X-24864Y-5200D01*
X-24857Y-5234D01*
X-24844Y-5266D01*
X-24824Y-5295D01*
X-24800Y-5320D01*
X-24771Y-5339D01*
X-24739Y-5353D01*
X-24705Y-5360D01*
X-24670Y-5360D01*
X-24119Y-5360D01*
X-24074Y-5315D01*
X-24074Y-5514D01*
X-24214Y-5543D01*
X-24367Y-5606D01*
X-24459Y-5715D01*
X-23937Y-6238D01*
X-23414Y-5715D01*
X-23414Y-6105D01*
X-23742Y-6433D01*
X-23219Y-6955D01*
X-23110Y-6863D01*
X-23042Y-6694D01*
X-23009Y-6515D01*
X-23009Y-10531D01*
X-23009Y-10441D01*
X-23009Y-9216D01*
X-23009Y-7681D01*
X-23016Y-7647D01*
X-23029Y-7615D01*
X-23049Y-7586D01*
X-23073Y-7561D01*
X-23102Y-7542D01*
X-23134Y-7528D01*
X-23168Y-7521D01*
X-23203Y-7521D01*
X-23414Y-7521D01*
X-23414Y-7150D01*
X-23937Y-6627D01*
X-24131Y-6822D01*
X-24131Y-6433D01*
X-24654Y-5910D01*
X-24763Y-6002D01*
X-24831Y-6171D01*
X-24864Y-6350D01*
X-24863Y-6532D01*
X-24826Y-6710D01*
X-24763Y-6863D01*
X-24654Y-6955D01*
X-24131Y-6433D01*
X-24131Y-6822D01*
X-24459Y-7150D01*
X-24367Y-7259D01*
X-24198Y-7327D01*
X-24019Y-7361D01*
X-23837Y-7359D01*
X-23659Y-7322D01*
X-23506Y-7259D01*
X-23414Y-7150D01*
X-23414Y-7521D01*
X-23754Y-7521D01*
X-23799Y-7565D01*
X-23799Y-8311D01*
X-23054Y-8311D01*
X-23009Y-8266D01*
X-23009Y-7681D01*
X-23009Y-9216D01*
X-23009Y-8630D01*
X-23054Y-8586D01*
X-23799Y-8586D01*
X-23799Y-9331D01*
X-23754Y-9375D01*
X-23203Y-9376D01*
X-23168Y-9375D01*
X-23134Y-9368D01*
X-23102Y-9355D01*
X-23073Y-9335D01*
X-23049Y-9311D01*
X-23029Y-9282D01*
X-23016Y-9250D01*
X-23009Y-9216D01*
X-23009Y-10441D01*
X-23010Y-10349D01*
X-23047Y-10171D01*
X-23110Y-10018D01*
X-23219Y-9926D01*
X-23414Y-10121D01*
X-23414Y-9731D01*
X-23506Y-9622D01*
X-23675Y-9554D01*
X-23854Y-9520D01*
X-24036Y-9522D01*
X-24074Y-9530D01*
X-24074Y-9331D01*
X-24074Y-8586D01*
X-24074Y-8311D01*
X-24074Y-7565D01*
X-24119Y-7521D01*
X-24670Y-7521D01*
X-24705Y-7521D01*
X-24739Y-7528D01*
X-24771Y-7542D01*
X-24800Y-7561D01*
X-24824Y-7586D01*
X-24844Y-7615D01*
X-24857Y-7647D01*
X-24864Y-7681D01*
X-24864Y-8266D01*
X-24819Y-8311D01*
X-24074Y-8311D01*
X-24074Y-8586D01*
X-24819Y-8586D01*
X-24864Y-8630D01*
X-24864Y-9216D01*
X-24857Y-9250D01*
X-24844Y-9282D01*
X-24824Y-9311D01*
X-24800Y-9335D01*
X-24771Y-9355D01*
X-24739Y-9368D01*
X-24705Y-9375D01*
X-24670Y-9376D01*
X-24119Y-9375D01*
X-24074Y-9331D01*
X-24074Y-9530D01*
X-24214Y-9559D01*
X-24367Y-9622D01*
X-24459Y-9731D01*
X-23937Y-10253D01*
X-23414Y-9731D01*
X-23414Y-10121D01*
X-23742Y-10448D01*
X-23219Y-10971D01*
X-23110Y-10878D01*
X-23042Y-10710D01*
X-23009Y-10531D01*
X-23009Y-14547D01*
X-23009Y-14456D01*
X-23009Y-13231D01*
X-23009Y-11697D01*
X-23016Y-11663D01*
X-23029Y-11630D01*
X-23049Y-11602D01*
X-23073Y-11577D01*
X-23102Y-11557D01*
X-23134Y-11544D01*
X-23168Y-11537D01*
X-23203Y-11537D01*
X-23414Y-11537D01*
X-23414Y-11166D01*
X-23937Y-10643D01*
X-24131Y-10838D01*
X-24131Y-10448D01*
X-24654Y-9926D01*
X-24763Y-10018D01*
X-24831Y-10187D01*
X-24864Y-10366D01*
X-24863Y-10547D01*
X-24826Y-10725D01*
X-24763Y-10878D01*
X-24654Y-10971D01*
X-24131Y-10448D01*
X-24131Y-10838D01*
X-24459Y-11166D01*
X-24367Y-11275D01*
X-24198Y-11343D01*
X-24019Y-11376D01*
X-23837Y-11375D01*
X-23659Y-11338D01*
X-23506Y-11275D01*
X-23414Y-11166D01*
X-23414Y-11537D01*
X-23754Y-11537D01*
X-23799Y-11581D01*
X-23799Y-12326D01*
X-23054Y-12326D01*
X-23009Y-12282D01*
X-23009Y-11697D01*
X-23009Y-13231D01*
X-23009Y-12646D01*
X-23054Y-12602D01*
X-23799Y-12602D01*
X-23799Y-13347D01*
X-23754Y-13391D01*
X-23203Y-13391D01*
X-23168Y-13391D01*
X-23134Y-13384D01*
X-23102Y-13371D01*
X-23073Y-13351D01*
X-23049Y-13327D01*
X-23029Y-13298D01*
X-23016Y-13266D01*
X-23009Y-13231D01*
X-23009Y-14456D01*
X-23010Y-14365D01*
X-23047Y-14187D01*
X-23110Y-14034D01*
X-23219Y-13942D01*
X-23414Y-14137D01*
X-23414Y-13747D01*
X-23506Y-13638D01*
X-23675Y-13570D01*
X-23854Y-13536D01*
X-24036Y-13538D01*
X-24074Y-13546D01*
X-24074Y-13347D01*
X-24074Y-12602D01*
X-24074Y-12326D01*
X-24074Y-11581D01*
X-24119Y-11537D01*
X-24670Y-11537D01*
X-24705Y-11537D01*
X-24739Y-11544D01*
X-24771Y-11557D01*
X-24800Y-11577D01*
X-24824Y-11602D01*
X-24844Y-11630D01*
X-24857Y-11663D01*
X-24864Y-11697D01*
X-24864Y-12282D01*
X-24819Y-12326D01*
X-24074Y-12326D01*
X-24074Y-12602D01*
X-24819Y-12602D01*
X-24864Y-12646D01*
X-24864Y-13231D01*
X-24857Y-13266D01*
X-24844Y-13298D01*
X-24824Y-13327D01*
X-24800Y-13351D01*
X-24771Y-13371D01*
X-24739Y-13384D01*
X-24705Y-13391D01*
X-24670Y-13391D01*
X-24119Y-13391D01*
X-24074Y-13347D01*
X-24074Y-13546D01*
X-24214Y-13575D01*
X-24367Y-13638D01*
X-24459Y-13747D01*
X-23937Y-14269D01*
X-23414Y-13747D01*
X-23414Y-14137D01*
X-23742Y-14464D01*
X-23219Y-14986D01*
X-23110Y-14894D01*
X-23042Y-14725D01*
X-23009Y-14547D01*
X-23009Y-16526D01*
X-23031Y-16531D01*
X-23113Y-16564D01*
X-23187Y-16613D01*
X-23250Y-16676D01*
X-23299Y-16750D01*
X-23334Y-16832D01*
X-23352Y-16918D01*
X-23352Y-17007D01*
X-23352Y-17261D01*
X-23414Y-17209D01*
X-23414Y-15181D01*
X-23937Y-14659D01*
X-24131Y-14854D01*
X-24131Y-14464D01*
X-24654Y-13942D01*
X-24763Y-14034D01*
X-24831Y-14203D01*
X-24864Y-14381D01*
X-24863Y-14563D01*
X-24826Y-14741D01*
X-24763Y-14894D01*
X-24654Y-14986D01*
X-24131Y-14464D01*
X-24131Y-14854D01*
X-24459Y-15181D01*
X-24367Y-15290D01*
X-24198Y-15358D01*
X-24019Y-15392D01*
X-23837Y-15390D01*
X-23659Y-15354D01*
X-23506Y-15290D01*
X-23414Y-15181D01*
X-23414Y-17209D01*
X-23432Y-17194D01*
X-23627Y-17388D01*
X-23627Y-16999D01*
X-23719Y-16890D01*
X-23888Y-16822D01*
X-24066Y-16788D01*
X-24248Y-16790D01*
X-24426Y-16827D01*
X-24579Y-16890D01*
X-24672Y-16999D01*
X-24149Y-17521D01*
X-23627Y-16999D01*
X-23627Y-17388D01*
X-23954Y-17716D01*
X-23432Y-18238D01*
X-23352Y-18171D01*
X-23352Y-18510D01*
X-23335Y-18598D01*
X-23301Y-18680D01*
X-23252Y-18754D01*
X-23193Y-18812D01*
X-23627Y-18812D01*
X-23627Y-18433D01*
X-24149Y-17911D01*
X-24672Y-18433D01*
X-24579Y-18542D01*
X-24411Y-18610D01*
X-24232Y-18644D01*
X-24050Y-18642D01*
X-23872Y-18606D01*
X-23719Y-18542D01*
X-23627Y-18433D01*
X-23627Y-18812D01*
X-25037Y-18812D01*
X-25037Y-17997D01*
X-24976Y-18146D01*
X-24866Y-18238D01*
X-24344Y-17716D01*
X-24866Y-17194D01*
X-24976Y-17286D01*
X-25037Y-17439D01*
X-25037Y-1980D01*
X-25024Y-1993D01*
X-24986Y-1954D01*
X-24893Y-2063D01*
X-24725Y-2131D01*
X-24546Y-2164D01*
X-24364Y-2163D01*
X-24186Y-2126D01*
X-24033Y-2063D01*
X-23941Y-1954D01*
X-24463Y-1431D01*
X-24469Y-1437D01*
X-24664Y-1242D01*
X-24658Y-1237D01*
X-24664Y-1231D01*
X-24469Y-1036D01*
X-24463Y-1042D01*
X-23941Y-519D01*
X-24033Y-410D01*
X-24202Y-342D01*
X-24381Y-309D01*
X-24562Y-310D01*
X-24740Y-347D01*
X-24893Y-410D01*
X-24986Y-519D01*
X-25024Y-480D01*
X-25037Y-493D01*
X-25037Y-92D01*
X-20841Y-92D01*
X-21023Y-165D01*
X-21221Y-295D01*
X-21389Y-460D01*
X-21522Y-654D01*
X-21536Y-686D01*
X-21536Y-503D01*
X-21536Y-468D01*
X-21543Y-434D01*
X-21557Y-402D01*
X-21576Y-373D01*
X-21601Y-349D01*
X-21630Y-329D01*
X-21662Y-316D01*
X-21696Y-309D01*
X-22281Y-309D01*
X-22325Y-354D01*
X-22325Y-1099D01*
X-22318Y-1099D01*
X-22318Y-1374D01*
X-22325Y-1374D01*
X-22325Y-2119D01*
X-22281Y-2164D01*
X-21696Y-2164D01*
X-21662Y-2157D01*
X-21630Y-2144D01*
X-21601Y-2124D01*
X-21576Y-2100D01*
X-21557Y-2071D01*
X-21543Y-2039D01*
X-21536Y-2005D01*
X-21536Y-1970D01*
X-21536Y-1792D01*
X-21410Y-1987D01*
X-21247Y-2157D01*
X-21053Y-2292D01*
X-20837Y-2386D01*
X-20606Y-2437D01*
X-20371Y-2442D01*
X-20138Y-2401D01*
X-19918Y-2315D01*
X-19719Y-2189D01*
X-19648Y-2121D01*
X-19615Y-2200D01*
X-19566Y-2274D01*
X-19503Y-2337D01*
X-19430Y-2387D01*
X-19348Y-2421D01*
X-19261Y-2439D01*
X-19172Y-2440D01*
X-17669Y-2439D01*
X-17582Y-2422D01*
X-17500Y-2388D01*
X-17426Y-2339D01*
X-17363Y-2277D01*
X-17313Y-2203D01*
X-17279Y-2123D01*
X-17247Y-2157D01*
X-17053Y-2292D01*
X-16837Y-2386D01*
X-16606Y-2437D01*
X-16371Y-2442D01*
X-16138Y-2401D01*
X-15918Y-2315D01*
X-15719Y-2189D01*
X-15648Y-2121D01*
X-15615Y-2200D01*
X-15566Y-2274D01*
X-15503Y-2337D01*
X-15430Y-2387D01*
X-15348Y-2421D01*
X-15261Y-2439D01*
X-15172Y-2440D01*
X-13669Y-2439D01*
X-13582Y-2422D01*
X-13500Y-2388D01*
X-13426Y-2339D01*
X-13363Y-2277D01*
X-13313Y-2203D01*
X-13279Y-2123D01*
X-13247Y-2157D01*
X-13053Y-2292D01*
X-12837Y-2386D01*
X-12606Y-2437D01*
X-12371Y-2442D01*
X-12138Y-2401D01*
X-11918Y-2315D01*
X-11719Y-2189D01*
X-11648Y-2121D01*
X-11615Y-2200D01*
X-11566Y-2274D01*
X-11503Y-2337D01*
X-11430Y-2387D01*
X-11348Y-2421D01*
X-11261Y-2439D01*
X-11172Y-2440D01*
X-9669Y-2439D01*
X-9582Y-2422D01*
X-9500Y-2388D01*
X-9426Y-2339D01*
X-9363Y-2277D01*
X-9313Y-2203D01*
X-9279Y-2123D01*
X-9247Y-2157D01*
X-9053Y-2292D01*
X-8837Y-2386D01*
X-8606Y-2437D01*
X-8371Y-2442D01*
X-8138Y-2401D01*
X-7918Y-2315D01*
X-7719Y-2189D01*
X-7648Y-2121D01*
X-7615Y-2200D01*
X-7566Y-2274D01*
X-7503Y-2337D01*
X-7430Y-2387D01*
X-7348Y-2421D01*
X-7261Y-2439D01*
X-7172Y-2440D01*
X-5669Y-2439D01*
X-5582Y-2422D01*
X-5500Y-2388D01*
X-5426Y-2339D01*
X-5363Y-2277D01*
X-5313Y-2203D01*
X-5279Y-2121D01*
X-5261Y-2034D01*
X-5260Y-1945D01*
X-5260Y-1692D01*
X-5181Y-1759D01*
X-4658Y-1237D01*
X-5181Y-714D01*
X-5260Y-782D01*
X-5261Y-442D01*
X-5278Y-355D01*
X-5312Y-273D01*
X-5361Y-199D01*
X-5423Y-136D01*
X-5488Y-92D01*
X-1213Y-92D01*
G36*
X24Y-7595D02*
X-263Y-7595D01*
X-310Y-7599D01*
X-357Y-7604D01*
X-360Y-7604D01*
X-363Y-7605D01*
X-365Y-7605D01*
X-377Y-7575D01*
X-441Y-7479D01*
X-523Y-7397D01*
X-619Y-7332D01*
X-726Y-7287D01*
X-839Y-7264D01*
X-955Y-7263D01*
X-1069Y-7285D01*
X-1127Y-7308D01*
X-1209Y-7253D01*
X-1316Y-7208D01*
X-1430Y-7185D01*
X-1545Y-7184D01*
X-1659Y-7206D01*
X-1767Y-7249D01*
X-1863Y-7313D01*
X-1946Y-7394D01*
X-2012Y-7489D01*
X-2057Y-7596D01*
X-2066Y-7639D01*
X-3129Y-8701D01*
X-4734Y-8701D01*
X-4676Y-8619D01*
X-4629Y-8514D01*
X-4604Y-8401D01*
X-4602Y-8268D01*
X-4624Y-8155D01*
X-4668Y-8048D01*
X-4733Y-7951D01*
X-4814Y-7869D01*
X-4910Y-7804D01*
X-5017Y-7759D01*
X-5130Y-7736D01*
X-5246Y-7735D01*
X-5360Y-7757D01*
X-5467Y-7800D01*
X-5549Y-7854D01*
X-5657Y-7854D01*
X-5662Y-7843D01*
X-5711Y-7769D01*
X-5773Y-7706D01*
X-5847Y-7656D01*
X-5860Y-7651D01*
X-5860Y-7640D01*
X-5861Y-7087D01*
X-5878Y-7000D01*
X-5912Y-6918D01*
X-5961Y-6844D01*
X-6023Y-6781D01*
X-6097Y-6731D01*
X-6179Y-6697D01*
X-6266Y-6679D01*
X-6355Y-6679D01*
X-6708Y-6679D01*
X-6795Y-6696D01*
X-6864Y-6724D01*
X-6929Y-6697D01*
X-7016Y-6679D01*
X-7105Y-6679D01*
X-7357Y-6679D01*
X-7356Y-6627D01*
X-7372Y-6546D01*
X-6348Y-6546D01*
X-6269Y-6600D01*
X-6163Y-6647D01*
X-6050Y-6671D01*
X-5934Y-6674D01*
X-5820Y-6654D01*
X-5712Y-6612D01*
X-5614Y-6550D01*
X-5531Y-6470D01*
X-5464Y-6375D01*
X-5417Y-6269D01*
X-5405Y-6218D01*
X-90Y-6218D01*
X24Y-6218D01*
X24Y-7595D01*
X24Y-7595D01*
G37*
X24Y-7595D02*
X-263Y-7595D01*
X-310Y-7599D01*
X-357Y-7604D01*
X-360Y-7604D01*
X-363Y-7605D01*
X-365Y-7605D01*
X-377Y-7575D01*
X-441Y-7479D01*
X-523Y-7397D01*
X-619Y-7332D01*
X-726Y-7287D01*
X-839Y-7264D01*
X-955Y-7263D01*
X-1069Y-7285D01*
X-1127Y-7308D01*
X-1209Y-7253D01*
X-1316Y-7208D01*
X-1430Y-7185D01*
X-1545Y-7184D01*
X-1659Y-7206D01*
X-1767Y-7249D01*
X-1863Y-7313D01*
X-1946Y-7394D01*
X-2012Y-7489D01*
X-2057Y-7596D01*
X-2066Y-7639D01*
X-3129Y-8701D01*
X-4734Y-8701D01*
X-4676Y-8619D01*
X-4629Y-8514D01*
X-4604Y-8401D01*
X-4602Y-8268D01*
X-4624Y-8155D01*
X-4668Y-8048D01*
X-4733Y-7951D01*
X-4814Y-7869D01*
X-4910Y-7804D01*
X-5017Y-7759D01*
X-5130Y-7736D01*
X-5246Y-7735D01*
X-5360Y-7757D01*
X-5467Y-7800D01*
X-5549Y-7854D01*
X-5657Y-7854D01*
X-5662Y-7843D01*
X-5711Y-7769D01*
X-5773Y-7706D01*
X-5847Y-7656D01*
X-5860Y-7651D01*
X-5860Y-7640D01*
X-5861Y-7087D01*
X-5878Y-7000D01*
X-5912Y-6918D01*
X-5961Y-6844D01*
X-6023Y-6781D01*
X-6097Y-6731D01*
X-6179Y-6697D01*
X-6266Y-6679D01*
X-6355Y-6679D01*
X-6708Y-6679D01*
X-6795Y-6696D01*
X-6864Y-6724D01*
X-6929Y-6697D01*
X-7016Y-6679D01*
X-7105Y-6679D01*
X-7357Y-6679D01*
X-7356Y-6627D01*
X-7372Y-6546D01*
X-6348Y-6546D01*
X-6269Y-6600D01*
X-6163Y-6647D01*
X-6050Y-6671D01*
X-5934Y-6674D01*
X-5820Y-6654D01*
X-5712Y-6612D01*
X-5614Y-6550D01*
X-5531Y-6470D01*
X-5464Y-6375D01*
X-5417Y-6269D01*
X-5405Y-6218D01*
X-90Y-6218D01*
X24Y-6218D01*
X24Y-7595D01*
G36*
X3812Y-9547D02*
X3697Y-9662D01*
X1652Y-9662D01*
X1652Y-7134D01*
X1673Y-7134D01*
X2286Y-7133D01*
X2373Y-7116D01*
X2455Y-7082D01*
X2528Y-7034D01*
X2534Y-7068D01*
X2568Y-7150D01*
X2617Y-7224D01*
X2680Y-7287D01*
X2754Y-7337D01*
X2835Y-7371D01*
X2922Y-7389D01*
X3011Y-7390D01*
X3463Y-7389D01*
X3495Y-7439D01*
X3576Y-7522D01*
X3671Y-7588D01*
X3777Y-7635D01*
X3812Y-7642D01*
X3812Y-9547D01*
X3812Y-9547D01*
G37*
X3812Y-9547D02*
X3697Y-9662D01*
X1652Y-9662D01*
X1652Y-7134D01*
X1673Y-7134D01*
X2286Y-7133D01*
X2373Y-7116D01*
X2455Y-7082D01*
X2528Y-7034D01*
X2534Y-7068D01*
X2568Y-7150D01*
X2617Y-7224D01*
X2680Y-7287D01*
X2754Y-7337D01*
X2835Y-7371D01*
X2922Y-7389D01*
X3011Y-7390D01*
X3463Y-7389D01*
X3495Y-7439D01*
X3576Y-7522D01*
X3671Y-7588D01*
X3777Y-7635D01*
X3812Y-7642D01*
X3812Y-9547D01*
G36*
X7094Y-12722D02*
X7088Y-12729D01*
X7058Y-12765D01*
X7056Y-12768D01*
X7055Y-12770D01*
X7032Y-12812D01*
X7009Y-12853D01*
X7009Y-12856D01*
X7007Y-12858D01*
X6993Y-12903D01*
X6979Y-12948D01*
X6979Y-12951D01*
X6978Y-12953D01*
X6973Y-13001D01*
X6968Y-13047D01*
X6968Y-13053D01*
X6968Y-13053D01*
X6968Y-13053D01*
X6968Y-13055D01*
X6968Y-13827D01*
X6948Y-13840D01*
X6908Y-13813D01*
X6826Y-13779D01*
X6739Y-13761D01*
X6651Y-13760D01*
X6097Y-13761D01*
X6010Y-13778D01*
X5928Y-13812D01*
X5854Y-13861D01*
X5838Y-13876D01*
X4988Y-13876D01*
X4974Y-13863D01*
X4900Y-13813D01*
X4818Y-13779D01*
X4732Y-13761D01*
X4643Y-13760D01*
X4090Y-13761D01*
X4002Y-13778D01*
X3920Y-13812D01*
X3846Y-13861D01*
X3831Y-13876D01*
X2980Y-13876D01*
X2966Y-13863D01*
X2892Y-13813D01*
X2811Y-13779D01*
X2724Y-13761D01*
X2635Y-13760D01*
X2082Y-13761D01*
X1995Y-13778D01*
X1912Y-13812D01*
X1839Y-13861D01*
X1823Y-13876D01*
X972Y-13876D01*
X958Y-13863D01*
X885Y-13813D01*
X803Y-13779D01*
X716Y-13761D01*
X627Y-13760D01*
X74Y-13761D01*
X-12Y-13778D01*
X-94Y-13812D01*
X-168Y-13861D01*
X-184Y-13876D01*
X-1035Y-13876D01*
X-1049Y-13863D01*
X-1122Y-13813D01*
X-1204Y-13779D01*
X-1291Y-13761D01*
X-1380Y-13760D01*
X-1933Y-13761D01*
X-2020Y-13778D01*
X-2102Y-13812D01*
X-2176Y-13861D01*
X-2192Y-13876D01*
X-3004Y-13876D01*
X-3017Y-13863D01*
X-3091Y-13813D01*
X-3173Y-13779D01*
X-3260Y-13761D01*
X-3348Y-13760D01*
X-3902Y-13761D01*
X-3989Y-13778D01*
X-4007Y-13785D01*
X-4001Y-13759D01*
X-3999Y-13627D01*
X-4022Y-13513D01*
X-4066Y-13406D01*
X-4119Y-13327D01*
X-4119Y-13153D01*
X-3743Y-12777D01*
X-3727Y-12794D01*
X-3632Y-12860D01*
X-3525Y-12906D01*
X-3412Y-12931D01*
X-3296Y-12934D01*
X-3182Y-12914D01*
X-3074Y-12872D01*
X-2977Y-12810D01*
X-2893Y-12730D01*
X-2887Y-12722D01*
X7094Y-12722D01*
X7094Y-12722D01*
G37*
X7094Y-12722D02*
X7088Y-12729D01*
X7058Y-12765D01*
X7056Y-12768D01*
X7055Y-12770D01*
X7032Y-12812D01*
X7009Y-12853D01*
X7009Y-12856D01*
X7007Y-12858D01*
X6993Y-12903D01*
X6979Y-12948D01*
X6979Y-12951D01*
X6978Y-12953D01*
X6973Y-13001D01*
X6968Y-13047D01*
X6968Y-13053D01*
X6968Y-13053D01*
X6968Y-13053D01*
X6968Y-13055D01*
X6968Y-13827D01*
X6948Y-13840D01*
X6908Y-13813D01*
X6826Y-13779D01*
X6739Y-13761D01*
X6651Y-13760D01*
X6097Y-13761D01*
X6010Y-13778D01*
X5928Y-13812D01*
X5854Y-13861D01*
X5838Y-13876D01*
X4988Y-13876D01*
X4974Y-13863D01*
X4900Y-13813D01*
X4818Y-13779D01*
X4732Y-13761D01*
X4643Y-13760D01*
X4090Y-13761D01*
X4002Y-13778D01*
X3920Y-13812D01*
X3846Y-13861D01*
X3831Y-13876D01*
X2980Y-13876D01*
X2966Y-13863D01*
X2892Y-13813D01*
X2811Y-13779D01*
X2724Y-13761D01*
X2635Y-13760D01*
X2082Y-13761D01*
X1995Y-13778D01*
X1912Y-13812D01*
X1839Y-13861D01*
X1823Y-13876D01*
X972Y-13876D01*
X958Y-13863D01*
X885Y-13813D01*
X803Y-13779D01*
X716Y-13761D01*
X627Y-13760D01*
X74Y-13761D01*
X-12Y-13778D01*
X-94Y-13812D01*
X-168Y-13861D01*
X-184Y-13876D01*
X-1035Y-13876D01*
X-1049Y-13863D01*
X-1122Y-13813D01*
X-1204Y-13779D01*
X-1291Y-13761D01*
X-1380Y-13760D01*
X-1933Y-13761D01*
X-2020Y-13778D01*
X-2102Y-13812D01*
X-2176Y-13861D01*
X-2192Y-13876D01*
X-3004Y-13876D01*
X-3017Y-13863D01*
X-3091Y-13813D01*
X-3173Y-13779D01*
X-3260Y-13761D01*
X-3348Y-13760D01*
X-3902Y-13761D01*
X-3989Y-13778D01*
X-4007Y-13785D01*
X-4001Y-13759D01*
X-3999Y-13627D01*
X-4022Y-13513D01*
X-4066Y-13406D01*
X-4119Y-13327D01*
X-4119Y-13153D01*
X-3743Y-12777D01*
X-3727Y-12794D01*
X-3632Y-12860D01*
X-3525Y-12906D01*
X-3412Y-12931D01*
X-3296Y-12934D01*
X-3182Y-12914D01*
X-3074Y-12872D01*
X-2977Y-12810D01*
X-2893Y-12730D01*
X-2887Y-12722D01*
X7094Y-12722D01*
G36*
X8036Y-10067D02*
X7949Y-10154D01*
X6444Y-10154D01*
X6398Y-10159D01*
X6352Y-10163D01*
X6349Y-10163D01*
X6347Y-10164D01*
X6302Y-10177D01*
X6258Y-10190D01*
X6255Y-10191D01*
X6253Y-10192D01*
X6212Y-10214D01*
X6170Y-10235D01*
X6168Y-10237D01*
X6166Y-10238D01*
X6130Y-10267D01*
X6094Y-10296D01*
X6090Y-10300D01*
X6090Y-10300D01*
X6090Y-10300D01*
X6089Y-10301D01*
X5841Y-10549D01*
X5841Y-7134D01*
X6231Y-7133D01*
X6318Y-7116D01*
X6400Y-7082D01*
X6473Y-7034D01*
X6479Y-7068D01*
X6513Y-7150D01*
X6562Y-7224D01*
X6625Y-7287D01*
X6698Y-7337D01*
X6780Y-7371D01*
X6867Y-7389D01*
X6956Y-7390D01*
X7500Y-7389D01*
X7542Y-7455D01*
X7623Y-7538D01*
X7718Y-7604D01*
X7824Y-7650D01*
X7937Y-7675D01*
X8036Y-7677D01*
X8036Y-10067D01*
X8036Y-10067D01*
G37*
X8036Y-10067D02*
X7949Y-10154D01*
X6444Y-10154D01*
X6398Y-10159D01*
X6352Y-10163D01*
X6349Y-10163D01*
X6347Y-10164D01*
X6302Y-10177D01*
X6258Y-10190D01*
X6255Y-10191D01*
X6253Y-10192D01*
X6212Y-10214D01*
X6170Y-10235D01*
X6168Y-10237D01*
X6166Y-10238D01*
X6130Y-10267D01*
X6094Y-10296D01*
X6090Y-10300D01*
X6090Y-10300D01*
X6090Y-10300D01*
X6089Y-10301D01*
X5841Y-10549D01*
X5841Y-7134D01*
X6231Y-7133D01*
X6318Y-7116D01*
X6400Y-7082D01*
X6473Y-7034D01*
X6479Y-7068D01*
X6513Y-7150D01*
X6562Y-7224D01*
X6625Y-7287D01*
X6698Y-7337D01*
X6780Y-7371D01*
X6867Y-7389D01*
X6956Y-7390D01*
X7500Y-7389D01*
X7542Y-7455D01*
X7623Y-7538D01*
X7718Y-7604D01*
X7824Y-7650D01*
X7937Y-7675D01*
X8036Y-7677D01*
X8036Y-10067D01*
G36*
X9729Y-494D02*
X9728Y-520D01*
X9549Y-700D01*
X9522Y-699D01*
X9342Y-518D01*
X9342Y-494D01*
X9530Y-306D01*
X9536Y-312D01*
X9541Y-306D01*
X9729Y-494D01*
X9729Y-494D01*
G37*
X9729Y-494D02*
X9728Y-520D01*
X9549Y-700D01*
X9522Y-699D01*
X9342Y-518D01*
X9342Y-494D01*
X9530Y-306D01*
X9536Y-312D01*
X9541Y-306D01*
X9729Y-494D01*
G36*
X12225Y-10456D02*
X12221Y-10458D01*
X12124Y-10521D01*
X12041Y-10602D01*
X12031Y-10616D01*
X12030Y-10615D01*
X11923Y-10570D01*
X11810Y-10547D01*
X11694Y-10546D01*
X11580Y-10568D01*
X11473Y-10611D01*
X11438Y-10634D01*
X10054Y-10634D01*
X9810Y-10390D01*
X9810Y-7117D01*
X9877Y-7118D01*
X10491Y-7118D01*
X10578Y-7100D01*
X10660Y-7067D01*
X10732Y-7018D01*
X10739Y-7052D01*
X10773Y-7134D01*
X10822Y-7208D01*
X10885Y-7271D01*
X10958Y-7321D01*
X11040Y-7355D01*
X11127Y-7373D01*
X11216Y-7374D01*
X11827Y-7374D01*
X11842Y-7396D01*
X11922Y-7479D01*
X12017Y-7545D01*
X12123Y-7591D01*
X12225Y-7614D01*
X12225Y-10456D01*
X12225Y-10456D01*
G37*
X12225Y-10456D02*
X12221Y-10458D01*
X12124Y-10521D01*
X12041Y-10602D01*
X12031Y-10616D01*
X12030Y-10615D01*
X11923Y-10570D01*
X11810Y-10547D01*
X11694Y-10546D01*
X11580Y-10568D01*
X11473Y-10611D01*
X11438Y-10634D01*
X10054Y-10634D01*
X9810Y-10390D01*
X9810Y-7117D01*
X9877Y-7118D01*
X10491Y-7118D01*
X10578Y-7100D01*
X10660Y-7067D01*
X10732Y-7018D01*
X10739Y-7052D01*
X10773Y-7134D01*
X10822Y-7208D01*
X10885Y-7271D01*
X10958Y-7321D01*
X11040Y-7355D01*
X11127Y-7373D01*
X11216Y-7374D01*
X11827Y-7374D01*
X11842Y-7396D01*
X11922Y-7479D01*
X12017Y-7545D01*
X12123Y-7591D01*
X12225Y-7614D01*
X12225Y-10456D01*
G36*
X12536Y-1702D02*
X12536Y-1701D01*
X12530Y-1707D01*
X12342Y-1518D01*
X12342Y-1506D01*
X12536Y-1506D01*
X12536Y-1702D01*
X12536Y-1702D01*
G37*
X12536Y-1702D02*
X12536Y-1701D01*
X12530Y-1707D01*
X12342Y-1518D01*
X12342Y-1506D01*
X12536Y-1506D01*
X12536Y-1702D01*
M02*
