M48
;DRILL file {Pcbnew (2013-07-07 BZR 4022)-stable} date 6.3.2014 22:13:46
;FORMAT={3:3/ absolute / metric / keep zeros}
FMAT,2
METRIC,TZ
T1C0.300
T2C0.813
T3C1.016
T4C1.524
T5C3.200
%
G90
G05
M71
T1
X-039510Y-037450
X-036840Y-035580
X-028390Y-038250
X-019390Y-038250
X-015300Y-036390
X-015190Y-015450
X-014590Y-030650
X-013890Y-032350
X-013590Y-030250
X-013190Y-021150
X-012580Y-037840
X-011660Y-034760
X-008490Y-031350
X-007340Y-034420
X-006280Y-018650
X-005990Y-030250
X-005890Y-027550
X-005490Y-026650
X-003890Y-011350
X-003790Y-019750
X-003080Y-025820
X-002290Y-019950
X-002264Y-034422
X-001990Y-010850
X-000740Y-034422
X-000560Y-025010
X-000070Y-018530
X000320Y-013530
X000770Y-023940
X002140Y-016870
X002990Y-014990
X003450Y-013530
X004870Y-018630
X006370Y-028510
X007900Y-034420
X008300Y-013500
X009460Y-014330
X010060Y-017960
X011910Y-032250
X012820Y-016870
X013440Y-014560
X013550Y-013480
X013560Y-028310
X014930Y-018900
X015180Y-028260
X016400Y-031940
X017720Y-028390
X018380Y-013500
X019010Y-031950
X019750Y-014420
X020340Y-018000
X021710Y-013080
X022700Y-016400
X023770Y-013450
X023810Y-015310
X025780Y-018910
X028600Y-031960
X029840Y-028290
X030780Y-014260
X030910Y-028540
X031260Y-017850
X031420Y-031670
X031740Y-027900
X032140Y-030640
T2
X-041056Y-034816
X-020736Y-034816
X001362Y-003828
T3
X-048676Y-017036
X-048676Y-019576
X-048676Y-022116
X-048676Y-024656
X-048676Y-027196
X-048676Y-029736
X-048676Y-032276
X-048676Y-034816
X-041056Y-017036
X-041056Y-019576
X-041056Y-022116
X-041056Y-024656
X-041056Y-027196
X-041056Y-029736
X-041056Y-032276
X-028356Y-017036
X-028356Y-019576
X-028356Y-022116
X-028356Y-024656
X-028356Y-027196
X-028356Y-029736
X-028356Y-032276
X-028356Y-034816
X-020736Y-017036
X-020736Y-019576
X-020736Y-022116
X-020736Y-024656
X-020736Y-027196
X-020736Y-029736
X-020736Y-032276
X001362Y-001288
X003902Y-001288
X003902Y-003828
X006442Y-001288
X006442Y-003828
X008982Y-001288
X008982Y-003828
X011522Y-001288
X011522Y-003828
X014062Y-001288
X014062Y-003828
X016602Y-001288
X016602Y-003828
X019142Y-001288
X019142Y-003828
X021682Y-001288
X021682Y-003828
X024222Y-001288
X024222Y-003828
X026762Y-001288
X026762Y-003828
X029302Y-001288
X029302Y-003828
X031842Y-001288
X031842Y-003828
T4
X-062138Y-003142
X-061340Y-045000
X-060800Y-011260
X-060800Y-016340
X-060800Y-021460
X-060800Y-026540
X-060800Y-031660
X-060800Y-036740
X-057058Y-003142
X-056260Y-045000
X-051978Y-003142
X-047540Y-045000
X-046898Y-003142
X-042460Y-045000
X-041818Y-003142
X-037360Y-045000
X-036738Y-003142
X-032280Y-045000
X-031658Y-003142
X-027200Y-045000
X-026578Y-003142
X-022120Y-045000
X-021498Y-003142
X-017040Y-045000
X-016418Y-003142
X-011338Y-003142
X-009122Y-045050
X-006258Y-003142
X-004042Y-045050
X001038Y-045050
X006118Y-045050
X011198Y-045050
X016278Y-045050
X021358Y-045050
X026438Y-045050
X031518Y-045050
T5
X023900Y-037000
T0
M30
