G04 (created by PCBNEW (2013-07-07 BZR 4022)-stable) date 6.3.2014 22:13:41*
%MOIN*%
G04 Gerber Fmt 3.4, Leading zero omitted, Abs format*
%FSLAX34Y34*%
G01*
G70*
G90*
G04 APERTURE LIST*
%ADD10C,0.011811*%
%ADD11C,0.00492126*%
%ADD12C,0.00984252*%
%ADD13C,0.008*%
%ADD14C,0.015*%
%ADD15C,0.0039*%
%ADD16C,0.005*%
%ADD17C,0.012*%
%ADD18C,0.00590551*%
%ADD19C,0.0043*%
%ADD20C,0.01*%
%ADD21R,0.072X0.072*%
%ADD22C,0.0828661*%
%ADD23R,0.067X0.067*%
%ADD24R,0.067X0.047*%
%ADD25R,0.047X0.067*%
%ADD26R,0.092X0.072*%
%ADD27R,0.162X0.162*%
%ADD28C,0.162*%
%ADD29C,0.24822*%
%ADD30R,0.0730236X0.0293228*%
G04 APERTURE END LIST*
G54D10*
G54D11*
X3999Y-9595D02*
X4024Y-9398D01*
X4168Y-9595D02*
X4181Y-9492D01*
X4164Y-9473D01*
X4128Y-9464D01*
X4072Y-9464D01*
X4033Y-9473D01*
X4013Y-9482D01*
X4315Y-9464D02*
X4465Y-9464D01*
X4380Y-9398D02*
X4359Y-9567D01*
X4375Y-9586D01*
X4411Y-9595D01*
X4449Y-9595D01*
X4540Y-9464D02*
X4690Y-9464D01*
X4605Y-9398D02*
X4584Y-9567D01*
X4600Y-9586D01*
X4636Y-9595D01*
X4674Y-9595D01*
X4822Y-9464D02*
X4797Y-9661D01*
X4820Y-9473D02*
X4859Y-9464D01*
X4934Y-9464D01*
X4970Y-9473D01*
X4988Y-9482D01*
X5004Y-9501D01*
X4997Y-9557D01*
X4976Y-9576D01*
X4956Y-9586D01*
X4918Y-9595D01*
X4843Y-9595D01*
X4806Y-9586D01*
X5164Y-9576D02*
X5181Y-9586D01*
X5161Y-9595D01*
X5144Y-9586D01*
X5164Y-9576D01*
X5161Y-9595D01*
X5177Y-9473D02*
X5194Y-9482D01*
X5174Y-9492D01*
X5157Y-9482D01*
X5177Y-9473D01*
X5174Y-9492D01*
X5656Y-9389D02*
X5287Y-9642D01*
X6068Y-9389D02*
X5699Y-9642D01*
X6174Y-9595D02*
X6190Y-9464D01*
X6188Y-9482D02*
X6208Y-9473D01*
X6246Y-9464D01*
X6303Y-9464D01*
X6339Y-9473D01*
X6355Y-9492D01*
X6342Y-9595D01*
X6355Y-9492D02*
X6376Y-9473D01*
X6415Y-9464D01*
X6471Y-9464D01*
X6508Y-9473D01*
X6524Y-9492D01*
X6511Y-9595D01*
X6699Y-9595D02*
X6715Y-9464D01*
X6723Y-9398D02*
X6703Y-9407D01*
X6721Y-9417D01*
X6741Y-9407D01*
X6723Y-9398D01*
X6721Y-9417D01*
X6886Y-9595D02*
X6911Y-9398D01*
X7055Y-9595D02*
X7068Y-9492D01*
X7051Y-9473D01*
X7015Y-9464D01*
X6959Y-9464D01*
X6920Y-9473D01*
X6900Y-9482D01*
X7411Y-9595D02*
X7424Y-9492D01*
X7408Y-9473D01*
X7371Y-9464D01*
X7296Y-9464D01*
X7258Y-9473D01*
X7412Y-9586D02*
X7374Y-9595D01*
X7280Y-9595D01*
X7244Y-9586D01*
X7227Y-9567D01*
X7229Y-9548D01*
X7251Y-9529D01*
X7289Y-9520D01*
X7383Y-9520D01*
X7422Y-9511D01*
X7599Y-9595D02*
X7615Y-9464D01*
X7610Y-9501D02*
X7631Y-9482D01*
X7651Y-9473D01*
X7690Y-9464D01*
X7727Y-9464D01*
X7842Y-9595D02*
X7859Y-9464D01*
X7867Y-9398D02*
X7847Y-9407D01*
X7865Y-9417D01*
X7884Y-9407D01*
X7867Y-9398D01*
X7865Y-9417D01*
X7992Y-9595D02*
X8215Y-9464D01*
X8009Y-9464D02*
X8198Y-9595D01*
X8351Y-9576D02*
X8368Y-9586D01*
X8348Y-9595D01*
X8331Y-9586D01*
X8351Y-9576D01*
X8348Y-9595D01*
X8687Y-9586D02*
X8648Y-9595D01*
X8573Y-9595D01*
X8537Y-9586D01*
X8521Y-9567D01*
X8530Y-9492D01*
X8551Y-9473D01*
X8590Y-9464D01*
X8665Y-9464D01*
X8701Y-9473D01*
X8718Y-9492D01*
X8715Y-9511D01*
X8525Y-9529D01*
X9059Y-9464D02*
X9042Y-9595D01*
X8890Y-9464D02*
X8877Y-9567D01*
X8893Y-9586D01*
X8930Y-9595D01*
X8986Y-9595D01*
X9025Y-9586D01*
X9044Y-9576D01*
G54D12*
X289Y-10379D02*
X181Y-10192D01*
X64Y-10379D02*
X113Y-9986D01*
X263Y-9986D01*
X298Y-10004D01*
X315Y-10023D01*
X329Y-10061D01*
X322Y-10117D01*
X298Y-10154D01*
X277Y-10173D01*
X237Y-10192D01*
X87Y-10192D01*
X626Y-10379D02*
X652Y-10173D01*
X638Y-10136D01*
X603Y-10117D01*
X528Y-10117D01*
X488Y-10136D01*
X629Y-10361D02*
X589Y-10379D01*
X495Y-10379D01*
X460Y-10361D01*
X446Y-10323D01*
X450Y-10286D01*
X474Y-10248D01*
X514Y-10229D01*
X607Y-10229D01*
X647Y-10211D01*
X797Y-10361D02*
X832Y-10379D01*
X907Y-10379D01*
X947Y-10361D01*
X971Y-10323D01*
X973Y-10304D01*
X959Y-10267D01*
X924Y-10248D01*
X868Y-10248D01*
X832Y-10229D01*
X818Y-10192D01*
X821Y-10173D01*
X844Y-10136D01*
X884Y-10117D01*
X940Y-10117D01*
X975Y-10136D01*
X1165Y-10117D02*
X1116Y-10511D01*
X1163Y-10136D02*
X1203Y-10117D01*
X1278Y-10117D01*
X1313Y-10136D01*
X1329Y-10154D01*
X1343Y-10192D01*
X1329Y-10304D01*
X1306Y-10342D01*
X1285Y-10361D01*
X1245Y-10379D01*
X1170Y-10379D01*
X1135Y-10361D01*
X1489Y-10379D02*
X1538Y-9986D01*
X1519Y-10136D02*
X1559Y-10117D01*
X1634Y-10117D01*
X1669Y-10136D01*
X1685Y-10154D01*
X1699Y-10192D01*
X1685Y-10304D01*
X1662Y-10342D01*
X1641Y-10361D01*
X1601Y-10379D01*
X1526Y-10379D01*
X1491Y-10361D01*
X1997Y-10361D02*
X1957Y-10379D01*
X1882Y-10379D01*
X1847Y-10361D01*
X1833Y-10323D01*
X1852Y-10173D01*
X1875Y-10136D01*
X1915Y-10117D01*
X1990Y-10117D01*
X2025Y-10136D01*
X2039Y-10173D01*
X2035Y-10211D01*
X1842Y-10248D01*
X2182Y-10379D02*
X2215Y-10117D01*
X2206Y-10192D02*
X2229Y-10154D01*
X2250Y-10136D01*
X2290Y-10117D01*
X2328Y-10117D01*
X2426Y-10379D02*
X2459Y-10117D01*
X2449Y-10192D02*
X2473Y-10154D01*
X2494Y-10136D01*
X2534Y-10117D01*
X2571Y-10117D01*
X2665Y-10117D02*
X2726Y-10379D01*
X2852Y-10117D02*
X2726Y-10379D01*
X2677Y-10473D01*
X2656Y-10492D01*
X2616Y-10511D01*
X3270Y-10379D02*
X3319Y-9986D01*
X3469Y-9986D01*
X3504Y-10004D01*
X3520Y-10023D01*
X3534Y-10061D01*
X3527Y-10117D01*
X3504Y-10154D01*
X3483Y-10173D01*
X3443Y-10192D01*
X3293Y-10192D01*
X3663Y-10379D02*
X3696Y-10117D01*
X3713Y-9986D02*
X3691Y-10004D01*
X3708Y-10023D01*
X3729Y-10004D01*
X3713Y-9986D01*
X3708Y-10023D01*
X4169Y-10229D02*
X4469Y-10229D01*
X4301Y-10379D02*
X4338Y-10079D01*
X4915Y-10117D02*
X5065Y-10117D01*
X4938Y-10379D02*
X4980Y-10042D01*
X5004Y-10004D01*
X5044Y-9986D01*
X5081Y-9986D01*
X5163Y-10379D02*
X5196Y-10117D01*
X5212Y-9986D02*
X5191Y-10004D01*
X5208Y-10023D01*
X5229Y-10004D01*
X5212Y-9986D01*
X5208Y-10023D01*
X5334Y-10361D02*
X5369Y-10379D01*
X5444Y-10379D01*
X5484Y-10361D01*
X5508Y-10323D01*
X5510Y-10304D01*
X5496Y-10267D01*
X5461Y-10248D01*
X5404Y-10248D01*
X5369Y-10229D01*
X5355Y-10192D01*
X5358Y-10173D01*
X5381Y-10136D01*
X5421Y-10117D01*
X5477Y-10117D01*
X5512Y-10136D01*
X5840Y-10361D02*
X5801Y-10379D01*
X5726Y-10379D01*
X5690Y-10361D01*
X5674Y-10342D01*
X5660Y-10304D01*
X5674Y-10192D01*
X5697Y-10154D01*
X5719Y-10136D01*
X5758Y-10117D01*
X5833Y-10117D01*
X5869Y-10136D01*
X6007Y-10379D02*
X6056Y-9986D01*
X6175Y-10379D02*
X6201Y-10173D01*
X6187Y-10136D01*
X6152Y-10117D01*
X6096Y-10117D01*
X6056Y-10136D01*
X6035Y-10154D01*
X6515Y-10361D02*
X6475Y-10379D01*
X6400Y-10379D01*
X6365Y-10361D01*
X6351Y-10323D01*
X6370Y-10173D01*
X6393Y-10136D01*
X6433Y-10117D01*
X6508Y-10117D01*
X6543Y-10136D01*
X6557Y-10173D01*
X6553Y-10211D01*
X6361Y-10248D01*
X6700Y-10379D02*
X6733Y-10117D01*
X6724Y-10192D02*
X6747Y-10154D01*
X6768Y-10136D01*
X6808Y-10117D01*
X6846Y-10117D01*
X6921Y-10117D02*
X7071Y-10117D01*
X6993Y-9986D02*
X6951Y-10323D01*
X6965Y-10361D01*
X7000Y-10379D01*
X7038Y-10379D01*
X7321Y-10361D02*
X7282Y-10379D01*
X7207Y-10379D01*
X7171Y-10361D01*
X7157Y-10323D01*
X7176Y-10173D01*
X7200Y-10136D01*
X7239Y-10117D01*
X7314Y-10117D01*
X7350Y-10136D01*
X7364Y-10173D01*
X7359Y-10211D01*
X7167Y-10248D01*
X7678Y-10361D02*
X7638Y-10379D01*
X7563Y-10379D01*
X7528Y-10361D01*
X7511Y-10342D01*
X7497Y-10304D01*
X7511Y-10192D01*
X7535Y-10154D01*
X7556Y-10136D01*
X7596Y-10117D01*
X7671Y-10117D01*
X7706Y-10136D01*
X7844Y-10379D02*
X7893Y-9986D01*
X8013Y-10379D02*
X8039Y-10173D01*
X8024Y-10136D01*
X7989Y-10117D01*
X7933Y-10117D01*
X7893Y-10136D01*
X7872Y-10154D01*
X8233Y-10117D02*
X8200Y-10379D01*
X8228Y-10154D02*
X8249Y-10136D01*
X8289Y-10117D01*
X8346Y-10117D01*
X8381Y-10136D01*
X8395Y-10173D01*
X8369Y-10379D01*
X8556Y-10379D02*
X8589Y-10117D01*
X8606Y-9986D02*
X8585Y-10004D01*
X8601Y-10023D01*
X8622Y-10004D01*
X8606Y-9986D01*
X8601Y-10023D01*
X8744Y-10379D02*
X8793Y-9986D01*
X8800Y-10229D02*
X8894Y-10379D01*
X8927Y-10117D02*
X8758Y-10267D01*
X9381Y-10229D02*
X9681Y-10229D01*
X9513Y-10379D02*
X9550Y-10079D01*
X10307Y-10173D02*
X10176Y-10173D01*
X10150Y-10379D02*
X10199Y-9986D01*
X10387Y-9986D01*
X10487Y-10379D02*
X10520Y-10117D01*
X10537Y-9986D02*
X10516Y-10004D01*
X10532Y-10023D01*
X10553Y-10004D01*
X10537Y-9986D01*
X10532Y-10023D01*
X10659Y-10361D02*
X10694Y-10379D01*
X10769Y-10379D01*
X10809Y-10361D01*
X10832Y-10323D01*
X10834Y-10304D01*
X10820Y-10267D01*
X10785Y-10248D01*
X10729Y-10248D01*
X10694Y-10229D01*
X10680Y-10192D01*
X10682Y-10173D01*
X10705Y-10136D01*
X10745Y-10117D01*
X10801Y-10117D01*
X10837Y-10136D01*
X11165Y-10361D02*
X11125Y-10379D01*
X11050Y-10379D01*
X11015Y-10361D01*
X10998Y-10342D01*
X10984Y-10304D01*
X10998Y-10192D01*
X11022Y-10154D01*
X11043Y-10136D01*
X11083Y-10117D01*
X11158Y-10117D01*
X11193Y-10136D01*
X11331Y-10379D02*
X11380Y-9986D01*
X11500Y-10379D02*
X11526Y-10173D01*
X11512Y-10136D01*
X11476Y-10117D01*
X11420Y-10117D01*
X11380Y-10136D01*
X11359Y-10154D01*
X11687Y-10379D02*
X11737Y-9986D01*
X11886Y-9986D01*
X11922Y-10004D01*
X11938Y-10023D01*
X11952Y-10061D01*
X11945Y-10117D01*
X11922Y-10154D01*
X11901Y-10173D01*
X11861Y-10192D01*
X11711Y-10192D01*
X12081Y-10379D02*
X12114Y-10117D01*
X12130Y-9986D02*
X12109Y-10004D01*
X12126Y-10023D01*
X12147Y-10004D01*
X12130Y-9986D01*
X12126Y-10023D01*
X12268Y-10379D02*
X12318Y-9986D01*
X12414Y-10267D01*
X12580Y-9986D01*
X12531Y-10379D01*
X12718Y-10379D02*
X12751Y-10117D01*
X12768Y-9986D02*
X12747Y-10004D01*
X12763Y-10023D01*
X12784Y-10004D01*
X12768Y-9986D01*
X12763Y-10023D01*
X12868Y-10379D02*
X13107Y-10117D01*
X12901Y-10117D02*
X13075Y-10379D01*
X-17238Y-5505D02*
X-17238Y-5112D01*
X-17107Y-5393D01*
X-16976Y-5112D01*
X-16976Y-5505D01*
X-16732Y-5505D02*
X-16769Y-5487D01*
X-16788Y-5468D01*
X-16807Y-5430D01*
X-16807Y-5318D01*
X-16788Y-5280D01*
X-16769Y-5262D01*
X-16732Y-5243D01*
X-16676Y-5243D01*
X-16638Y-5262D01*
X-16619Y-5280D01*
X-16601Y-5318D01*
X-16601Y-5430D01*
X-16619Y-5468D01*
X-16638Y-5487D01*
X-16676Y-5505D01*
X-16732Y-5505D01*
X-16488Y-5243D02*
X-16338Y-5243D01*
X-16432Y-5112D02*
X-16432Y-5449D01*
X-16413Y-5487D01*
X-16376Y-5505D01*
X-16338Y-5505D01*
X-16151Y-5505D02*
X-16188Y-5487D01*
X-16207Y-5468D01*
X-16226Y-5430D01*
X-16226Y-5318D01*
X-16207Y-5280D01*
X-16188Y-5262D01*
X-16151Y-5243D01*
X-16094Y-5243D01*
X-16057Y-5262D01*
X-16038Y-5280D01*
X-16019Y-5318D01*
X-16019Y-5430D01*
X-16038Y-5468D01*
X-16057Y-5487D01*
X-16094Y-5505D01*
X-16151Y-5505D01*
X-15851Y-5505D02*
X-15851Y-5243D01*
X-15851Y-5318D02*
X-15832Y-5280D01*
X-15813Y-5262D01*
X-15776Y-5243D01*
X-15738Y-5243D01*
X-15607Y-5243D02*
X-15607Y-5580D01*
X-15626Y-5618D01*
X-15663Y-5637D01*
X-15682Y-5637D01*
X-15607Y-5112D02*
X-15626Y-5130D01*
X-15607Y-5149D01*
X-15588Y-5130D01*
X-15607Y-5112D01*
X-15607Y-5149D01*
X-15419Y-5505D02*
X-15419Y-5243D01*
X-15419Y-5112D02*
X-15438Y-5130D01*
X-15419Y-5149D01*
X-15401Y-5130D01*
X-15419Y-5112D01*
X-15419Y-5149D01*
X-14951Y-5093D02*
X-15288Y-5599D01*
X-14820Y-5505D02*
X-14820Y-5112D01*
X-14688Y-5393D01*
X-14557Y-5112D01*
X-14557Y-5505D01*
X-14313Y-5505D02*
X-14351Y-5487D01*
X-14370Y-5468D01*
X-14388Y-5430D01*
X-14388Y-5318D01*
X-14370Y-5280D01*
X-14351Y-5262D01*
X-14313Y-5243D01*
X-14257Y-5243D01*
X-14220Y-5262D01*
X-14201Y-5280D01*
X-14182Y-5318D01*
X-14182Y-5430D01*
X-14201Y-5468D01*
X-14220Y-5487D01*
X-14257Y-5505D01*
X-14313Y-5505D01*
X-14070Y-5243D02*
X-13920Y-5243D01*
X-14013Y-5112D02*
X-14013Y-5449D01*
X-13995Y-5487D01*
X-13957Y-5505D01*
X-13920Y-5505D01*
X-13732Y-5505D02*
X-13770Y-5487D01*
X-13788Y-5468D01*
X-13807Y-5430D01*
X-13807Y-5318D01*
X-13788Y-5280D01*
X-13770Y-5262D01*
X-13732Y-5243D01*
X-13676Y-5243D01*
X-13638Y-5262D01*
X-13620Y-5280D01*
X-13601Y-5318D01*
X-13601Y-5430D01*
X-13620Y-5468D01*
X-13638Y-5487D01*
X-13676Y-5505D01*
X-13732Y-5505D01*
X-13432Y-5505D02*
X-13432Y-5243D01*
X-13432Y-5318D02*
X-13413Y-5280D01*
X-13395Y-5262D01*
X-13357Y-5243D01*
X-13320Y-5243D01*
X-13038Y-5487D02*
X-13076Y-5505D01*
X-13151Y-5505D01*
X-13188Y-5487D01*
X-13207Y-5449D01*
X-13207Y-5299D01*
X-13188Y-5262D01*
X-13151Y-5243D01*
X-13076Y-5243D01*
X-13038Y-5262D01*
X-13020Y-5299D01*
X-13020Y-5337D01*
X-13207Y-5374D01*
X-12851Y-5243D02*
X-12851Y-5505D01*
X-12851Y-5280D02*
X-12832Y-5262D01*
X-12795Y-5243D01*
X-12739Y-5243D01*
X-12701Y-5262D01*
X-12682Y-5299D01*
X-12682Y-5505D01*
X-12214Y-5093D02*
X-12551Y-5599D01*
X-12082Y-5505D02*
X-12082Y-5112D01*
X-11951Y-5393D01*
X-11820Y-5112D01*
X-11820Y-5505D01*
X-11576Y-5505D02*
X-11614Y-5487D01*
X-11632Y-5468D01*
X-11651Y-5430D01*
X-11651Y-5318D01*
X-11632Y-5280D01*
X-11614Y-5262D01*
X-11576Y-5243D01*
X-11520Y-5243D01*
X-11482Y-5262D01*
X-11464Y-5280D01*
X-11445Y-5318D01*
X-11445Y-5430D01*
X-11464Y-5468D01*
X-11482Y-5487D01*
X-11520Y-5505D01*
X-11576Y-5505D01*
X-11332Y-5243D02*
X-11182Y-5243D01*
X-11276Y-5112D02*
X-11276Y-5449D01*
X-11257Y-5487D01*
X-11220Y-5505D01*
X-11182Y-5505D01*
X-10995Y-5505D02*
X-11032Y-5487D01*
X-11051Y-5468D01*
X-11070Y-5430D01*
X-11070Y-5318D01*
X-11051Y-5280D01*
X-11032Y-5262D01*
X-10995Y-5243D01*
X-10939Y-5243D01*
X-10901Y-5262D01*
X-10883Y-5280D01*
X-10864Y-5318D01*
X-10864Y-5430D01*
X-10883Y-5468D01*
X-10901Y-5487D01*
X-10939Y-5505D01*
X-10995Y-5505D01*
X-10695Y-5505D02*
X-10695Y-5243D01*
X-10695Y-5318D02*
X-10676Y-5280D01*
X-10658Y-5262D01*
X-10620Y-5243D01*
X-10583Y-5243D01*
X-10470Y-5487D02*
X-10433Y-5505D01*
X-10358Y-5505D01*
X-10320Y-5487D01*
X-10301Y-5449D01*
X-10301Y-5430D01*
X-10320Y-5393D01*
X-10358Y-5374D01*
X-10414Y-5374D01*
X-10451Y-5355D01*
X-10470Y-5318D01*
X-10470Y-5299D01*
X-10451Y-5262D01*
X-10414Y-5243D01*
X-10358Y-5243D01*
X-10320Y-5262D01*
X-24859Y-15895D02*
X-24559Y-15895D01*
X-24353Y-16045D02*
X-24278Y-16045D01*
X-24240Y-16026D01*
X-24221Y-16007D01*
X-24184Y-15951D01*
X-24165Y-15876D01*
X-24165Y-15726D01*
X-24184Y-15688D01*
X-24203Y-15670D01*
X-24240Y-15651D01*
X-24315Y-15651D01*
X-24353Y-15670D01*
X-24371Y-15688D01*
X-24390Y-15726D01*
X-24390Y-15820D01*
X-24371Y-15857D01*
X-24353Y-15876D01*
X-24315Y-15895D01*
X-24240Y-15895D01*
X-24203Y-15876D01*
X-24184Y-15857D01*
X-24165Y-15820D01*
X-24053Y-15651D02*
X-23921Y-16045D01*
X-23790Y-15651D01*
X-22759Y-15895D02*
X-22459Y-15895D01*
X-22609Y-16045D02*
X-22609Y-15745D01*
X-22253Y-16045D02*
X-22178Y-16045D01*
X-22140Y-16026D01*
X-22122Y-16007D01*
X-22084Y-15951D01*
X-22065Y-15876D01*
X-22065Y-15726D01*
X-22084Y-15688D01*
X-22103Y-15670D01*
X-22140Y-15651D01*
X-22215Y-15651D01*
X-22253Y-15670D01*
X-22272Y-15688D01*
X-22290Y-15726D01*
X-22290Y-15820D01*
X-22272Y-15857D01*
X-22253Y-15876D01*
X-22215Y-15895D01*
X-22140Y-15895D01*
X-22103Y-15876D01*
X-22084Y-15857D01*
X-22065Y-15820D01*
X-21953Y-15651D02*
X-21822Y-16045D01*
X-21690Y-15651D01*
X-17675Y-15880D02*
X-17602Y-15290D01*
X-17338Y-15880D02*
X-17299Y-15571D01*
X-17330Y-15515D01*
X-17401Y-15487D01*
X-17514Y-15487D01*
X-17592Y-15515D01*
X-17633Y-15543D01*
X-17026Y-15487D02*
X-16726Y-15487D01*
X-16889Y-15290D02*
X-16952Y-15796D01*
X-16922Y-15852D01*
X-16850Y-15880D01*
X-16775Y-15880D01*
X-16576Y-15487D02*
X-16276Y-15487D01*
X-16439Y-15290D02*
X-16502Y-15796D01*
X-16472Y-15852D01*
X-16401Y-15880D01*
X-16326Y-15880D01*
X-16014Y-15487D02*
X-16088Y-16077D01*
X-16017Y-15515D02*
X-15939Y-15487D01*
X-15789Y-15487D01*
X-15717Y-15515D01*
X-15683Y-15543D01*
X-15653Y-15599D01*
X-15674Y-15768D01*
X-15719Y-15824D01*
X-15760Y-15852D01*
X-15838Y-15880D01*
X-15988Y-15880D01*
X-16060Y-15852D01*
X-15344Y-15824D02*
X-15310Y-15852D01*
X-15351Y-15880D01*
X-15385Y-15852D01*
X-15344Y-15824D01*
X-15351Y-15880D01*
X-15305Y-15515D02*
X-15271Y-15543D01*
X-15312Y-15571D01*
X-15346Y-15543D01*
X-15305Y-15515D01*
X-15312Y-15571D01*
X-14336Y-15262D02*
X-15106Y-16021D01*
X-13511Y-15262D02*
X-14281Y-16021D01*
X-13326Y-15880D02*
X-13277Y-15487D01*
X-13284Y-15543D02*
X-13243Y-15515D01*
X-13164Y-15487D01*
X-13052Y-15487D01*
X-12980Y-15515D01*
X-12950Y-15571D01*
X-12988Y-15880D01*
X-12950Y-15571D02*
X-12905Y-15515D01*
X-12827Y-15487D01*
X-12714Y-15487D01*
X-12643Y-15515D01*
X-12612Y-15571D01*
X-12651Y-15880D01*
X-12276Y-15880D02*
X-12227Y-15487D01*
X-12202Y-15290D02*
X-12243Y-15318D01*
X-12209Y-15346D01*
X-12168Y-15318D01*
X-12202Y-15290D01*
X-12209Y-15346D01*
X-11901Y-15880D02*
X-11827Y-15290D01*
X-11564Y-15880D02*
X-11525Y-15571D01*
X-11555Y-15515D01*
X-11627Y-15487D01*
X-11739Y-15487D01*
X-11818Y-15515D01*
X-11859Y-15543D01*
X-10851Y-15880D02*
X-10813Y-15571D01*
X-10843Y-15515D01*
X-10914Y-15487D01*
X-11064Y-15487D01*
X-11143Y-15515D01*
X-10848Y-15852D02*
X-10926Y-15880D01*
X-11114Y-15880D01*
X-11185Y-15852D01*
X-11216Y-15796D01*
X-11209Y-15740D01*
X-11164Y-15683D01*
X-11086Y-15655D01*
X-10898Y-15655D01*
X-10820Y-15627D01*
X-10476Y-15880D02*
X-10427Y-15487D01*
X-10441Y-15599D02*
X-10397Y-15543D01*
X-10356Y-15515D01*
X-10277Y-15487D01*
X-10202Y-15487D01*
X-9989Y-15880D02*
X-9940Y-15487D01*
X-9915Y-15290D02*
X-9956Y-15318D01*
X-9922Y-15346D01*
X-9881Y-15318D01*
X-9915Y-15290D01*
X-9922Y-15346D01*
X-9689Y-15880D02*
X-9227Y-15487D01*
X-9640Y-15487D02*
X-9276Y-15880D01*
X-8969Y-15824D02*
X-8935Y-15852D01*
X-8976Y-15880D01*
X-9010Y-15852D01*
X-8969Y-15824D01*
X-8976Y-15880D01*
X-8298Y-15852D02*
X-8377Y-15880D01*
X-8526Y-15880D01*
X-8598Y-15852D01*
X-8628Y-15796D01*
X-8600Y-15571D01*
X-8556Y-15515D01*
X-8477Y-15487D01*
X-8327Y-15487D01*
X-8256Y-15515D01*
X-8225Y-15571D01*
X-8232Y-15627D01*
X-8614Y-15683D01*
X-7540Y-15487D02*
X-7589Y-15880D01*
X-7877Y-15487D02*
X-7916Y-15796D01*
X-7886Y-15852D01*
X-7814Y-15880D01*
X-7702Y-15880D01*
X-7623Y-15852D01*
X-7582Y-15824D01*
X-2745Y-11573D02*
X-2632Y-11601D01*
X-2445Y-11601D01*
X-2370Y-11573D01*
X-2332Y-11544D01*
X-2295Y-11488D01*
X-2295Y-11432D01*
X-2332Y-11376D01*
X-2370Y-11348D01*
X-2445Y-11320D01*
X-2595Y-11291D01*
X-2670Y-11263D01*
X-2707Y-11235D01*
X-2745Y-11179D01*
X-2745Y-11123D01*
X-2707Y-11066D01*
X-2670Y-11038D01*
X-2595Y-11010D01*
X-2407Y-11010D01*
X-2295Y-11038D01*
X-2070Y-11207D02*
X-1770Y-11207D01*
X-1958Y-11010D02*
X-1958Y-11516D01*
X-1920Y-11573D01*
X-1845Y-11601D01*
X-1770Y-11601D01*
X-1508Y-11601D02*
X-1508Y-11207D01*
X-1508Y-11010D02*
X-1545Y-11038D01*
X-1508Y-11066D01*
X-1470Y-11038D01*
X-1508Y-11010D01*
X-1508Y-11066D01*
X-1133Y-11601D02*
X-1133Y-11010D01*
X-1058Y-11376D02*
X-833Y-11601D01*
X-833Y-11207D02*
X-1133Y-11432D01*
X-158Y-11601D02*
X-158Y-11291D01*
X-195Y-11235D01*
X-270Y-11207D01*
X-420Y-11207D01*
X-495Y-11235D01*
X-158Y-11573D02*
X-233Y-11601D01*
X-420Y-11601D01*
X-495Y-11573D01*
X-533Y-11516D01*
X-533Y-11460D01*
X-495Y-11404D01*
X-420Y-11376D01*
X-233Y-11376D01*
X-158Y-11348D01*
X329Y-11601D02*
X254Y-11573D01*
X216Y-11516D01*
X216Y-11010D01*
X966Y-11601D02*
X966Y-11291D01*
X929Y-11235D01*
X854Y-11207D01*
X704Y-11207D01*
X629Y-11235D01*
X966Y-11573D02*
X891Y-11601D01*
X704Y-11601D01*
X629Y-11573D01*
X591Y-11516D01*
X591Y-11460D01*
X629Y-11404D01*
X704Y-11376D01*
X891Y-11376D01*
X966Y-11348D01*
X1904Y-10982D02*
X1229Y-11741D01*
X2128Y-11573D02*
X2241Y-11601D01*
X2428Y-11601D01*
X2503Y-11573D01*
X2541Y-11544D01*
X2578Y-11488D01*
X2578Y-11432D01*
X2541Y-11376D01*
X2503Y-11348D01*
X2428Y-11320D01*
X2278Y-11291D01*
X2203Y-11263D01*
X2166Y-11235D01*
X2128Y-11179D01*
X2128Y-11123D01*
X2166Y-11066D01*
X2203Y-11038D01*
X2278Y-11010D01*
X2466Y-11010D01*
X2578Y-11038D01*
X3253Y-11573D02*
X3178Y-11601D01*
X3028Y-11601D01*
X2953Y-11573D01*
X2916Y-11544D01*
X2878Y-11488D01*
X2878Y-11320D01*
X2916Y-11263D01*
X2953Y-11235D01*
X3028Y-11207D01*
X3178Y-11207D01*
X3253Y-11235D01*
X3591Y-11601D02*
X3591Y-11010D01*
X3928Y-11601D02*
X3928Y-11291D01*
X3891Y-11235D01*
X3816Y-11207D01*
X3703Y-11207D01*
X3628Y-11235D01*
X3591Y-11263D01*
X4641Y-11601D02*
X4641Y-11291D01*
X4603Y-11235D01*
X4528Y-11207D01*
X4378Y-11207D01*
X4303Y-11235D01*
X4641Y-11573D02*
X4566Y-11601D01*
X4378Y-11601D01*
X4303Y-11573D01*
X4266Y-11516D01*
X4266Y-11460D01*
X4303Y-11404D01*
X4378Y-11376D01*
X4566Y-11376D01*
X4641Y-11348D01*
X5128Y-11601D02*
X5053Y-11573D01*
X5016Y-11516D01*
X5016Y-11010D01*
X5316Y-11207D02*
X5616Y-11207D01*
X5428Y-11010D02*
X5428Y-11516D01*
X5466Y-11573D01*
X5541Y-11601D01*
X5616Y-11601D01*
X6178Y-11573D02*
X6103Y-11601D01*
X5953Y-11601D01*
X5878Y-11573D01*
X5841Y-11516D01*
X5841Y-11291D01*
X5878Y-11235D01*
X5953Y-11207D01*
X6103Y-11207D01*
X6178Y-11235D01*
X6215Y-11291D01*
X6215Y-11348D01*
X5841Y-11404D01*
X6553Y-11601D02*
X6553Y-11207D01*
X6553Y-11320D02*
X6590Y-11263D01*
X6628Y-11235D01*
X6703Y-11207D01*
X6778Y-11207D01*
X7603Y-10982D02*
X6928Y-11741D01*
X7828Y-11573D02*
X7940Y-11601D01*
X8128Y-11601D01*
X8203Y-11573D01*
X8240Y-11544D01*
X8278Y-11488D01*
X8278Y-11432D01*
X8240Y-11376D01*
X8203Y-11348D01*
X8128Y-11320D01*
X7978Y-11291D01*
X7903Y-11263D01*
X7865Y-11235D01*
X7828Y-11179D01*
X7828Y-11123D01*
X7865Y-11066D01*
X7903Y-11038D01*
X7978Y-11010D01*
X8165Y-11010D01*
X8278Y-11038D01*
X8540Y-11207D02*
X8690Y-11601D01*
X8840Y-11320D01*
X8990Y-11601D01*
X9140Y-11207D01*
X9440Y-11601D02*
X9440Y-11207D01*
X9440Y-11010D02*
X9403Y-11038D01*
X9440Y-11066D01*
X9478Y-11038D01*
X9440Y-11010D01*
X9440Y-11066D01*
X9703Y-11207D02*
X10003Y-11207D01*
X9815Y-11010D02*
X9815Y-11516D01*
X9853Y-11573D01*
X9928Y-11601D01*
X10003Y-11601D01*
X10602Y-11573D02*
X10527Y-11601D01*
X10377Y-11601D01*
X10302Y-11573D01*
X10265Y-11544D01*
X10227Y-11488D01*
X10227Y-11320D01*
X10265Y-11263D01*
X10302Y-11235D01*
X10377Y-11207D01*
X10527Y-11207D01*
X10602Y-11235D01*
X10940Y-11601D02*
X10940Y-11010D01*
X11277Y-11601D02*
X11277Y-11291D01*
X11240Y-11235D01*
X11165Y-11207D01*
X11052Y-11207D01*
X10977Y-11235D01*
X10940Y-11263D01*
X11652Y-11544D02*
X11690Y-11573D01*
X11652Y-11601D01*
X11615Y-11573D01*
X11652Y-11544D01*
X11652Y-11601D01*
X11652Y-11235D02*
X11690Y-11263D01*
X11652Y-11291D01*
X11615Y-11263D01*
X11652Y-11235D01*
X11652Y-11291D01*
X-2539Y-11935D02*
X-2051Y-11935D01*
X-2314Y-12160D01*
X-2201Y-12160D01*
X-2126Y-12188D01*
X-2089Y-12217D01*
X-2051Y-12273D01*
X-2051Y-12413D01*
X-2089Y-12470D01*
X-2126Y-12498D01*
X-2201Y-12526D01*
X-2426Y-12526D01*
X-2501Y-12498D01*
X-2539Y-12470D01*
X-1676Y-12498D02*
X-1676Y-12526D01*
X-1714Y-12582D01*
X-1751Y-12610D01*
X-964Y-11935D02*
X-1339Y-11935D01*
X-1376Y-12217D01*
X-1339Y-12188D01*
X-1264Y-12160D01*
X-1076Y-12160D01*
X-1001Y-12188D01*
X-964Y-12217D01*
X-926Y-12273D01*
X-926Y-12413D01*
X-964Y-12470D01*
X-1001Y-12498D01*
X-1076Y-12526D01*
X-1264Y-12526D01*
X-1339Y-12498D01*
X-1376Y-12470D01*
X-551Y-12498D02*
X-551Y-12526D01*
X-589Y-12582D01*
X-626Y-12610D01*
X-289Y-11935D02*
X235Y-11935D01*
X-101Y-12526D01*
X572Y-12498D02*
X572Y-12526D01*
X535Y-12582D01*
X497Y-12610D01*
X1322Y-12526D02*
X872Y-12526D01*
X1097Y-12526D02*
X1097Y-11935D01*
X1022Y-12020D01*
X947Y-12076D01*
X872Y-12104D01*
X2072Y-12526D02*
X1622Y-12526D01*
X1847Y-12526D02*
X1847Y-11935D01*
X1772Y-12020D01*
X1697Y-12076D01*
X1622Y-12104D01*
X2447Y-12498D02*
X2447Y-12526D01*
X2410Y-12582D01*
X2372Y-12610D01*
X3197Y-12526D02*
X2747Y-12526D01*
X2972Y-12526D02*
X2972Y-11935D01*
X2897Y-12020D01*
X2822Y-12076D01*
X2747Y-12104D01*
X3460Y-11935D02*
X3947Y-11935D01*
X3685Y-12160D01*
X3797Y-12160D01*
X3872Y-12188D01*
X3910Y-12217D01*
X3947Y-12273D01*
X3947Y-12413D01*
X3910Y-12470D01*
X3872Y-12498D01*
X3797Y-12526D01*
X3572Y-12526D01*
X3497Y-12498D01*
X3460Y-12470D01*
X4322Y-12498D02*
X4322Y-12526D01*
X4284Y-12582D01*
X4247Y-12610D01*
X5072Y-12526D02*
X4622Y-12526D01*
X4847Y-12526D02*
X4847Y-11935D01*
X4772Y-12020D01*
X4697Y-12076D01*
X4622Y-12104D01*
X5784Y-11935D02*
X5409Y-11935D01*
X5372Y-12217D01*
X5409Y-12188D01*
X5484Y-12160D01*
X5672Y-12160D01*
X5747Y-12188D01*
X5784Y-12217D01*
X5822Y-12273D01*
X5822Y-12413D01*
X5784Y-12470D01*
X5747Y-12498D01*
X5672Y-12526D01*
X5484Y-12526D01*
X5409Y-12498D01*
X5372Y-12470D01*
X6197Y-12498D02*
X6197Y-12526D01*
X6159Y-12582D01*
X6122Y-12610D01*
X6947Y-12526D02*
X6497Y-12526D01*
X6722Y-12526D02*
X6722Y-11935D01*
X6647Y-12020D01*
X6572Y-12076D01*
X6497Y-12104D01*
X7322Y-12526D02*
X7472Y-12526D01*
X7547Y-12498D01*
X7584Y-12470D01*
X7659Y-12385D01*
X7697Y-12273D01*
X7697Y-12048D01*
X7659Y-11992D01*
X7622Y-11964D01*
X7547Y-11935D01*
X7397Y-11935D01*
X7322Y-11964D01*
X7284Y-11992D01*
X7247Y-12048D01*
X7247Y-12188D01*
X7284Y-12245D01*
X7322Y-12273D01*
X7397Y-12301D01*
X7547Y-12301D01*
X7622Y-12273D01*
X7659Y-12245D01*
X7697Y-12188D01*
X8071Y-12498D02*
X8071Y-12526D01*
X8034Y-12582D01*
X7997Y-12610D01*
X8371Y-11992D02*
X8409Y-11964D01*
X8484Y-11935D01*
X8671Y-11935D01*
X8746Y-11964D01*
X8784Y-11992D01*
X8821Y-12048D01*
X8821Y-12104D01*
X8784Y-12188D01*
X8334Y-12526D01*
X8821Y-12526D01*
X9571Y-12526D02*
X9121Y-12526D01*
X9346Y-12526D02*
X9346Y-11935D01*
X9271Y-12020D01*
X9196Y-12076D01*
X9121Y-12104D01*
X9946Y-12498D02*
X9946Y-12526D01*
X9909Y-12582D01*
X9871Y-12610D01*
X10246Y-11992D02*
X10284Y-11964D01*
X10359Y-11935D01*
X10546Y-11935D01*
X10621Y-11964D01*
X10659Y-11992D01*
X10696Y-12048D01*
X10696Y-12104D01*
X10659Y-12188D01*
X10209Y-12526D01*
X10696Y-12526D01*
X10959Y-11935D02*
X11446Y-11935D01*
X11184Y-12160D01*
X11296Y-12160D01*
X11371Y-12188D01*
X11409Y-12217D01*
X11446Y-12273D01*
X11446Y-12413D01*
X11409Y-12470D01*
X11371Y-12498D01*
X11296Y-12526D01*
X11071Y-12526D01*
X10996Y-12498D01*
X10959Y-12470D01*
G54D10*
X-5187Y-6630D02*
X-5391Y-6630D01*
X-5391Y-6888D02*
X-5391Y-6396D01*
X-5100Y-6396D01*
X-4868Y-6888D02*
X-4868Y-6560D01*
X-4868Y-6396D02*
X-4897Y-6419D01*
X-4868Y-6442D01*
X-4838Y-6419D01*
X-4868Y-6396D01*
X-4868Y-6442D01*
X-4606Y-6864D02*
X-4548Y-6888D01*
X-4432Y-6888D01*
X-4374Y-6864D01*
X-4344Y-6817D01*
X-4344Y-6794D01*
X-4374Y-6747D01*
X-4432Y-6724D01*
X-4519Y-6724D01*
X-4577Y-6700D01*
X-4606Y-6653D01*
X-4606Y-6630D01*
X-4577Y-6583D01*
X-4519Y-6560D01*
X-4432Y-6560D01*
X-4374Y-6583D01*
X-3821Y-6864D02*
X-3880Y-6888D01*
X-3996Y-6888D01*
X-4054Y-6864D01*
X-4083Y-6841D01*
X-4112Y-6794D01*
X-4112Y-6653D01*
X-4083Y-6606D01*
X-4054Y-6583D01*
X-3996Y-6560D01*
X-3880Y-6560D01*
X-3821Y-6583D01*
X-3560Y-6888D02*
X-3560Y-6396D01*
X-3298Y-6888D02*
X-3298Y-6630D01*
X-3327Y-6583D01*
X-3386Y-6560D01*
X-3473Y-6560D01*
X-3531Y-6583D01*
X-3560Y-6606D01*
X-3008Y-6888D02*
X-3008Y-6396D01*
X-2775Y-6396D01*
X-2717Y-6419D01*
X-2688Y-6442D01*
X-2659Y-6489D01*
X-2659Y-6560D01*
X-2688Y-6606D01*
X-2717Y-6630D01*
X-2775Y-6653D01*
X-3008Y-6653D01*
X-2398Y-6888D02*
X-2398Y-6560D01*
X-2398Y-6396D02*
X-2427Y-6419D01*
X-2398Y-6442D01*
X-2368Y-6419D01*
X-2398Y-6396D01*
X-2398Y-6442D01*
X-2107Y-6888D02*
X-2107Y-6396D01*
X-1904Y-6747D01*
X-1700Y-6396D01*
X-1700Y-6888D01*
X-1410Y-6888D02*
X-1410Y-6560D01*
X-1410Y-6396D02*
X-1439Y-6419D01*
X-1410Y-6442D01*
X-1380Y-6419D01*
X-1410Y-6396D01*
X-1410Y-6442D01*
X-1177Y-6888D02*
X-857Y-6560D01*
X-1177Y-6560D02*
X-857Y-6888D01*
X-4083Y-7203D02*
X-3880Y-7695D01*
X-3676Y-7203D01*
X-3531Y-7203D02*
X-3153Y-7203D01*
X-3356Y-7390D01*
X-3269Y-7390D01*
X-3211Y-7414D01*
X-3182Y-7437D01*
X-3153Y-7484D01*
X-3153Y-7601D01*
X-3182Y-7648D01*
X-3211Y-7671D01*
X-3269Y-7695D01*
X-3444Y-7695D01*
X-3502Y-7671D01*
X-3531Y-7648D01*
X-2892Y-7648D02*
X-2862Y-7671D01*
X-2892Y-7695D01*
X-2921Y-7671D01*
X-2892Y-7648D01*
X-2892Y-7695D01*
X-2630Y-7250D02*
X-2601Y-7226D01*
X-2543Y-7203D01*
X-2398Y-7203D01*
X-2339Y-7226D01*
X-2310Y-7250D01*
X-2281Y-7296D01*
X-2281Y-7343D01*
X-2310Y-7414D01*
X-2659Y-7695D01*
X-2281Y-7695D01*
G54D12*
X-21284Y-4006D02*
X-21284Y-3416D01*
X-21022Y-3838D01*
X-20760Y-3416D01*
X-20760Y-4006D01*
X-19972Y-4006D02*
X-20422Y-4006D01*
X-20197Y-4006D02*
X-20197Y-3416D01*
X-20272Y-3500D01*
X-20347Y-3556D01*
X-20422Y-3584D01*
X-19635Y-3950D02*
X-19597Y-3978D01*
X-19635Y-4006D01*
X-19672Y-3978D01*
X-19635Y-3950D01*
X-19635Y-4006D01*
X-19635Y-3641D02*
X-19597Y-3669D01*
X-19635Y-3697D01*
X-19672Y-3669D01*
X-19635Y-3641D01*
X-19635Y-3697D01*
X-18247Y-4006D02*
X-18697Y-4006D01*
X-18472Y-4006D02*
X-18472Y-3416D01*
X-18547Y-3500D01*
X-18622Y-3556D01*
X-18697Y-3584D01*
X-17797Y-3669D02*
X-17872Y-3641D01*
X-17910Y-3613D01*
X-17947Y-3556D01*
X-17947Y-3528D01*
X-17910Y-3472D01*
X-17872Y-3444D01*
X-17797Y-3416D01*
X-17647Y-3416D01*
X-17572Y-3444D01*
X-17535Y-3472D01*
X-17497Y-3528D01*
X-17497Y-3556D01*
X-17535Y-3613D01*
X-17572Y-3641D01*
X-17647Y-3669D01*
X-17797Y-3669D01*
X-17872Y-3697D01*
X-17910Y-3725D01*
X-17947Y-3781D01*
X-17947Y-3894D01*
X-17910Y-3950D01*
X-17872Y-3978D01*
X-17797Y-4006D01*
X-17647Y-4006D01*
X-17572Y-3978D01*
X-17535Y-3950D01*
X-17497Y-3894D01*
X-17497Y-3781D01*
X-17535Y-3725D01*
X-17572Y-3697D01*
X-17647Y-3669D01*
X-15923Y-4006D02*
X-15960Y-4006D01*
X-16035Y-3978D01*
X-16148Y-3894D01*
X-16335Y-3725D01*
X-16410Y-3641D01*
X-16448Y-3556D01*
X-16448Y-3500D01*
X-16410Y-3444D01*
X-16335Y-3416D01*
X-16298Y-3416D01*
X-16223Y-3444D01*
X-16185Y-3500D01*
X-16185Y-3528D01*
X-16223Y-3584D01*
X-16260Y-3613D01*
X-16485Y-3725D01*
X-16523Y-3753D01*
X-16560Y-3809D01*
X-16560Y-3894D01*
X-16523Y-3950D01*
X-16485Y-3978D01*
X-16410Y-4006D01*
X-16298Y-4006D01*
X-16223Y-3978D01*
X-16185Y-3950D01*
X-16073Y-3838D01*
X-16035Y-3753D01*
X-16035Y-3697D01*
X-14873Y-3669D02*
X-14948Y-3641D01*
X-14985Y-3613D01*
X-15023Y-3556D01*
X-15023Y-3528D01*
X-14985Y-3472D01*
X-14948Y-3444D01*
X-14873Y-3416D01*
X-14723Y-3416D01*
X-14648Y-3444D01*
X-14610Y-3472D01*
X-14573Y-3528D01*
X-14573Y-3556D01*
X-14610Y-3613D01*
X-14648Y-3641D01*
X-14723Y-3669D01*
X-14873Y-3669D01*
X-14948Y-3697D01*
X-14985Y-3725D01*
X-15023Y-3781D01*
X-15023Y-3894D01*
X-14985Y-3950D01*
X-14948Y-3978D01*
X-14873Y-4006D01*
X-14723Y-4006D01*
X-14648Y-3978D01*
X-14610Y-3950D01*
X-14573Y-3894D01*
X-14573Y-3781D01*
X-14610Y-3725D01*
X-14648Y-3697D01*
X-14723Y-3669D01*
X-11836Y-4006D02*
X-11836Y-3416D01*
X-11573Y-3838D01*
X-11311Y-3416D01*
X-11311Y-4006D01*
X-11011Y-3416D02*
X-10523Y-3416D01*
X-10786Y-3641D01*
X-10673Y-3641D01*
X-10598Y-3669D01*
X-10561Y-3697D01*
X-10523Y-3753D01*
X-10523Y-3894D01*
X-10561Y-3950D01*
X-10598Y-3978D01*
X-10673Y-4006D01*
X-10898Y-4006D01*
X-10973Y-3978D01*
X-11011Y-3950D01*
X-10186Y-3950D02*
X-10148Y-3978D01*
X-10186Y-4006D01*
X-10223Y-3978D01*
X-10186Y-3950D01*
X-10186Y-4006D01*
X-10186Y-3641D02*
X-10148Y-3669D01*
X-10186Y-3697D01*
X-10223Y-3669D01*
X-10186Y-3641D01*
X-10186Y-3697D01*
X-8799Y-4006D02*
X-9248Y-4006D01*
X-9023Y-4006D02*
X-9023Y-3416D01*
X-9098Y-3500D01*
X-9173Y-3556D01*
X-9248Y-3584D01*
X-8499Y-3472D02*
X-8461Y-3444D01*
X-8386Y-3416D01*
X-8199Y-3416D01*
X-8124Y-3444D01*
X-8086Y-3472D01*
X-8049Y-3528D01*
X-8049Y-3584D01*
X-8086Y-3669D01*
X-8536Y-4006D01*
X-8049Y-4006D01*
X-6474Y-4006D02*
X-6511Y-4006D01*
X-6586Y-3978D01*
X-6699Y-3894D01*
X-6886Y-3725D01*
X-6961Y-3641D01*
X-6999Y-3556D01*
X-6999Y-3500D01*
X-6961Y-3444D01*
X-6886Y-3416D01*
X-6849Y-3416D01*
X-6774Y-3444D01*
X-6736Y-3500D01*
X-6736Y-3528D01*
X-6774Y-3584D01*
X-6811Y-3613D01*
X-7036Y-3725D01*
X-7074Y-3753D01*
X-7111Y-3809D01*
X-7111Y-3894D01*
X-7074Y-3950D01*
X-7036Y-3978D01*
X-6961Y-4006D01*
X-6849Y-4006D01*
X-6774Y-3978D01*
X-6736Y-3950D01*
X-6624Y-3838D01*
X-6586Y-3753D01*
X-6586Y-3697D01*
X-5574Y-3472D02*
X-5536Y-3444D01*
X-5461Y-3416D01*
X-5274Y-3416D01*
X-5199Y-3444D01*
X-5161Y-3472D01*
X-5124Y-3528D01*
X-5124Y-3584D01*
X-5161Y-3669D01*
X-5611Y-4006D01*
X-5124Y-4006D01*
X-4449Y-3613D02*
X-4449Y-4006D01*
X-4637Y-3388D02*
X-4824Y-3809D01*
X-4337Y-3809D01*
X-21284Y-4931D02*
X-21284Y-4341D01*
X-21022Y-4763D01*
X-20760Y-4341D01*
X-20760Y-4931D01*
X-20422Y-4397D02*
X-20385Y-4369D01*
X-20310Y-4341D01*
X-20122Y-4341D01*
X-20047Y-4369D01*
X-20010Y-4397D01*
X-19972Y-4453D01*
X-19972Y-4510D01*
X-20010Y-4594D01*
X-20460Y-4931D01*
X-19972Y-4931D01*
X-19635Y-4875D02*
X-19597Y-4903D01*
X-19635Y-4931D01*
X-19672Y-4903D01*
X-19635Y-4875D01*
X-19635Y-4931D01*
X-19635Y-4566D02*
X-19597Y-4594D01*
X-19635Y-4622D01*
X-19672Y-4594D01*
X-19635Y-4566D01*
X-19635Y-4622D01*
X-18247Y-4931D02*
X-18697Y-4931D01*
X-18472Y-4931D02*
X-18472Y-4341D01*
X-18547Y-4425D01*
X-18622Y-4482D01*
X-18697Y-4510D01*
X-17760Y-4341D02*
X-17685Y-4341D01*
X-17610Y-4369D01*
X-17572Y-4397D01*
X-17535Y-4453D01*
X-17497Y-4566D01*
X-17497Y-4706D01*
X-17535Y-4819D01*
X-17572Y-4875D01*
X-17610Y-4903D01*
X-17685Y-4931D01*
X-17760Y-4931D01*
X-17835Y-4903D01*
X-17872Y-4875D01*
X-17910Y-4819D01*
X-17947Y-4706D01*
X-17947Y-4566D01*
X-17910Y-4453D01*
X-17872Y-4397D01*
X-17835Y-4369D01*
X-17760Y-4341D01*
X-15923Y-4931D02*
X-15960Y-4931D01*
X-16035Y-4903D01*
X-16148Y-4819D01*
X-16335Y-4650D01*
X-16410Y-4566D01*
X-16448Y-4482D01*
X-16448Y-4425D01*
X-16410Y-4369D01*
X-16335Y-4341D01*
X-16298Y-4341D01*
X-16223Y-4369D01*
X-16185Y-4425D01*
X-16185Y-4453D01*
X-16223Y-4510D01*
X-16260Y-4538D01*
X-16485Y-4650D01*
X-16523Y-4678D01*
X-16560Y-4735D01*
X-16560Y-4819D01*
X-16523Y-4875D01*
X-16485Y-4903D01*
X-16410Y-4931D01*
X-16298Y-4931D01*
X-16223Y-4903D01*
X-16185Y-4875D01*
X-16073Y-4763D01*
X-16035Y-4678D01*
X-16035Y-4622D01*
X-15023Y-4397D02*
X-14985Y-4369D01*
X-14910Y-4341D01*
X-14723Y-4341D01*
X-14648Y-4369D01*
X-14610Y-4397D01*
X-14573Y-4453D01*
X-14573Y-4510D01*
X-14610Y-4594D01*
X-15060Y-4931D01*
X-14573Y-4931D01*
X-14273Y-4397D02*
X-14235Y-4369D01*
X-14160Y-4341D01*
X-13973Y-4341D01*
X-13898Y-4369D01*
X-13860Y-4397D01*
X-13823Y-4453D01*
X-13823Y-4510D01*
X-13860Y-4594D01*
X-14310Y-4931D01*
X-13823Y-4931D01*
X-11686Y-4931D02*
X-11686Y-4341D01*
X-11423Y-4763D01*
X-11161Y-4341D01*
X-11161Y-4931D01*
X-10448Y-4538D02*
X-10448Y-4931D01*
X-10636Y-4313D02*
X-10823Y-4735D01*
X-10336Y-4735D01*
X-10036Y-4875D02*
X-9998Y-4903D01*
X-10036Y-4931D01*
X-10073Y-4903D01*
X-10036Y-4875D01*
X-10036Y-4931D01*
X-10036Y-4566D02*
X-9998Y-4594D01*
X-10036Y-4622D01*
X-10073Y-4594D01*
X-10036Y-4566D01*
X-10036Y-4622D01*
X-8649Y-4931D02*
X-9098Y-4931D01*
X-8874Y-4931D02*
X-8874Y-4341D01*
X-8949Y-4425D01*
X-9023Y-4482D01*
X-9098Y-4510D01*
X-7974Y-4341D02*
X-8124Y-4341D01*
X-8199Y-4369D01*
X-8236Y-4397D01*
X-8311Y-4482D01*
X-8349Y-4594D01*
X-8349Y-4819D01*
X-8311Y-4875D01*
X-8274Y-4903D01*
X-8199Y-4931D01*
X-8049Y-4931D01*
X-7974Y-4903D01*
X-7936Y-4875D01*
X-7899Y-4819D01*
X-7899Y-4678D01*
X-7936Y-4622D01*
X-7974Y-4594D01*
X-8049Y-4566D01*
X-8199Y-4566D01*
X-8274Y-4594D01*
X-8311Y-4622D01*
X-8349Y-4678D01*
X-6324Y-4931D02*
X-6361Y-4931D01*
X-6436Y-4903D01*
X-6549Y-4819D01*
X-6736Y-4650D01*
X-6811Y-4566D01*
X-6849Y-4482D01*
X-6849Y-4425D01*
X-6811Y-4369D01*
X-6736Y-4341D01*
X-6699Y-4341D01*
X-6624Y-4369D01*
X-6586Y-4425D01*
X-6586Y-4453D01*
X-6624Y-4510D01*
X-6661Y-4538D01*
X-6886Y-4650D01*
X-6924Y-4678D01*
X-6961Y-4735D01*
X-6961Y-4819D01*
X-6924Y-4875D01*
X-6886Y-4903D01*
X-6811Y-4931D01*
X-6699Y-4931D01*
X-6624Y-4903D01*
X-6586Y-4875D01*
X-6474Y-4763D01*
X-6436Y-4678D01*
X-6436Y-4622D01*
X-5424Y-4397D02*
X-5386Y-4369D01*
X-5311Y-4341D01*
X-5124Y-4341D01*
X-5049Y-4369D01*
X-5011Y-4397D01*
X-4974Y-4453D01*
X-4974Y-4510D01*
X-5011Y-4594D01*
X-5461Y-4931D01*
X-4974Y-4931D01*
X-4299Y-4341D02*
X-4449Y-4341D01*
X-4524Y-4369D01*
X-4562Y-4397D01*
X-4637Y-4482D01*
X-4674Y-4594D01*
X-4674Y-4819D01*
X-4637Y-4875D01*
X-4599Y-4903D01*
X-4524Y-4931D01*
X-4374Y-4931D01*
X-4299Y-4903D01*
X-4262Y-4875D01*
X-4224Y-4819D01*
X-4224Y-4678D01*
X-4262Y-4622D01*
X-4299Y-4594D01*
X-4374Y-4566D01*
X-4524Y-4566D01*
X-4599Y-4594D01*
X-4637Y-4622D01*
X-4674Y-4678D01*
G54D13*
X36Y-2007D02*
X13036Y-2007D01*
X13036Y-7D02*
X36Y-7D01*
X36Y-7D02*
X36Y-2007D01*
X13036Y-2007D02*
X13036Y-7D01*
G54D14*
X-18163Y-14707D02*
X-18163Y-14707D01*
X-18163Y-14707D02*
X-18163Y-14207D01*
X-18163Y-14207D02*
X-17163Y-14207D01*
X-17163Y-14207D02*
X-17163Y-14707D01*
X-18663Y-14707D02*
X-18663Y-5707D01*
X-18663Y-5707D02*
X-16663Y-5707D01*
X-16663Y-5707D02*
X-16663Y-14707D01*
X-16663Y-14707D02*
X-18663Y-14707D01*
X-10163Y-14707D02*
X-10163Y-14707D01*
X-10163Y-14707D02*
X-10163Y-14207D01*
X-10163Y-14207D02*
X-9163Y-14207D01*
X-9163Y-14207D02*
X-9163Y-14707D01*
X-10663Y-14707D02*
X-10663Y-5707D01*
X-10663Y-5707D02*
X-8663Y-5707D01*
X-8663Y-5707D02*
X-8663Y-14707D01*
X-8663Y-14707D02*
X-10663Y-14707D01*
G54D15*
X1294Y-2557D02*
G75*
G03X1294Y-2557I-50J0D01*
G74*
G01*
X1244Y-3007D02*
X1244Y-2607D01*
X1244Y-2607D02*
X1844Y-2607D01*
X1844Y-2607D02*
X1844Y-3007D01*
X1844Y-3407D02*
X1844Y-3807D01*
X1844Y-3807D02*
X1244Y-3807D01*
X1244Y-3807D02*
X1244Y-3407D01*
X10278Y-2517D02*
G75*
G03X10278Y-2517I-50J0D01*
G74*
G01*
X10228Y-2967D02*
X10228Y-2567D01*
X10228Y-2567D02*
X10828Y-2567D01*
X10828Y-2567D02*
X10828Y-2967D01*
X10828Y-3367D02*
X10828Y-3767D01*
X10828Y-3767D02*
X10228Y-3767D01*
X10228Y-3767D02*
X10228Y-3367D01*
X-13063Y-7707D02*
G75*
G03X-13063Y-7707I-50J0D01*
G74*
G01*
X-12663Y-7707D02*
X-13063Y-7707D01*
X-13063Y-7707D02*
X-13063Y-7107D01*
X-13063Y-7107D02*
X-12663Y-7107D01*
X-12263Y-7107D02*
X-11863Y-7107D01*
X-11863Y-7107D02*
X-11863Y-7707D01*
X-11863Y-7707D02*
X-12263Y-7707D01*
X7286Y-2557D02*
G75*
G03X7286Y-2557I-50J0D01*
G74*
G01*
X7236Y-3007D02*
X7236Y-2607D01*
X7236Y-2607D02*
X7836Y-2607D01*
X7836Y-2607D02*
X7836Y-3007D01*
X7836Y-3407D02*
X7836Y-3807D01*
X7836Y-3807D02*
X7236Y-3807D01*
X7236Y-3807D02*
X7236Y-3407D01*
X-6163Y-12707D02*
G75*
G03X-6163Y-12707I-50J0D01*
G74*
G01*
X-6663Y-12707D02*
X-6263Y-12707D01*
X-6263Y-12707D02*
X-6263Y-13307D01*
X-6263Y-13307D02*
X-6663Y-13307D01*
X-7063Y-13307D02*
X-7463Y-13307D01*
X-7463Y-13307D02*
X-7463Y-12707D01*
X-7463Y-12707D02*
X-7063Y-12707D01*
X6286Y-2557D02*
G75*
G03X6286Y-2557I-50J0D01*
G74*
G01*
X6236Y-3007D02*
X6236Y-2607D01*
X6236Y-2607D02*
X6836Y-2607D01*
X6836Y-2607D02*
X6836Y-3007D01*
X6836Y-3407D02*
X6836Y-3807D01*
X6836Y-3807D02*
X6236Y-3807D01*
X6236Y-3807D02*
X6236Y-3407D01*
X11278Y-2517D02*
G75*
G03X11278Y-2517I-50J0D01*
G74*
G01*
X11228Y-2967D02*
X11228Y-2567D01*
X11228Y-2567D02*
X11828Y-2567D01*
X11828Y-2567D02*
X11828Y-2967D01*
X11828Y-3367D02*
X11828Y-3767D01*
X11828Y-3767D02*
X11228Y-3767D01*
X11228Y-3767D02*
X11228Y-3367D01*
X5286Y-2557D02*
G75*
G03X5286Y-2557I-50J0D01*
G74*
G01*
X5236Y-3007D02*
X5236Y-2607D01*
X5236Y-2607D02*
X5836Y-2607D01*
X5836Y-2607D02*
X5836Y-3007D01*
X5836Y-3407D02*
X5836Y-3807D01*
X5836Y-3807D02*
X5236Y-3807D01*
X5236Y-3807D02*
X5236Y-3407D01*
X-13063Y-13307D02*
G75*
G03X-13063Y-13307I-50J0D01*
G74*
G01*
X-12663Y-13307D02*
X-13063Y-13307D01*
X-13063Y-13307D02*
X-13063Y-12707D01*
X-13063Y-12707D02*
X-12663Y-12707D01*
X-12263Y-12707D02*
X-11863Y-12707D01*
X-11863Y-12707D02*
X-11863Y-13307D01*
X-11863Y-13307D02*
X-12263Y-13307D01*
X-6163Y-7107D02*
G75*
G03X-6163Y-7107I-50J0D01*
G74*
G01*
X-6663Y-7107D02*
X-6263Y-7107D01*
X-6263Y-7107D02*
X-6263Y-7707D01*
X-6263Y-7707D02*
X-6663Y-7707D01*
X-7063Y-7707D02*
X-7463Y-7707D01*
X-7463Y-7707D02*
X-7463Y-7107D01*
X-7463Y-7107D02*
X-7063Y-7107D01*
X-21063Y-7707D02*
G75*
G03X-21063Y-7707I-50J0D01*
G74*
G01*
X-20663Y-7707D02*
X-21063Y-7707D01*
X-21063Y-7707D02*
X-21063Y-7107D01*
X-21063Y-7107D02*
X-20663Y-7107D01*
X-20263Y-7107D02*
X-19863Y-7107D01*
X-19863Y-7107D02*
X-19863Y-7707D01*
X-19863Y-7707D02*
X-20263Y-7707D01*
X-21063Y-13307D02*
G75*
G03X-21063Y-13307I-50J0D01*
G74*
G01*
X-20663Y-13307D02*
X-21063Y-13307D01*
X-21063Y-13307D02*
X-21063Y-12707D01*
X-21063Y-12707D02*
X-20663Y-12707D01*
X-20263Y-12707D02*
X-19863Y-12707D01*
X-19863Y-12707D02*
X-19863Y-13307D01*
X-19863Y-13307D02*
X-20263Y-13307D01*
X3294Y-2557D02*
G75*
G03X3294Y-2557I-50J0D01*
G74*
G01*
X3244Y-3007D02*
X3244Y-2607D01*
X3244Y-2607D02*
X3844Y-2607D01*
X3844Y-2607D02*
X3844Y-3007D01*
X3844Y-3407D02*
X3844Y-3807D01*
X3844Y-3807D02*
X3244Y-3807D01*
X3244Y-3807D02*
X3244Y-3407D01*
X-14163Y-12707D02*
G75*
G03X-14163Y-12707I-50J0D01*
G74*
G01*
X-14663Y-12707D02*
X-14263Y-12707D01*
X-14263Y-12707D02*
X-14263Y-13307D01*
X-14263Y-13307D02*
X-14663Y-13307D01*
X-15063Y-13307D02*
X-15463Y-13307D01*
X-15463Y-13307D02*
X-15463Y-12707D01*
X-15463Y-12707D02*
X-15063Y-12707D01*
X-14163Y-7107D02*
G75*
G03X-14163Y-7107I-50J0D01*
G74*
G01*
X-14663Y-7107D02*
X-14263Y-7107D01*
X-14263Y-7107D02*
X-14263Y-7707D01*
X-14263Y-7707D02*
X-14663Y-7707D01*
X-15063Y-7707D02*
X-15463Y-7707D01*
X-15463Y-7707D02*
X-15463Y-7107D01*
X-15463Y-7107D02*
X-15063Y-7107D01*
X2294Y-2557D02*
G75*
G03X2294Y-2557I-50J0D01*
G74*
G01*
X2244Y-3007D02*
X2244Y-2607D01*
X2244Y-2607D02*
X2844Y-2607D01*
X2844Y-2607D02*
X2844Y-3007D01*
X2844Y-3407D02*
X2844Y-3807D01*
X2844Y-3807D02*
X2244Y-3807D01*
X2244Y-3807D02*
X2244Y-3407D01*
X9278Y-2517D02*
G75*
G03X9278Y-2517I-50J0D01*
G74*
G01*
X9228Y-2967D02*
X9228Y-2567D01*
X9228Y-2567D02*
X9828Y-2567D01*
X9828Y-2567D02*
X9828Y-2967D01*
X9828Y-3367D02*
X9828Y-3767D01*
X9828Y-3767D02*
X9228Y-3767D01*
X9228Y-3767D02*
X9228Y-3367D01*
X2151Y-14113D02*
G75*
G03X2151Y-14113I-50J0D01*
G74*
G01*
X2101Y-14563D02*
X2101Y-14163D01*
X2101Y-14163D02*
X2701Y-14163D01*
X2701Y-14163D02*
X2701Y-14563D01*
X2701Y-14963D02*
X2701Y-15363D01*
X2701Y-15363D02*
X2101Y-15363D01*
X2101Y-15363D02*
X2101Y-14963D01*
X4159Y-14113D02*
G75*
G03X4159Y-14113I-50J0D01*
G74*
G01*
X4109Y-14563D02*
X4109Y-14163D01*
X4109Y-14163D02*
X4709Y-14163D01*
X4709Y-14163D02*
X4709Y-14563D01*
X4709Y-14963D02*
X4709Y-15363D01*
X4709Y-15363D02*
X4109Y-15363D01*
X4109Y-15363D02*
X4109Y-14963D01*
X12151Y-14113D02*
G75*
G03X12151Y-14113I-50J0D01*
G74*
G01*
X12101Y-14563D02*
X12101Y-14163D01*
X12101Y-14163D02*
X12701Y-14163D01*
X12701Y-14163D02*
X12701Y-14563D01*
X12701Y-14963D02*
X12701Y-15363D01*
X12701Y-15363D02*
X12101Y-15363D01*
X12101Y-15363D02*
X12101Y-14963D01*
X11009Y-14113D02*
G75*
G03X11009Y-14113I-50J0D01*
G74*
G01*
X10959Y-14563D02*
X10959Y-14163D01*
X10959Y-14163D02*
X11559Y-14163D01*
X11559Y-14163D02*
X11559Y-14563D01*
X11559Y-14963D02*
X11559Y-15363D01*
X11559Y-15363D02*
X10959Y-15363D01*
X10959Y-15363D02*
X10959Y-14963D01*
X6167Y-14113D02*
G75*
G03X6167Y-14113I-50J0D01*
G74*
G01*
X6117Y-14563D02*
X6117Y-14163D01*
X6117Y-14163D02*
X6717Y-14163D01*
X6717Y-14163D02*
X6717Y-14563D01*
X6717Y-14963D02*
X6717Y-15363D01*
X6717Y-15363D02*
X6117Y-15363D01*
X6117Y-15363D02*
X6117Y-14963D01*
X7230Y-14113D02*
G75*
G03X7230Y-14113I-50J0D01*
G74*
G01*
X7180Y-14563D02*
X7180Y-14163D01*
X7180Y-14163D02*
X7780Y-14163D01*
X7780Y-14163D02*
X7780Y-14563D01*
X7780Y-14963D02*
X7780Y-15363D01*
X7780Y-15363D02*
X7180Y-15363D01*
X7180Y-15363D02*
X7180Y-14963D01*
X-3832Y-14113D02*
G75*
G03X-3832Y-14113I-50J0D01*
G74*
G01*
X-3882Y-14563D02*
X-3882Y-14163D01*
X-3882Y-14163D02*
X-3282Y-14163D01*
X-3282Y-14163D02*
X-3282Y-14563D01*
X-3282Y-14963D02*
X-3282Y-15363D01*
X-3282Y-15363D02*
X-3882Y-15363D01*
X-3882Y-15363D02*
X-3882Y-14963D01*
X-1864Y-14113D02*
G75*
G03X-1864Y-14113I-50J0D01*
G74*
G01*
X-1914Y-14563D02*
X-1914Y-14163D01*
X-1914Y-14163D02*
X-1314Y-14163D01*
X-1314Y-14163D02*
X-1314Y-14563D01*
X-1314Y-14963D02*
X-1314Y-15363D01*
X-1314Y-15363D02*
X-1914Y-15363D01*
X-1914Y-15363D02*
X-1914Y-14963D01*
X143Y-14113D02*
G75*
G03X143Y-14113I-50J0D01*
G74*
G01*
X93Y-14563D02*
X93Y-14163D01*
X93Y-14163D02*
X693Y-14163D01*
X693Y-14163D02*
X693Y-14563D01*
X693Y-14963D02*
X693Y-15363D01*
X693Y-15363D02*
X93Y-15363D01*
X93Y-15363D02*
X93Y-14963D01*
G54D16*
X-21313Y-10007D02*
X-21313Y-10107D01*
X-21313Y-10107D02*
X-20413Y-10107D01*
X-20413Y-10107D02*
X-20413Y-10007D01*
X-21313Y-10007D02*
X-20413Y-10007D01*
X-20413Y-10007D02*
X-20413Y-9357D01*
X-21313Y-8657D02*
X-21313Y-8007D01*
X-21313Y-8007D02*
X-20413Y-8007D01*
X-20413Y-8007D02*
X-20413Y-8657D01*
X-21313Y-9357D02*
X-21313Y-10007D01*
X-20413Y-10407D02*
X-20413Y-10307D01*
X-20413Y-10307D02*
X-21313Y-10307D01*
X-21313Y-10307D02*
X-21313Y-10407D01*
X-20413Y-10407D02*
X-21313Y-10407D01*
X-21313Y-10407D02*
X-21313Y-11057D01*
X-20413Y-11757D02*
X-20413Y-12407D01*
X-20413Y-12407D02*
X-21313Y-12407D01*
X-21313Y-12407D02*
X-21313Y-11757D01*
X-20413Y-11057D02*
X-20413Y-10407D01*
X-6013Y-10407D02*
X-6013Y-10307D01*
X-6013Y-10307D02*
X-6913Y-10307D01*
X-6913Y-10307D02*
X-6913Y-10407D01*
X-6013Y-10407D02*
X-6913Y-10407D01*
X-6913Y-10407D02*
X-6913Y-11057D01*
X-6013Y-11757D02*
X-6013Y-12407D01*
X-6013Y-12407D02*
X-6913Y-12407D01*
X-6913Y-12407D02*
X-6913Y-11757D01*
X-6013Y-11057D02*
X-6013Y-10407D01*
X-14013Y-10407D02*
X-14013Y-10307D01*
X-14013Y-10307D02*
X-14913Y-10307D01*
X-14913Y-10307D02*
X-14913Y-10407D01*
X-14013Y-10407D02*
X-14913Y-10407D01*
X-14913Y-10407D02*
X-14913Y-11057D01*
X-14013Y-11757D02*
X-14013Y-12407D01*
X-14013Y-12407D02*
X-14913Y-12407D01*
X-14913Y-12407D02*
X-14913Y-11757D01*
X-14013Y-11057D02*
X-14013Y-10407D01*
X-14913Y-10007D02*
X-14913Y-10107D01*
X-14913Y-10107D02*
X-14013Y-10107D01*
X-14013Y-10107D02*
X-14013Y-10007D01*
X-14913Y-10007D02*
X-14013Y-10007D01*
X-14013Y-10007D02*
X-14013Y-9357D01*
X-14913Y-8657D02*
X-14913Y-8007D01*
X-14913Y-8007D02*
X-14013Y-8007D01*
X-14013Y-8007D02*
X-14013Y-8657D01*
X-14913Y-9357D02*
X-14913Y-10007D01*
X-6913Y-10007D02*
X-6913Y-10107D01*
X-6913Y-10107D02*
X-6013Y-10107D01*
X-6013Y-10107D02*
X-6013Y-10007D01*
X-6913Y-10007D02*
X-6013Y-10007D01*
X-6013Y-10007D02*
X-6013Y-9357D01*
X-6913Y-8657D02*
X-6913Y-8007D01*
X-6913Y-8007D02*
X-6013Y-8007D01*
X-6013Y-8007D02*
X-6013Y-8657D01*
X-6913Y-9357D02*
X-6913Y-10007D01*
X-12413Y-10407D02*
X-12413Y-10307D01*
X-12413Y-10307D02*
X-13313Y-10307D01*
X-13313Y-10307D02*
X-13313Y-10407D01*
X-12413Y-10407D02*
X-13313Y-10407D01*
X-13313Y-10407D02*
X-13313Y-11057D01*
X-12413Y-11757D02*
X-12413Y-12407D01*
X-12413Y-12407D02*
X-13313Y-12407D01*
X-13313Y-12407D02*
X-13313Y-11757D01*
X-12413Y-11057D02*
X-12413Y-10407D01*
X-13313Y-10007D02*
X-13313Y-10107D01*
X-13313Y-10107D02*
X-12413Y-10107D01*
X-12413Y-10107D02*
X-12413Y-10007D01*
X-13313Y-10007D02*
X-12413Y-10007D01*
X-12413Y-10007D02*
X-12413Y-9357D01*
X-13313Y-8657D02*
X-13313Y-8007D01*
X-13313Y-8007D02*
X-12413Y-8007D01*
X-12413Y-8007D02*
X-12413Y-8657D01*
X-13313Y-9357D02*
X-13313Y-10007D01*
G54D17*
X-25149Y-16716D02*
X-21149Y-16716D01*
X-25149Y-16216D02*
X-25149Y-19216D01*
X-25149Y-19216D02*
X-21149Y-19216D01*
X-21149Y-19216D02*
X-21149Y-16216D01*
X-21149Y-16216D02*
X-25149Y-16216D01*
X-21463Y-237D02*
X-17463Y-237D01*
X-21463Y262D02*
X-21463Y-2737D01*
X-21463Y-2737D02*
X-17463Y-2737D01*
X-17463Y-2737D02*
X-17463Y262D01*
X-17463Y262D02*
X-21463Y262D01*
X-9463Y-237D02*
X-5463Y-237D01*
X-9463Y262D02*
X-9463Y-2737D01*
X-9463Y-2737D02*
X-5463Y-2737D01*
X-5463Y-2737D02*
X-5463Y262D01*
X-5463Y262D02*
X-9463Y262D01*
X-13463Y-237D02*
X-9463Y-237D01*
X-13463Y262D02*
X-13463Y-2737D01*
X-13463Y-2737D02*
X-9463Y-2737D01*
X-9463Y-2737D02*
X-9463Y262D01*
X-9463Y262D02*
X-13463Y262D01*
X-25463Y-237D02*
X-21463Y-237D01*
X-25463Y262D02*
X-25463Y-2737D01*
X-25463Y-2737D02*
X-21463Y-2737D01*
X-21463Y-2737D02*
X-21463Y262D01*
X-21463Y262D02*
X-25463Y262D01*
X-15708Y-19216D02*
X-5708Y-19216D01*
X-15708Y-18716D02*
X-5708Y-18716D01*
X-15708Y-16216D02*
X-5708Y-16216D01*
X-5708Y-16216D02*
X-5708Y-19216D01*
X-15708Y-16216D02*
X-15708Y-19216D01*
X-15716Y-18716D02*
X-19716Y-18716D01*
X-15716Y-19216D02*
X-15716Y-16216D01*
X-15716Y-16216D02*
X-19716Y-16216D01*
X-19716Y-16216D02*
X-19716Y-19216D01*
X-19716Y-19216D02*
X-15716Y-19216D01*
X-24937Y-15464D02*
X-24937Y-11464D01*
X-25437Y-15464D02*
X-22437Y-15464D01*
X-22437Y-15464D02*
X-22437Y-11464D01*
X-22437Y-11464D02*
X-25437Y-11464D01*
X-25437Y-11464D02*
X-25437Y-15464D01*
X-24937Y-11448D02*
X-24937Y-7448D01*
X-25437Y-11448D02*
X-22437Y-11448D01*
X-22437Y-11448D02*
X-22437Y-7448D01*
X-22437Y-7448D02*
X-25437Y-7448D01*
X-25437Y-7448D02*
X-25437Y-11448D01*
X-24937Y-7433D02*
X-24937Y-3433D01*
X-25437Y-7433D02*
X-22437Y-7433D01*
X-22437Y-7433D02*
X-22437Y-3433D01*
X-22437Y-3433D02*
X-25437Y-3433D01*
X-25437Y-3433D02*
X-25437Y-7433D01*
X13408Y-16236D02*
X3408Y-16236D01*
X13408Y-16736D02*
X3408Y-16736D01*
X13408Y-19236D02*
X3408Y-19236D01*
X3408Y-19236D02*
X3408Y-16236D01*
X13408Y-19236D02*
X13408Y-16236D01*
X-591Y-16736D02*
X3408Y-16736D01*
X-591Y-16236D02*
X-591Y-19236D01*
X-591Y-19236D02*
X3408Y-19236D01*
X3408Y-19236D02*
X3408Y-16236D01*
X3408Y-16236D02*
X-591Y-16236D01*
X-4591Y-16736D02*
X-591Y-16736D01*
X-4591Y-16236D02*
X-4591Y-19236D01*
X-4591Y-19236D02*
X-591Y-19236D01*
X-591Y-19236D02*
X-591Y-16236D01*
X-591Y-16236D02*
X-4591Y-16236D01*
X-5463Y-237D02*
X-1463Y-237D01*
X-5463Y262D02*
X-5463Y-2737D01*
X-5463Y-2737D02*
X-1463Y-2737D01*
X-1463Y-2737D02*
X-1463Y262D01*
X-1463Y262D02*
X-5463Y262D01*
X-17463Y-237D02*
X-13463Y-237D01*
X-17463Y262D02*
X-17463Y-2737D01*
X-17463Y-2737D02*
X-13463Y-2737D01*
X-13463Y-2737D02*
X-13463Y262D01*
X-13463Y262D02*
X-17463Y262D01*
G54D14*
X10309Y-14566D02*
G75*
G03X10309Y-14566I-900J0D01*
G74*
G01*
G54D13*
X-405Y-2598D02*
X-405Y-2198D01*
X-253Y-2198D01*
X-214Y-2217D01*
X-195Y-2237D01*
X-176Y-2275D01*
X-176Y-2332D01*
X-195Y-2370D01*
X-214Y-2389D01*
X-253Y-2408D01*
X-405Y-2408D01*
X204Y-2598D02*
X-24Y-2598D01*
X89Y-2598D02*
X89Y-2198D01*
X51Y-2256D01*
X13Y-2294D01*
X-24Y-2313D01*
G54D18*
X13503Y-3065D02*
X13522Y-3084D01*
X13541Y-3140D01*
X13541Y-3178D01*
X13522Y-3234D01*
X13485Y-3272D01*
X13447Y-3290D01*
X13372Y-3309D01*
X13316Y-3309D01*
X13241Y-3290D01*
X13203Y-3272D01*
X13166Y-3234D01*
X13147Y-3178D01*
X13147Y-3140D01*
X13166Y-3084D01*
X13185Y-3065D01*
X13147Y-2822D02*
X13147Y-2747D01*
X13166Y-2709D01*
X13203Y-2672D01*
X13278Y-2653D01*
X13410Y-2653D01*
X13485Y-2672D01*
X13522Y-2709D01*
X13541Y-2747D01*
X13541Y-2822D01*
X13522Y-2859D01*
X13485Y-2897D01*
X13410Y-2916D01*
X13278Y-2916D01*
X13203Y-2897D01*
X13166Y-2859D01*
X13147Y-2822D01*
X13541Y-2484D02*
X13147Y-2484D01*
X13541Y-2259D01*
X13147Y-2259D01*
X13541Y-2072D02*
X13147Y-2072D01*
X13541Y-1847D01*
X13147Y-1847D01*
X13578Y-1753D02*
X13578Y-1453D01*
X13541Y-1153D02*
X13541Y-1378D01*
X13541Y-1266D02*
X13147Y-1266D01*
X13203Y-1303D01*
X13241Y-1341D01*
X13260Y-1378D01*
X13147Y-1022D02*
X13147Y-778D01*
X13297Y-910D01*
X13297Y-853D01*
X13316Y-816D01*
X13335Y-797D01*
X13372Y-778D01*
X13466Y-778D01*
X13503Y-797D01*
X13522Y-816D01*
X13541Y-853D01*
X13541Y-966D01*
X13522Y-1003D01*
X13503Y-1022D01*
X13147Y-647D02*
X13541Y-385D01*
X13147Y-385D02*
X13541Y-647D01*
X13185Y-253D02*
X13166Y-235D01*
X13147Y-197D01*
X13147Y-103D01*
X13166Y-66D01*
X13185Y-47D01*
X13222Y-28D01*
X13260Y-28D01*
X13316Y-47D01*
X13541Y-272D01*
X13541Y-28D01*
X-18004Y-13091D02*
X-18398Y-13091D01*
X-18041Y-12678D02*
X-18023Y-12697D01*
X-18004Y-12753D01*
X-18004Y-12791D01*
X-18023Y-12847D01*
X-18060Y-12885D01*
X-18098Y-12903D01*
X-18173Y-12922D01*
X-18229Y-12922D01*
X-18304Y-12903D01*
X-18341Y-12885D01*
X-18379Y-12847D01*
X-18398Y-12791D01*
X-18398Y-12753D01*
X-18379Y-12697D01*
X-18360Y-12678D01*
X-18004Y-12304D02*
X-18004Y-12528D01*
X-18004Y-12416D02*
X-18398Y-12416D01*
X-18341Y-12453D01*
X-18304Y-12491D01*
X-18285Y-12528D01*
X-17449Y-10750D02*
X-17431Y-10694D01*
X-17431Y-10600D01*
X-17449Y-10563D01*
X-17468Y-10544D01*
X-17506Y-10525D01*
X-17543Y-10525D01*
X-17581Y-10544D01*
X-17599Y-10563D01*
X-17618Y-10600D01*
X-17637Y-10675D01*
X-17656Y-10713D01*
X-17674Y-10731D01*
X-17712Y-10750D01*
X-17749Y-10750D01*
X-17787Y-10731D01*
X-17806Y-10713D01*
X-17824Y-10675D01*
X-17824Y-10581D01*
X-17806Y-10525D01*
X-17431Y-10356D02*
X-17824Y-10356D01*
X-17431Y-10131D01*
X-17824Y-10131D01*
X-17824Y-9982D02*
X-17824Y-9719D01*
X-17431Y-9888D01*
X-17824Y-9382D02*
X-17824Y-9569D01*
X-17637Y-9588D01*
X-17656Y-9569D01*
X-17674Y-9532D01*
X-17674Y-9438D01*
X-17656Y-9400D01*
X-17637Y-9382D01*
X-17599Y-9363D01*
X-17506Y-9363D01*
X-17468Y-9382D01*
X-17449Y-9400D01*
X-17431Y-9438D01*
X-17431Y-9532D01*
X-17449Y-9569D01*
X-17468Y-9588D01*
X-17693Y-9025D02*
X-17431Y-9025D01*
X-17843Y-9119D02*
X-17562Y-9213D01*
X-17562Y-8969D01*
X-17693Y-8650D02*
X-17431Y-8650D01*
X-17843Y-8744D02*
X-17562Y-8838D01*
X-17562Y-8594D01*
X-17431Y-8238D02*
X-17431Y-8463D01*
X-17431Y-8350D02*
X-17824Y-8350D01*
X-17768Y-8388D01*
X-17731Y-8425D01*
X-17712Y-8463D01*
X-17824Y-7994D02*
X-17824Y-7957D01*
X-17806Y-7919D01*
X-17787Y-7901D01*
X-17749Y-7882D01*
X-17674Y-7863D01*
X-17581Y-7863D01*
X-17506Y-7882D01*
X-17468Y-7901D01*
X-17449Y-7919D01*
X-17431Y-7957D01*
X-17431Y-7994D01*
X-17449Y-8032D01*
X-17468Y-8050D01*
X-17506Y-8069D01*
X-17581Y-8088D01*
X-17674Y-8088D01*
X-17749Y-8069D01*
X-17787Y-8050D01*
X-17806Y-8032D01*
X-17824Y-7994D01*
X-10004Y-13091D02*
X-10398Y-13091D01*
X-10041Y-12678D02*
X-10023Y-12697D01*
X-10004Y-12753D01*
X-10004Y-12791D01*
X-10023Y-12847D01*
X-10060Y-12885D01*
X-10098Y-12903D01*
X-10173Y-12922D01*
X-10229Y-12922D01*
X-10304Y-12903D01*
X-10341Y-12885D01*
X-10379Y-12847D01*
X-10398Y-12791D01*
X-10398Y-12753D01*
X-10379Y-12697D01*
X-10360Y-12678D01*
X-10360Y-12528D02*
X-10379Y-12510D01*
X-10398Y-12472D01*
X-10398Y-12379D01*
X-10379Y-12341D01*
X-10360Y-12322D01*
X-10323Y-12304D01*
X-10285Y-12304D01*
X-10229Y-12322D01*
X-10004Y-12547D01*
X-10004Y-12304D01*
X-9351Y-10644D02*
X-9332Y-10588D01*
X-9332Y-10494D01*
X-9351Y-10456D01*
X-9370Y-10438D01*
X-9407Y-10419D01*
X-9445Y-10419D01*
X-9482Y-10438D01*
X-9501Y-10456D01*
X-9520Y-10494D01*
X-9538Y-10569D01*
X-9557Y-10606D01*
X-9576Y-10625D01*
X-9613Y-10644D01*
X-9651Y-10644D01*
X-9688Y-10625D01*
X-9707Y-10606D01*
X-9726Y-10569D01*
X-9726Y-10475D01*
X-9707Y-10419D01*
X-9332Y-10250D02*
X-9726Y-10250D01*
X-9332Y-10025D01*
X-9726Y-10025D01*
X-9726Y-9875D02*
X-9726Y-9613D01*
X-9332Y-9781D01*
X-9726Y-9275D02*
X-9726Y-9463D01*
X-9538Y-9482D01*
X-9557Y-9463D01*
X-9576Y-9425D01*
X-9576Y-9332D01*
X-9557Y-9294D01*
X-9538Y-9275D01*
X-9501Y-9257D01*
X-9407Y-9257D01*
X-9370Y-9275D01*
X-9351Y-9294D01*
X-9332Y-9332D01*
X-9332Y-9425D01*
X-9351Y-9463D01*
X-9370Y-9482D01*
X-9595Y-8919D02*
X-9332Y-8919D01*
X-9745Y-9013D02*
X-9464Y-9107D01*
X-9464Y-8863D01*
X-9595Y-8544D02*
X-9332Y-8544D01*
X-9745Y-8638D02*
X-9464Y-8732D01*
X-9464Y-8488D01*
X-9332Y-8132D02*
X-9332Y-8357D01*
X-9332Y-8244D02*
X-9726Y-8244D01*
X-9670Y-8282D01*
X-9632Y-8319D01*
X-9613Y-8357D01*
X-9726Y-7888D02*
X-9726Y-7850D01*
X-9707Y-7813D01*
X-9688Y-7794D01*
X-9651Y-7775D01*
X-9576Y-7757D01*
X-9482Y-7757D01*
X-9407Y-7775D01*
X-9370Y-7794D01*
X-9351Y-7813D01*
X-9332Y-7850D01*
X-9332Y-7888D01*
X-9351Y-7925D01*
X-9370Y-7944D01*
X-9407Y-7963D01*
X-9482Y-7982D01*
X-9576Y-7982D01*
X-9651Y-7963D01*
X-9688Y-7944D01*
X-9707Y-7925D01*
X-9726Y-7888D01*
G54D19*
X997Y-2875D02*
X903Y-2941D01*
X997Y-2987D02*
X800Y-2987D01*
X800Y-2912D01*
X809Y-2894D01*
X818Y-2884D01*
X837Y-2875D01*
X865Y-2875D01*
X884Y-2884D01*
X893Y-2894D01*
X903Y-2912D01*
X903Y-2987D01*
X884Y-2762D02*
X875Y-2781D01*
X865Y-2790D01*
X846Y-2800D01*
X837Y-2800D01*
X818Y-2790D01*
X809Y-2781D01*
X800Y-2762D01*
X800Y-2725D01*
X809Y-2706D01*
X818Y-2697D01*
X837Y-2687D01*
X846Y-2687D01*
X865Y-2697D01*
X875Y-2706D01*
X884Y-2725D01*
X884Y-2762D01*
X893Y-2781D01*
X903Y-2790D01*
X922Y-2800D01*
X959Y-2800D01*
X978Y-2790D01*
X987Y-2781D01*
X997Y-2762D01*
X997Y-2725D01*
X987Y-2706D01*
X978Y-2697D01*
X959Y-2687D01*
X922Y-2687D01*
X903Y-2697D01*
X893Y-2706D01*
X884Y-2725D01*
X800Y-3753D02*
X800Y-3631D01*
X875Y-3696D01*
X875Y-3668D01*
X884Y-3650D01*
X893Y-3640D01*
X912Y-3631D01*
X959Y-3631D01*
X978Y-3640D01*
X987Y-3650D01*
X997Y-3668D01*
X997Y-3725D01*
X987Y-3743D01*
X978Y-3753D01*
X800Y-3565D02*
X800Y-3443D01*
X875Y-3509D01*
X875Y-3481D01*
X884Y-3462D01*
X893Y-3453D01*
X912Y-3443D01*
X959Y-3443D01*
X978Y-3453D01*
X987Y-3462D01*
X997Y-3481D01*
X997Y-3537D01*
X987Y-3556D01*
X978Y-3565D01*
X800Y-3321D02*
X800Y-3303D01*
X809Y-3284D01*
X818Y-3274D01*
X837Y-3265D01*
X875Y-3256D01*
X922Y-3256D01*
X959Y-3265D01*
X978Y-3274D01*
X987Y-3284D01*
X997Y-3303D01*
X997Y-3321D01*
X987Y-3340D01*
X978Y-3349D01*
X959Y-3359D01*
X922Y-3368D01*
X875Y-3368D01*
X837Y-3359D01*
X818Y-3349D01*
X809Y-3340D01*
X800Y-3321D01*
X10369Y-2347D02*
X10303Y-2253D01*
X10256Y-2347D02*
X10256Y-2150D01*
X10331Y-2150D01*
X10350Y-2159D01*
X10360Y-2169D01*
X10369Y-2187D01*
X10369Y-2216D01*
X10360Y-2234D01*
X10350Y-2244D01*
X10331Y-2253D01*
X10256Y-2253D01*
X10444Y-2169D02*
X10453Y-2159D01*
X10472Y-2150D01*
X10519Y-2150D01*
X10538Y-2159D01*
X10547Y-2169D01*
X10557Y-2187D01*
X10557Y-2206D01*
X10547Y-2234D01*
X10435Y-2347D01*
X10557Y-2347D01*
X10622Y-2150D02*
X10744Y-2150D01*
X10678Y-2225D01*
X10707Y-2225D01*
X10725Y-2234D01*
X10735Y-2244D01*
X10744Y-2263D01*
X10744Y-2309D01*
X10735Y-2328D01*
X10725Y-2338D01*
X10707Y-2347D01*
X10650Y-2347D01*
X10632Y-2338D01*
X10622Y-2328D01*
X10254Y-3957D02*
X10376Y-3957D01*
X10310Y-4032D01*
X10339Y-4032D01*
X10357Y-4041D01*
X10367Y-4051D01*
X10376Y-4070D01*
X10376Y-4117D01*
X10367Y-4135D01*
X10357Y-4145D01*
X10339Y-4154D01*
X10282Y-4154D01*
X10263Y-4145D01*
X10254Y-4135D01*
X10442Y-3957D02*
X10564Y-3957D01*
X10498Y-4032D01*
X10526Y-4032D01*
X10545Y-4041D01*
X10554Y-4051D01*
X10564Y-4070D01*
X10564Y-4117D01*
X10554Y-4135D01*
X10545Y-4145D01*
X10526Y-4154D01*
X10470Y-4154D01*
X10451Y-4145D01*
X10442Y-4135D01*
X10686Y-3957D02*
X10704Y-3957D01*
X10723Y-3966D01*
X10733Y-3976D01*
X10742Y-3995D01*
X10751Y-4032D01*
X10751Y-4079D01*
X10742Y-4117D01*
X10733Y-4135D01*
X10723Y-4145D01*
X10704Y-4154D01*
X10686Y-4154D01*
X10667Y-4145D01*
X10657Y-4135D01*
X10648Y-4117D01*
X10639Y-4079D01*
X10639Y-4032D01*
X10648Y-3995D01*
X10657Y-3976D01*
X10667Y-3966D01*
X10686Y-3957D01*
X-12209Y-6886D02*
X-12274Y-6793D01*
X-12321Y-6886D02*
X-12321Y-6689D01*
X-12246Y-6689D01*
X-12228Y-6699D01*
X-12218Y-6708D01*
X-12209Y-6727D01*
X-12209Y-6755D01*
X-12218Y-6774D01*
X-12228Y-6783D01*
X-12246Y-6793D01*
X-12321Y-6793D01*
X-12143Y-6689D02*
X-12021Y-6689D01*
X-12087Y-6764D01*
X-12059Y-6764D01*
X-12040Y-6774D01*
X-12031Y-6783D01*
X-12021Y-6802D01*
X-12021Y-6849D01*
X-12031Y-6868D01*
X-12040Y-6877D01*
X-12059Y-6886D01*
X-12115Y-6886D01*
X-12134Y-6877D01*
X-12143Y-6868D01*
X-11843Y-6689D02*
X-11937Y-6689D01*
X-11946Y-6783D01*
X-11937Y-6774D01*
X-11918Y-6764D01*
X-11871Y-6764D01*
X-11852Y-6774D01*
X-11843Y-6783D01*
X-11834Y-6802D01*
X-11834Y-6849D01*
X-11843Y-6868D01*
X-11852Y-6877D01*
X-11871Y-6886D01*
X-11918Y-6886D01*
X-11937Y-6877D01*
X-11946Y-6868D01*
X-13068Y-6689D02*
X-12946Y-6689D01*
X-13011Y-6764D01*
X-12983Y-6764D01*
X-12965Y-6774D01*
X-12955Y-6783D01*
X-12946Y-6802D01*
X-12946Y-6849D01*
X-12955Y-6868D01*
X-12965Y-6877D01*
X-12983Y-6886D01*
X-13040Y-6886D01*
X-13058Y-6877D01*
X-13068Y-6868D01*
X-12880Y-6689D02*
X-12758Y-6689D01*
X-12824Y-6764D01*
X-12796Y-6764D01*
X-12777Y-6774D01*
X-12768Y-6783D01*
X-12758Y-6802D01*
X-12758Y-6849D01*
X-12768Y-6868D01*
X-12777Y-6877D01*
X-12796Y-6886D01*
X-12852Y-6886D01*
X-12871Y-6877D01*
X-12880Y-6868D01*
X-12636Y-6689D02*
X-12617Y-6689D01*
X-12599Y-6699D01*
X-12589Y-6708D01*
X-12580Y-6727D01*
X-12571Y-6764D01*
X-12571Y-6811D01*
X-12580Y-6849D01*
X-12589Y-6868D01*
X-12599Y-6877D01*
X-12617Y-6886D01*
X-12636Y-6886D01*
X-12655Y-6877D01*
X-12664Y-6868D01*
X-12674Y-6849D01*
X-12683Y-6811D01*
X-12683Y-6764D01*
X-12674Y-6727D01*
X-12664Y-6708D01*
X-12655Y-6699D01*
X-12636Y-6689D01*
X8276Y-3000D02*
X8182Y-3066D01*
X8276Y-3113D02*
X8079Y-3113D01*
X8079Y-3038D01*
X8088Y-3019D01*
X8098Y-3010D01*
X8117Y-3000D01*
X8145Y-3000D01*
X8164Y-3010D01*
X8173Y-3019D01*
X8182Y-3038D01*
X8182Y-3113D01*
X8276Y-2813D02*
X8276Y-2925D01*
X8276Y-2869D02*
X8079Y-2869D01*
X8107Y-2888D01*
X8126Y-2906D01*
X8135Y-2925D01*
X8276Y-2625D02*
X8276Y-2737D01*
X8276Y-2681D02*
X8079Y-2681D01*
X8107Y-2700D01*
X8126Y-2719D01*
X8135Y-2737D01*
X8087Y-3808D02*
X8087Y-3686D01*
X8162Y-3752D01*
X8162Y-3723D01*
X8171Y-3705D01*
X8181Y-3695D01*
X8200Y-3686D01*
X8246Y-3686D01*
X8265Y-3695D01*
X8275Y-3705D01*
X8284Y-3723D01*
X8284Y-3780D01*
X8275Y-3799D01*
X8265Y-3808D01*
X8087Y-3620D02*
X8087Y-3498D01*
X8162Y-3564D01*
X8162Y-3536D01*
X8171Y-3517D01*
X8181Y-3508D01*
X8200Y-3498D01*
X8246Y-3498D01*
X8265Y-3508D01*
X8275Y-3517D01*
X8284Y-3536D01*
X8284Y-3592D01*
X8275Y-3611D01*
X8265Y-3620D01*
X8087Y-3376D02*
X8087Y-3358D01*
X8096Y-3339D01*
X8106Y-3329D01*
X8124Y-3320D01*
X8162Y-3311D01*
X8209Y-3311D01*
X8246Y-3320D01*
X8265Y-3329D01*
X8275Y-3339D01*
X8284Y-3358D01*
X8284Y-3376D01*
X8275Y-3395D01*
X8265Y-3405D01*
X8246Y-3414D01*
X8209Y-3423D01*
X8162Y-3423D01*
X8124Y-3414D01*
X8106Y-3405D01*
X8096Y-3395D01*
X8087Y-3376D01*
X-6595Y-13697D02*
X-6660Y-13604D01*
X-6707Y-13697D02*
X-6707Y-13500D01*
X-6632Y-13500D01*
X-6613Y-13510D01*
X-6604Y-13519D01*
X-6595Y-13538D01*
X-6595Y-13566D01*
X-6604Y-13585D01*
X-6613Y-13594D01*
X-6632Y-13604D01*
X-6707Y-13604D01*
X-6529Y-13500D02*
X-6407Y-13500D01*
X-6473Y-13575D01*
X-6445Y-13575D01*
X-6426Y-13585D01*
X-6416Y-13594D01*
X-6407Y-13613D01*
X-6407Y-13660D01*
X-6416Y-13679D01*
X-6426Y-13688D01*
X-6445Y-13697D01*
X-6501Y-13697D01*
X-6520Y-13688D01*
X-6529Y-13679D01*
X-6341Y-13500D02*
X-6219Y-13500D01*
X-6285Y-13575D01*
X-6257Y-13575D01*
X-6238Y-13585D01*
X-6229Y-13594D01*
X-6219Y-13613D01*
X-6219Y-13660D01*
X-6229Y-13679D01*
X-6238Y-13688D01*
X-6257Y-13697D01*
X-6313Y-13697D01*
X-6332Y-13688D01*
X-6341Y-13679D01*
X-7414Y-13508D02*
X-7292Y-13508D01*
X-7358Y-13583D01*
X-7330Y-13583D01*
X-7311Y-13593D01*
X-7302Y-13602D01*
X-7292Y-13621D01*
X-7292Y-13668D01*
X-7302Y-13686D01*
X-7311Y-13696D01*
X-7330Y-13705D01*
X-7386Y-13705D01*
X-7405Y-13696D01*
X-7414Y-13686D01*
X-7227Y-13508D02*
X-7105Y-13508D01*
X-7170Y-13583D01*
X-7142Y-13583D01*
X-7123Y-13593D01*
X-7114Y-13602D01*
X-7105Y-13621D01*
X-7105Y-13668D01*
X-7114Y-13686D01*
X-7123Y-13696D01*
X-7142Y-13705D01*
X-7198Y-13705D01*
X-7217Y-13696D01*
X-7227Y-13686D01*
X-6983Y-13508D02*
X-6964Y-13508D01*
X-6945Y-13518D01*
X-6936Y-13527D01*
X-6926Y-13546D01*
X-6917Y-13583D01*
X-6917Y-13630D01*
X-6926Y-13668D01*
X-6936Y-13686D01*
X-6945Y-13696D01*
X-6964Y-13705D01*
X-6983Y-13705D01*
X-7001Y-13696D01*
X-7011Y-13686D01*
X-7020Y-13668D01*
X-7030Y-13630D01*
X-7030Y-13583D01*
X-7020Y-13546D01*
X-7011Y-13527D01*
X-7001Y-13518D01*
X-6983Y-13508D01*
X6393Y-2414D02*
X6327Y-2320D01*
X6280Y-2414D02*
X6280Y-2217D01*
X6355Y-2217D01*
X6374Y-2226D01*
X6383Y-2236D01*
X6393Y-2254D01*
X6393Y-2283D01*
X6383Y-2301D01*
X6374Y-2311D01*
X6355Y-2320D01*
X6280Y-2320D01*
X6580Y-2414D02*
X6468Y-2414D01*
X6524Y-2414D02*
X6524Y-2217D01*
X6505Y-2245D01*
X6486Y-2264D01*
X6468Y-2273D01*
X6749Y-2283D02*
X6749Y-2414D01*
X6702Y-2208D02*
X6655Y-2348D01*
X6777Y-2348D01*
X6254Y-3949D02*
X6376Y-3949D01*
X6310Y-4024D01*
X6339Y-4024D01*
X6357Y-4034D01*
X6367Y-4043D01*
X6376Y-4062D01*
X6376Y-4109D01*
X6367Y-4127D01*
X6357Y-4137D01*
X6339Y-4146D01*
X6282Y-4146D01*
X6263Y-4137D01*
X6254Y-4127D01*
X6442Y-3949D02*
X6564Y-3949D01*
X6498Y-4024D01*
X6526Y-4024D01*
X6545Y-4034D01*
X6554Y-4043D01*
X6564Y-4062D01*
X6564Y-4109D01*
X6554Y-4127D01*
X6545Y-4137D01*
X6526Y-4146D01*
X6470Y-4146D01*
X6451Y-4137D01*
X6442Y-4127D01*
X6686Y-3949D02*
X6704Y-3949D01*
X6723Y-3959D01*
X6733Y-3968D01*
X6742Y-3987D01*
X6751Y-4024D01*
X6751Y-4071D01*
X6742Y-4109D01*
X6733Y-4127D01*
X6723Y-4137D01*
X6704Y-4146D01*
X6686Y-4146D01*
X6667Y-4137D01*
X6657Y-4127D01*
X6648Y-4109D01*
X6639Y-4071D01*
X6639Y-4024D01*
X6648Y-3987D01*
X6657Y-3968D01*
X6667Y-3959D01*
X6686Y-3949D01*
X12280Y-3004D02*
X12186Y-3070D01*
X12280Y-3117D02*
X12083Y-3117D01*
X12083Y-3042D01*
X12092Y-3023D01*
X12102Y-3013D01*
X12121Y-3004D01*
X12149Y-3004D01*
X12167Y-3013D01*
X12177Y-3023D01*
X12186Y-3042D01*
X12186Y-3117D01*
X12102Y-2929D02*
X12092Y-2920D01*
X12083Y-2901D01*
X12083Y-2854D01*
X12092Y-2835D01*
X12102Y-2826D01*
X12121Y-2816D01*
X12139Y-2816D01*
X12167Y-2826D01*
X12280Y-2938D01*
X12280Y-2816D01*
X12083Y-2695D02*
X12083Y-2676D01*
X12092Y-2657D01*
X12102Y-2648D01*
X12121Y-2638D01*
X12158Y-2629D01*
X12205Y-2629D01*
X12243Y-2638D01*
X12261Y-2648D01*
X12271Y-2657D01*
X12280Y-2676D01*
X12280Y-2695D01*
X12271Y-2713D01*
X12261Y-2723D01*
X12243Y-2732D01*
X12205Y-2741D01*
X12158Y-2741D01*
X12121Y-2732D01*
X12102Y-2723D01*
X12092Y-2713D01*
X12083Y-2695D01*
X12095Y-3796D02*
X12095Y-3674D01*
X12170Y-3740D01*
X12170Y-3712D01*
X12179Y-3693D01*
X12189Y-3684D01*
X12207Y-3674D01*
X12254Y-3674D01*
X12273Y-3684D01*
X12282Y-3693D01*
X12292Y-3712D01*
X12292Y-3768D01*
X12282Y-3787D01*
X12273Y-3796D01*
X12095Y-3608D02*
X12095Y-3487D01*
X12170Y-3552D01*
X12170Y-3524D01*
X12179Y-3505D01*
X12189Y-3496D01*
X12207Y-3487D01*
X12254Y-3487D01*
X12273Y-3496D01*
X12282Y-3505D01*
X12292Y-3524D01*
X12292Y-3580D01*
X12282Y-3599D01*
X12273Y-3608D01*
X12095Y-3365D02*
X12095Y-3346D01*
X12104Y-3327D01*
X12114Y-3318D01*
X12132Y-3308D01*
X12170Y-3299D01*
X12217Y-3299D01*
X12254Y-3308D01*
X12273Y-3318D01*
X12282Y-3327D01*
X12292Y-3346D01*
X12292Y-3365D01*
X12282Y-3383D01*
X12273Y-3393D01*
X12254Y-3402D01*
X12217Y-3411D01*
X12170Y-3411D01*
X12132Y-3402D01*
X12114Y-3393D01*
X12104Y-3383D01*
X12095Y-3365D01*
X5024Y-2980D02*
X4930Y-3046D01*
X5024Y-3093D02*
X4827Y-3093D01*
X4827Y-3018D01*
X4837Y-2999D01*
X4846Y-2990D01*
X4865Y-2980D01*
X4893Y-2980D01*
X4912Y-2990D01*
X4921Y-2999D01*
X4930Y-3018D01*
X4930Y-3093D01*
X5024Y-2793D02*
X5024Y-2905D01*
X5024Y-2849D02*
X4827Y-2849D01*
X4855Y-2868D01*
X4874Y-2887D01*
X4883Y-2905D01*
X4827Y-2727D02*
X4827Y-2596D01*
X5024Y-2680D01*
X4827Y-3776D02*
X4827Y-3654D01*
X4902Y-3720D01*
X4902Y-3692D01*
X4912Y-3673D01*
X4921Y-3664D01*
X4940Y-3654D01*
X4987Y-3654D01*
X5005Y-3664D01*
X5015Y-3673D01*
X5024Y-3692D01*
X5024Y-3748D01*
X5015Y-3767D01*
X5005Y-3776D01*
X4827Y-3589D02*
X4827Y-3467D01*
X4902Y-3533D01*
X4902Y-3504D01*
X4912Y-3486D01*
X4921Y-3476D01*
X4940Y-3467D01*
X4987Y-3467D01*
X5005Y-3476D01*
X5015Y-3486D01*
X5024Y-3504D01*
X5024Y-3561D01*
X5015Y-3579D01*
X5005Y-3589D01*
X4827Y-3345D02*
X4827Y-3326D01*
X4837Y-3307D01*
X4846Y-3298D01*
X4865Y-3289D01*
X4902Y-3279D01*
X4949Y-3279D01*
X4987Y-3289D01*
X5005Y-3298D01*
X5015Y-3307D01*
X5024Y-3326D01*
X5024Y-3345D01*
X5015Y-3364D01*
X5005Y-3373D01*
X4987Y-3382D01*
X4949Y-3392D01*
X4902Y-3392D01*
X4865Y-3382D01*
X4846Y-3373D01*
X4837Y-3364D01*
X4827Y-3345D01*
X-12229Y-13729D02*
X-12294Y-13635D01*
X-12341Y-13729D02*
X-12341Y-13532D01*
X-12266Y-13532D01*
X-12247Y-13541D01*
X-12238Y-13551D01*
X-12229Y-13569D01*
X-12229Y-13598D01*
X-12238Y-13616D01*
X-12247Y-13626D01*
X-12266Y-13635D01*
X-12341Y-13635D01*
X-12163Y-13532D02*
X-12041Y-13532D01*
X-12107Y-13607D01*
X-12078Y-13607D01*
X-12060Y-13616D01*
X-12050Y-13626D01*
X-12041Y-13644D01*
X-12041Y-13691D01*
X-12050Y-13710D01*
X-12060Y-13719D01*
X-12078Y-13729D01*
X-12135Y-13729D01*
X-12153Y-13719D01*
X-12163Y-13710D01*
X-11872Y-13598D02*
X-11872Y-13729D01*
X-11919Y-13522D02*
X-11966Y-13663D01*
X-11844Y-13663D01*
X-13005Y-13528D02*
X-12883Y-13528D01*
X-12948Y-13603D01*
X-12920Y-13603D01*
X-12902Y-13612D01*
X-12892Y-13622D01*
X-12883Y-13640D01*
X-12883Y-13687D01*
X-12892Y-13706D01*
X-12902Y-13716D01*
X-12920Y-13725D01*
X-12977Y-13725D01*
X-12995Y-13716D01*
X-13005Y-13706D01*
X-12817Y-13528D02*
X-12695Y-13528D01*
X-12761Y-13603D01*
X-12733Y-13603D01*
X-12714Y-13612D01*
X-12705Y-13622D01*
X-12695Y-13640D01*
X-12695Y-13687D01*
X-12705Y-13706D01*
X-12714Y-13716D01*
X-12733Y-13725D01*
X-12789Y-13725D01*
X-12808Y-13716D01*
X-12817Y-13706D01*
X-12573Y-13528D02*
X-12554Y-13528D01*
X-12536Y-13537D01*
X-12526Y-13547D01*
X-12517Y-13565D01*
X-12508Y-13603D01*
X-12508Y-13650D01*
X-12517Y-13687D01*
X-12526Y-13706D01*
X-12536Y-13716D01*
X-12554Y-13725D01*
X-12573Y-13725D01*
X-12592Y-13716D01*
X-12601Y-13706D01*
X-12611Y-13687D01*
X-12620Y-13650D01*
X-12620Y-13603D01*
X-12611Y-13565D01*
X-12601Y-13547D01*
X-12592Y-13537D01*
X-12573Y-13528D01*
X-6551Y-6855D02*
X-6617Y-6761D01*
X-6664Y-6855D02*
X-6664Y-6658D01*
X-6589Y-6658D01*
X-6570Y-6667D01*
X-6561Y-6677D01*
X-6551Y-6695D01*
X-6551Y-6723D01*
X-6561Y-6742D01*
X-6570Y-6752D01*
X-6589Y-6761D01*
X-6664Y-6761D01*
X-6486Y-6658D02*
X-6364Y-6658D01*
X-6429Y-6733D01*
X-6401Y-6733D01*
X-6382Y-6742D01*
X-6373Y-6752D01*
X-6364Y-6770D01*
X-6364Y-6817D01*
X-6373Y-6836D01*
X-6382Y-6845D01*
X-6401Y-6855D01*
X-6458Y-6855D01*
X-6476Y-6845D01*
X-6486Y-6836D01*
X-6289Y-6677D02*
X-6279Y-6667D01*
X-6261Y-6658D01*
X-6214Y-6658D01*
X-6195Y-6667D01*
X-6185Y-6677D01*
X-6176Y-6695D01*
X-6176Y-6714D01*
X-6185Y-6742D01*
X-6298Y-6855D01*
X-6176Y-6855D01*
X-7406Y-6658D02*
X-7284Y-6658D01*
X-7350Y-6733D01*
X-7322Y-6733D01*
X-7303Y-6742D01*
X-7294Y-6752D01*
X-7284Y-6770D01*
X-7284Y-6817D01*
X-7294Y-6836D01*
X-7303Y-6845D01*
X-7322Y-6855D01*
X-7378Y-6855D01*
X-7397Y-6845D01*
X-7406Y-6836D01*
X-7219Y-6658D02*
X-7097Y-6658D01*
X-7162Y-6733D01*
X-7134Y-6733D01*
X-7116Y-6742D01*
X-7106Y-6752D01*
X-7097Y-6770D01*
X-7097Y-6817D01*
X-7106Y-6836D01*
X-7116Y-6845D01*
X-7134Y-6855D01*
X-7191Y-6855D01*
X-7209Y-6845D01*
X-7219Y-6836D01*
X-6975Y-6658D02*
X-6956Y-6658D01*
X-6937Y-6667D01*
X-6928Y-6677D01*
X-6919Y-6695D01*
X-6909Y-6733D01*
X-6909Y-6780D01*
X-6919Y-6817D01*
X-6928Y-6836D01*
X-6937Y-6845D01*
X-6956Y-6855D01*
X-6975Y-6855D01*
X-6994Y-6845D01*
X-7003Y-6836D01*
X-7012Y-6817D01*
X-7022Y-6780D01*
X-7022Y-6733D01*
X-7012Y-6695D01*
X-7003Y-6677D01*
X-6994Y-6667D01*
X-6975Y-6658D01*
X-20260Y-6843D02*
X-20326Y-6749D01*
X-20373Y-6843D02*
X-20373Y-6646D01*
X-20298Y-6646D01*
X-20279Y-6655D01*
X-20269Y-6665D01*
X-20260Y-6684D01*
X-20260Y-6712D01*
X-20269Y-6730D01*
X-20279Y-6740D01*
X-20298Y-6749D01*
X-20373Y-6749D01*
X-20194Y-6646D02*
X-20072Y-6646D01*
X-20138Y-6721D01*
X-20110Y-6721D01*
X-20091Y-6730D01*
X-20082Y-6740D01*
X-20072Y-6759D01*
X-20072Y-6805D01*
X-20082Y-6824D01*
X-20091Y-6834D01*
X-20110Y-6843D01*
X-20166Y-6843D01*
X-20185Y-6834D01*
X-20194Y-6824D01*
X-19885Y-6843D02*
X-19997Y-6843D01*
X-19941Y-6843D02*
X-19941Y-6646D01*
X-19960Y-6674D01*
X-19979Y-6693D01*
X-19997Y-6702D01*
X-21115Y-6646D02*
X-20993Y-6646D01*
X-21059Y-6721D01*
X-21031Y-6721D01*
X-21012Y-6730D01*
X-21002Y-6740D01*
X-20993Y-6759D01*
X-20993Y-6805D01*
X-21002Y-6824D01*
X-21012Y-6834D01*
X-21031Y-6843D01*
X-21087Y-6843D01*
X-21106Y-6834D01*
X-21115Y-6824D01*
X-20927Y-6646D02*
X-20805Y-6646D01*
X-20871Y-6721D01*
X-20843Y-6721D01*
X-20824Y-6730D01*
X-20815Y-6740D01*
X-20805Y-6759D01*
X-20805Y-6805D01*
X-20815Y-6824D01*
X-20824Y-6834D01*
X-20843Y-6843D01*
X-20899Y-6843D01*
X-20918Y-6834D01*
X-20927Y-6824D01*
X-20683Y-6646D02*
X-20665Y-6646D01*
X-20646Y-6655D01*
X-20637Y-6665D01*
X-20627Y-6684D01*
X-20618Y-6721D01*
X-20618Y-6768D01*
X-20627Y-6805D01*
X-20637Y-6824D01*
X-20646Y-6834D01*
X-20665Y-6843D01*
X-20683Y-6843D01*
X-20702Y-6834D01*
X-20712Y-6824D01*
X-20721Y-6805D01*
X-20730Y-6768D01*
X-20730Y-6721D01*
X-20721Y-6684D01*
X-20712Y-6665D01*
X-20702Y-6655D01*
X-20683Y-6646D01*
X-20256Y-13749D02*
X-20322Y-13655D01*
X-20369Y-13749D02*
X-20369Y-13552D01*
X-20294Y-13552D01*
X-20275Y-13561D01*
X-20265Y-13570D01*
X-20256Y-13589D01*
X-20256Y-13617D01*
X-20265Y-13636D01*
X-20275Y-13645D01*
X-20294Y-13655D01*
X-20369Y-13655D01*
X-20190Y-13552D02*
X-20068Y-13552D01*
X-20134Y-13627D01*
X-20106Y-13627D01*
X-20087Y-13636D01*
X-20078Y-13645D01*
X-20068Y-13664D01*
X-20068Y-13711D01*
X-20078Y-13730D01*
X-20087Y-13739D01*
X-20106Y-13749D01*
X-20162Y-13749D01*
X-20181Y-13739D01*
X-20190Y-13730D01*
X-19946Y-13552D02*
X-19928Y-13552D01*
X-19909Y-13561D01*
X-19900Y-13570D01*
X-19890Y-13589D01*
X-19881Y-13627D01*
X-19881Y-13673D01*
X-19890Y-13711D01*
X-19900Y-13730D01*
X-19909Y-13739D01*
X-19928Y-13749D01*
X-19946Y-13749D01*
X-19965Y-13739D01*
X-19975Y-13730D01*
X-19984Y-13711D01*
X-19993Y-13673D01*
X-19993Y-13627D01*
X-19984Y-13589D01*
X-19975Y-13570D01*
X-19965Y-13561D01*
X-19946Y-13552D01*
X-21083Y-13559D02*
X-20962Y-13559D01*
X-21027Y-13634D01*
X-20999Y-13634D01*
X-20980Y-13644D01*
X-20971Y-13653D01*
X-20962Y-13672D01*
X-20962Y-13719D01*
X-20971Y-13738D01*
X-20980Y-13747D01*
X-20999Y-13756D01*
X-21055Y-13756D01*
X-21074Y-13747D01*
X-21083Y-13738D01*
X-20896Y-13559D02*
X-20774Y-13559D01*
X-20840Y-13634D01*
X-20811Y-13634D01*
X-20793Y-13644D01*
X-20783Y-13653D01*
X-20774Y-13672D01*
X-20774Y-13719D01*
X-20783Y-13738D01*
X-20793Y-13747D01*
X-20811Y-13756D01*
X-20868Y-13756D01*
X-20886Y-13747D01*
X-20896Y-13738D01*
X-20652Y-13559D02*
X-20633Y-13559D01*
X-20614Y-13569D01*
X-20605Y-13578D01*
X-20596Y-13597D01*
X-20586Y-13634D01*
X-20586Y-13681D01*
X-20596Y-13719D01*
X-20605Y-13738D01*
X-20614Y-13747D01*
X-20633Y-13756D01*
X-20652Y-13756D01*
X-20671Y-13747D01*
X-20680Y-13738D01*
X-20689Y-13719D01*
X-20699Y-13681D01*
X-20699Y-13634D01*
X-20689Y-13597D01*
X-20680Y-13578D01*
X-20671Y-13569D01*
X-20652Y-13559D01*
X4233Y-2839D02*
X4139Y-2905D01*
X4233Y-2952D02*
X4036Y-2952D01*
X4036Y-2877D01*
X4045Y-2858D01*
X4055Y-2849D01*
X4073Y-2839D01*
X4101Y-2839D01*
X4120Y-2849D01*
X4130Y-2858D01*
X4139Y-2877D01*
X4139Y-2952D01*
X4055Y-2764D02*
X4045Y-2755D01*
X4036Y-2736D01*
X4036Y-2689D01*
X4045Y-2671D01*
X4055Y-2661D01*
X4073Y-2652D01*
X4092Y-2652D01*
X4120Y-2661D01*
X4233Y-2774D01*
X4233Y-2652D01*
X4052Y-3757D02*
X4052Y-3635D01*
X4127Y-3700D01*
X4127Y-3672D01*
X4136Y-3654D01*
X4145Y-3644D01*
X4164Y-3635D01*
X4211Y-3635D01*
X4230Y-3644D01*
X4239Y-3654D01*
X4249Y-3672D01*
X4249Y-3729D01*
X4239Y-3747D01*
X4230Y-3757D01*
X4052Y-3569D02*
X4052Y-3447D01*
X4127Y-3513D01*
X4127Y-3485D01*
X4136Y-3466D01*
X4145Y-3457D01*
X4164Y-3447D01*
X4211Y-3447D01*
X4230Y-3457D01*
X4239Y-3466D01*
X4249Y-3485D01*
X4249Y-3541D01*
X4239Y-3560D01*
X4230Y-3569D01*
X4052Y-3325D02*
X4052Y-3306D01*
X4061Y-3288D01*
X4070Y-3278D01*
X4089Y-3269D01*
X4127Y-3260D01*
X4173Y-3260D01*
X4211Y-3269D01*
X4230Y-3278D01*
X4239Y-3288D01*
X4249Y-3306D01*
X4249Y-3325D01*
X4239Y-3344D01*
X4230Y-3353D01*
X4211Y-3363D01*
X4173Y-3372D01*
X4127Y-3372D01*
X4089Y-3363D01*
X4070Y-3353D01*
X4061Y-3344D01*
X4052Y-3325D01*
X-14666Y-13693D02*
X-14731Y-13600D01*
X-14778Y-13693D02*
X-14778Y-13496D01*
X-14703Y-13496D01*
X-14684Y-13506D01*
X-14675Y-13515D01*
X-14666Y-13534D01*
X-14666Y-13562D01*
X-14675Y-13581D01*
X-14684Y-13590D01*
X-14703Y-13600D01*
X-14778Y-13600D01*
X-14590Y-13515D02*
X-14581Y-13506D01*
X-14562Y-13496D01*
X-14515Y-13496D01*
X-14497Y-13506D01*
X-14487Y-13515D01*
X-14478Y-13534D01*
X-14478Y-13553D01*
X-14487Y-13581D01*
X-14600Y-13693D01*
X-14478Y-13693D01*
X-14384Y-13693D02*
X-14347Y-13693D01*
X-14328Y-13684D01*
X-14318Y-13675D01*
X-14300Y-13647D01*
X-14290Y-13609D01*
X-14290Y-13534D01*
X-14300Y-13515D01*
X-14309Y-13506D01*
X-14328Y-13496D01*
X-14365Y-13496D01*
X-14384Y-13506D01*
X-14393Y-13515D01*
X-14403Y-13534D01*
X-14403Y-13581D01*
X-14393Y-13600D01*
X-14384Y-13609D01*
X-14365Y-13618D01*
X-14328Y-13618D01*
X-14309Y-13609D01*
X-14300Y-13600D01*
X-14290Y-13581D01*
X-15438Y-13489D02*
X-15316Y-13489D01*
X-15382Y-13564D01*
X-15353Y-13564D01*
X-15335Y-13573D01*
X-15325Y-13582D01*
X-15316Y-13601D01*
X-15316Y-13648D01*
X-15325Y-13667D01*
X-15335Y-13676D01*
X-15353Y-13686D01*
X-15410Y-13686D01*
X-15428Y-13676D01*
X-15438Y-13667D01*
X-15250Y-13489D02*
X-15128Y-13489D01*
X-15194Y-13564D01*
X-15166Y-13564D01*
X-15147Y-13573D01*
X-15138Y-13582D01*
X-15128Y-13601D01*
X-15128Y-13648D01*
X-15138Y-13667D01*
X-15147Y-13676D01*
X-15166Y-13686D01*
X-15222Y-13686D01*
X-15241Y-13676D01*
X-15250Y-13667D01*
X-15006Y-13489D02*
X-14988Y-13489D01*
X-14969Y-13498D01*
X-14959Y-13507D01*
X-14950Y-13526D01*
X-14941Y-13564D01*
X-14941Y-13610D01*
X-14950Y-13648D01*
X-14959Y-13667D01*
X-14969Y-13676D01*
X-14988Y-13686D01*
X-15006Y-13686D01*
X-15025Y-13676D01*
X-15034Y-13667D01*
X-15044Y-13648D01*
X-15053Y-13610D01*
X-15053Y-13564D01*
X-15044Y-13526D01*
X-15034Y-13507D01*
X-15025Y-13498D01*
X-15006Y-13489D01*
X-14563Y-6894D02*
X-14629Y-6800D01*
X-14676Y-6894D02*
X-14676Y-6697D01*
X-14601Y-6697D01*
X-14582Y-6707D01*
X-14573Y-6716D01*
X-14563Y-6735D01*
X-14563Y-6763D01*
X-14573Y-6782D01*
X-14582Y-6791D01*
X-14601Y-6800D01*
X-14676Y-6800D01*
X-14488Y-6716D02*
X-14479Y-6707D01*
X-14460Y-6697D01*
X-14413Y-6697D01*
X-14394Y-6707D01*
X-14385Y-6716D01*
X-14376Y-6735D01*
X-14376Y-6753D01*
X-14385Y-6782D01*
X-14497Y-6894D01*
X-14376Y-6894D01*
X-14263Y-6782D02*
X-14282Y-6772D01*
X-14291Y-6763D01*
X-14300Y-6744D01*
X-14300Y-6735D01*
X-14291Y-6716D01*
X-14282Y-6707D01*
X-14263Y-6697D01*
X-14225Y-6697D01*
X-14207Y-6707D01*
X-14197Y-6716D01*
X-14188Y-6735D01*
X-14188Y-6744D01*
X-14197Y-6763D01*
X-14207Y-6772D01*
X-14225Y-6782D01*
X-14263Y-6782D01*
X-14282Y-6791D01*
X-14291Y-6800D01*
X-14300Y-6819D01*
X-14300Y-6857D01*
X-14291Y-6875D01*
X-14282Y-6885D01*
X-14263Y-6894D01*
X-14225Y-6894D01*
X-14207Y-6885D01*
X-14197Y-6875D01*
X-14188Y-6857D01*
X-14188Y-6819D01*
X-14197Y-6800D01*
X-14207Y-6791D01*
X-14225Y-6782D01*
X-15430Y-6697D02*
X-15308Y-6697D01*
X-15374Y-6772D01*
X-15346Y-6772D01*
X-15327Y-6782D01*
X-15317Y-6791D01*
X-15308Y-6810D01*
X-15308Y-6857D01*
X-15317Y-6875D01*
X-15327Y-6885D01*
X-15346Y-6894D01*
X-15402Y-6894D01*
X-15421Y-6885D01*
X-15430Y-6875D01*
X-15242Y-6697D02*
X-15120Y-6697D01*
X-15186Y-6772D01*
X-15158Y-6772D01*
X-15139Y-6782D01*
X-15130Y-6791D01*
X-15120Y-6810D01*
X-15120Y-6857D01*
X-15130Y-6875D01*
X-15139Y-6885D01*
X-15158Y-6894D01*
X-15214Y-6894D01*
X-15233Y-6885D01*
X-15242Y-6875D01*
X-14998Y-6697D02*
X-14980Y-6697D01*
X-14961Y-6707D01*
X-14952Y-6716D01*
X-14942Y-6735D01*
X-14933Y-6772D01*
X-14933Y-6819D01*
X-14942Y-6857D01*
X-14952Y-6875D01*
X-14961Y-6885D01*
X-14980Y-6894D01*
X-14998Y-6894D01*
X-15017Y-6885D01*
X-15027Y-6875D01*
X-15036Y-6857D01*
X-15045Y-6819D01*
X-15045Y-6772D01*
X-15036Y-6735D01*
X-15027Y-6716D01*
X-15017Y-6707D01*
X-14998Y-6697D01*
X2494Y-2386D02*
X2429Y-2293D01*
X2382Y-2386D02*
X2382Y-2189D01*
X2457Y-2189D01*
X2475Y-2199D01*
X2485Y-2208D01*
X2494Y-2227D01*
X2494Y-2255D01*
X2485Y-2274D01*
X2475Y-2283D01*
X2457Y-2293D01*
X2382Y-2293D01*
X2672Y-2189D02*
X2579Y-2189D01*
X2569Y-2283D01*
X2579Y-2274D01*
X2597Y-2264D01*
X2644Y-2264D01*
X2663Y-2274D01*
X2672Y-2283D01*
X2682Y-2302D01*
X2682Y-2349D01*
X2672Y-2368D01*
X2663Y-2377D01*
X2644Y-2386D01*
X2597Y-2386D01*
X2579Y-2377D01*
X2569Y-2368D01*
X2305Y-3996D02*
X2427Y-3996D01*
X2362Y-4071D01*
X2390Y-4071D01*
X2408Y-4081D01*
X2418Y-4090D01*
X2427Y-4109D01*
X2427Y-4156D01*
X2418Y-4175D01*
X2408Y-4184D01*
X2390Y-4193D01*
X2333Y-4193D01*
X2315Y-4184D01*
X2305Y-4175D01*
X2493Y-3996D02*
X2615Y-3996D01*
X2549Y-4071D01*
X2577Y-4071D01*
X2596Y-4081D01*
X2605Y-4090D01*
X2615Y-4109D01*
X2615Y-4156D01*
X2605Y-4175D01*
X2596Y-4184D01*
X2577Y-4193D01*
X2521Y-4193D01*
X2502Y-4184D01*
X2493Y-4175D01*
X2737Y-3996D02*
X2756Y-3996D01*
X2774Y-4006D01*
X2784Y-4015D01*
X2793Y-4034D01*
X2802Y-4071D01*
X2802Y-4118D01*
X2793Y-4156D01*
X2784Y-4175D01*
X2774Y-4184D01*
X2756Y-4193D01*
X2737Y-4193D01*
X2718Y-4184D01*
X2709Y-4175D01*
X2699Y-4156D01*
X2690Y-4118D01*
X2690Y-4071D01*
X2699Y-4034D01*
X2709Y-4015D01*
X2718Y-4006D01*
X2737Y-3996D01*
X8941Y-3016D02*
X8848Y-3082D01*
X8941Y-3128D02*
X8744Y-3128D01*
X8744Y-3053D01*
X8754Y-3035D01*
X8763Y-3025D01*
X8782Y-3016D01*
X8810Y-3016D01*
X8829Y-3025D01*
X8838Y-3035D01*
X8848Y-3053D01*
X8848Y-3128D01*
X8763Y-2941D02*
X8754Y-2931D01*
X8744Y-2913D01*
X8744Y-2866D01*
X8754Y-2847D01*
X8763Y-2838D01*
X8782Y-2828D01*
X8801Y-2828D01*
X8829Y-2838D01*
X8941Y-2950D01*
X8941Y-2828D01*
X8744Y-2659D02*
X8744Y-2697D01*
X8754Y-2716D01*
X8763Y-2725D01*
X8791Y-2744D01*
X8829Y-2753D01*
X8904Y-2753D01*
X8923Y-2744D01*
X8932Y-2734D01*
X8941Y-2716D01*
X8941Y-2678D01*
X8932Y-2659D01*
X8923Y-2650D01*
X8904Y-2641D01*
X8857Y-2641D01*
X8838Y-2650D01*
X8829Y-2659D01*
X8819Y-2678D01*
X8819Y-2716D01*
X8829Y-2734D01*
X8838Y-2744D01*
X8857Y-2753D01*
X8756Y-3804D02*
X8756Y-3682D01*
X8831Y-3748D01*
X8831Y-3720D01*
X8841Y-3701D01*
X8850Y-3691D01*
X8869Y-3682D01*
X8916Y-3682D01*
X8934Y-3691D01*
X8944Y-3701D01*
X8953Y-3720D01*
X8953Y-3776D01*
X8944Y-3795D01*
X8934Y-3804D01*
X8756Y-3616D02*
X8756Y-3494D01*
X8831Y-3560D01*
X8831Y-3532D01*
X8841Y-3513D01*
X8850Y-3504D01*
X8869Y-3494D01*
X8916Y-3494D01*
X8934Y-3504D01*
X8944Y-3513D01*
X8953Y-3532D01*
X8953Y-3588D01*
X8944Y-3607D01*
X8934Y-3616D01*
X8756Y-3372D02*
X8756Y-3354D01*
X8766Y-3335D01*
X8775Y-3326D01*
X8794Y-3316D01*
X8831Y-3307D01*
X8878Y-3307D01*
X8916Y-3316D01*
X8934Y-3326D01*
X8944Y-3335D01*
X8953Y-3354D01*
X8953Y-3372D01*
X8944Y-3391D01*
X8934Y-3401D01*
X8916Y-3410D01*
X8878Y-3419D01*
X8831Y-3419D01*
X8794Y-3410D01*
X8775Y-3401D01*
X8766Y-3391D01*
X8756Y-3372D01*
X1898Y-14516D02*
X1804Y-14582D01*
X1898Y-14628D02*
X1701Y-14628D01*
X1701Y-14553D01*
X1711Y-14535D01*
X1720Y-14525D01*
X1739Y-14516D01*
X1767Y-14516D01*
X1786Y-14525D01*
X1795Y-14535D01*
X1804Y-14553D01*
X1804Y-14628D01*
X1898Y-14328D02*
X1898Y-14441D01*
X1898Y-14385D02*
X1701Y-14385D01*
X1729Y-14403D01*
X1748Y-14422D01*
X1757Y-14441D01*
X1701Y-14206D02*
X1701Y-14188D01*
X1711Y-14169D01*
X1720Y-14159D01*
X1739Y-14150D01*
X1776Y-14141D01*
X1823Y-14141D01*
X1861Y-14150D01*
X1879Y-14159D01*
X1889Y-14169D01*
X1898Y-14188D01*
X1898Y-14206D01*
X1889Y-14225D01*
X1879Y-14234D01*
X1861Y-14244D01*
X1823Y-14253D01*
X1776Y-14253D01*
X1739Y-14244D01*
X1720Y-14234D01*
X1711Y-14225D01*
X1701Y-14206D01*
X1709Y-15296D02*
X1709Y-15174D01*
X1784Y-15240D01*
X1784Y-15212D01*
X1793Y-15193D01*
X1803Y-15184D01*
X1822Y-15174D01*
X1868Y-15174D01*
X1887Y-15184D01*
X1897Y-15193D01*
X1906Y-15212D01*
X1906Y-15268D01*
X1897Y-15287D01*
X1887Y-15296D01*
X1709Y-15108D02*
X1709Y-14987D01*
X1784Y-15052D01*
X1784Y-15024D01*
X1793Y-15005D01*
X1803Y-14996D01*
X1822Y-14987D01*
X1868Y-14987D01*
X1887Y-14996D01*
X1897Y-15005D01*
X1906Y-15024D01*
X1906Y-15080D01*
X1897Y-15099D01*
X1887Y-15108D01*
X1709Y-14865D02*
X1709Y-14846D01*
X1718Y-14827D01*
X1728Y-14818D01*
X1747Y-14808D01*
X1784Y-14799D01*
X1831Y-14799D01*
X1868Y-14808D01*
X1887Y-14818D01*
X1897Y-14827D01*
X1906Y-14846D01*
X1906Y-14865D01*
X1897Y-14883D01*
X1887Y-14893D01*
X1868Y-14902D01*
X1831Y-14911D01*
X1784Y-14911D01*
X1747Y-14902D01*
X1728Y-14893D01*
X1718Y-14883D01*
X1709Y-14865D01*
X3938Y-14469D02*
X3844Y-14534D01*
X3938Y-14581D02*
X3741Y-14581D01*
X3741Y-14506D01*
X3750Y-14487D01*
X3759Y-14478D01*
X3778Y-14469D01*
X3806Y-14469D01*
X3825Y-14478D01*
X3834Y-14487D01*
X3844Y-14506D01*
X3844Y-14581D01*
X3938Y-14281D02*
X3938Y-14394D01*
X3938Y-14337D02*
X3741Y-14337D01*
X3769Y-14356D01*
X3787Y-14375D01*
X3797Y-14394D01*
X3741Y-14215D02*
X3741Y-14093D01*
X3816Y-14159D01*
X3816Y-14131D01*
X3825Y-14112D01*
X3834Y-14103D01*
X3853Y-14093D01*
X3900Y-14093D01*
X3919Y-14103D01*
X3928Y-14112D01*
X3938Y-14131D01*
X3938Y-14187D01*
X3928Y-14206D01*
X3919Y-14215D01*
X3729Y-15272D02*
X3729Y-15151D01*
X3804Y-15216D01*
X3804Y-15188D01*
X3813Y-15169D01*
X3823Y-15160D01*
X3841Y-15151D01*
X3888Y-15151D01*
X3907Y-15160D01*
X3916Y-15169D01*
X3926Y-15188D01*
X3926Y-15244D01*
X3916Y-15263D01*
X3907Y-15272D01*
X3729Y-15085D02*
X3729Y-14963D01*
X3804Y-15029D01*
X3804Y-15000D01*
X3813Y-14982D01*
X3823Y-14972D01*
X3841Y-14963D01*
X3888Y-14963D01*
X3907Y-14972D01*
X3916Y-14982D01*
X3926Y-15000D01*
X3926Y-15057D01*
X3916Y-15075D01*
X3907Y-15085D01*
X3729Y-14841D02*
X3729Y-14822D01*
X3738Y-14803D01*
X3747Y-14794D01*
X3766Y-14785D01*
X3804Y-14775D01*
X3851Y-14775D01*
X3888Y-14785D01*
X3907Y-14794D01*
X3916Y-14803D01*
X3926Y-14822D01*
X3926Y-14841D01*
X3916Y-14860D01*
X3907Y-14869D01*
X3888Y-14878D01*
X3851Y-14888D01*
X3804Y-14888D01*
X3766Y-14878D01*
X3747Y-14869D01*
X3738Y-14860D01*
X3729Y-14841D01*
X13044Y-14551D02*
X12950Y-14617D01*
X13044Y-14664D02*
X12847Y-14664D01*
X12847Y-14589D01*
X12856Y-14570D01*
X12866Y-14561D01*
X12884Y-14551D01*
X12912Y-14551D01*
X12931Y-14561D01*
X12941Y-14570D01*
X12950Y-14589D01*
X12950Y-14664D01*
X12866Y-14476D02*
X12856Y-14467D01*
X12847Y-14448D01*
X12847Y-14401D01*
X12856Y-14382D01*
X12866Y-14373D01*
X12884Y-14364D01*
X12903Y-14364D01*
X12931Y-14373D01*
X13044Y-14486D01*
X13044Y-14364D01*
X12847Y-14185D02*
X12847Y-14279D01*
X12941Y-14289D01*
X12931Y-14279D01*
X12922Y-14261D01*
X12922Y-14214D01*
X12931Y-14195D01*
X12941Y-14185D01*
X12959Y-14176D01*
X13006Y-14176D01*
X13025Y-14185D01*
X13034Y-14195D01*
X13044Y-14214D01*
X13044Y-14261D01*
X13034Y-14279D01*
X13025Y-14289D01*
X12851Y-15347D02*
X12851Y-15225D01*
X12926Y-15291D01*
X12926Y-15263D01*
X12935Y-15244D01*
X12945Y-15235D01*
X12963Y-15225D01*
X13010Y-15225D01*
X13029Y-15235D01*
X13038Y-15244D01*
X13048Y-15263D01*
X13048Y-15319D01*
X13038Y-15338D01*
X13029Y-15347D01*
X12851Y-15160D02*
X12851Y-15038D01*
X12926Y-15103D01*
X12926Y-15075D01*
X12935Y-15056D01*
X12945Y-15047D01*
X12963Y-15038D01*
X13010Y-15038D01*
X13029Y-15047D01*
X13038Y-15056D01*
X13048Y-15075D01*
X13048Y-15132D01*
X13038Y-15150D01*
X13029Y-15160D01*
X12851Y-14916D02*
X12851Y-14897D01*
X12860Y-14878D01*
X12870Y-14869D01*
X12888Y-14859D01*
X12926Y-14850D01*
X12973Y-14850D01*
X13010Y-14859D01*
X13029Y-14869D01*
X13038Y-14878D01*
X13048Y-14897D01*
X13048Y-14916D01*
X13038Y-14935D01*
X13029Y-14944D01*
X13010Y-14953D01*
X12973Y-14963D01*
X12926Y-14963D01*
X12888Y-14953D01*
X12870Y-14944D01*
X12860Y-14935D01*
X12851Y-14916D01*
X11562Y-13934D02*
X11496Y-13840D01*
X11449Y-13934D02*
X11449Y-13737D01*
X11524Y-13737D01*
X11543Y-13746D01*
X11552Y-13755D01*
X11562Y-13774D01*
X11562Y-13802D01*
X11552Y-13821D01*
X11543Y-13830D01*
X11524Y-13840D01*
X11449Y-13840D01*
X11637Y-13755D02*
X11646Y-13746D01*
X11665Y-13737D01*
X11712Y-13737D01*
X11731Y-13746D01*
X11740Y-13755D01*
X11749Y-13774D01*
X11749Y-13793D01*
X11740Y-13821D01*
X11628Y-13934D01*
X11749Y-13934D01*
X11825Y-13755D02*
X11834Y-13746D01*
X11853Y-13737D01*
X11900Y-13737D01*
X11918Y-13746D01*
X11928Y-13755D01*
X11937Y-13774D01*
X11937Y-13793D01*
X11928Y-13821D01*
X11815Y-13934D01*
X11937Y-13934D01*
X10754Y-13729D02*
X10876Y-13729D01*
X10810Y-13804D01*
X10839Y-13804D01*
X10857Y-13813D01*
X10867Y-13823D01*
X10876Y-13841D01*
X10876Y-13888D01*
X10867Y-13907D01*
X10857Y-13916D01*
X10839Y-13926D01*
X10782Y-13926D01*
X10763Y-13916D01*
X10754Y-13907D01*
X10942Y-13729D02*
X11064Y-13729D01*
X10998Y-13804D01*
X11026Y-13804D01*
X11045Y-13813D01*
X11054Y-13823D01*
X11064Y-13841D01*
X11064Y-13888D01*
X11054Y-13907D01*
X11045Y-13916D01*
X11026Y-13926D01*
X10970Y-13926D01*
X10951Y-13916D01*
X10942Y-13907D01*
X11186Y-13729D02*
X11204Y-13729D01*
X11223Y-13738D01*
X11233Y-13747D01*
X11242Y-13766D01*
X11251Y-13804D01*
X11251Y-13851D01*
X11242Y-13888D01*
X11233Y-13907D01*
X11223Y-13916D01*
X11204Y-13926D01*
X11186Y-13926D01*
X11167Y-13916D01*
X11157Y-13907D01*
X11148Y-13888D01*
X11139Y-13851D01*
X11139Y-13804D01*
X11148Y-13766D01*
X11157Y-13747D01*
X11167Y-13738D01*
X11186Y-13729D01*
X5934Y-14516D02*
X5840Y-14582D01*
X5934Y-14628D02*
X5737Y-14628D01*
X5737Y-14553D01*
X5746Y-14535D01*
X5755Y-14525D01*
X5774Y-14516D01*
X5802Y-14516D01*
X5821Y-14525D01*
X5830Y-14535D01*
X5840Y-14553D01*
X5840Y-14628D01*
X5934Y-14328D02*
X5934Y-14441D01*
X5934Y-14385D02*
X5737Y-14385D01*
X5765Y-14403D01*
X5783Y-14422D01*
X5793Y-14441D01*
X5737Y-14159D02*
X5737Y-14197D01*
X5746Y-14216D01*
X5755Y-14225D01*
X5783Y-14244D01*
X5821Y-14253D01*
X5896Y-14253D01*
X5915Y-14244D01*
X5924Y-14234D01*
X5934Y-14216D01*
X5934Y-14178D01*
X5924Y-14159D01*
X5915Y-14150D01*
X5896Y-14141D01*
X5849Y-14141D01*
X5830Y-14150D01*
X5821Y-14159D01*
X5812Y-14178D01*
X5812Y-14216D01*
X5821Y-14234D01*
X5830Y-14244D01*
X5849Y-14253D01*
X5760Y-15371D02*
X5760Y-15249D01*
X5835Y-15315D01*
X5835Y-15286D01*
X5845Y-15268D01*
X5854Y-15258D01*
X5873Y-15249D01*
X5920Y-15249D01*
X5938Y-15258D01*
X5948Y-15268D01*
X5957Y-15286D01*
X5957Y-15343D01*
X5948Y-15362D01*
X5938Y-15371D01*
X5760Y-15183D02*
X5760Y-15061D01*
X5835Y-15127D01*
X5835Y-15099D01*
X5845Y-15080D01*
X5854Y-15071D01*
X5873Y-15061D01*
X5920Y-15061D01*
X5938Y-15071D01*
X5948Y-15080D01*
X5957Y-15099D01*
X5957Y-15155D01*
X5948Y-15174D01*
X5938Y-15183D01*
X5760Y-14939D02*
X5760Y-14921D01*
X5770Y-14902D01*
X5779Y-14892D01*
X5798Y-14883D01*
X5835Y-14874D01*
X5882Y-14874D01*
X5920Y-14883D01*
X5938Y-14892D01*
X5948Y-14902D01*
X5957Y-14921D01*
X5957Y-14939D01*
X5948Y-14958D01*
X5938Y-14968D01*
X5920Y-14977D01*
X5882Y-14986D01*
X5835Y-14986D01*
X5798Y-14977D01*
X5779Y-14968D01*
X5770Y-14958D01*
X5760Y-14939D01*
X7656Y-13945D02*
X7591Y-13852D01*
X7544Y-13945D02*
X7544Y-13748D01*
X7619Y-13748D01*
X7638Y-13758D01*
X7647Y-13767D01*
X7656Y-13786D01*
X7656Y-13814D01*
X7647Y-13833D01*
X7638Y-13842D01*
X7619Y-13852D01*
X7544Y-13852D01*
X7844Y-13945D02*
X7731Y-13945D01*
X7788Y-13945D02*
X7788Y-13748D01*
X7769Y-13777D01*
X7750Y-13795D01*
X7731Y-13805D01*
X7938Y-13945D02*
X7975Y-13945D01*
X7994Y-13936D01*
X8003Y-13927D01*
X8022Y-13898D01*
X8032Y-13861D01*
X8032Y-13786D01*
X8022Y-13767D01*
X8013Y-13758D01*
X7994Y-13748D01*
X7957Y-13748D01*
X7938Y-13758D01*
X7928Y-13767D01*
X7919Y-13786D01*
X7919Y-13833D01*
X7928Y-13852D01*
X7938Y-13861D01*
X7957Y-13870D01*
X7994Y-13870D01*
X8013Y-13861D01*
X8022Y-13852D01*
X8032Y-13833D01*
X6888Y-13744D02*
X7010Y-13744D01*
X6944Y-13819D01*
X6972Y-13819D01*
X6991Y-13829D01*
X7001Y-13838D01*
X7010Y-13857D01*
X7010Y-13904D01*
X7001Y-13923D01*
X6991Y-13932D01*
X6972Y-13941D01*
X6916Y-13941D01*
X6897Y-13932D01*
X6888Y-13923D01*
X7076Y-13744D02*
X7198Y-13744D01*
X7132Y-13819D01*
X7160Y-13819D01*
X7179Y-13829D01*
X7188Y-13838D01*
X7198Y-13857D01*
X7198Y-13904D01*
X7188Y-13923D01*
X7179Y-13932D01*
X7160Y-13941D01*
X7104Y-13941D01*
X7085Y-13932D01*
X7076Y-13923D01*
X7319Y-13744D02*
X7338Y-13744D01*
X7357Y-13754D01*
X7366Y-13763D01*
X7376Y-13782D01*
X7385Y-13819D01*
X7385Y-13866D01*
X7376Y-13904D01*
X7366Y-13923D01*
X7357Y-13932D01*
X7338Y-13941D01*
X7319Y-13941D01*
X7301Y-13932D01*
X7291Y-13923D01*
X7282Y-13904D01*
X7273Y-13866D01*
X7273Y-13819D01*
X7282Y-13782D01*
X7291Y-13763D01*
X7301Y-13754D01*
X7319Y-13744D01*
X-4113Y-14387D02*
X-4206Y-14452D01*
X-4113Y-14499D02*
X-4310Y-14499D01*
X-4310Y-14424D01*
X-4300Y-14405D01*
X-4291Y-14396D01*
X-4272Y-14387D01*
X-4244Y-14387D01*
X-4225Y-14396D01*
X-4216Y-14405D01*
X-4206Y-14424D01*
X-4206Y-14499D01*
X-4113Y-14199D02*
X-4113Y-14312D01*
X-4113Y-14255D02*
X-4310Y-14255D01*
X-4282Y-14274D01*
X-4263Y-14293D01*
X-4253Y-14312D01*
X-4310Y-15245D02*
X-4310Y-15123D01*
X-4235Y-15189D01*
X-4235Y-15160D01*
X-4225Y-15142D01*
X-4216Y-15132D01*
X-4197Y-15123D01*
X-4150Y-15123D01*
X-4131Y-15132D01*
X-4122Y-15142D01*
X-4113Y-15160D01*
X-4113Y-15217D01*
X-4122Y-15236D01*
X-4131Y-15245D01*
X-4310Y-15057D02*
X-4310Y-14935D01*
X-4235Y-15001D01*
X-4235Y-14973D01*
X-4225Y-14954D01*
X-4216Y-14945D01*
X-4197Y-14935D01*
X-4150Y-14935D01*
X-4131Y-14945D01*
X-4122Y-14954D01*
X-4113Y-14973D01*
X-4113Y-15029D01*
X-4122Y-15048D01*
X-4131Y-15057D01*
X-4310Y-14813D02*
X-4310Y-14795D01*
X-4300Y-14776D01*
X-4291Y-14766D01*
X-4272Y-14757D01*
X-4235Y-14748D01*
X-4188Y-14748D01*
X-4150Y-14757D01*
X-4131Y-14766D01*
X-4122Y-14776D01*
X-4113Y-14795D01*
X-4113Y-14813D01*
X-4122Y-14832D01*
X-4131Y-14842D01*
X-4150Y-14851D01*
X-4188Y-14860D01*
X-4235Y-14860D01*
X-4272Y-14851D01*
X-4291Y-14842D01*
X-4300Y-14832D01*
X-4310Y-14813D01*
X-2109Y-14430D02*
X-2203Y-14496D01*
X-2109Y-14543D02*
X-2306Y-14543D01*
X-2306Y-14467D01*
X-2296Y-14449D01*
X-2287Y-14439D01*
X-2268Y-14430D01*
X-2240Y-14430D01*
X-2221Y-14439D01*
X-2212Y-14449D01*
X-2203Y-14467D01*
X-2203Y-14543D01*
X-2240Y-14261D02*
X-2109Y-14261D01*
X-2315Y-14308D02*
X-2174Y-14355D01*
X-2174Y-14233D01*
X-2294Y-15261D02*
X-2294Y-15139D01*
X-2219Y-15204D01*
X-2219Y-15176D01*
X-2209Y-15157D01*
X-2200Y-15148D01*
X-2181Y-15139D01*
X-2134Y-15139D01*
X-2116Y-15148D01*
X-2106Y-15157D01*
X-2097Y-15176D01*
X-2097Y-15233D01*
X-2106Y-15251D01*
X-2116Y-15261D01*
X-2294Y-15073D02*
X-2294Y-14951D01*
X-2219Y-15017D01*
X-2219Y-14989D01*
X-2209Y-14970D01*
X-2200Y-14960D01*
X-2181Y-14951D01*
X-2134Y-14951D01*
X-2116Y-14960D01*
X-2106Y-14970D01*
X-2097Y-14989D01*
X-2097Y-15045D01*
X-2106Y-15064D01*
X-2116Y-15073D01*
X-2294Y-14829D02*
X-2294Y-14810D01*
X-2285Y-14792D01*
X-2275Y-14782D01*
X-2256Y-14773D01*
X-2219Y-14763D01*
X-2172Y-14763D01*
X-2134Y-14773D01*
X-2116Y-14782D01*
X-2106Y-14792D01*
X-2097Y-14810D01*
X-2097Y-14829D01*
X-2106Y-14848D01*
X-2116Y-14857D01*
X-2134Y-14867D01*
X-2172Y-14876D01*
X-2219Y-14876D01*
X-2256Y-14867D01*
X-2275Y-14857D01*
X-2285Y-14848D01*
X-2294Y-14829D01*
X-93Y-14422D02*
X-187Y-14488D01*
X-93Y-14535D02*
X-290Y-14535D01*
X-290Y-14460D01*
X-281Y-14441D01*
X-271Y-14431D01*
X-252Y-14422D01*
X-224Y-14422D01*
X-206Y-14431D01*
X-196Y-14441D01*
X-187Y-14460D01*
X-187Y-14535D01*
X-290Y-14356D02*
X-290Y-14225D01*
X-93Y-14310D01*
X-290Y-15265D02*
X-290Y-15143D01*
X-215Y-15208D01*
X-215Y-15180D01*
X-206Y-15161D01*
X-196Y-15152D01*
X-177Y-15143D01*
X-131Y-15143D01*
X-112Y-15152D01*
X-102Y-15161D01*
X-93Y-15180D01*
X-93Y-15236D01*
X-102Y-15255D01*
X-112Y-15265D01*
X-290Y-15077D02*
X-290Y-14955D01*
X-215Y-15021D01*
X-215Y-14993D01*
X-206Y-14974D01*
X-196Y-14964D01*
X-177Y-14955D01*
X-131Y-14955D01*
X-112Y-14964D01*
X-102Y-14974D01*
X-93Y-14993D01*
X-93Y-15049D01*
X-102Y-15068D01*
X-112Y-15077D01*
X-290Y-14833D02*
X-290Y-14814D01*
X-281Y-14796D01*
X-271Y-14786D01*
X-252Y-14777D01*
X-215Y-14767D01*
X-168Y-14767D01*
X-131Y-14777D01*
X-112Y-14786D01*
X-102Y-14796D01*
X-93Y-14814D01*
X-93Y-14833D01*
X-102Y-14852D01*
X-112Y-14861D01*
X-131Y-14871D01*
X-168Y-14880D01*
X-215Y-14880D01*
X-252Y-14871D01*
X-271Y-14861D01*
X-281Y-14852D01*
X-290Y-14833D01*
G54D16*
X-19843Y-9340D02*
X-20143Y-9340D01*
X-20143Y-9269D01*
X-20128Y-9226D01*
X-20100Y-9197D01*
X-20071Y-9183D01*
X-20014Y-9169D01*
X-19971Y-9169D01*
X-19914Y-9183D01*
X-19885Y-9197D01*
X-19857Y-9226D01*
X-19843Y-9269D01*
X-19843Y-9340D01*
X-19843Y-8883D02*
X-19843Y-9054D01*
X-19843Y-8969D02*
X-20143Y-8969D01*
X-20100Y-8997D01*
X-20071Y-9026D01*
X-20057Y-9054D01*
X-20043Y-8626D02*
X-19843Y-8626D01*
X-20157Y-8697D02*
X-19943Y-8769D01*
X-19943Y-8583D01*
X-21871Y-9395D02*
X-21871Y-9209D01*
X-21757Y-9309D01*
X-21757Y-9267D01*
X-21742Y-9238D01*
X-21728Y-9224D01*
X-21700Y-9209D01*
X-21628Y-9209D01*
X-21600Y-9224D01*
X-21585Y-9238D01*
X-21571Y-9267D01*
X-21571Y-9352D01*
X-21585Y-9381D01*
X-21600Y-9395D01*
X-21585Y-9067D02*
X-21571Y-9067D01*
X-21542Y-9081D01*
X-21528Y-9095D01*
X-21871Y-8967D02*
X-21871Y-8781D01*
X-21757Y-8881D01*
X-21757Y-8838D01*
X-21742Y-8809D01*
X-21728Y-8795D01*
X-21700Y-8781D01*
X-21628Y-8781D01*
X-21600Y-8795D01*
X-21585Y-8809D01*
X-21571Y-8838D01*
X-21571Y-8924D01*
X-21585Y-8952D01*
X-21600Y-8967D01*
X-21871Y-8695D02*
X-21571Y-8595D01*
X-21871Y-8495D01*
X-19886Y-11761D02*
X-20186Y-11761D01*
X-20186Y-11690D01*
X-20172Y-11647D01*
X-20143Y-11619D01*
X-20115Y-11604D01*
X-20057Y-11590D01*
X-20015Y-11590D01*
X-19957Y-11604D01*
X-19929Y-11619D01*
X-19900Y-11647D01*
X-19886Y-11690D01*
X-19886Y-11761D01*
X-19886Y-11304D02*
X-19886Y-11476D01*
X-19886Y-11390D02*
X-20186Y-11390D01*
X-20143Y-11419D01*
X-20115Y-11447D01*
X-20100Y-11476D01*
X-20186Y-11204D02*
X-20186Y-11019D01*
X-20072Y-11119D01*
X-20072Y-11076D01*
X-20057Y-11047D01*
X-20043Y-11033D01*
X-20015Y-11019D01*
X-19943Y-11019D01*
X-19915Y-11033D01*
X-19900Y-11047D01*
X-19886Y-11076D01*
X-19886Y-11161D01*
X-19900Y-11190D01*
X-19915Y-11204D01*
X-21761Y-11840D02*
X-21761Y-11654D01*
X-21646Y-11754D01*
X-21646Y-11711D01*
X-21632Y-11683D01*
X-21618Y-11669D01*
X-21589Y-11654D01*
X-21518Y-11654D01*
X-21489Y-11669D01*
X-21475Y-11683D01*
X-21461Y-11711D01*
X-21461Y-11797D01*
X-21475Y-11826D01*
X-21489Y-11840D01*
X-21475Y-11511D02*
X-21461Y-11511D01*
X-21432Y-11526D01*
X-21418Y-11540D01*
X-21761Y-11411D02*
X-21761Y-11226D01*
X-21646Y-11326D01*
X-21646Y-11283D01*
X-21632Y-11254D01*
X-21618Y-11240D01*
X-21589Y-11226D01*
X-21518Y-11226D01*
X-21489Y-11240D01*
X-21475Y-11254D01*
X-21461Y-11283D01*
X-21461Y-11369D01*
X-21475Y-11397D01*
X-21489Y-11411D01*
X-21761Y-11140D02*
X-21461Y-11040D01*
X-21761Y-10940D01*
X-5480Y-12269D02*
X-5780Y-12269D01*
X-5780Y-12198D01*
X-5766Y-12155D01*
X-5738Y-12126D01*
X-5709Y-12112D01*
X-5652Y-12098D01*
X-5609Y-12098D01*
X-5552Y-12112D01*
X-5523Y-12126D01*
X-5495Y-12155D01*
X-5480Y-12198D01*
X-5480Y-12269D01*
X-5480Y-11812D02*
X-5480Y-11984D01*
X-5480Y-11898D02*
X-5780Y-11898D01*
X-5738Y-11926D01*
X-5709Y-11955D01*
X-5695Y-11984D01*
X-5780Y-11555D02*
X-5780Y-11612D01*
X-5766Y-11641D01*
X-5752Y-11655D01*
X-5709Y-11684D01*
X-5652Y-11698D01*
X-5538Y-11698D01*
X-5509Y-11684D01*
X-5495Y-11669D01*
X-5480Y-11641D01*
X-5480Y-11584D01*
X-5495Y-11555D01*
X-5509Y-11541D01*
X-5538Y-11526D01*
X-5609Y-11526D01*
X-5638Y-11541D01*
X-5652Y-11555D01*
X-5666Y-11584D01*
X-5666Y-11641D01*
X-5652Y-11669D01*
X-5638Y-11684D01*
X-5609Y-11698D01*
X-5792Y-11269D02*
X-5792Y-11083D01*
X-5678Y-11183D01*
X-5678Y-11141D01*
X-5664Y-11112D01*
X-5649Y-11098D01*
X-5621Y-11083D01*
X-5549Y-11083D01*
X-5521Y-11098D01*
X-5507Y-11112D01*
X-5492Y-11141D01*
X-5492Y-11226D01*
X-5507Y-11255D01*
X-5521Y-11269D01*
X-5507Y-10941D02*
X-5492Y-10941D01*
X-5464Y-10955D01*
X-5449Y-10969D01*
X-5792Y-10841D02*
X-5792Y-10655D01*
X-5678Y-10755D01*
X-5678Y-10712D01*
X-5664Y-10683D01*
X-5649Y-10669D01*
X-5621Y-10655D01*
X-5549Y-10655D01*
X-5521Y-10669D01*
X-5507Y-10683D01*
X-5492Y-10712D01*
X-5492Y-10798D01*
X-5507Y-10826D01*
X-5521Y-10841D01*
X-5792Y-10569D02*
X-5492Y-10469D01*
X-5792Y-10369D01*
X-15130Y-12320D02*
X-15430Y-12320D01*
X-15430Y-12249D01*
X-15416Y-12206D01*
X-15387Y-12178D01*
X-15359Y-12163D01*
X-15301Y-12149D01*
X-15259Y-12149D01*
X-15201Y-12163D01*
X-15173Y-12178D01*
X-15144Y-12206D01*
X-15130Y-12249D01*
X-15130Y-12320D01*
X-15130Y-11863D02*
X-15130Y-12035D01*
X-15130Y-11949D02*
X-15430Y-11949D01*
X-15387Y-11978D01*
X-15359Y-12006D01*
X-15344Y-12035D01*
X-15401Y-11749D02*
X-15416Y-11735D01*
X-15430Y-11706D01*
X-15430Y-11635D01*
X-15416Y-11606D01*
X-15401Y-11592D01*
X-15373Y-11578D01*
X-15344Y-11578D01*
X-15301Y-11592D01*
X-15130Y-11763D01*
X-15130Y-11578D01*
X-15422Y-11340D02*
X-15422Y-11154D01*
X-15308Y-11254D01*
X-15308Y-11211D01*
X-15294Y-11183D01*
X-15279Y-11169D01*
X-15251Y-11154D01*
X-15179Y-11154D01*
X-15151Y-11169D01*
X-15136Y-11183D01*
X-15122Y-11211D01*
X-15122Y-11297D01*
X-15136Y-11326D01*
X-15151Y-11340D01*
X-15136Y-11011D02*
X-15122Y-11011D01*
X-15094Y-11026D01*
X-15079Y-11040D01*
X-15422Y-10911D02*
X-15422Y-10726D01*
X-15308Y-10826D01*
X-15308Y-10783D01*
X-15294Y-10754D01*
X-15279Y-10740D01*
X-15251Y-10726D01*
X-15179Y-10726D01*
X-15151Y-10740D01*
X-15136Y-10754D01*
X-15122Y-10783D01*
X-15122Y-10869D01*
X-15136Y-10897D01*
X-15151Y-10911D01*
X-15422Y-10640D02*
X-15122Y-10540D01*
X-15422Y-10440D01*
X-15110Y-9958D02*
X-15410Y-9958D01*
X-15410Y-9887D01*
X-15396Y-9844D01*
X-15367Y-9815D01*
X-15339Y-9801D01*
X-15282Y-9787D01*
X-15239Y-9787D01*
X-15182Y-9801D01*
X-15153Y-9815D01*
X-15125Y-9844D01*
X-15110Y-9887D01*
X-15110Y-9958D01*
X-15110Y-9501D02*
X-15110Y-9673D01*
X-15110Y-9587D02*
X-15410Y-9587D01*
X-15367Y-9615D01*
X-15339Y-9644D01*
X-15325Y-9673D01*
X-15110Y-9215D02*
X-15110Y-9387D01*
X-15110Y-9301D02*
X-15410Y-9301D01*
X-15367Y-9330D01*
X-15339Y-9358D01*
X-15325Y-9387D01*
X-15442Y-8899D02*
X-15442Y-8713D01*
X-15328Y-8813D01*
X-15328Y-8770D01*
X-15313Y-8742D01*
X-15299Y-8728D01*
X-15270Y-8713D01*
X-15199Y-8713D01*
X-15170Y-8728D01*
X-15156Y-8742D01*
X-15142Y-8770D01*
X-15142Y-8856D01*
X-15156Y-8885D01*
X-15170Y-8899D01*
X-15156Y-8570D02*
X-15142Y-8570D01*
X-15113Y-8585D01*
X-15099Y-8599D01*
X-15442Y-8470D02*
X-15442Y-8285D01*
X-15328Y-8385D01*
X-15328Y-8342D01*
X-15313Y-8313D01*
X-15299Y-8299D01*
X-15270Y-8285D01*
X-15199Y-8285D01*
X-15170Y-8299D01*
X-15156Y-8313D01*
X-15142Y-8342D01*
X-15142Y-8428D01*
X-15156Y-8456D01*
X-15170Y-8470D01*
X-15442Y-8199D02*
X-15142Y-8099D01*
X-15442Y-7999D01*
X-5512Y-8761D02*
X-5812Y-8761D01*
X-5812Y-8690D01*
X-5798Y-8647D01*
X-5769Y-8619D01*
X-5741Y-8604D01*
X-5683Y-8590D01*
X-5641Y-8590D01*
X-5583Y-8604D01*
X-5555Y-8619D01*
X-5526Y-8647D01*
X-5512Y-8690D01*
X-5512Y-8761D01*
X-5512Y-8304D02*
X-5512Y-8476D01*
X-5512Y-8390D02*
X-5812Y-8390D01*
X-5769Y-8419D01*
X-5741Y-8447D01*
X-5726Y-8476D01*
X-5812Y-8033D02*
X-5812Y-8176D01*
X-5669Y-8190D01*
X-5683Y-8176D01*
X-5698Y-8147D01*
X-5698Y-8076D01*
X-5683Y-8047D01*
X-5669Y-8033D01*
X-5641Y-8019D01*
X-5569Y-8019D01*
X-5541Y-8033D01*
X-5526Y-8047D01*
X-5512Y-8076D01*
X-5512Y-8147D01*
X-5526Y-8176D01*
X-5541Y-8190D01*
X-5812Y-10009D02*
X-5812Y-9824D01*
X-5698Y-9924D01*
X-5698Y-9881D01*
X-5683Y-9852D01*
X-5669Y-9838D01*
X-5641Y-9824D01*
X-5569Y-9824D01*
X-5541Y-9838D01*
X-5526Y-9852D01*
X-5512Y-9881D01*
X-5512Y-9966D01*
X-5526Y-9995D01*
X-5541Y-10009D01*
X-5526Y-9681D02*
X-5512Y-9681D01*
X-5483Y-9695D01*
X-5469Y-9709D01*
X-5812Y-9581D02*
X-5812Y-9395D01*
X-5698Y-9495D01*
X-5698Y-9452D01*
X-5683Y-9424D01*
X-5669Y-9409D01*
X-5641Y-9395D01*
X-5569Y-9395D01*
X-5541Y-9409D01*
X-5526Y-9424D01*
X-5512Y-9452D01*
X-5512Y-9538D01*
X-5526Y-9566D01*
X-5541Y-9581D01*
X-5812Y-9309D02*
X-5512Y-9209D01*
X-5812Y-9109D01*
X-11910Y-11179D02*
X-12210Y-11179D01*
X-12210Y-11107D01*
X-12195Y-11064D01*
X-12167Y-11036D01*
X-12138Y-11022D01*
X-12081Y-11007D01*
X-12038Y-11007D01*
X-11981Y-11022D01*
X-11952Y-11036D01*
X-11924Y-11064D01*
X-11910Y-11107D01*
X-11910Y-11179D01*
X-11910Y-10722D02*
X-11910Y-10893D01*
X-11910Y-10807D02*
X-12210Y-10807D01*
X-12167Y-10836D01*
X-12138Y-10864D01*
X-12124Y-10893D01*
X-12210Y-10622D02*
X-12210Y-10422D01*
X-11910Y-10550D01*
X-12210Y-12360D02*
X-12210Y-12174D01*
X-12095Y-12274D01*
X-12095Y-12231D01*
X-12081Y-12203D01*
X-12067Y-12188D01*
X-12038Y-12174D01*
X-11967Y-12174D01*
X-11938Y-12188D01*
X-11924Y-12203D01*
X-11910Y-12231D01*
X-11910Y-12317D01*
X-11924Y-12345D01*
X-11938Y-12360D01*
X-11924Y-12031D02*
X-11910Y-12031D01*
X-11881Y-12045D01*
X-11867Y-12060D01*
X-12210Y-11931D02*
X-12210Y-11745D01*
X-12095Y-11845D01*
X-12095Y-11803D01*
X-12081Y-11774D01*
X-12067Y-11760D01*
X-12038Y-11745D01*
X-11967Y-11745D01*
X-11938Y-11760D01*
X-11924Y-11774D01*
X-11910Y-11803D01*
X-11910Y-11888D01*
X-11924Y-11917D01*
X-11938Y-11931D01*
X-12210Y-11660D02*
X-11910Y-11560D01*
X-12210Y-11460D01*
X-11941Y-8872D02*
X-12241Y-8872D01*
X-12241Y-8800D01*
X-12227Y-8757D01*
X-12198Y-8729D01*
X-12170Y-8715D01*
X-12112Y-8700D01*
X-12070Y-8700D01*
X-12012Y-8715D01*
X-11984Y-8729D01*
X-11955Y-8757D01*
X-11941Y-8800D01*
X-11941Y-8872D01*
X-11941Y-8415D02*
X-11941Y-8586D01*
X-11941Y-8500D02*
X-12241Y-8500D01*
X-12198Y-8529D01*
X-12170Y-8557D01*
X-12155Y-8586D01*
X-12112Y-8243D02*
X-12127Y-8272D01*
X-12141Y-8286D01*
X-12170Y-8300D01*
X-12184Y-8300D01*
X-12212Y-8286D01*
X-12227Y-8272D01*
X-12241Y-8243D01*
X-12241Y-8186D01*
X-12227Y-8157D01*
X-12212Y-8143D01*
X-12184Y-8129D01*
X-12170Y-8129D01*
X-12141Y-8143D01*
X-12127Y-8157D01*
X-12112Y-8186D01*
X-12112Y-8243D01*
X-12098Y-8272D01*
X-12084Y-8286D01*
X-12055Y-8300D01*
X-11998Y-8300D01*
X-11970Y-8286D01*
X-11955Y-8272D01*
X-11941Y-8243D01*
X-11941Y-8186D01*
X-11955Y-8157D01*
X-11970Y-8143D01*
X-11998Y-8129D01*
X-12055Y-8129D01*
X-12084Y-8143D01*
X-12098Y-8157D01*
X-12112Y-8186D01*
X-12229Y-10068D02*
X-12229Y-9883D01*
X-12115Y-9983D01*
X-12115Y-9940D01*
X-12101Y-9911D01*
X-12086Y-9897D01*
X-12058Y-9883D01*
X-11986Y-9883D01*
X-11958Y-9897D01*
X-11944Y-9911D01*
X-11929Y-9940D01*
X-11929Y-10025D01*
X-11944Y-10054D01*
X-11958Y-10068D01*
X-11944Y-9740D02*
X-11929Y-9740D01*
X-11901Y-9754D01*
X-11886Y-9768D01*
X-12229Y-9640D02*
X-12229Y-9454D01*
X-12115Y-9554D01*
X-12115Y-9511D01*
X-12101Y-9483D01*
X-12086Y-9468D01*
X-12058Y-9454D01*
X-11986Y-9454D01*
X-11958Y-9468D01*
X-11944Y-9483D01*
X-11929Y-9511D01*
X-11929Y-9597D01*
X-11944Y-9625D01*
X-11958Y-9640D01*
X-12229Y-9368D02*
X-11929Y-9268D01*
X-12229Y-9168D01*
G54D18*
X-23970Y-19096D02*
X-23970Y-18702D01*
X-23820Y-18702D01*
X-23782Y-18721D01*
X-23763Y-18740D01*
X-23745Y-18777D01*
X-23745Y-18833D01*
X-23763Y-18871D01*
X-23782Y-18890D01*
X-23820Y-18908D01*
X-23970Y-18908D01*
X-23613Y-18702D02*
X-23370Y-18702D01*
X-23501Y-18852D01*
X-23445Y-18852D01*
X-23407Y-18871D01*
X-23389Y-18890D01*
X-23370Y-18927D01*
X-23370Y-19021D01*
X-23389Y-19058D01*
X-23407Y-19077D01*
X-23445Y-19096D01*
X-23557Y-19096D01*
X-23595Y-19077D01*
X-23613Y-19058D01*
X-23032Y-18702D02*
X-23107Y-18702D01*
X-23145Y-18721D01*
X-23164Y-18740D01*
X-23201Y-18796D01*
X-23220Y-18871D01*
X-23220Y-19021D01*
X-23201Y-19058D01*
X-23182Y-19077D01*
X-23145Y-19096D01*
X-23070Y-19096D01*
X-23032Y-19077D01*
X-23014Y-19058D01*
X-22995Y-19021D01*
X-22995Y-18927D01*
X-23014Y-18890D01*
X-23032Y-18871D01*
X-23070Y-18852D01*
X-23145Y-18852D01*
X-23182Y-18871D01*
X-23201Y-18890D01*
X-23220Y-18927D01*
X-20814Y-18703D02*
X-20795Y-18647D01*
X-20777Y-18628D01*
X-20739Y-18609D01*
X-20683Y-18609D01*
X-20645Y-18628D01*
X-20627Y-18647D01*
X-20608Y-18684D01*
X-20608Y-18834D01*
X-21002Y-18834D01*
X-21002Y-18703D01*
X-20983Y-18665D01*
X-20964Y-18647D01*
X-20927Y-18628D01*
X-20889Y-18628D01*
X-20852Y-18647D01*
X-20833Y-18665D01*
X-20814Y-18703D01*
X-20814Y-18834D01*
X-20608Y-18272D02*
X-20814Y-18272D01*
X-20852Y-18290D01*
X-20870Y-18328D01*
X-20870Y-18403D01*
X-20852Y-18440D01*
X-20627Y-18272D02*
X-20608Y-18309D01*
X-20608Y-18403D01*
X-20627Y-18440D01*
X-20664Y-18459D01*
X-20702Y-18459D01*
X-20739Y-18440D01*
X-20758Y-18403D01*
X-20758Y-18309D01*
X-20777Y-18272D01*
X-20870Y-18140D02*
X-20870Y-17991D01*
X-21002Y-18084D02*
X-20664Y-18084D01*
X-20627Y-18065D01*
X-20608Y-18028D01*
X-20608Y-17991D01*
X-21002Y-17691D02*
X-21002Y-17766D01*
X-20983Y-17803D01*
X-20964Y-17822D01*
X-20908Y-17859D01*
X-20833Y-17878D01*
X-20683Y-17878D01*
X-20645Y-17859D01*
X-20627Y-17841D01*
X-20608Y-17803D01*
X-20608Y-17728D01*
X-20627Y-17691D01*
X-20645Y-17672D01*
X-20683Y-17653D01*
X-20777Y-17653D01*
X-20814Y-17672D01*
X-20833Y-17691D01*
X-20852Y-17728D01*
X-20852Y-17803D01*
X-20833Y-17841D01*
X-20814Y-17859D01*
X-20777Y-17878D01*
X-20758Y-17484D02*
X-20758Y-17184D01*
X-20608Y-16978D02*
X-20608Y-16903D01*
X-20627Y-16866D01*
X-20645Y-16847D01*
X-20702Y-16809D01*
X-20777Y-16791D01*
X-20927Y-16791D01*
X-20964Y-16809D01*
X-20983Y-16828D01*
X-21002Y-16866D01*
X-21002Y-16941D01*
X-20983Y-16978D01*
X-20964Y-16997D01*
X-20927Y-17016D01*
X-20833Y-17016D01*
X-20795Y-16997D01*
X-20777Y-16978D01*
X-20758Y-16941D01*
X-20758Y-16866D01*
X-20777Y-16828D01*
X-20795Y-16809D01*
X-20833Y-16791D01*
X-21002Y-16678D02*
X-20608Y-16547D01*
X-21002Y-16416D01*
X-19983Y-2580D02*
X-19983Y-2186D01*
X-19833Y-2186D01*
X-19796Y-2205D01*
X-19777Y-2224D01*
X-19758Y-2261D01*
X-19758Y-2318D01*
X-19777Y-2355D01*
X-19796Y-2374D01*
X-19833Y-2393D01*
X-19983Y-2393D01*
X-19627Y-2186D02*
X-19383Y-2186D01*
X-19514Y-2336D01*
X-19458Y-2336D01*
X-19421Y-2355D01*
X-19402Y-2374D01*
X-19383Y-2411D01*
X-19383Y-2505D01*
X-19402Y-2543D01*
X-19421Y-2561D01*
X-19458Y-2580D01*
X-19571Y-2580D01*
X-19608Y-2561D01*
X-19627Y-2543D01*
X-19834Y-3253D02*
X-19834Y-2860D01*
X-19703Y-3141D01*
X-19571Y-2860D01*
X-19571Y-3253D01*
X-19178Y-3253D02*
X-19403Y-3253D01*
X-19290Y-3253D02*
X-19290Y-2860D01*
X-19328Y-2916D01*
X-19365Y-2953D01*
X-19403Y-2972D01*
X-7963Y-2549D02*
X-7963Y-2155D01*
X-7813Y-2155D01*
X-7776Y-2174D01*
X-7757Y-2192D01*
X-7738Y-2230D01*
X-7738Y-2286D01*
X-7757Y-2324D01*
X-7776Y-2342D01*
X-7813Y-2361D01*
X-7963Y-2361D01*
X-7401Y-2286D02*
X-7401Y-2549D01*
X-7495Y-2136D02*
X-7588Y-2417D01*
X-7345Y-2417D01*
X-7814Y-3281D02*
X-7814Y-2887D01*
X-7683Y-3168D01*
X-7552Y-2887D01*
X-7552Y-3281D01*
X-7196Y-3018D02*
X-7196Y-3281D01*
X-7289Y-2868D02*
X-7383Y-3150D01*
X-7139Y-3150D01*
X-12003Y-2580D02*
X-12003Y-2186D01*
X-11853Y-2186D01*
X-11815Y-2205D01*
X-11796Y-2224D01*
X-11778Y-2261D01*
X-11778Y-2318D01*
X-11796Y-2355D01*
X-11815Y-2374D01*
X-11853Y-2393D01*
X-12003Y-2393D01*
X-11422Y-2186D02*
X-11609Y-2186D01*
X-11628Y-2374D01*
X-11609Y-2355D01*
X-11571Y-2336D01*
X-11478Y-2336D01*
X-11440Y-2355D01*
X-11422Y-2374D01*
X-11403Y-2411D01*
X-11403Y-2505D01*
X-11422Y-2543D01*
X-11440Y-2561D01*
X-11478Y-2580D01*
X-11571Y-2580D01*
X-11609Y-2561D01*
X-11628Y-2543D01*
X-11771Y-3242D02*
X-11771Y-2848D01*
X-11640Y-3129D01*
X-11508Y-2848D01*
X-11508Y-3242D01*
X-11359Y-2848D02*
X-11115Y-2848D01*
X-11246Y-2998D01*
X-11190Y-2998D01*
X-11152Y-3017D01*
X-11134Y-3035D01*
X-11115Y-3073D01*
X-11115Y-3167D01*
X-11134Y-3204D01*
X-11152Y-3223D01*
X-11190Y-3242D01*
X-11302Y-3242D01*
X-11340Y-3223D01*
X-11359Y-3204D01*
X-23991Y-2580D02*
X-23991Y-2186D01*
X-23841Y-2186D01*
X-23803Y-2205D01*
X-23785Y-2224D01*
X-23766Y-2261D01*
X-23766Y-2318D01*
X-23785Y-2355D01*
X-23803Y-2374D01*
X-23841Y-2393D01*
X-23991Y-2393D01*
X-23428Y-2186D02*
X-23503Y-2186D01*
X-23541Y-2205D01*
X-23560Y-2224D01*
X-23597Y-2280D01*
X-23616Y-2355D01*
X-23616Y-2505D01*
X-23597Y-2543D01*
X-23578Y-2561D01*
X-23541Y-2580D01*
X-23466Y-2580D01*
X-23428Y-2561D01*
X-23410Y-2543D01*
X-23391Y-2505D01*
X-23391Y-2411D01*
X-23410Y-2374D01*
X-23428Y-2355D01*
X-23466Y-2336D01*
X-23541Y-2336D01*
X-23578Y-2355D01*
X-23597Y-2374D01*
X-23616Y-2411D01*
X-23839Y-2898D02*
X-23876Y-2879D01*
X-23933Y-2879D01*
X-23989Y-2898D01*
X-24026Y-2936D01*
X-24045Y-2973D01*
X-24064Y-3048D01*
X-24064Y-3104D01*
X-24045Y-3179D01*
X-24026Y-3217D01*
X-23989Y-3254D01*
X-23933Y-3273D01*
X-23895Y-3273D01*
X-23839Y-3254D01*
X-23820Y-3236D01*
X-23820Y-3104D01*
X-23895Y-3104D01*
X-23651Y-3273D02*
X-23651Y-2879D01*
X-23426Y-3273D01*
X-23426Y-2879D01*
X-23239Y-3273D02*
X-23239Y-2879D01*
X-23145Y-2879D01*
X-23089Y-2898D01*
X-23051Y-2936D01*
X-23033Y-2973D01*
X-23014Y-3048D01*
X-23014Y-3104D01*
X-23033Y-3179D01*
X-23051Y-3217D01*
X-23089Y-3254D01*
X-23145Y-3273D01*
X-23239Y-3273D01*
X-12269Y-16734D02*
X-12269Y-16340D01*
X-12119Y-16340D01*
X-12081Y-16359D01*
X-12063Y-16377D01*
X-12044Y-16415D01*
X-12044Y-16471D01*
X-12063Y-16509D01*
X-12081Y-16527D01*
X-12119Y-16546D01*
X-12269Y-16546D01*
X-11669Y-16734D02*
X-11894Y-16734D01*
X-11781Y-16734D02*
X-11781Y-16340D01*
X-11819Y-16396D01*
X-11856Y-16434D01*
X-11894Y-16452D01*
X-11313Y-16340D02*
X-11500Y-16340D01*
X-11519Y-16527D01*
X-11500Y-16509D01*
X-11463Y-16490D01*
X-11369Y-16490D01*
X-11332Y-16509D01*
X-11313Y-16527D01*
X-11294Y-16565D01*
X-11294Y-16659D01*
X-11313Y-16696D01*
X-11332Y-16715D01*
X-11369Y-16734D01*
X-11463Y-16734D01*
X-11500Y-16715D01*
X-11519Y-16696D01*
X-6603Y-15650D02*
X-6640Y-15631D01*
X-6696Y-15631D01*
X-6753Y-15650D01*
X-6790Y-15688D01*
X-6809Y-15725D01*
X-6828Y-15800D01*
X-6828Y-15856D01*
X-6809Y-15931D01*
X-6790Y-15969D01*
X-6753Y-16006D01*
X-6696Y-16025D01*
X-6659Y-16025D01*
X-6603Y-16006D01*
X-6584Y-15988D01*
X-6584Y-15856D01*
X-6659Y-15856D01*
X-6415Y-16025D02*
X-6415Y-15631D01*
X-6190Y-16025D01*
X-6190Y-15631D01*
X-6003Y-16025D02*
X-6003Y-15631D01*
X-5909Y-15631D01*
X-5853Y-15650D01*
X-5815Y-15688D01*
X-5796Y-15725D01*
X-5778Y-15800D01*
X-5778Y-15856D01*
X-5796Y-15931D01*
X-5815Y-15969D01*
X-5853Y-16006D01*
X-5909Y-16025D01*
X-6003Y-16025D01*
X-17991Y-16726D02*
X-17991Y-16332D01*
X-17841Y-16332D01*
X-17803Y-16351D01*
X-17785Y-16370D01*
X-17766Y-16407D01*
X-17766Y-16463D01*
X-17785Y-16501D01*
X-17803Y-16520D01*
X-17841Y-16538D01*
X-17991Y-16538D01*
X-17541Y-16501D02*
X-17578Y-16482D01*
X-17597Y-16463D01*
X-17616Y-16426D01*
X-17616Y-16407D01*
X-17597Y-16370D01*
X-17578Y-16351D01*
X-17541Y-16332D01*
X-17466Y-16332D01*
X-17428Y-16351D01*
X-17410Y-16370D01*
X-17391Y-16407D01*
X-17391Y-16426D01*
X-17410Y-16463D01*
X-17428Y-16482D01*
X-17466Y-16501D01*
X-17541Y-16501D01*
X-17578Y-16520D01*
X-17597Y-16538D01*
X-17616Y-16576D01*
X-17616Y-16651D01*
X-17597Y-16688D01*
X-17578Y-16707D01*
X-17541Y-16726D01*
X-17466Y-16726D01*
X-17428Y-16707D01*
X-17410Y-16688D01*
X-17391Y-16651D01*
X-17391Y-16576D01*
X-17410Y-16538D01*
X-17428Y-16520D01*
X-17466Y-16501D01*
X-19122Y-15670D02*
X-19160Y-15651D01*
X-19216Y-15651D01*
X-19272Y-15670D01*
X-19310Y-15707D01*
X-19329Y-15745D01*
X-19347Y-15820D01*
X-19347Y-15876D01*
X-19329Y-15951D01*
X-19310Y-15988D01*
X-19272Y-16026D01*
X-19216Y-16045D01*
X-19179Y-16045D01*
X-19122Y-16026D01*
X-19104Y-16007D01*
X-19104Y-15876D01*
X-19179Y-15876D01*
X-18935Y-16045D02*
X-18935Y-15651D01*
X-18710Y-16045D01*
X-18710Y-15651D01*
X-18522Y-16045D02*
X-18522Y-15651D01*
X-18429Y-15651D01*
X-18372Y-15670D01*
X-18335Y-15707D01*
X-18316Y-15745D01*
X-18297Y-15820D01*
X-18297Y-15876D01*
X-18316Y-15951D01*
X-18335Y-15988D01*
X-18372Y-16026D01*
X-18429Y-16045D01*
X-18522Y-16045D01*
X-22561Y-14003D02*
X-22954Y-14003D01*
X-22954Y-13853D01*
X-22936Y-13815D01*
X-22917Y-13796D01*
X-22879Y-13778D01*
X-22823Y-13778D01*
X-22786Y-13796D01*
X-22767Y-13815D01*
X-22748Y-13853D01*
X-22748Y-14003D01*
X-22954Y-13646D02*
X-22954Y-13384D01*
X-22561Y-13553D01*
X-22274Y-14075D02*
X-22293Y-14113D01*
X-22293Y-14169D01*
X-22274Y-14225D01*
X-22237Y-14263D01*
X-22199Y-14281D01*
X-22124Y-14300D01*
X-22068Y-14300D01*
X-21993Y-14281D01*
X-21955Y-14263D01*
X-21918Y-14225D01*
X-21899Y-14169D01*
X-21899Y-14131D01*
X-21918Y-14075D01*
X-21937Y-14056D01*
X-22068Y-14056D01*
X-22068Y-14131D01*
X-21899Y-13888D02*
X-22293Y-13888D01*
X-21899Y-13663D01*
X-22293Y-13663D01*
X-21899Y-13475D02*
X-22293Y-13475D01*
X-22293Y-13381D01*
X-22274Y-13325D01*
X-22237Y-13288D01*
X-22199Y-13269D01*
X-22124Y-13250D01*
X-22068Y-13250D01*
X-21993Y-13269D01*
X-21955Y-13288D01*
X-21918Y-13325D01*
X-21899Y-13381D01*
X-21899Y-13475D01*
X-22557Y-10005D02*
X-22950Y-10005D01*
X-22950Y-9855D01*
X-22932Y-9818D01*
X-22913Y-9799D01*
X-22875Y-9780D01*
X-22819Y-9780D01*
X-22782Y-9799D01*
X-22763Y-9818D01*
X-22744Y-9855D01*
X-22744Y-10005D01*
X-22557Y-9405D02*
X-22557Y-9630D01*
X-22557Y-9518D02*
X-22950Y-9518D01*
X-22894Y-9555D01*
X-22857Y-9593D01*
X-22838Y-9630D01*
X-22819Y-9068D02*
X-22557Y-9068D01*
X-22969Y-9161D02*
X-22688Y-9255D01*
X-22688Y-9011D01*
X-22266Y-9870D02*
X-22285Y-9908D01*
X-22285Y-9964D01*
X-22266Y-10020D01*
X-22229Y-10058D01*
X-22191Y-10077D01*
X-22116Y-10095D01*
X-22060Y-10095D01*
X-21985Y-10077D01*
X-21948Y-10058D01*
X-21910Y-10020D01*
X-21891Y-9964D01*
X-21891Y-9927D01*
X-21910Y-9870D01*
X-21929Y-9852D01*
X-22060Y-9852D01*
X-22060Y-9927D01*
X-21891Y-9683D02*
X-22285Y-9683D01*
X-21891Y-9458D01*
X-22285Y-9458D01*
X-21891Y-9270D02*
X-22285Y-9270D01*
X-22285Y-9177D01*
X-22266Y-9120D01*
X-22229Y-9083D01*
X-22191Y-9064D01*
X-22116Y-9045D01*
X-22060Y-9045D01*
X-21985Y-9064D01*
X-21948Y-9083D01*
X-21910Y-9120D01*
X-21891Y-9177D01*
X-21891Y-9270D01*
X-22568Y-6052D02*
X-22962Y-6052D01*
X-22962Y-5902D01*
X-22943Y-5865D01*
X-22925Y-5846D01*
X-22887Y-5827D01*
X-22831Y-5827D01*
X-22793Y-5846D01*
X-22775Y-5865D01*
X-22756Y-5902D01*
X-22756Y-6052D01*
X-22568Y-5452D02*
X-22568Y-5677D01*
X-22568Y-5565D02*
X-22962Y-5565D01*
X-22906Y-5602D01*
X-22868Y-5640D01*
X-22850Y-5677D01*
X-22962Y-5321D02*
X-22962Y-5077D01*
X-22812Y-5209D01*
X-22812Y-5152D01*
X-22793Y-5115D01*
X-22775Y-5096D01*
X-22737Y-5077D01*
X-22643Y-5077D01*
X-22606Y-5096D01*
X-22587Y-5115D01*
X-22568Y-5152D01*
X-22568Y-5265D01*
X-22587Y-5302D01*
X-22606Y-5321D01*
X-22239Y-5894D02*
X-22257Y-5931D01*
X-22257Y-5988D01*
X-22239Y-6044D01*
X-22201Y-6081D01*
X-22164Y-6100D01*
X-22089Y-6119D01*
X-22032Y-6119D01*
X-21958Y-6100D01*
X-21920Y-6081D01*
X-21883Y-6044D01*
X-21864Y-5988D01*
X-21864Y-5950D01*
X-21883Y-5894D01*
X-21901Y-5875D01*
X-22032Y-5875D01*
X-22032Y-5950D01*
X-21864Y-5706D02*
X-22257Y-5706D01*
X-21864Y-5482D01*
X-22257Y-5482D01*
X-21864Y-5294D02*
X-22257Y-5294D01*
X-22257Y-5200D01*
X-22239Y-5144D01*
X-22201Y-5107D01*
X-22164Y-5088D01*
X-22089Y-5069D01*
X-22032Y-5069D01*
X-21958Y-5088D01*
X-21920Y-5107D01*
X-21883Y-5144D01*
X-21864Y-5200D01*
X-21864Y-5294D01*
X4907Y-19025D02*
X4907Y-18631D01*
X5057Y-18631D01*
X5095Y-18650D01*
X5113Y-18669D01*
X5132Y-18706D01*
X5132Y-18763D01*
X5113Y-18800D01*
X5095Y-18819D01*
X5057Y-18838D01*
X4907Y-18838D01*
X5507Y-19025D02*
X5282Y-19025D01*
X5395Y-19025D02*
X5395Y-18631D01*
X5357Y-18688D01*
X5320Y-18725D01*
X5282Y-18744D01*
X5657Y-18669D02*
X5676Y-18650D01*
X5713Y-18631D01*
X5807Y-18631D01*
X5845Y-18650D01*
X5863Y-18669D01*
X5882Y-18706D01*
X5882Y-18744D01*
X5863Y-18800D01*
X5638Y-19025D01*
X5882Y-19025D01*
X3659Y-16105D02*
X3715Y-16123D01*
X3809Y-16123D01*
X3847Y-16105D01*
X3865Y-16086D01*
X3884Y-16048D01*
X3884Y-16011D01*
X3865Y-15973D01*
X3847Y-15955D01*
X3809Y-15936D01*
X3734Y-15917D01*
X3697Y-15898D01*
X3678Y-15880D01*
X3659Y-15842D01*
X3659Y-15805D01*
X3678Y-15767D01*
X3697Y-15748D01*
X3734Y-15730D01*
X3828Y-15730D01*
X3884Y-15748D01*
X4259Y-16123D02*
X4034Y-16123D01*
X4146Y-16123D02*
X4146Y-15730D01*
X4109Y-15786D01*
X4071Y-15823D01*
X4034Y-15842D01*
X4446Y-16123D02*
X4521Y-16123D01*
X4559Y-16105D01*
X4578Y-16086D01*
X4615Y-16030D01*
X4634Y-15955D01*
X4634Y-15805D01*
X4615Y-15767D01*
X4596Y-15748D01*
X4559Y-15730D01*
X4484Y-15730D01*
X4446Y-15748D01*
X4428Y-15767D01*
X4409Y-15805D01*
X4409Y-15898D01*
X4428Y-15936D01*
X4446Y-15955D01*
X4484Y-15973D01*
X4559Y-15973D01*
X4596Y-15955D01*
X4615Y-15936D01*
X4634Y-15898D01*
X5684Y-16105D02*
X5740Y-16123D01*
X5834Y-16123D01*
X5871Y-16105D01*
X5890Y-16086D01*
X5909Y-16048D01*
X5909Y-16011D01*
X5890Y-15973D01*
X5871Y-15955D01*
X5834Y-15936D01*
X5759Y-15917D01*
X5721Y-15898D01*
X5703Y-15880D01*
X5684Y-15842D01*
X5684Y-15805D01*
X5703Y-15767D01*
X5721Y-15748D01*
X5759Y-15730D01*
X5853Y-15730D01*
X5909Y-15748D01*
X6059Y-15767D02*
X6077Y-15748D01*
X6115Y-15730D01*
X6209Y-15730D01*
X6246Y-15748D01*
X6265Y-15767D01*
X6284Y-15805D01*
X6284Y-15842D01*
X6265Y-15898D01*
X6040Y-16123D01*
X6284Y-16123D01*
X6659Y-16123D02*
X6434Y-16123D01*
X6546Y-16123D02*
X6546Y-15730D01*
X6509Y-15786D01*
X6471Y-15823D01*
X6434Y-15842D01*
X7709Y-16105D02*
X7765Y-16123D01*
X7859Y-16123D01*
X7896Y-16105D01*
X7915Y-16086D01*
X7934Y-16048D01*
X7934Y-16011D01*
X7915Y-15973D01*
X7896Y-15955D01*
X7859Y-15936D01*
X7784Y-15917D01*
X7746Y-15898D01*
X7727Y-15880D01*
X7709Y-15842D01*
X7709Y-15805D01*
X7727Y-15767D01*
X7746Y-15748D01*
X7784Y-15730D01*
X7877Y-15730D01*
X7934Y-15748D01*
X8083Y-15767D02*
X8102Y-15748D01*
X8140Y-15730D01*
X8233Y-15730D01*
X8271Y-15748D01*
X8290Y-15767D01*
X8308Y-15805D01*
X8308Y-15842D01*
X8290Y-15898D01*
X8065Y-16123D01*
X8308Y-16123D01*
X8440Y-15730D02*
X8683Y-15730D01*
X8552Y-15880D01*
X8608Y-15880D01*
X8646Y-15898D01*
X8665Y-15917D01*
X8683Y-15955D01*
X8683Y-16048D01*
X8665Y-16086D01*
X8646Y-16105D01*
X8608Y-16123D01*
X8496Y-16123D01*
X8458Y-16105D01*
X8440Y-16086D01*
X10033Y-16105D02*
X10089Y-16123D01*
X10183Y-16123D01*
X10221Y-16105D01*
X10239Y-16086D01*
X10258Y-16048D01*
X10258Y-16011D01*
X10239Y-15973D01*
X10221Y-15955D01*
X10183Y-15936D01*
X10108Y-15917D01*
X10071Y-15898D01*
X10052Y-15880D01*
X10033Y-15842D01*
X10033Y-15805D01*
X10052Y-15767D01*
X10071Y-15748D01*
X10108Y-15730D01*
X10202Y-15730D01*
X10258Y-15748D01*
X10633Y-16123D02*
X10408Y-16123D01*
X10521Y-16123D02*
X10521Y-15730D01*
X10483Y-15786D01*
X10446Y-15823D01*
X10408Y-15842D01*
X11008Y-16123D02*
X10783Y-16123D01*
X10896Y-16123D02*
X10896Y-15730D01*
X10858Y-15786D01*
X10821Y-15823D01*
X10783Y-15842D01*
X12058Y-16105D02*
X12114Y-16123D01*
X12208Y-16123D01*
X12245Y-16105D01*
X12264Y-16086D01*
X12283Y-16048D01*
X12283Y-16011D01*
X12264Y-15973D01*
X12245Y-15955D01*
X12208Y-15936D01*
X12133Y-15917D01*
X12095Y-15898D01*
X12077Y-15880D01*
X12058Y-15842D01*
X12058Y-15805D01*
X12077Y-15767D01*
X12095Y-15748D01*
X12133Y-15730D01*
X12227Y-15730D01*
X12283Y-15748D01*
X12658Y-16123D02*
X12433Y-16123D01*
X12545Y-16123D02*
X12545Y-15730D01*
X12508Y-15786D01*
X12470Y-15823D01*
X12433Y-15842D01*
X12789Y-15730D02*
X13033Y-15730D01*
X12902Y-15880D01*
X12958Y-15880D01*
X12995Y-15898D01*
X13014Y-15917D01*
X13033Y-15955D01*
X13033Y-16048D01*
X13014Y-16086D01*
X12995Y-16105D01*
X12958Y-16123D01*
X12845Y-16123D01*
X12808Y-16105D01*
X12789Y-16086D01*
X580Y-19064D02*
X580Y-18671D01*
X730Y-18671D01*
X768Y-18689D01*
X787Y-18708D01*
X805Y-18746D01*
X805Y-18802D01*
X787Y-18839D01*
X768Y-18858D01*
X730Y-18877D01*
X580Y-18877D01*
X1180Y-19064D02*
X955Y-19064D01*
X1068Y-19064D02*
X1068Y-18671D01*
X1030Y-18727D01*
X993Y-18764D01*
X955Y-18783D01*
X1555Y-19064D02*
X1330Y-19064D01*
X1443Y-19064D02*
X1443Y-18671D01*
X1405Y-18727D01*
X1368Y-18764D01*
X1330Y-18783D01*
X-40Y-16089D02*
X15Y-16108D01*
X109Y-16108D01*
X146Y-16089D01*
X165Y-16070D01*
X184Y-16033D01*
X184Y-15995D01*
X165Y-15958D01*
X146Y-15939D01*
X109Y-15920D01*
X34Y-15901D01*
X-3Y-15883D01*
X-21Y-15864D01*
X-40Y-15826D01*
X-40Y-15789D01*
X-21Y-15751D01*
X-3Y-15733D01*
X34Y-15714D01*
X128Y-15714D01*
X184Y-15733D01*
X559Y-16108D02*
X334Y-16108D01*
X446Y-16108D02*
X446Y-15714D01*
X409Y-15770D01*
X371Y-15808D01*
X334Y-15826D01*
X915Y-15714D02*
X727Y-15714D01*
X709Y-15901D01*
X727Y-15883D01*
X765Y-15864D01*
X859Y-15864D01*
X896Y-15883D01*
X915Y-15901D01*
X934Y-15939D01*
X934Y-16033D01*
X915Y-16070D01*
X896Y-16089D01*
X859Y-16108D01*
X765Y-16108D01*
X727Y-16089D01*
X709Y-16070D01*
X1984Y-16089D02*
X2040Y-16108D01*
X2134Y-16108D01*
X2171Y-16089D01*
X2190Y-16070D01*
X2209Y-16033D01*
X2209Y-15995D01*
X2190Y-15958D01*
X2171Y-15939D01*
X2134Y-15920D01*
X2059Y-15901D01*
X2021Y-15883D01*
X2002Y-15864D01*
X1984Y-15826D01*
X1984Y-15789D01*
X2002Y-15751D01*
X2021Y-15733D01*
X2059Y-15714D01*
X2152Y-15714D01*
X2209Y-15733D01*
X2340Y-15714D02*
X2602Y-15714D01*
X2434Y-16108D01*
X-3391Y-19076D02*
X-3391Y-18682D01*
X-3241Y-18682D01*
X-3203Y-18701D01*
X-3185Y-18720D01*
X-3166Y-18757D01*
X-3166Y-18814D01*
X-3185Y-18851D01*
X-3203Y-18870D01*
X-3241Y-18889D01*
X-3391Y-18889D01*
X-2791Y-19076D02*
X-3016Y-19076D01*
X-2904Y-19076D02*
X-2904Y-18682D01*
X-2941Y-18739D01*
X-2979Y-18776D01*
X-3016Y-18795D01*
X-2547Y-18682D02*
X-2510Y-18682D01*
X-2472Y-18701D01*
X-2454Y-18720D01*
X-2435Y-18757D01*
X-2416Y-18832D01*
X-2416Y-18926D01*
X-2435Y-19001D01*
X-2454Y-19039D01*
X-2472Y-19057D01*
X-2510Y-19076D01*
X-2547Y-19076D01*
X-2585Y-19057D01*
X-2604Y-19039D01*
X-2622Y-19001D01*
X-2641Y-18926D01*
X-2641Y-18832D01*
X-2622Y-18757D01*
X-2604Y-18720D01*
X-2585Y-18701D01*
X-2547Y-18682D01*
X-3770Y-16069D02*
X-3714Y-16088D01*
X-3620Y-16088D01*
X-3583Y-16069D01*
X-3564Y-16050D01*
X-3545Y-16013D01*
X-3545Y-15976D01*
X-3564Y-15938D01*
X-3583Y-15919D01*
X-3620Y-15901D01*
X-3695Y-15882D01*
X-3733Y-15863D01*
X-3751Y-15844D01*
X-3770Y-15807D01*
X-3770Y-15769D01*
X-3751Y-15732D01*
X-3733Y-15713D01*
X-3695Y-15694D01*
X-3601Y-15694D01*
X-3545Y-15713D01*
X-3189Y-15694D02*
X-3376Y-15694D01*
X-3395Y-15882D01*
X-3376Y-15863D01*
X-3339Y-15844D01*
X-3245Y-15844D01*
X-3208Y-15863D01*
X-3189Y-15882D01*
X-3170Y-15919D01*
X-3170Y-16013D01*
X-3189Y-16050D01*
X-3208Y-16069D01*
X-3245Y-16088D01*
X-3339Y-16088D01*
X-3376Y-16069D01*
X-3395Y-16050D01*
X-2120Y-16069D02*
X-2064Y-16088D01*
X-1970Y-16088D01*
X-1933Y-16069D01*
X-1914Y-16050D01*
X-1895Y-16013D01*
X-1895Y-15976D01*
X-1914Y-15938D01*
X-1933Y-15919D01*
X-1970Y-15901D01*
X-2045Y-15882D01*
X-2083Y-15863D01*
X-2101Y-15844D01*
X-2120Y-15807D01*
X-2120Y-15769D01*
X-2101Y-15732D01*
X-2083Y-15713D01*
X-2045Y-15694D01*
X-1952Y-15694D01*
X-1895Y-15713D01*
X-1764Y-15694D02*
X-1520Y-15694D01*
X-1652Y-15844D01*
X-1595Y-15844D01*
X-1558Y-15863D01*
X-1539Y-15882D01*
X-1520Y-15919D01*
X-1520Y-16013D01*
X-1539Y-16050D01*
X-1558Y-16069D01*
X-1595Y-16088D01*
X-1708Y-16088D01*
X-1745Y-16069D01*
X-1764Y-16050D01*
X-3952Y-2525D02*
X-3952Y-2131D01*
X-3802Y-2131D01*
X-3764Y-2150D01*
X-3745Y-2169D01*
X-3727Y-2206D01*
X-3727Y-2263D01*
X-3745Y-2300D01*
X-3764Y-2319D01*
X-3802Y-2338D01*
X-3952Y-2338D01*
X-3539Y-2525D02*
X-3464Y-2525D01*
X-3427Y-2506D01*
X-3408Y-2488D01*
X-3370Y-2431D01*
X-3352Y-2356D01*
X-3352Y-2206D01*
X-3370Y-2169D01*
X-3389Y-2150D01*
X-3427Y-2131D01*
X-3502Y-2131D01*
X-3539Y-2150D01*
X-3558Y-2169D01*
X-3577Y-2206D01*
X-3577Y-2300D01*
X-3558Y-2338D01*
X-3539Y-2356D01*
X-3502Y-2375D01*
X-3427Y-2375D01*
X-3389Y-2356D01*
X-3370Y-2338D01*
X-3352Y-2300D01*
X-3717Y-2906D02*
X-3754Y-2887D01*
X-3811Y-2887D01*
X-3867Y-2906D01*
X-3904Y-2943D01*
X-3923Y-2981D01*
X-3942Y-3056D01*
X-3942Y-3112D01*
X-3923Y-3187D01*
X-3904Y-3225D01*
X-3867Y-3262D01*
X-3811Y-3281D01*
X-3773Y-3281D01*
X-3717Y-3262D01*
X-3698Y-3243D01*
X-3698Y-3112D01*
X-3773Y-3112D01*
X-3529Y-3281D02*
X-3529Y-2887D01*
X-3304Y-3281D01*
X-3304Y-2887D01*
X-3117Y-3281D02*
X-3117Y-2887D01*
X-3023Y-2887D01*
X-2967Y-2906D01*
X-2929Y-2943D01*
X-2911Y-2981D01*
X-2892Y-3056D01*
X-2892Y-3112D01*
X-2911Y-3187D01*
X-2929Y-3225D01*
X-2967Y-3262D01*
X-3023Y-3281D01*
X-3117Y-3281D01*
X-15971Y-2588D02*
X-15971Y-2194D01*
X-15821Y-2194D01*
X-15784Y-2213D01*
X-15765Y-2232D01*
X-15746Y-2269D01*
X-15746Y-2326D01*
X-15765Y-2363D01*
X-15784Y-2382D01*
X-15821Y-2401D01*
X-15971Y-2401D01*
X-15596Y-2232D02*
X-15577Y-2213D01*
X-15540Y-2194D01*
X-15446Y-2194D01*
X-15409Y-2213D01*
X-15390Y-2232D01*
X-15371Y-2269D01*
X-15371Y-2307D01*
X-15390Y-2363D01*
X-15615Y-2588D01*
X-15371Y-2588D01*
X-15775Y-3245D02*
X-15775Y-2852D01*
X-15644Y-3133D01*
X-15512Y-2852D01*
X-15512Y-3245D01*
X-15344Y-2889D02*
X-15325Y-2871D01*
X-15287Y-2852D01*
X-15194Y-2852D01*
X-15156Y-2871D01*
X-15137Y-2889D01*
X-15119Y-2927D01*
X-15119Y-2964D01*
X-15137Y-3020D01*
X-15362Y-3245D01*
X-15119Y-3245D01*
G54D20*
X8528Y-13138D02*
X8395Y-12947D01*
X8300Y-13138D02*
X8300Y-12738D01*
X8452Y-12738D01*
X8490Y-12757D01*
X8509Y-12776D01*
X8528Y-12814D01*
X8528Y-12871D01*
X8509Y-12909D01*
X8490Y-12928D01*
X8452Y-12947D01*
X8300Y-12947D01*
X8681Y-13119D02*
X8719Y-13138D01*
X8795Y-13138D01*
X8833Y-13119D01*
X8852Y-13081D01*
X8852Y-13062D01*
X8833Y-13023D01*
X8795Y-13004D01*
X8738Y-13004D01*
X8700Y-12985D01*
X8681Y-12947D01*
X8681Y-12928D01*
X8700Y-12890D01*
X8738Y-12871D01*
X8795Y-12871D01*
X8833Y-12890D01*
X10181Y-13209D02*
X10181Y-12809D01*
X10334Y-12809D01*
X10372Y-12828D01*
X10391Y-12847D01*
X10410Y-12885D01*
X10410Y-12942D01*
X10391Y-12980D01*
X10372Y-12999D01*
X10334Y-13018D01*
X10181Y-13018D01*
X10581Y-13209D02*
X10581Y-12809D01*
G54D18*
X11659Y-8649D02*
X11265Y-8649D01*
X11453Y-8649D02*
X11453Y-8424D01*
X11659Y-8424D02*
X11265Y-8424D01*
X11453Y-8237D02*
X11453Y-8106D01*
X11659Y-8049D02*
X11659Y-8237D01*
X11265Y-8237D01*
X11265Y-8049D01*
X11265Y-7918D02*
X11659Y-7656D01*
X11265Y-7656D02*
X11659Y-7918D01*
X11265Y-7543D02*
X11265Y-7299D01*
X11415Y-7431D01*
X11415Y-7374D01*
X11434Y-7337D01*
X11453Y-7318D01*
X11490Y-7299D01*
X11584Y-7299D01*
X11621Y-7318D01*
X11640Y-7337D01*
X11659Y-7374D01*
X11659Y-7487D01*
X11640Y-7524D01*
X11621Y-7543D01*
X10998Y-9044D02*
X11017Y-8988D01*
X11017Y-8894D01*
X10998Y-8857D01*
X10980Y-8838D01*
X10942Y-8819D01*
X10905Y-8819D01*
X10867Y-8838D01*
X10848Y-8857D01*
X10830Y-8894D01*
X10811Y-8969D01*
X10792Y-9007D01*
X10773Y-9026D01*
X10736Y-9044D01*
X10698Y-9044D01*
X10661Y-9026D01*
X10642Y-9007D01*
X10623Y-8969D01*
X10623Y-8876D01*
X10642Y-8819D01*
X11017Y-8651D02*
X10623Y-8651D01*
X11017Y-8426D01*
X10623Y-8426D01*
X10623Y-8276D02*
X10623Y-8013D01*
X11017Y-8182D01*
X10755Y-7694D02*
X11017Y-7694D01*
X10605Y-7788D02*
X10886Y-7882D01*
X10886Y-7638D01*
X11017Y-7301D02*
X11017Y-7488D01*
X10623Y-7488D01*
X10623Y-7226D02*
X11017Y-7095D01*
X10623Y-6963D01*
X10980Y-6607D02*
X10998Y-6626D01*
X11017Y-6682D01*
X11017Y-6720D01*
X10998Y-6776D01*
X10961Y-6813D01*
X10923Y-6832D01*
X10848Y-6851D01*
X10792Y-6851D01*
X10717Y-6832D01*
X10680Y-6813D01*
X10642Y-6776D01*
X10623Y-6720D01*
X10623Y-6682D01*
X10642Y-6626D01*
X10661Y-6607D01*
X10623Y-6476D02*
X10623Y-6232D01*
X10773Y-6363D01*
X10773Y-6307D01*
X10792Y-6270D01*
X10811Y-6251D01*
X10848Y-6232D01*
X10942Y-6232D01*
X10980Y-6251D01*
X10998Y-6270D01*
X11017Y-6307D01*
X11017Y-6420D01*
X10998Y-6457D01*
X10980Y-6476D01*
X10642Y-5857D02*
X10623Y-5895D01*
X10623Y-5951D01*
X10642Y-6007D01*
X10680Y-6045D01*
X10717Y-6063D01*
X10792Y-6082D01*
X10848Y-6082D01*
X10923Y-6063D01*
X10961Y-6045D01*
X10998Y-6007D01*
X11017Y-5951D01*
X11017Y-5913D01*
X10998Y-5857D01*
X10980Y-5838D01*
X10848Y-5838D01*
X10848Y-5913D01*
X10623Y-5595D02*
X10623Y-5557D01*
X10642Y-5520D01*
X10661Y-5501D01*
X10698Y-5482D01*
X10773Y-5464D01*
X10867Y-5464D01*
X10942Y-5482D01*
X10980Y-5501D01*
X10998Y-5520D01*
X11017Y-5557D01*
X11017Y-5595D01*
X10998Y-5632D01*
X10980Y-5651D01*
X10942Y-5670D01*
X10867Y-5688D01*
X10773Y-5688D01*
X10698Y-5670D01*
X10661Y-5651D01*
X10642Y-5632D01*
X10623Y-5595D01*
X10755Y-5126D02*
X11017Y-5126D01*
X10605Y-5220D02*
X10886Y-5314D01*
X10886Y-5070D01*
X7486Y-8618D02*
X7092Y-8618D01*
X7279Y-8618D02*
X7279Y-8393D01*
X7486Y-8393D02*
X7092Y-8393D01*
X7279Y-8205D02*
X7279Y-8074D01*
X7486Y-8018D02*
X7486Y-8205D01*
X7092Y-8205D01*
X7092Y-8018D01*
X7092Y-7887D02*
X7486Y-7624D01*
X7092Y-7624D02*
X7486Y-7887D01*
X7129Y-7493D02*
X7111Y-7474D01*
X7092Y-7437D01*
X7092Y-7343D01*
X7111Y-7305D01*
X7129Y-7287D01*
X7167Y-7268D01*
X7204Y-7268D01*
X7261Y-7287D01*
X7486Y-7512D01*
X7486Y-7268D01*
X6735Y-9064D02*
X6753Y-9008D01*
X6753Y-8914D01*
X6735Y-8877D01*
X6716Y-8858D01*
X6678Y-8839D01*
X6641Y-8839D01*
X6603Y-8858D01*
X6585Y-8877D01*
X6566Y-8914D01*
X6547Y-8989D01*
X6528Y-9026D01*
X6510Y-9045D01*
X6472Y-9064D01*
X6435Y-9064D01*
X6397Y-9045D01*
X6378Y-9026D01*
X6360Y-8989D01*
X6360Y-8895D01*
X6378Y-8839D01*
X6753Y-8670D02*
X6360Y-8670D01*
X6753Y-8445D01*
X6360Y-8445D01*
X6360Y-8295D02*
X6360Y-8033D01*
X6753Y-8202D01*
X6491Y-7714D02*
X6753Y-7714D01*
X6341Y-7808D02*
X6622Y-7902D01*
X6622Y-7658D01*
X6753Y-7320D02*
X6753Y-7508D01*
X6360Y-7508D01*
X6360Y-7245D02*
X6753Y-7114D01*
X6360Y-6983D01*
X6716Y-6627D02*
X6735Y-6646D01*
X6753Y-6702D01*
X6753Y-6739D01*
X6735Y-6796D01*
X6697Y-6833D01*
X6660Y-6852D01*
X6585Y-6871D01*
X6528Y-6871D01*
X6453Y-6852D01*
X6416Y-6833D01*
X6378Y-6796D01*
X6360Y-6739D01*
X6360Y-6702D01*
X6378Y-6646D01*
X6397Y-6627D01*
X6360Y-6496D02*
X6360Y-6252D01*
X6510Y-6383D01*
X6510Y-6327D01*
X6528Y-6289D01*
X6547Y-6271D01*
X6585Y-6252D01*
X6678Y-6252D01*
X6716Y-6271D01*
X6735Y-6289D01*
X6753Y-6327D01*
X6753Y-6439D01*
X6735Y-6477D01*
X6716Y-6496D01*
X6378Y-5877D02*
X6360Y-5914D01*
X6360Y-5971D01*
X6378Y-6027D01*
X6416Y-6064D01*
X6453Y-6083D01*
X6528Y-6102D01*
X6585Y-6102D01*
X6660Y-6083D01*
X6697Y-6064D01*
X6735Y-6027D01*
X6753Y-5971D01*
X6753Y-5933D01*
X6735Y-5877D01*
X6716Y-5858D01*
X6585Y-5858D01*
X6585Y-5933D01*
X6360Y-5614D02*
X6360Y-5577D01*
X6378Y-5539D01*
X6397Y-5521D01*
X6435Y-5502D01*
X6510Y-5483D01*
X6603Y-5483D01*
X6678Y-5502D01*
X6716Y-5521D01*
X6735Y-5539D01*
X6753Y-5577D01*
X6753Y-5614D01*
X6735Y-5652D01*
X6716Y-5671D01*
X6678Y-5689D01*
X6603Y-5708D01*
X6510Y-5708D01*
X6435Y-5689D01*
X6397Y-5671D01*
X6378Y-5652D01*
X6360Y-5614D01*
X6491Y-5146D02*
X6753Y-5146D01*
X6341Y-5239D02*
X6622Y-5333D01*
X6622Y-5089D01*
X3541Y-8673D02*
X3147Y-8673D01*
X3335Y-8673D02*
X3335Y-8448D01*
X3541Y-8448D02*
X3147Y-8448D01*
X3335Y-8260D02*
X3335Y-8129D01*
X3541Y-8073D02*
X3541Y-8260D01*
X3147Y-8260D01*
X3147Y-8073D01*
X3147Y-7942D02*
X3541Y-7679D01*
X3147Y-7679D02*
X3541Y-7942D01*
X3541Y-7323D02*
X3541Y-7548D01*
X3541Y-7436D02*
X3147Y-7436D01*
X3203Y-7473D01*
X3241Y-7511D01*
X3260Y-7548D01*
X2778Y-8966D02*
X2797Y-8909D01*
X2797Y-8816D01*
X2778Y-8778D01*
X2759Y-8759D01*
X2722Y-8741D01*
X2684Y-8741D01*
X2647Y-8759D01*
X2628Y-8778D01*
X2609Y-8816D01*
X2590Y-8891D01*
X2572Y-8928D01*
X2553Y-8947D01*
X2515Y-8966D01*
X2478Y-8966D01*
X2440Y-8947D01*
X2422Y-8928D01*
X2403Y-8891D01*
X2403Y-8797D01*
X2422Y-8741D01*
X2797Y-8572D02*
X2403Y-8572D01*
X2797Y-8347D01*
X2403Y-8347D01*
X2403Y-8197D02*
X2403Y-7934D01*
X2797Y-8103D01*
X2534Y-7616D02*
X2797Y-7616D01*
X2384Y-7709D02*
X2665Y-7803D01*
X2665Y-7559D01*
X2797Y-7222D02*
X2797Y-7410D01*
X2403Y-7410D01*
X2403Y-7147D02*
X2797Y-7016D01*
X2403Y-6885D01*
X2759Y-6528D02*
X2778Y-6547D01*
X2797Y-6603D01*
X2797Y-6641D01*
X2778Y-6697D01*
X2740Y-6735D01*
X2703Y-6753D01*
X2628Y-6772D01*
X2572Y-6772D01*
X2497Y-6753D01*
X2459Y-6735D01*
X2422Y-6697D01*
X2403Y-6641D01*
X2403Y-6603D01*
X2422Y-6547D01*
X2440Y-6528D01*
X2403Y-6397D02*
X2403Y-6153D01*
X2553Y-6285D01*
X2553Y-6228D01*
X2572Y-6191D01*
X2590Y-6172D01*
X2628Y-6153D01*
X2722Y-6153D01*
X2759Y-6172D01*
X2778Y-6191D01*
X2797Y-6228D01*
X2797Y-6341D01*
X2778Y-6378D01*
X2759Y-6397D01*
X2422Y-5778D02*
X2403Y-5816D01*
X2403Y-5872D01*
X2422Y-5928D01*
X2459Y-5966D01*
X2497Y-5985D01*
X2572Y-6003D01*
X2628Y-6003D01*
X2703Y-5985D01*
X2740Y-5966D01*
X2778Y-5928D01*
X2797Y-5872D01*
X2797Y-5835D01*
X2778Y-5778D01*
X2759Y-5760D01*
X2628Y-5760D01*
X2628Y-5835D01*
X2403Y-5516D02*
X2403Y-5479D01*
X2422Y-5441D01*
X2440Y-5422D01*
X2478Y-5404D01*
X2553Y-5385D01*
X2647Y-5385D01*
X2722Y-5404D01*
X2759Y-5422D01*
X2778Y-5441D01*
X2797Y-5479D01*
X2797Y-5516D01*
X2778Y-5553D01*
X2759Y-5572D01*
X2722Y-5591D01*
X2647Y-5610D01*
X2553Y-5610D01*
X2478Y-5591D01*
X2440Y-5572D01*
X2422Y-5553D01*
X2403Y-5516D01*
X2534Y-5047D02*
X2797Y-5047D01*
X2384Y-5141D02*
X2665Y-5235D01*
X2665Y-4991D01*
%LPC*%
G54D21*
X536Y-1507D03*
G54D22*
X536Y-507D03*
X1536Y-1507D03*
X1536Y-507D03*
X2536Y-1507D03*
X2536Y-507D03*
X3536Y-1507D03*
X3536Y-507D03*
X4536Y-1507D03*
X4536Y-507D03*
X5536Y-1507D03*
X5536Y-507D03*
X6536Y-1507D03*
X6536Y-507D03*
X7536Y-1507D03*
X7536Y-507D03*
X8536Y-1507D03*
X8536Y-507D03*
X9536Y-1507D03*
X9536Y-507D03*
X10536Y-1507D03*
X10536Y-507D03*
X11536Y-1507D03*
X11536Y-507D03*
X12536Y-1507D03*
X12536Y-507D03*
G54D23*
X-16163Y-13707D03*
G54D22*
X-16163Y-12707D03*
X-16163Y-11707D03*
X-16163Y-10707D03*
X-16163Y-9707D03*
X-16163Y-8707D03*
X-16163Y-7707D03*
X-16163Y-6707D03*
X-19163Y-6707D03*
X-19163Y-7707D03*
X-19163Y-8707D03*
X-19163Y-9707D03*
X-19163Y-10707D03*
X-19163Y-11707D03*
X-19163Y-12707D03*
X-19163Y-13707D03*
G54D23*
X-8163Y-13707D03*
G54D22*
X-8163Y-12707D03*
X-8163Y-11707D03*
X-8163Y-10707D03*
X-8163Y-9707D03*
X-8163Y-8707D03*
X-8163Y-7707D03*
X-8163Y-6707D03*
X-11163Y-6707D03*
X-11163Y-7707D03*
X-11163Y-8707D03*
X-11163Y-9707D03*
X-11163Y-10707D03*
X-11163Y-11707D03*
X-11163Y-12707D03*
X-11163Y-13707D03*
G54D24*
X1544Y-2832D03*
X1544Y-3582D03*
X10528Y-2792D03*
X10528Y-3542D03*
G54D25*
X-12838Y-7407D03*
X-12088Y-7407D03*
G54D24*
X7536Y-2832D03*
X7536Y-3582D03*
G54D25*
X-6488Y-13007D03*
X-7238Y-13007D03*
G54D24*
X6536Y-2832D03*
X6536Y-3582D03*
X11528Y-2792D03*
X11528Y-3542D03*
X5536Y-2832D03*
X5536Y-3582D03*
G54D25*
X-12838Y-13007D03*
X-12088Y-13007D03*
X-6488Y-7407D03*
X-7238Y-7407D03*
X-20838Y-7407D03*
X-20088Y-7407D03*
X-20838Y-13007D03*
X-20088Y-13007D03*
G54D24*
X3544Y-2832D03*
X3544Y-3582D03*
G54D25*
X-14488Y-13007D03*
X-15238Y-13007D03*
X-14488Y-7407D03*
X-15238Y-7407D03*
G54D24*
X2544Y-2832D03*
X2544Y-3582D03*
X9528Y-2792D03*
X9528Y-3542D03*
X2401Y-14388D03*
X2401Y-15138D03*
X4409Y-14388D03*
X4409Y-15138D03*
X12401Y-14388D03*
X12401Y-15138D03*
X11259Y-14388D03*
X11259Y-15138D03*
X6417Y-14388D03*
X6417Y-15138D03*
X7480Y-14388D03*
X7480Y-15138D03*
X-3582Y-14388D03*
X-3582Y-15138D03*
X-1614Y-14388D03*
X-1614Y-15138D03*
X393Y-14388D03*
X393Y-15138D03*
G54D26*
X-20863Y-9657D03*
X-20863Y-8357D03*
X-20863Y-10757D03*
X-20863Y-12057D03*
X-6463Y-10757D03*
X-6463Y-12057D03*
X-14463Y-10757D03*
X-14463Y-12057D03*
X-14463Y-9657D03*
X-14463Y-8357D03*
X-6463Y-9657D03*
X-6463Y-8357D03*
X-12863Y-10757D03*
X-12863Y-12057D03*
X-12863Y-9657D03*
X-12863Y-8357D03*
G54D27*
X-22149Y-17716D03*
G54D28*
X-24149Y-17716D03*
G54D27*
X-18463Y-1237D03*
G54D28*
X-20463Y-1237D03*
G54D27*
X-6463Y-1237D03*
G54D28*
X-8463Y-1237D03*
G54D27*
X-10463Y-1237D03*
G54D28*
X-12463Y-1237D03*
G54D27*
X-22463Y-1237D03*
G54D28*
X-24463Y-1237D03*
X-12708Y-17716D03*
X-10708Y-17716D03*
G54D27*
X-14708Y-17716D03*
G54D28*
X-8708Y-17716D03*
X-6708Y-17716D03*
G54D27*
X-18716Y-17716D03*
G54D28*
X-16716Y-17716D03*
G54D27*
X-23937Y-12464D03*
G54D28*
X-23937Y-14464D03*
G54D27*
X-23937Y-8448D03*
G54D28*
X-23937Y-10448D03*
G54D27*
X-23937Y-4433D03*
G54D28*
X-23937Y-6433D03*
X10408Y-17736D03*
X8408Y-17736D03*
G54D27*
X12408Y-17736D03*
G54D28*
X6408Y-17736D03*
X4408Y-17736D03*
G54D27*
X2408Y-17736D03*
G54D28*
X408Y-17736D03*
G54D27*
X-1591Y-17736D03*
G54D28*
X-3591Y-17736D03*
G54D27*
X-2463Y-1237D03*
G54D28*
X-4463Y-1237D03*
G54D27*
X-14463Y-1237D03*
G54D28*
X-16463Y-1237D03*
G54D29*
X9409Y-14566D03*
G54D30*
X10141Y-6066D03*
X10141Y-6322D03*
X10141Y-6578D03*
X10141Y-6834D03*
X11480Y-6834D03*
X11480Y-6578D03*
X11480Y-6322D03*
X11480Y-6066D03*
X5881Y-6082D03*
X5881Y-6338D03*
X5881Y-6594D03*
X5881Y-6850D03*
X7220Y-6850D03*
X7220Y-6594D03*
X7220Y-6338D03*
X7220Y-6082D03*
X1937Y-6082D03*
X1937Y-6338D03*
X1937Y-6594D03*
X1937Y-6850D03*
X3275Y-6850D03*
X3275Y-6594D03*
X3275Y-6338D03*
X3275Y-6082D03*
M02*
